<svg xmlns="http://www.w3.org/2000/svg" xmlns:xlink="http://www.w3.org/1999/xlink" width="687" zoomAndPan="magnify" viewBox="0 0 515.25 248.999984" height="332" preserveAspectRatio="xMidYMid meet" version="1.0"><defs><g/><clipPath id="79e58d5719"><path d="M 178 0.179688 L 336 0.179688 L 336 103 L 178 103 Z M 178 0.179688 " clip-rule="nonzero"/></clipPath><clipPath id="e63d26ca0a"><path d="M 172.183594 41 L 342.1875 41 L 342.1875 119.257812 L 172.183594 119.257812 Z M 172.183594 41 " clip-rule="nonzero"/></clipPath><clipPath id="4b72bd1747"><rect x="0" width="486" y="0" height="89"/></clipPath></defs><g clip-path="url(#79e58d5719)"><path fill="#ffde59" d="M 257.183594 0.257812 C 214.003906 0.257812 178.996094 35.265625 178.996094 78.445312 C 178.996094 86.875 180.335938 94.984375 182.800781 102.589844 L 189.132812 96.261719 C 187.648438 90.570312 186.855469 84.601562 186.855469 78.445312 C 186.855469 39.605469 218.34375 8.117188 257.183594 8.117188 C 296.027344 8.117188 327.515625 39.605469 327.515625 78.445312 C 327.515625 81.6875 327.289062 84.875 326.867188 88 L 333.042969 97.460938 C 334.5625 91.375 335.375 85.007812 335.375 78.445312 C 335.375 35.265625 300.367188 0.257812 257.183594 0.257812 " fill-opacity="1" fill-rule="nonzero"/></g><g clip-path="url(#e63d26ca0a)"><path fill="#ffde59" d="M 238.386719 106.921875 L 242.394531 96.222656 L 281.472656 116.492188 L 250.667969 79.378906 L 291.765625 100.363281 L 283.851562 90.511719 L 297.933594 83.332031 L 342.1875 119.109375 L 291.472656 41.402344 L 268.613281 69.46875 L 247.183594 55.894531 L 227.183594 80.257812 L 217.785156 73.507812 L 172.183594 119.109375 L 206.125 112.117188 L 213.636719 103.371094 L 245.898438 119.109375 L 238.386719 106.921875 " fill-opacity="1" fill-rule="nonzero"/></g><g transform="matrix(1, 0, 0, 1, 15, 122)"><g clip-path="url(#4b72bd1747)"><g fill="#ffffff" fill-opacity="1"><g transform="translate(0.6924, 65.686507)"><g><path d="M 1.375 -12.671875 L 11.015625 -12.671875 C 11.492188 -10.992188 12.148438 -9.769531 12.984375 -9 C 13.828125 -8.226562 14.945312 -7.84375 16.34375 -7.84375 C 17.582031 -7.84375 18.609375 -8.210938 19.421875 -8.953125 C 20.242188 -9.703125 20.65625 -10.628906 20.65625 -11.734375 C 20.65625 -13.023438 20.054688 -14.054688 18.859375 -14.828125 C 18.085938 -15.304688 16.429688 -15.976562 13.890625 -16.84375 C 9.910156 -18.1875 7.066406 -19.753906 5.359375 -21.546875 C 3.660156 -23.347656 2.8125 -25.710938 2.8125 -28.640625 C 2.8125 -32.046875 4.09375 -34.925781 6.65625 -37.28125 C 9.226562 -39.632812 12.359375 -40.8125 16.046875 -40.8125 C 20.222656 -40.8125 23.628906 -39.347656 26.265625 -36.421875 C 28.046875 -34.453125 29.007812 -31.929688 29.15625 -28.859375 L 19.796875 -28.859375 C 19.359375 -30.972656 18.109375 -32.03125 16.046875 -32.03125 C 14.992188 -32.03125 14.117188 -31.703125 13.421875 -31.046875 C 12.722656 -30.398438 12.375 -29.597656 12.375 -28.640625 C 12.375 -27.441406 13.023438 -26.554688 14.328125 -25.984375 C 14.953125 -25.691406 16.554688 -25.140625 19.140625 -24.328125 C 22.691406 -23.222656 25.140625 -22.09375 26.484375 -20.9375 C 28.984375 -18.976562 30.234375 -16.222656 30.234375 -12.671875 C 30.234375 -8.878906 28.851562 -5.660156 26.09375 -3.015625 C 23.332031 -0.378906 19.960938 0.9375 15.984375 0.9375 C 13.578125 0.9375 11.304688 0.445312 9.171875 -0.53125 C 7.035156 -1.519531 5.320312 -2.878906 4.03125 -4.609375 C 2.632812 -6.472656 1.75 -9.160156 1.375 -12.671875 Z M 1.375 -12.671875 "/></g></g></g><g fill="#ffffff" fill-opacity="1"><g transform="translate(32.3624, 65.686507)"><g><path d="M 3.890625 13.3125 L 3.890625 -39.875 L 12.671875 -39.875 L 12.671875 -35.203125 C 15.878906 -38.941406 20.242188 -40.8125 25.765625 -40.8125 C 31.523438 -40.8125 36.273438 -38.851562 40.015625 -34.9375 C 43.753906 -31.03125 45.625 -26.078125 45.625 -20.078125 C 45.625 -14.035156 43.738281 -9.019531 39.96875 -5.03125 C 36.207031 -1.050781 31.445312 0.9375 25.6875 0.9375 C 20.988281 0.9375 16.910156 -0.625 13.453125 -3.75 L 13.453125 13.3125 Z M 24.546875 -32.03125 C 21.234375 -32.03125 18.460938 -30.878906 16.234375 -28.578125 C 14.003906 -26.273438 12.890625 -23.421875 12.890625 -20.015625 C 12.890625 -16.503906 14.003906 -13.597656 16.234375 -11.296875 C 18.460938 -8.992188 21.28125 -7.84375 24.6875 -7.84375 C 27.851562 -7.84375 30.523438 -9.003906 32.703125 -11.328125 C 34.890625 -13.660156 35.984375 -16.503906 35.984375 -19.859375 C 35.984375 -23.316406 34.890625 -26.207031 32.703125 -28.53125 C 30.523438 -30.863281 27.804688 -32.03125 24.546875 -32.03125 Z M 24.546875 -32.03125 "/></g></g></g><g fill="#ffffff" fill-opacity="1"><g transform="translate(79.867412, 65.686507)"><g><path d="M 3.890625 0 L 3.890625 -39.875 L 12.671875 -39.875 L 12.671875 -35.984375 C 13.910156 -37.804688 15.140625 -39.066406 16.359375 -39.765625 C 17.585938 -40.460938 19.234375 -40.8125 21.296875 -40.8125 L 22.03125 -40.8125 L 22.03125 -31.59375 C 16.3125 -31.445312 13.453125 -28.304688 13.453125 -22.171875 L 13.453125 0 Z M 3.890625 0 "/></g></g></g><g fill="#ffffff" fill-opacity="1"><g transform="translate(102.900143, 65.686507)"><g><path d="M 3.890625 0 L 3.890625 -39.875 L 13.453125 -39.875 L 13.453125 0 Z M 3.890625 -44.1875 L 3.890625 -53.1875 L 13.453125 -53.1875 L 13.453125 -44.1875 Z M 3.890625 -44.1875 "/></g></g></g><g fill="#ffffff" fill-opacity="1"><g transform="translate(120.174704, 65.686507)"><g><path d="M 3.890625 0 L 3.890625 -39.875 L 12.734375 -39.875 L 12.734375 -36.0625 C 16.046875 -39.226562 19.789062 -40.8125 23.96875 -40.8125 C 29.625 -40.8125 33.773438 -38.890625 36.421875 -35.046875 C 37.472656 -33.515625 38.210938 -31.738281 38.640625 -29.71875 C 39.078125 -27.707031 39.296875 -24.925781 39.296875 -21.375 L 39.296875 0 L 29.71875 0 L 29.71875 -19.5 C 29.71875 -24.488281 29.097656 -27.828125 27.859375 -29.515625 C 26.554688 -31.191406 24.632812 -32.03125 22.09375 -32.03125 C 18.925781 -32.03125 16.578125 -30.804688 15.046875 -28.359375 C 13.984375 -26.679688 13.453125 -23.488281 13.453125 -18.78125 L 13.453125 0 Z M 3.890625 0 "/></g></g></g><g fill="#ffffff" fill-opacity="1"><g transform="translate(163.361071, 65.686507)"><g><path d="M 34.84375 -39.875 L 43.984375 -39.875 L 43.984375 -7.5625 C 43.984375 -0.257812 42.640625 5.140625 39.953125 8.640625 C 36.109375 13.484375 30.5625 15.90625 23.3125 15.90625 C 18.425781 15.90625 14.191406 14.789062 10.609375 12.5625 C 7.035156 10.332031 4.4375 7.222656 2.8125 3.234375 L 13.671875 3.234375 C 15.066406 4.773438 16.519531 5.867188 18.03125 6.515625 C 19.539062 7.160156 21.425781 7.484375 23.6875 7.484375 C 30.78125 7.484375 34.5 3.238281 34.84375 -5.25 C 32.96875 -3.039062 31.007812 -1.457031 28.96875 -0.5 C 26.925781 0.457031 24.515625 0.9375 21.734375 0.9375 C 16.023438 0.9375 11.332031 -1.050781 7.65625 -5.03125 C 3.988281 -9.019531 2.15625 -14.082031 2.15625 -20.21875 C 2.15625 -26.125 4.015625 -31.03125 7.734375 -34.9375 C 11.453125 -38.851562 16.144531 -40.8125 21.8125 -40.8125 C 27.570312 -40.8125 31.914062 -38.820312 34.84375 -34.84375 Z M 22.890625 -32.03125 C 19.523438 -32.03125 16.832031 -30.910156 14.8125 -28.671875 C 12.800781 -26.441406 11.796875 -23.484375 11.796875 -19.796875 C 11.796875 -16.148438 12.816406 -13.242188 14.859375 -11.078125 C 16.898438 -8.921875 19.625 -7.84375 23.03125 -7.84375 C 26.4375 -7.84375 29.179688 -8.929688 31.265625 -11.109375 C 33.359375 -13.296875 34.40625 -16.191406 34.40625 -19.796875 C 34.40625 -23.441406 33.335938 -26.390625 31.203125 -28.640625 C 29.066406 -30.898438 26.296875 -32.03125 22.890625 -32.03125 Z M 22.890625 -32.03125 "/></g></g></g><g fill="#ffffff" fill-opacity="1"><g transform="translate(210.866082, 65.686507)"><g><path d="M 1.796875 -26.625 L 26.984375 -26.625 L 26.984375 -16.546875 L 1.796875 -16.546875 Z M 1.796875 -26.625 "/></g></g></g><g fill="#ffffff" fill-opacity="1"><g transform="translate(238.937223, 65.686507)"><g><path d="M 23.25 -40.8125 C 29.25 -40.8125 34.296875 -38.769531 38.390625 -34.6875 C 42.492188 -30.613281 44.546875 -25.601562 44.546875 -19.65625 C 44.546875 -14.039062 42.457031 -9.203125 38.28125 -5.140625 C 34.113281 -1.085938 29.125 0.9375 23.3125 0.9375 C 17.457031 0.9375 12.46875 -1.097656 8.34375 -5.171875 C 4.21875 -9.253906 2.15625 -14.175781 2.15625 -19.9375 C 2.15625 -25.644531 4.21875 -30.550781 8.34375 -34.65625 C 12.46875 -38.757812 17.4375 -40.8125 23.25 -40.8125 Z M 23.3125 -32.03125 C 20.195312 -32.03125 17.5 -30.851562 15.21875 -28.5 C 12.9375 -26.144531 11.796875 -23.335938 11.796875 -20.078125 C 11.796875 -16.671875 12.921875 -13.78125 15.171875 -11.40625 C 17.429688 -9.03125 20.171875 -7.84375 23.390625 -7.84375 C 26.554688 -7.84375 29.265625 -9.019531 31.515625 -11.375 C 33.773438 -13.726562 34.90625 -16.582031 34.90625 -19.9375 C 34.90625 -23.25 33.773438 -26.09375 31.515625 -28.46875 C 29.265625 -30.84375 26.53125 -32.03125 23.3125 -32.03125 Z M 23.3125 -32.03125 "/></g></g></g><g fill="#ffffff" fill-opacity="1"><g transform="translate(285.002687, 65.686507)"><g><path d="M 39.375 -39.875 L 39.375 0 L 30.515625 0 L 30.515625 -3.8125 C 28.742188 -2.039062 26.992188 -0.804688 25.265625 -0.109375 C 23.535156 0.585938 21.472656 0.9375 19.078125 0.9375 C 13.703125 0.9375 9.644531 -1.03125 6.90625 -4.96875 C 5.800781 -6.644531 5.019531 -8.476562 4.5625 -10.46875 C 4.113281 -12.457031 3.890625 -15.132812 3.890625 -18.5 L 3.890625 -39.875 L 13.453125 -39.875 L 13.453125 -20.375 C 13.453125 -15.332031 14.101562 -11.992188 15.40625 -10.359375 C 16.65625 -8.679688 18.523438 -7.84375 21.015625 -7.84375 C 24.421875 -7.84375 26.84375 -9.066406 28.28125 -11.515625 C 29.289062 -13.046875 29.796875 -16.238281 29.796875 -21.09375 L 29.796875 -39.875 Z M 39.375 -39.875 "/></g></g></g><g fill="#ffffff" fill-opacity="1"><g transform="translate(328.189053, 65.686507)"><g><path d="M 5.328125 0 L 5.328125 -31.171875 L 0.640625 -31.171875 L 0.640625 -39.875 L 5.328125 -39.875 L 5.328125 -53.1875 L 14.90625 -53.1875 L 14.90625 -39.875 L 20.65625 -39.875 L 20.65625 -31.171875 L 14.90625 -31.171875 L 14.90625 0 Z M 5.328125 0 "/></g></g></g><g fill="#ffffff" fill-opacity="1"><g transform="translate(349.782236, 65.686507)"><g><path d="M 3.890625 0 L 3.890625 -53.1875 L 13.453125 -53.1875 L 13.453125 -36.203125 C 15.273438 -38.023438 17.144531 -39.332031 19.0625 -40.125 C 20.988281 -40.914062 23.25 -41.3125 25.84375 -41.3125 C 31.550781 -41.3125 36.320312 -39.296875 40.15625 -35.265625 C 44 -31.234375 45.921875 -26.21875 45.921875 -20.21875 C 45.921875 -14.800781 44.359375 -10.078125 41.234375 -6.046875 C 37.585938 -1.390625 32.671875 0.9375 26.484375 0.9375 C 23.515625 0.9375 20.984375 0.484375 18.890625 -0.421875 C 16.804688 -1.335938 14.734375 -2.898438 12.671875 -5.109375 L 12.671875 0 Z M 24.46875 -32.53125 C 21.113281 -32.53125 18.34375 -31.378906 16.15625 -29.078125 C 13.976562 -26.773438 12.890625 -23.820312 12.890625 -20.21875 C 12.890625 -16.570312 13.988281 -13.597656 16.1875 -11.296875 C 18.394531 -8.992188 21.226562 -7.84375 24.6875 -7.84375 C 28.09375 -7.84375 30.875 -8.984375 33.03125 -11.265625 C 35.195312 -13.546875 36.28125 -16.507812 36.28125 -20.15625 C 36.28125 -23.707031 35.160156 -26.65625 32.921875 -29 C 30.691406 -31.351562 27.875 -32.53125 24.46875 -32.53125 Z M 24.46875 -32.53125 "/></g></g></g><g fill="#ffffff" fill-opacity="1"><g transform="translate(397.287248, 65.686507)"><g><path d="M 23.25 -40.8125 C 29.25 -40.8125 34.296875 -38.769531 38.390625 -34.6875 C 42.492188 -30.613281 44.546875 -25.601562 44.546875 -19.65625 C 44.546875 -14.039062 42.457031 -9.203125 38.28125 -5.140625 C 34.113281 -1.085938 29.125 0.9375 23.3125 0.9375 C 17.457031 0.9375 12.46875 -1.097656 8.34375 -5.171875 C 4.21875 -9.253906 2.15625 -14.175781 2.15625 -19.9375 C 2.15625 -25.644531 4.21875 -30.550781 8.34375 -34.65625 C 12.46875 -38.757812 17.4375 -40.8125 23.25 -40.8125 Z M 23.3125 -32.03125 C 20.195312 -32.03125 17.5 -30.851562 15.21875 -28.5 C 12.9375 -26.144531 11.796875 -23.335938 11.796875 -20.078125 C 11.796875 -16.671875 12.921875 -13.78125 15.171875 -11.40625 C 17.429688 -9.03125 20.171875 -7.84375 23.390625 -7.84375 C 26.554688 -7.84375 29.265625 -9.019531 31.515625 -11.375 C 33.773438 -13.726562 34.90625 -16.582031 34.90625 -19.9375 C 34.90625 -23.25 33.773438 -26.09375 31.515625 -28.46875 C 29.265625 -30.84375 26.53125 -32.03125 23.3125 -32.03125 Z M 23.3125 -32.03125 "/></g></g></g><g fill="#ffffff" fill-opacity="1"><g transform="translate(443.352735, 65.686507)"><g><path d="M 0.078125 0 L 14.171875 -20.578125 L 1.9375 -39.875 L 12.734375 -39.875 L 19.9375 -27.859375 L 26.984375 -39.875 L 37.78125 -39.875 L 25.625 -20.578125 L 39.796875 0 L 28.28125 0 L 19.9375 -13.671875 L 11.59375 0 Z M 0.078125 0 "/></g></g></g></g></g><g fill="#ffffff" fill-opacity="1"><g transform="translate(136.618476, 234.660638)"><g><path d="M 1.46875 0 L 1.46875 -17.25 L 3.203125 -17.25 L 3.203125 -10.578125 C 4.335938 -12.234375 6.007812 -13.0625 8.21875 -13.0625 C 10.113281 -13.0625 11.707031 -12.421875 13 -11.140625 C 14.289062 -9.859375 14.9375 -8.273438 14.9375 -6.390625 C 14.9375 -4.484375 14.289062 -2.890625 13 -1.609375 C 11.71875 -0.335938 10.113281 0.296875 8.1875 0.296875 C 7.144531 0.296875 6.179688 0.0820312 5.296875 -0.34375 C 4.421875 -0.78125 3.722656 -1.394531 3.203125 -2.1875 L 3.203125 0 Z M 11.75 -10.03125 C 10.789062 -11 9.59375 -11.484375 8.15625 -11.484375 C 6.726562 -11.484375 5.523438 -10.992188 4.546875 -10.015625 C 3.566406 -9.046875 3.078125 -7.851562 3.078125 -6.4375 C 3.078125 -5.007812 3.566406 -3.796875 4.546875 -2.796875 C 5.546875 -1.785156 6.742188 -1.28125 8.140625 -1.28125 C 9.578125 -1.28125 10.773438 -1.773438 11.734375 -2.765625 C 12.703125 -3.753906 13.1875 -4.976562 13.1875 -6.4375 C 13.1875 -7.875 12.707031 -9.070312 11.75 -10.03125 Z M 11.75 -10.03125 "/></g></g></g><g fill="#ffffff" fill-opacity="1"><g transform="translate(152.535656, 234.660638)"><g><path d="M 12.71875 -12.765625 L 12.71875 0 L 10.984375 0 L 10.984375 -1.984375 C 10.160156 -0.460938 8.796875 0.296875 6.890625 0.296875 C 4.921875 0.296875 3.445312 -0.378906 2.46875 -1.734375 C 1.800781 -2.648438 1.46875 -4.03125 1.46875 -5.875 L 1.46875 -12.765625 L 3.203125 -12.765625 L 3.203125 -5.875 C 3.203125 -4.550781 3.398438 -3.554688 3.796875 -2.890625 C 4.097656 -2.378906 4.53125 -1.984375 5.09375 -1.703125 C 5.664062 -1.421875 6.3125 -1.28125 7.03125 -1.28125 C 8.394531 -1.28125 9.457031 -1.8125 10.21875 -2.875 C 10.726562 -3.632812 10.984375 -4.742188 10.984375 -6.203125 L 10.984375 -12.765625 Z M 12.71875 -12.765625 "/></g></g></g><g fill="#ffffff" fill-opacity="1"><g transform="translate(166.725758, 234.660638)"><g><path d="M 1.46875 0 L 1.46875 -12.765625 L 3.203125 -12.765625 L 3.203125 0 Z M 1.46875 -14.3125 L 1.46875 -17.25 L 3.203125 -17.25 L 3.203125 -14.3125 Z M 1.46875 -14.3125 "/></g></g></g><g fill="#ffffff" fill-opacity="1"><g transform="translate(171.393555, 234.660638)"><g><path d="M 1.46875 0 L 1.46875 -17.25 L 3.203125 -17.25 L 3.203125 0 Z M 1.46875 0 "/></g></g></g><g fill="#ffffff" fill-opacity="1"><g transform="translate(176.061351, 234.660638)"><g><path d="M 3.03125 0 L 3.03125 -11.203125 L 0.28125 -11.203125 L 0.28125 -12.765625 L 3.03125 -12.765625 L 3.03125 -17.25 L 4.765625 -17.25 L 4.765625 -12.765625 L 7.625 -12.765625 L 7.625 -11.203125 L 4.765625 -11.203125 L 4.765625 0 Z M 3.03125 0 "/></g></g></g><g fill="#ffffff" fill-opacity="1"><g transform="translate(183.973266, 234.660638)"><g/></g></g><g fill="#ffffff" fill-opacity="1"><g transform="translate(190.951614, 234.660638)"><g><path d="M 1.46875 0 L 1.46875 -17.25 L 3.203125 -17.25 L 3.203125 -10.578125 C 4.335938 -12.234375 6.007812 -13.0625 8.21875 -13.0625 C 10.113281 -13.0625 11.707031 -12.421875 13 -11.140625 C 14.289062 -9.859375 14.9375 -8.273438 14.9375 -6.390625 C 14.9375 -4.484375 14.289062 -2.890625 13 -1.609375 C 11.71875 -0.335938 10.113281 0.296875 8.1875 0.296875 C 7.144531 0.296875 6.179688 0.0820312 5.296875 -0.34375 C 4.421875 -0.78125 3.722656 -1.394531 3.203125 -2.1875 L 3.203125 0 Z M 11.75 -10.03125 C 10.789062 -11 9.59375 -11.484375 8.15625 -11.484375 C 6.726562 -11.484375 5.523438 -10.992188 4.546875 -10.015625 C 3.566406 -9.046875 3.078125 -7.851562 3.078125 -6.4375 C 3.078125 -5.007812 3.566406 -3.796875 4.546875 -2.796875 C 5.546875 -1.785156 6.742188 -1.28125 8.140625 -1.28125 C 9.578125 -1.28125 10.773438 -1.773438 11.734375 -2.765625 C 12.703125 -3.753906 13.1875 -4.976562 13.1875 -6.4375 C 13.1875 -7.875 12.707031 -9.070312 11.75 -10.03125 Z M 11.75 -10.03125 "/></g></g></g><g fill="#ffffff" fill-opacity="1"><g transform="translate(206.868794, 234.660638)"><g><path d="M 3.078125 4.484375 L 5.15625 -0.421875 L 0.203125 -12.765625 L 2.09375 -12.765625 L 6.140625 -2.59375 L 10.453125 -12.765625 L 12.296875 -12.765625 L 4.921875 4.484375 Z M 3.078125 4.484375 "/></g></g></g><g fill="#ffffff" fill-opacity="1"><g transform="translate(219.378488, 234.660638)"><g/></g></g><g fill="#ffffff" fill-opacity="1"><g transform="translate(226.35894, 234.660638)"><g><path d="M 1.265625 0 L 1.265625 -12.921875 L 4.125 -12.921875 L 4.125 -11.6875 C 5.195312 -12.71875 6.410156 -13.234375 7.765625 -13.234375 C 9.609375 -13.234375 10.957031 -12.609375 11.8125 -11.359375 C 12.15625 -10.867188 12.394531 -10.296875 12.53125 -9.640625 C 12.664062 -8.984375 12.734375 -8.082031 12.734375 -6.9375 L 12.734375 0 L 9.640625 0 L 9.640625 -6.328125 C 9.640625 -7.941406 9.4375 -9.019531 9.03125 -9.5625 C 8.613281 -10.113281 7.992188 -10.390625 7.171875 -10.390625 C 6.140625 -10.390625 5.375 -9.988281 4.875 -9.1875 C 4.53125 -8.644531 4.359375 -7.613281 4.359375 -6.09375 L 4.359375 0 Z M 1.265625 0 "/></g></g></g><g fill="#ffffff" fill-opacity="1"><g transform="translate(240.362329, 234.660638)"><g><path d="M 14.359375 -12.921875 L 14.359375 0 L 11.5 0 L 11.5 -1.6875 C 10.882812 -0.976562 10.238281 -0.46875 9.5625 -0.15625 C 8.894531 0.144531 8.113281 0.296875 7.21875 0.296875 C 5.332031 0.296875 3.773438 -0.332031 2.546875 -1.59375 C 1.316406 -2.863281 0.703125 -4.472656 0.703125 -6.421875 C 0.703125 -8.390625 1.316406 -10.015625 2.546875 -11.296875 C 3.785156 -12.585938 5.363281 -13.234375 7.28125 -13.234375 C 9.070312 -13.234375 10.476562 -12.554688 11.5 -11.203125 L 11.5 -12.921875 Z M 10.328125 -9.265625 C 9.617188 -10.015625 8.710938 -10.390625 7.609375 -10.390625 C 6.503906 -10.390625 5.597656 -10.007812 4.890625 -9.25 C 4.179688 -8.5 3.828125 -7.53125 3.828125 -6.34375 C 3.828125 -5.207031 4.179688 -4.289062 4.890625 -3.59375 C 5.597656 -2.894531 6.519531 -2.546875 7.65625 -2.546875 C 8.882812 -2.546875 9.828125 -2.929688 10.484375 -3.703125 C 11.097656 -4.441406 11.40625 -5.332031 11.40625 -6.375 C 11.40625 -7.550781 11.046875 -8.515625 10.328125 -9.265625 Z M 10.328125 -9.265625 "/></g></g></g><g fill="#ffffff" fill-opacity="1"><g transform="translate(255.76605, 234.660638)"><g><path d="M 1.265625 0 L 1.265625 -12.921875 L 4.109375 -12.921875 L 4.109375 -11.71875 C 4.554688 -12.257812 5.035156 -12.644531 5.546875 -12.875 C 6.066406 -13.113281 6.707031 -13.234375 7.46875 -13.234375 C 9.164062 -13.234375 10.429688 -12.5625 11.265625 -11.21875 C 12.273438 -12.5625 13.660156 -13.234375 15.421875 -13.234375 C 16.398438 -13.234375 17.273438 -13.050781 18.046875 -12.6875 C 18.816406 -12.332031 19.40625 -11.828125 19.8125 -11.171875 C 20.375 -10.285156 20.65625 -9.050781 20.65625 -7.46875 L 20.65625 0 L 17.546875 0 L 17.546875 -7.09375 C 17.546875 -8.3125 17.351562 -9.144531 16.96875 -9.59375 C 16.53125 -10.125 15.914062 -10.390625 15.125 -10.390625 C 14.09375 -10.390625 13.367188 -9.972656 12.953125 -9.140625 C 12.660156 -8.597656 12.515625 -7.675781 12.515625 -6.375 L 12.515625 0 L 9.40625 0 L 9.40625 -7.09375 C 9.40625 -8.28125 9.226562 -9.101562 8.875 -9.5625 C 8.414062 -10.113281 7.753906 -10.390625 6.890625 -10.390625 C 5.816406 -10.390625 5.082031 -9.945312 4.6875 -9.0625 C 4.46875 -8.5 4.359375 -7.601562 4.359375 -6.375 L 4.359375 0 Z M 1.265625 0 "/></g></g></g><g fill="#ffffff" fill-opacity="1"><g transform="translate(277.704689, 234.660638)"><g><path d="M 14.359375 -12.921875 L 14.359375 0 L 11.5 0 L 11.5 -1.6875 C 10.882812 -0.976562 10.238281 -0.46875 9.5625 -0.15625 C 8.894531 0.144531 8.113281 0.296875 7.21875 0.296875 C 5.332031 0.296875 3.773438 -0.332031 2.546875 -1.59375 C 1.316406 -2.863281 0.703125 -4.472656 0.703125 -6.421875 C 0.703125 -8.390625 1.316406 -10.015625 2.546875 -11.296875 C 3.785156 -12.585938 5.363281 -13.234375 7.28125 -13.234375 C 9.070312 -13.234375 10.476562 -12.554688 11.5 -11.203125 L 11.5 -12.921875 Z M 10.328125 -9.265625 C 9.617188 -10.015625 8.710938 -10.390625 7.609375 -10.390625 C 6.503906 -10.390625 5.597656 -10.007812 4.890625 -9.25 C 4.179688 -8.5 3.828125 -7.53125 3.828125 -6.34375 C 3.828125 -5.207031 4.179688 -4.289062 4.890625 -3.59375 C 5.597656 -2.894531 6.519531 -2.546875 7.65625 -2.546875 C 8.882812 -2.546875 9.828125 -2.929688 10.484375 -3.703125 C 11.097656 -4.441406 11.40625 -5.332031 11.40625 -6.375 C 11.40625 -7.550781 11.046875 -8.515625 10.328125 -9.265625 Z M 10.328125 -9.265625 "/></g></g></g><g fill="#ffffff" fill-opacity="1"><g transform="translate(293.108411, 234.660638)"><g><path d="M 0.4375 -4.109375 L 3.578125 -4.109375 C 3.722656 -3.566406 3.929688 -3.171875 4.203125 -2.921875 C 4.484375 -2.671875 4.847656 -2.546875 5.296875 -2.546875 C 5.703125 -2.546875 6.035156 -2.664062 6.296875 -2.90625 C 6.566406 -3.144531 6.703125 -3.441406 6.703125 -3.796875 C 6.703125 -4.222656 6.503906 -4.5625 6.109375 -4.8125 C 5.859375 -4.96875 5.320312 -5.179688 4.5 -5.453125 C 3.207031 -5.890625 2.285156 -6.398438 1.734375 -6.984375 C 1.179688 -7.566406 0.90625 -8.332031 0.90625 -9.28125 C 0.90625 -10.382812 1.320312 -11.316406 2.15625 -12.078125 C 2.988281 -12.847656 4.003906 -13.234375 5.203125 -13.234375 C 6.554688 -13.234375 7.660156 -12.757812 8.515625 -11.8125 C 9.085938 -11.175781 9.398438 -10.359375 9.453125 -9.359375 L 6.421875 -9.359375 C 6.273438 -10.046875 5.867188 -10.390625 5.203125 -10.390625 C 4.859375 -10.390625 4.570312 -10.28125 4.34375 -10.0625 C 4.125 -9.851562 4.015625 -9.59375 4.015625 -9.28125 C 4.015625 -8.894531 4.222656 -8.609375 4.640625 -8.421875 C 4.847656 -8.328125 5.367188 -8.148438 6.203125 -7.890625 C 7.359375 -7.523438 8.15625 -7.160156 8.59375 -6.796875 C 9.394531 -6.148438 9.796875 -5.253906 9.796875 -4.109375 C 9.796875 -2.878906 9.347656 -1.835938 8.453125 -0.984375 C 7.566406 -0.128906 6.476562 0.296875 5.1875 0.296875 C 4.40625 0.296875 3.664062 0.140625 2.96875 -0.171875 C 2.28125 -0.492188 1.726562 -0.9375 1.3125 -1.5 C 0.851562 -2.101562 0.5625 -2.972656 0.4375 -4.109375 Z M 0.4375 -4.109375 "/></g></g></g><g fill="#ffffff" fill-opacity="1"><g transform="translate(303.377558, 234.660638)"><g><path d="M 1.734375 0 L 1.734375 -10.109375 L 0.203125 -10.109375 L 0.203125 -12.921875 L 1.734375 -12.921875 L 1.734375 -17.25 L 4.828125 -17.25 L 4.828125 -12.921875 L 6.703125 -12.921875 L 6.703125 -10.109375 L 4.828125 -10.109375 L 4.828125 0 Z M 1.734375 0 "/></g></g></g><g fill="#ffffff" fill-opacity="1"><g transform="translate(310.379253, 234.660638)"><g><path d="M 14.359375 -12.921875 L 14.359375 0 L 11.5 0 L 11.5 -1.6875 C 10.882812 -0.976562 10.238281 -0.46875 9.5625 -0.15625 C 8.894531 0.144531 8.113281 0.296875 7.21875 0.296875 C 5.332031 0.296875 3.773438 -0.332031 2.546875 -1.59375 C 1.316406 -2.863281 0.703125 -4.472656 0.703125 -6.421875 C 0.703125 -8.390625 1.316406 -10.015625 2.546875 -11.296875 C 3.785156 -12.585938 5.363281 -13.234375 7.28125 -13.234375 C 9.070312 -13.234375 10.476562 -12.554688 11.5 -11.203125 L 11.5 -12.921875 Z M 10.328125 -9.265625 C 9.617188 -10.015625 8.710938 -10.390625 7.609375 -10.390625 C 6.503906 -10.390625 5.597656 -10.007812 4.890625 -9.25 C 4.179688 -8.5 3.828125 -7.53125 3.828125 -6.34375 C 3.828125 -5.207031 4.179688 -4.289062 4.890625 -3.59375 C 5.597656 -2.894531 6.519531 -2.546875 7.65625 -2.546875 C 8.882812 -2.546875 9.828125 -2.929688 10.484375 -3.703125 C 11.097656 -4.441406 11.40625 -5.332031 11.40625 -6.375 C 11.40625 -7.550781 11.046875 -8.515625 10.328125 -9.265625 Z M 10.328125 -9.265625 "/></g></g></g><g fill="#ffffff" fill-opacity="1"><g transform="translate(325.782974, 234.660638)"><g><path d="M 10.53125 -4.25 L 14.03125 -4.25 C 13.476562 -2.800781 12.644531 -1.679688 11.53125 -0.890625 C 10.425781 -0.0976562 9.117188 0.296875 7.609375 0.296875 C 5.691406 0.296875 4.0625 -0.359375 2.71875 -1.671875 C 1.375 -2.984375 0.703125 -4.582031 0.703125 -6.46875 C 0.703125 -8.363281 1.359375 -9.960938 2.671875 -11.265625 C 3.984375 -12.578125 5.597656 -13.234375 7.515625 -13.234375 C 9.378906 -13.234375 10.96875 -12.625 12.28125 -11.40625 C 13.050781 -10.695312 13.632812 -9.765625 14.03125 -8.609375 L 10.53125 -8.609375 C 9.90625 -9.796875 8.898438 -10.390625 7.515625 -10.390625 C 6.441406 -10.390625 5.554688 -10.019531 4.859375 -9.28125 C 4.171875 -8.550781 3.828125 -7.617188 3.828125 -6.484375 C 3.828125 -5.347656 4.179688 -4.40625 4.890625 -3.65625 C 5.609375 -2.914062 6.503906 -2.546875 7.578125 -2.546875 C 8.804688 -2.546875 9.789062 -3.113281 10.53125 -4.25 Z M 10.53125 -4.25 "/></g></g></g><g fill="#ffffff" fill-opacity="1"><g transform="translate(340.719918, 234.660638)"><g><path d="M 1.265625 0 L 1.265625 -17.25 L 4.359375 -17.25 L 4.359375 -6.84375 L 8.5 -12.921875 L 12.203125 -12.921875 L 7.578125 -6.609375 L 12.953125 0 L 8.78125 0 L 4.359375 -6.046875 L 4.359375 0 Z M 1.265625 0 "/></g></g></g><g fill="#ffffff" fill-opacity="1"><g transform="translate(354.2587, 234.660638)"><g><path d="M 0.78125 -1.796875 C 0.988281 -1.992188 1.238281 -2.09375 1.53125 -2.09375 C 1.832031 -2.09375 2.082031 -1.992188 2.28125 -1.796875 C 2.488281 -1.597656 2.59375 -1.347656 2.59375 -1.046875 C 2.59375 -0.753906 2.488281 -0.503906 2.28125 -0.296875 C 2.082031 -0.0976562 1.832031 0 1.53125 0 C 1.238281 0 0.988281 -0.0976562 0.78125 -0.296875 C 0.582031 -0.503906 0.484375 -0.753906 0.484375 -1.046875 C 0.484375 -1.347656 0.582031 -1.597656 0.78125 -1.796875 Z M 0.78125 -1.796875 "/></g></g></g><g fill="#ffffff" fill-opacity="1"><g transform="translate(357.782883, 234.660638)"><g><path d="M 1.46875 0 L 1.46875 -12.765625 L 3.203125 -12.765625 L 3.203125 0 Z M 1.46875 -14.3125 L 1.46875 -17.25 L 3.203125 -17.25 L 3.203125 -14.3125 Z M 1.46875 -14.3125 "/></g></g></g><g fill="#ffffff" fill-opacity="1"><g transform="translate(362.450679, 234.660638)"><g><path d="M 7.671875 -13.0625 C 9.585938 -13.0625 11.171875 -12.425781 12.421875 -11.15625 C 13.679688 -9.894531 14.3125 -8.289062 14.3125 -6.34375 C 14.3125 -4.4375 13.695312 -2.851562 12.46875 -1.59375 C 11.238281 -0.332031 9.6875 0.296875 7.8125 0.296875 C 5.84375 0.296875 4.210938 -0.335938 2.921875 -1.609375 C 1.628906 -2.890625 0.984375 -4.507812 0.984375 -6.46875 C 0.984375 -8.332031 1.625 -9.894531 2.90625 -11.15625 C 4.1875 -12.425781 5.773438 -13.0625 7.671875 -13.0625 Z M 7.671875 -11.484375 C 6.253906 -11.484375 5.078125 -11 4.140625 -10.03125 C 3.203125 -9.070312 2.734375 -7.867188 2.734375 -6.421875 C 2.734375 -4.921875 3.207031 -3.6875 4.15625 -2.71875 C 5.101562 -1.757812 6.304688 -1.28125 7.765625 -1.28125 C 9.148438 -1.28125 10.296875 -1.753906 11.203125 -2.703125 C 12.109375 -3.648438 12.5625 -4.859375 12.5625 -6.328125 C 12.5625 -7.804688 12.097656 -9.035156 11.171875 -10.015625 C 10.242188 -10.992188 9.078125 -11.484375 7.671875 -11.484375 Z M 7.671875 -11.484375 "/></g></g></g></svg>