<svg xmlns="http://www.w3.org/2000/svg" width="1000" height="360">
<rect width="100%" height="100%" fill="white"/>
<text x="75.0" y="24" font-family="sans-serif" font-size="18" font-weight="bold">Consumer process CPU usage during production</text>
<line x1="75.0" y1="45.0" x2="75.0" y2="305.0" stroke="#64748b"/>
<line x1="75.0" y1="305.0" x2="965.0" y2="305.0" stroke="#64748b"/>
<text x="8" y="50" font-family="sans-serif" font-size="12">1.00</text>
<polyline points="75.00,286.42 82.42,294.86 89.83,297.04 97.25,285.01 104.67,295.53 112.08,299.05 119.50,298.59 126.92,299.30 134.33,299.45 141.75,299.54 149.17,299.61 156.58,299.49 164.00,300.37 171.42,299.81 178.83,299.90 186.25,299.00 193.67,300.54 201.08,300.10 208.50,298.87 215.92,299.83 223.33,300.01 230.75,298.83 238.17,298.36 245.58,299.25 253.00,299.72 260.42,298.94 267.83,299.64 275.25,300.58 282.67,299.40 290.08,299.08 297.50,299.22 304.92,298.81 312.33,298.54 319.75,299.66 327.17,300.61 334.58,300.37 342.00,300.34 349.42,298.33 356.83,299.73 364.25,298.84 371.67,299.35 379.08,300.07 386.50,300.14 393.92,300.22 401.33,299.79 408.75,299.44 416.17,299.67 423.58,299.13 431.00,299.28 438.42,297.17 445.83,299.85 453.25,298.36 460.67,299.19 468.08,299.84 475.50,299.61 482.92,299.51 490.33,300.25 497.75,300.88 505.17,300.39 512.58,299.56 520.00,299.50 527.42,299.90 534.83,299.20 542.25,300.21 549.67,300.56 557.08,299.87 564.50,299.18 571.92,300.58 579.33,300.25 586.75,300.55 594.17,299.47 601.58,300.13 609.00,299.96 616.42,300.96 623.83,300.39 631.25,299.88 638.67,298.94 646.08,299.56 653.50,299.57 660.92,300.25 668.33,300.84 675.75,299.89 683.17,299.73 690.58,300.13 698.00,299.49 705.42,299.16 712.83,299.56 720.25,299.58 727.67,301.92 735.08,301.52 742.50,299.98 749.92,299.99 757.33,300.64 764.75,300.09 772.17,300.11 779.58,300.29 787.00,302.52 794.42,300.46 801.83,300.83 809.25,300.93 816.67,301.43 824.08,301.01 831.50,301.28 838.92,300.78 846.33,299.86 853.75,301.96 861.17,301.96 868.58,302.09 876.00,301.28 883.42,302.07 890.83,302.39 898.25,302.27 905.67,303.84 913.08,302.03 920.50,302.62 927.92,302.43 935.33,301.98 942.75,302.57 950.17,301.44 957.58,302.88 965.00,302.90" fill="none" stroke="#2563eb" stroke-width="2"/>
<text x="75.0" y="338" font-family="sans-serif" font-size="12" fill="#2563eb">consumer-1</text>
<polyline points="75.00,289.58 82.42,291.96 89.83,293.95 97.25,283.68 104.67,295.64 112.08,298.90 119.50,299.47 126.92,299.02 134.33,299.94 141.75,299.40 149.17,298.93 156.58,299.61 164.00,300.18 171.42,300.10 178.83,299.73 186.25,297.81 193.67,299.87 201.08,299.52 208.50,300.06 215.92,299.85 223.33,299.51 230.75,299.63 238.17,297.01 245.58,299.89 253.00,300.67 260.42,300.21 267.83,299.91 275.25,300.48 282.67,299.40 290.08,299.44 297.50,299.47 304.92,299.51 312.33,299.75 319.75,299.46 327.17,299.42 334.58,299.82 342.00,300.88 349.42,298.78 356.83,297.75 364.25,300.25 371.67,300.57 379.08,299.29 386.50,300.11 393.92,300.14 401.33,299.42 408.75,299.67 416.17,299.78 423.58,298.21 431.00,297.70 438.42,298.91 445.83,299.90 453.25,300.03 460.67,299.50 468.08,299.32 475.50,299.81 482.92,299.44 490.33,298.66 497.75,301.14 505.17,300.38 512.58,299.02 520.00,300.18 527.42,299.76 534.83,300.13 542.25,299.65 549.67,300.41 557.08,299.71 564.50,299.65 571.92,300.37 579.33,300.01 586.75,299.18 594.17,299.07 601.58,299.73 609.00,300.69 616.42,300.80 623.83,300.27 631.25,299.83 638.67,300.00 646.08,298.97 653.50,300.44 660.92,299.84 668.33,300.96 675.75,299.68 683.17,299.22 690.58,299.45 698.00,299.60 705.42,299.95 712.83,299.98 720.25,300.19 727.67,301.83 735.08,301.59 742.50,299.82 749.92,300.03 757.33,300.19 764.75,300.13 772.17,300.47 779.58,300.41 787.00,302.59 794.42,300.52 801.83,300.86 809.25,301.02 816.67,301.50 824.08,300.78 831.50,301.01 838.92,301.28 846.33,299.32 853.75,302.00 861.17,301.85 868.58,302.37 876.00,302.15 883.42,302.25 890.83,302.48 898.25,302.37 905.67,303.80 913.08,302.33 920.50,302.59 927.92,302.65 935.33,302.54 942.75,302.17 950.17,301.70 957.58,303.28 965.00,302.87" fill="none" stroke="#dc2626" stroke-width="2"/>
<text x="255.0" y="338" font-family="sans-serif" font-size="12" fill="#dc2626">consumer-2</text>
<polyline points="75.00,294.60 82.42,297.85 89.83,290.72 97.25,288.60 104.67,298.55 112.08,298.20 119.50,298.43 126.92,299.96 134.33,298.75 141.75,300.28 149.17,299.92 156.58,299.90 164.00,299.31 171.42,299.89 178.83,300.55 186.25,300.01 193.67,299.28 201.08,300.00 208.50,299.41 215.92,299.48 223.33,298.55 230.75,298.81 238.17,299.96 245.58,300.33 253.00,300.22 260.42,299.96 267.83,299.89 275.25,298.94 282.67,298.89 290.08,299.22 297.50,299.29 304.92,299.31 312.33,299.21 319.75,300.41 327.17,299.35 334.58,300.47 342.00,298.71 349.42,299.65 356.83,299.92 364.25,299.49 371.67,299.43 379.08,299.98 386.50,299.48 393.92,299.57 401.33,300.07 408.75,299.31 416.17,298.87 423.58,299.38 431.00,299.10 438.42,300.29 445.83,299.50 453.25,299.53 460.67,299.71 468.08,299.49 475.50,300.03 482.92,299.18 490.33,300.30 497.75,300.67 505.17,299.47 512.58,300.20 520.00,299.74 527.42,300.09 534.83,299.88 542.25,300.44 549.67,299.74 557.08,299.12 564.50,300.00 571.92,300.84 579.33,300.12 586.75,299.37 594.17,300.56 601.58,300.33 609.00,301.04 616.42,300.35 623.83,299.30 631.25,299.44 638.67,299.43 646.08,300.02 653.50,299.67 660.92,299.79 668.33,299.98 675.75,300.09 683.17,299.78 690.58,299.37 698.00,299.56 705.42,299.89 712.83,300.24 720.25,301.52 727.67,301.71 735.08,300.37 742.50,299.97 749.92,300.53 757.33,299.91 764.75,300.29 772.17,300.11 779.58,302.50 787.00,300.34 794.42,300.75 801.83,301.27 809.25,301.26 816.67,300.85 824.08,301.25 831.50,300.91 838.92,299.66 846.33,301.87 853.75,302.00 861.17,301.85 868.58,302.27 876.00,301.90 883.42,301.38 890.83,302.47 898.25,303.75 905.67,302.19 913.08,302.75 920.50,302.64 927.92,302.56 935.33,302.42 942.75,301.34 950.17,302.76 957.58,303.43 965.00,302.63" fill="none" stroke="#16a34a" stroke-width="2"/>
<text x="435.0" y="338" font-family="sans-serif" font-size="12" fill="#16a34a">consumer-3</text>
<polyline points="75.00,290.87 82.42,303.17 89.83,291.73 97.25,291.56 104.67,292.63 112.08,299.39 119.50,299.42 126.92,298.95 134.33,300.27 141.75,298.58 149.17,299.87 156.58,298.85 164.00,300.01 171.42,299.80 178.83,299.15 186.25,300.29 193.67,300.12 201.08,299.21 208.50,299.57 215.92,299.81 223.33,299.17 230.75,298.53 238.17,298.29 245.58,297.83 253.00,299.46 260.42,300.02 267.83,299.96 275.25,299.26 282.67,299.02 290.08,299.37 297.50,299.30 304.92,299.62 312.33,299.79 319.75,299.53 327.17,299.78 334.58,300.28 342.00,299.79 349.42,298.91 356.83,299.85 364.25,299.44 371.67,299.98 379.08,299.92 386.50,300.32 393.92,299.96 401.33,299.53 408.75,299.79 416.17,299.72 423.58,299.27 431.00,299.05 438.42,298.54 445.83,299.70 453.25,299.15 460.67,299.28 468.08,299.40 475.50,299.40 482.92,299.46 490.33,299.41 497.75,301.23 505.17,299.68 512.58,299.88 520.00,299.70 527.42,299.76 534.83,299.86 542.25,300.55 549.67,299.90 557.08,300.02 564.50,298.81 571.92,300.52 579.33,299.95 586.75,300.09 594.17,299.14 601.58,299.67 609.00,300.76 616.42,300.20 623.83,299.86 631.25,299.44 638.67,299.63 646.08,299.54 653.50,299.86 660.92,300.75 668.33,300.00 675.75,299.65 683.17,299.68 690.58,300.29 698.00,299.74 705.42,299.40 712.83,300.10 720.25,300.19 727.67,303.19 735.08,299.82 742.50,300.02 749.92,300.13 757.33,300.16 764.75,300.04 772.17,300.37 779.58,302.10 787.00,300.65 794.42,300.88 801.83,300.64 809.25,301.68 816.67,301.07 824.08,301.00 831.50,301.07 838.92,299.28 846.33,301.85 853.75,301.87 861.17,302.06 868.58,302.35 876.00,302.23 883.42,302.44 890.83,302.47 898.25,303.37 905.67,302.74 913.08,302.47 920.50,302.25 927.92,302.57 935.33,302.33 942.75,301.51 950.17,302.52 957.58,303.53 965.00,302.76" fill="none" stroke="#9333ea" stroke-width="2"/>
<text x="615.0" y="338" font-family="sans-serif" font-size="12" fill="#9333ea">consumer-4</text>
<polyline points="75.00,290.89 82.42,301.85 89.83,286.89 97.25,285.61 104.67,296.54 112.08,298.74 119.50,298.70 126.92,298.97 134.33,299.64 141.75,299.19 149.17,298.67 156.58,299.23 164.00,299.34 171.42,299.95 178.83,299.76 186.25,300.10 193.67,299.60 201.08,299.48 208.50,298.98 215.92,299.51 223.33,298.75 230.75,297.98 238.17,300.34 245.58,297.69 253.00,300.52 260.42,300.11 267.83,299.55 275.25,299.86 282.67,298.28 290.08,299.12 297.50,299.99 304.92,300.33 312.33,299.62 319.75,299.22 327.17,299.46 334.58,300.47 342.00,299.44 349.42,298.93 356.83,299.85 364.25,300.23 371.67,300.19 379.08,300.14 386.50,299.56 393.92,299.86 401.33,300.10 408.75,300.31 416.17,299.93 423.58,298.50 431.00,298.62 438.42,298.75 445.83,299.20 453.25,299.15 460.67,300.38 468.08,300.47 475.50,300.14 482.92,299.56 490.33,299.52 497.75,301.19 505.17,299.29 512.58,299.42 520.00,300.14 527.42,299.99 534.83,300.13 542.25,299.09 549.67,299.90 557.08,299.94 564.50,300.59 571.92,300.21 579.33,300.10 586.75,300.10 594.17,299.41 601.58,300.41 609.00,301.06 616.42,300.30 623.83,299.90 631.25,300.28 638.67,299.92 646.08,299.55 653.50,299.93 660.92,300.93 668.33,299.46 675.75,299.74 683.17,299.55 690.58,300.27 698.00,299.55 705.42,299.56 712.83,300.16 720.25,300.95 727.67,302.45 735.08,299.96 742.50,300.19 749.92,300.44 757.33,299.91 764.75,300.55 772.17,300.44 779.58,302.19 787.00,300.60 794.42,300.69 801.83,301.16 809.25,300.74 816.67,301.11 824.08,301.59 831.50,300.84 838.92,302.04 846.33,301.92 853.75,301.71 861.17,299.76 868.58,301.57 876.00,302.18 883.42,302.89 890.83,302.33 898.25,303.60 905.67,302.68 913.08,301.98 920.50,301.96 927.92,302.31 935.33,302.37 942.75,302.74 950.17,302.50 957.58,303.25 965.00,302.62" fill="none" stroke="#ea580c" stroke-width="2"/>
<text x="795.0" y="338" font-family="sans-serif" font-size="12" fill="#ea580c">consumer-5</text>
<polyline points="75.00,287.96 82.42,303.01 89.83,293.55 97.25,287.15 104.67,294.95 112.08,299.12 119.50,299.09 126.92,299.17 134.33,299.75 141.75,299.08 149.17,299.24 156.58,299.15 164.00,299.56 171.42,300.14 178.83,299.77 186.25,298.11 193.67,299.97 201.08,299.19 208.50,299.46 215.92,299.74 223.33,300.89 230.75,298.83 238.17,299.41 245.58,298.33 253.00,300.83 260.42,300.64 267.83,300.37 275.25,300.00 282.67,298.77 290.08,299.04 297.50,299.34 304.92,299.97 312.33,299.52 319.75,299.58 327.17,299.89 334.58,300.83 342.00,299.87 349.42,299.55 356.83,299.34 364.25,299.62 371.67,300.18 379.08,299.34 386.50,299.84 393.92,299.99 401.33,300.12 408.75,299.28 416.17,299.34 423.58,299.31 431.00,297.21 438.42,300.18 445.83,299.65 453.25,299.26 460.67,299.39 468.08,299.43 475.50,299.69 482.92,299.69 490.33,299.81 497.75,300.24 505.17,299.26 512.58,299.45 520.00,299.40 527.42,297.85 534.83,300.39 542.25,299.43 549.67,300.36 557.08,299.99 564.50,299.22 571.92,300.90 579.33,300.42 586.75,300.37 594.17,299.65 601.58,299.88 609.00,300.69 616.42,300.59 623.83,299.33 631.25,299.00 638.67,300.27 646.08,300.39 653.50,299.85 660.92,301.20 668.33,300.41 675.75,299.83 683.17,299.66 690.58,299.82 698.00,299.24 705.42,299.93 712.83,299.61 720.25,299.54 727.67,303.08 735.08,300.14 742.50,300.11 749.92,300.03 757.33,299.95 764.75,299.67 772.17,300.64 779.58,302.57 787.00,300.79 794.42,300.65 801.83,301.13 809.25,301.14 816.67,301.27 824.08,301.26 831.50,300.90 838.92,301.95 846.33,301.75 853.75,299.41 861.17,301.94 868.58,301.85 876.00,302.76 883.42,302.49 890.83,302.51 898.25,303.34 905.67,302.68 913.08,302.21 920.50,302.34 927.92,303.20 935.33,302.58 942.75,301.82 950.17,302.50 957.58,303.52 965.00,302.03" fill="none" stroke="#0891b2" stroke-width="2"/>
<text x="975.0" y="338" font-family="sans-serif" font-size="12" fill="#0891b2">consumer-6</text>
</svg>
