<svg xmlns="http://www.w3.org/2000/svg" width="1000" height="360">
<rect width="100%" height="100%" fill="white"/>
<text x="75.0" y="24" font-family="sans-serif" font-size="18" font-weight="bold">Consumer JVM heap bytes during production</text>
<line x1="75.0" y1="45.0" x2="75.0" y2="305.0" stroke="#64748b"/>
<line x1="75.0" y1="305.0" x2="965.0" y2="305.0" stroke="#64748b"/>
<text x="8" y="50" font-family="sans-serif" font-size="12">209262280.00</text>
<polyline points="75.00,247.77 82.42,226.93 89.83,211.29 97.25,242.32 104.67,205.84 112.08,226.69 119.50,247.87 126.92,211.39 134.33,232.44 141.75,258.27 149.17,221.79 156.58,253.10 164.00,221.83 171.42,247.95 178.83,211.47 186.25,232.15 193.67,263.57 201.08,227.09 208.50,253.22 215.92,216.74 223.33,242.56 230.75,206.08 238.17,227.06 245.58,247.76 253.00,216.49 260.42,237.33 267.83,206.06 275.25,237.27 282.67,263.49 290.08,221.80 297.50,247.81 304.92,211.34 312.33,227.02 319.75,253.04 327.17,221.77 334.58,253.16 342.00,221.89 349.42,242.63 356.83,206.15 364.25,227.11 371.67,247.81 379.08,211.33 386.50,242.74 393.92,211.47 401.33,237.34 408.75,263.39 416.17,226.91 423.58,253.00 431.00,216.52 438.42,242.53 445.83,211.26 453.25,232.12 460.67,253.06 468.08,216.58 475.50,242.63 482.92,263.38 490.33,232.11 497.75,263.38 505.17,232.11 512.58,252.95 520.00,216.47 527.42,242.73 534.83,263.45 542.25,226.97 549.67,258.27 557.08,216.58 564.50,242.51 571.92,211.25 579.33,237.50 586.75,206.24 594.17,232.10 601.58,258.14 609.00,221.66 616.42,252.89 623.83,221.63 631.25,247.96 638.67,206.27 646.08,226.84 653.50,247.72 660.92,216.45 668.33,252.89 675.75,216.41 683.17,237.32 690.58,206.06 698.00,226.91 705.42,247.68 712.83,211.20 720.25,232.07 727.67,211.22 735.08,252.96 742.50,216.48 749.92,242.51 757.33,211.24 764.75,242.49 772.17,206.01 779.58,237.27 787.00,221.63 794.42,252.88 801.83,221.61 809.25,252.90 816.67,226.84 824.08,258.07 831.50,232.01 838.92,263.25 846.33,242.40 853.75,216.35 861.17,258.09 868.58,237.25 876.00,211.19 883.42,252.70 890.83,231.85 898.25,216.22 905.67,211.01 913.08,252.71 920.50,237.08 927.92,226.66 935.33,211.02 942.75,258.01 950.17,242.38 957.58,231.95 965.00,221.53" fill="none" stroke="#2563eb" stroke-width="2"/>
<text x="75.0" y="338" font-family="sans-serif" font-size="12" fill="#2563eb">consumer-1</text>
<polyline points="75.00,126.43 82.42,116.01 89.83,100.37 97.25,69.10 104.67,248.68 112.08,212.20 119.50,170.51 126.92,134.03 134.33,97.55 141.75,61.07 149.17,238.50 156.58,207.23 164.00,170.75 171.42,139.49 178.83,97.80 186.25,66.53 193.67,248.92 201.08,212.44 208.50,175.97 215.92,139.49 223.33,97.80 230.75,66.53 238.17,243.23 245.58,206.75 253.00,175.49 260.42,144.22 267.83,107.74 275.25,76.47 282.67,264.22 290.08,222.53 297.50,186.05 304.92,149.57 312.33,113.09 319.75,76.61 327.17,258.28 334.58,221.80 342.00,190.53 349.42,154.05 356.83,117.57 364.25,81.10 371.67,55.04 379.08,232.88 386.50,201.61 393.92,165.13 401.33,128.65 408.75,92.17 416.17,55.69 423.58,237.85 431.00,196.16 438.42,164.90 445.83,133.63 453.25,102.36 460.67,60.67 468.08,243.17 475.50,201.48 482.92,165.00 490.33,133.73 497.75,102.47 505.17,71.20 512.58,253.38 520.00,216.90 527.42,180.42 534.83,143.95 542.25,107.47 549.67,70.99 557.08,253.67 564.50,217.19 571.92,185.92 579.33,149.44 586.75,102.54 594.17,66.06 601.58,248.46 609.00,217.19 616.42,185.93 623.83,149.45 631.25,112.97 638.67,76.49 646.08,253.62 653.50,222.35 660.92,185.87 668.33,154.61 675.75,118.13 683.17,76.44 690.58,258.77 698.00,222.29 705.42,185.81 712.83,149.33 720.25,118.07 727.67,92.01 735.08,71.16 742.50,253.51 749.92,217.03 757.33,185.76 764.75,149.28 772.17,118.02 779.58,86.75 787.00,71.11 794.42,263.87 801.83,232.61 809.25,201.34 816.67,175.28 824.08,149.23 831.50,117.96 838.92,91.90 846.33,71.06 853.75,45.00 861.17,248.35 868.58,227.51 876.00,206.66 883.42,185.82 890.83,164.97 898.25,149.34 905.67,138.92 913.08,123.28 920.50,112.86 927.92,97.23 935.33,81.59 942.75,71.17 950.17,55.54 957.58,45.11 965.00,258.83" fill="none" stroke="#dc2626" stroke-width="2"/>
<text x="255.0" y="338" font-family="sans-serif" font-size="12" fill="#dc2626">consumer-2</text>
<polyline points="75.00,216.48 82.42,200.84 89.83,253.33 97.25,222.06 104.67,258.84 112.08,211.94 119.50,242.99 126.92,206.51 134.33,243.15 141.75,217.09 149.17,263.80 156.58,222.11 164.00,190.84 171.42,232.51 178.83,201.24 186.25,243.23 193.67,206.75 201.08,253.49 208.50,217.01 215.92,258.71 223.33,222.23 230.75,190.97 238.17,227.52 245.58,191.04 253.00,237.58 260.42,206.31 267.83,248.22 275.25,206.53 282.67,248.08 290.08,206.39 297.50,248.14 304.92,211.66 312.33,253.37 319.75,222.10 327.17,258.73 334.58,227.47 342.00,263.85 349.42,222.16 356.83,190.90 364.25,227.36 371.67,190.88 379.08,232.80 386.50,196.32 393.92,232.53 401.33,201.26 408.75,243.05 416.17,206.57 423.58,248.16 431.00,216.89 438.42,263.67 445.83,227.19 453.25,190.72 460.67,232.44 468.08,190.75 475.50,237.70 482.92,196.01 490.33,237.68 497.75,211.63 505.17,253.57 512.58,217.09 520.00,258.51 527.42,222.03 534.83,263.81 542.25,232.55 549.67,196.07 557.08,232.52 564.50,201.25 571.92,248.13 579.33,211.65 586.75,248.34 594.17,217.08 601.58,263.69 609.00,237.64 616.42,201.16 623.83,237.67 631.25,195.98 638.67,232.41 646.08,195.93 653.50,237.63 660.92,206.36 668.33,248.12 675.75,211.64 683.17,253.22 690.58,216.74 698.00,253.36 705.42,216.88 712.83,263.67 720.25,237.62 727.67,216.77 735.08,263.67 742.50,227.19 749.92,195.93 757.33,237.66 764.75,206.39 772.17,253.21 779.58,232.37 787.00,201.10 794.42,248.07 801.83,222.02 809.25,195.96 816.67,242.79 824.08,211.53 831.50,263.65 838.92,242.81 846.33,216.75 853.75,195.91 861.17,253.19 868.58,227.14 876.00,206.29 883.42,190.66 890.83,247.88 898.25,242.67 905.67,221.83 913.08,206.19 920.50,195.77 927.92,258.30 935.33,242.67 942.75,232.25 950.17,216.61 957.58,211.40 965.00,200.98" fill="none" stroke="#16a34a" stroke-width="2"/>
<text x="435.0" y="338" font-family="sans-serif" font-size="12" fill="#16a34a">consumer-3</text>
<polyline points="75.00,238.41 82.42,233.20 89.83,207.14 97.25,243.92 104.67,264.70 112.08,223.01 119.50,249.37 126.92,207.68 134.33,238.85 141.75,259.69 149.17,228.42 156.58,249.30 164.00,212.82 171.42,244.06 178.83,264.87 186.25,228.39 193.67,254.47 201.08,217.99 208.50,243.98 215.92,207.50 223.33,238.84 230.75,265.01 238.17,228.53 245.58,254.35 253.00,212.66 260.42,243.95 267.83,212.69 275.25,233.54 282.67,254.44 290.08,217.96 297.50,244.07 304.92,207.59 312.33,233.68 319.75,259.64 327.17,217.95 334.58,249.21 342.00,212.73 349.42,238.83 356.83,264.94 364.25,228.47 371.67,254.58 379.08,218.10 386.50,249.44 393.92,212.97 401.33,238.82 408.75,207.55 416.17,233.54 423.58,259.43 431.00,222.95 438.42,254.19 445.83,222.92 453.25,243.85 460.67,264.61 468.08,228.13 475.50,248.98 482.92,207.29 490.33,233.35 497.75,207.29 505.17,233.29 512.58,259.52 520.00,223.04 527.42,249.20 534.83,212.72 542.25,238.53 549.67,264.58 557.08,228.10 564.50,254.34 571.92,217.86 579.33,243.72 586.75,207.24 594.17,233.28 601.58,254.17 609.00,222.90 616.42,248.96 623.83,212.48 631.25,233.35 638.67,259.49 646.08,217.80 653.50,243.73 660.92,212.47 668.33,238.53 675.75,264.77 683.17,223.08 690.58,254.34 698.00,223.07 705.42,243.82 712.83,207.34 720.25,233.32 727.67,222.90 735.08,248.93 742.50,212.45 749.92,243.72 757.33,212.45 764.75,238.56 772.17,207.30 779.58,248.87 787.00,217.60 794.42,248.88 801.83,217.61 809.25,254.14 816.67,228.08 824.08,259.34 831.50,233.29 838.92,207.23 846.33,248.89 853.75,222.83 861.17,264.49 868.58,238.43 876.00,217.59 883.42,259.31 890.83,243.68 898.25,233.26 905.67,217.62 913.08,207.20 920.50,248.79 927.92,233.16 935.33,222.74 942.75,207.10 950.17,259.25 957.58,254.03 965.00,238.40" fill="none" stroke="#9333ea" stroke-width="2"/>
<text x="615.0" y="338" font-family="sans-serif" font-size="12" fill="#9333ea">consumer-4</text>
<polyline points="75.00,226.65 82.42,221.44 89.83,247.44 97.25,216.17 104.67,231.78 112.08,252.58 119.50,216.10 126.92,237.06 134.33,258.06 141.75,221.58 149.17,237.44 156.58,257.76 164.00,216.07 171.42,237.17 178.83,263.18 186.25,226.70 193.67,242.39 201.08,211.12 208.50,231.94 215.92,247.48 223.33,211.00 230.75,237.44 238.17,206.17 245.58,232.19 253.00,263.49 260.42,227.01 267.83,258.16 275.25,221.68 282.67,247.78 290.08,211.31 297.50,237.39 304.92,206.12 312.33,232.08 319.75,258.11 327.17,216.42 334.58,252.93 342.00,211.24 349.42,232.09 356.83,258.08 364.25,226.81 371.67,258.15 379.08,221.67 386.50,247.65 393.92,211.18 401.33,242.69 408.75,211.43 416.17,242.46 423.58,263.25 431.00,231.98 438.42,258.17 445.83,221.70 453.25,247.54 460.67,211.07 468.08,242.55 475.50,211.29 482.92,237.44 490.33,263.24 497.75,237.18 505.17,257.99 512.58,216.30 520.00,247.56 527.42,211.08 534.83,242.42 542.25,205.94 549.67,231.98 557.08,258.02 564.50,226.75 571.92,252.80 579.33,216.32 586.75,242.34 594.17,205.86 601.58,231.92 609.00,205.86 616.42,231.85 623.83,257.96 631.25,226.69 638.67,252.74 646.08,211.05 653.50,237.02 660.92,210.96 668.33,237.07 675.75,263.13 683.17,221.44 690.58,252.67 698.00,216.19 705.42,237.03 712.83,205.76 720.25,237.00 727.67,221.36 735.08,247.43 742.50,216.17 749.92,247.46 757.33,210.98 764.75,242.23 772.17,210.96 779.58,252.64 787.00,226.58 794.42,252.63 801.83,226.58 809.25,257.83 816.67,231.77 824.08,205.71 831.50,236.96 838.92,216.12 846.33,252.62 853.75,231.77 861.17,205.72 868.58,247.39 876.00,221.33 883.42,205.70 890.83,252.59 898.25,242.17 905.67,226.54 913.08,205.69 920.50,252.61 927.92,236.98 935.33,226.56 942.75,216.13 950.17,205.71 957.58,257.74 965.00,247.31" fill="none" stroke="#ea580c" stroke-width="2"/>
<text x="795.0" y="338" font-family="sans-serif" font-size="12" fill="#ea580c">consumer-5</text>
<polyline points="75.00,237.75 82.42,232.54 89.83,206.48 97.25,238.10 104.67,259.04 112.08,217.35 119.50,238.17 126.92,264.22 134.33,227.74 141.75,248.66 149.17,206.97 156.58,233.21 164.00,259.08 171.42,222.60 178.83,253.91 186.25,217.43 193.67,243.41 201.08,206.93 208.50,233.12 215.92,259.06 223.33,227.80 230.75,258.89 238.17,222.41 245.58,248.67 253.00,217.40 260.42,248.50 267.83,217.23 275.25,243.41 282.67,206.93 290.08,227.78 297.50,248.55 304.92,217.28 312.33,243.48 319.75,207.00 327.17,233.04 334.58,206.99 342.00,232.91 349.42,259.01 356.83,222.53 364.25,248.72 371.67,212.24 379.08,238.12 386.50,264.14 393.92,227.66 401.33,258.90 408.75,222.42 416.17,243.29 423.58,206.82 431.00,232.80 438.42,264.06 445.83,227.58 453.25,253.83 460.67,212.14 468.08,237.96 475.50,259.03 482.92,222.55 490.33,248.45 497.75,222.40 505.17,243.18 512.58,264.04 520.00,222.35 527.42,243.12 534.83,211.85 542.25,232.82 549.67,258.99 557.08,222.51 564.50,248.49 571.92,217.22 579.33,243.16 586.75,211.90 594.17,232.77 601.58,258.83 609.00,227.57 616.42,253.57 623.83,217.09 631.25,248.35 638.67,211.88 646.08,243.14 653.50,206.67 660.92,243.15 668.33,211.88 675.75,237.89 683.17,258.78 690.58,222.31 698.00,243.16 705.42,206.68 712.83,232.92 720.25,258.92 727.67,243.29 735.08,212.02 742.50,237.90 749.92,206.63 757.33,232.79 764.75,263.93 772.17,232.66 779.58,217.03 787.00,248.34 794.42,217.07 801.83,248.32 809.25,222.26 816.67,253.53 824.08,227.47 831.50,258.69 838.92,237.85 846.33,217.00 853.75,253.50 861.17,227.45 868.58,263.96 876.00,248.33 883.42,227.48 890.83,206.64 898.25,258.68 905.67,243.05 913.08,227.42 920.50,211.78 927.92,263.96 935.33,248.32 942.75,237.90 950.17,227.48 957.58,222.27 965.00,211.85" fill="none" stroke="#0891b2" stroke-width="2"/>
<text x="975.0" y="338" font-family="sans-serif" font-size="12" fill="#0891b2">consumer-6</text>
</svg>
