<svg xmlns="http://www.w3.org/2000/svg" width="1000" height="360">
<rect width="100%" height="100%" fill="white"/>
<text x="75.0" y="24" font-family="sans-serif" font-size="18" font-weight="bold">PostgreSQL commits / second during production</text>
<line x1="75.0" y1="45.0" x2="75.0" y2="305.0" stroke="#64748b"/>
<line x1="75.0" y1="305.0" x2="965.0" y2="305.0" stroke="#64748b"/>
<text x="8" y="50" font-family="sans-serif" font-size="12">11589.87</text>
<polyline points="75.00,246.27 82.42,232.22 89.83,212.08 97.25,190.50 104.67,162.52 112.08,132.00 119.50,109.13 126.92,91.81 134.33,83.88 141.75,76.03 149.17,60.94 156.58,60.59 164.00,55.80 171.42,56.71 178.83,62.03 186.25,60.10 193.67,68.22 201.08,66.16 208.50,63.28 215.92,64.18 223.33,57.06 230.75,57.06 238.17,55.98 245.58,53.31 253.00,55.37 260.42,50.83 267.83,53.21 275.25,55.19 282.67,54.82 290.08,52.24 297.50,49.18 304.92,49.00 312.33,48.96 319.75,48.76 327.17,48.11 334.58,46.42 342.00,45.99 349.42,45.00 356.83,45.47 364.25,48.06 371.67,47.22 379.08,48.11 386.50,49.84 393.92,48.99 401.33,48.59 408.75,48.25 416.17,50.50 423.58,51.95 431.00,51.54 438.42,56.17 445.83,58.12 453.25,55.48 460.67,53.55 468.08,53.62 475.50,51.69 482.92,50.27 490.33,50.86 497.75,56.80 505.17,54.25 512.58,51.05 520.00,51.81 527.42,55.51 534.83,54.90 542.25,55.44 549.67,57.87 557.08,57.03 564.50,51.85 571.92,51.96 579.33,53.72 586.75,55.78 594.17,53.27 601.58,54.43 609.00,57.35 616.42,59.88 623.83,61.45 631.25,60.68 638.67,58.96 646.08,56.67 653.50,56.17 660.92,60.70 668.33,64.36 675.75,61.74 683.17,56.70 690.58,56.06 698.00,55.32 705.42,54.39 712.83,58.11 720.25,59.04 727.67,62.41 735.08,67.21 742.50,67.24 749.92,70.48 757.33,73.14 764.75,75.02 772.17,80.33 779.58,82.81 787.00,94.65 794.42,92.60 801.83,86.61 809.25,92.14 816.67,96.69 824.08,99.07 831.50,103.56 838.92,108.23 846.33,115.00 853.75,111.38 861.17,117.53 868.58,124.47 876.00,129.05 883.42,134.83 890.83,142.62 898.25,152.38 905.67,165.30 913.08,169.25 920.50,175.21 927.92,181.51 935.33,188.70 942.75,198.06 950.17,203.59 957.58,212.32 965.00,217.53" fill="none" stroke="#2563eb" stroke-width="2"/>
<text x="75.0" y="338" font-family="sans-serif" font-size="12" fill="#2563eb">series-1</text>
</svg>
