<svg xmlns="http://www.w3.org/2000/svg" width="1000" height="360">
<rect width="100%" height="100%" fill="white"/>
<text x="75.0" y="24" font-family="sans-serif" font-size="18" font-weight="bold">Processed outbox records / second during production</text>
<line x1="75.0" y1="45.0" x2="75.0" y2="305.0" stroke="#64748b"/>
<line x1="75.0" y1="305.0" x2="965.0" y2="305.0" stroke="#64748b"/>
<text x="8" y="50" font-family="sans-serif" font-size="12">11010.58</text>
<polyline points="75.00,180.64 82.42,170.22 89.83,166.35 97.25,161.56 104.67,142.57 112.08,92.47 119.50,60.21 126.92,45.00 134.33,47.56 141.75,54.47 149.17,62.75 156.58,65.85 164.00,67.11 171.42,70.33 178.83,69.77 186.25,72.18 193.67,72.69 201.08,70.63 208.50,69.50 215.92,68.59 223.33,68.26 230.75,70.42 238.17,70.59 245.58,67.40 253.00,70.74 260.42,71.73 267.83,79.01 275.25,82.70 282.67,74.26 290.08,67.20 297.50,58.64 304.92,58.49 312.33,60.05 319.75,63.64 327.17,66.10 334.58,72.38 342.00,75.53 349.42,70.75 356.83,69.11 364.25,61.03 371.67,62.19 379.08,67.68 386.50,70.91 393.92,71.98 401.33,73.56 408.75,74.76 416.17,73.67 423.58,72.30 431.00,70.75 438.42,75.43 445.83,77.45 453.25,74.35 460.67,68.34 468.08,60.45 475.50,56.40 482.92,56.03 490.33,63.06 497.75,78.35 505.17,79.30 512.58,80.16 520.00,75.94 527.42,60.37 534.83,58.81 542.25,62.35 549.67,64.62 557.08,64.17 564.50,67.08 571.92,71.94 579.33,70.02 586.75,71.29 594.17,69.13 601.58,65.87 609.00,73.89 616.42,79.65 623.83,79.42 631.25,75.78 638.67,65.33 646.08,57.60 653.50,59.19 660.92,69.62 668.33,79.01 675.75,80.72 683.17,76.04 690.58,68.79 698.00,60.39 705.42,57.46 712.83,62.57 720.25,67.07 727.67,100.22 735.08,112.90 742.50,113.04 749.92,113.42 757.33,86.15 764.75,81.96 772.17,88.33 779.58,106.06 787.00,119.91 794.42,123.59 801.83,127.27 809.25,115.21 816.67,110.45 824.08,114.06 831.50,115.55 838.92,125.39 846.33,135.32 853.75,143.29 861.17,152.65 868.58,154.44 876.00,157.59 883.42,164.45 890.83,171.00 898.25,189.11 905.67,201.80 913.08,207.71 920.50,215.92 927.92,211.78 935.33,211.44 942.75,218.23 950.17,220.95 957.58,230.67 965.00,235.39" fill="none" stroke="#2563eb" stroke-width="2"/>
<text x="75.0" y="338" font-family="sans-serif" font-size="12" fill="#2563eb">series-1</text>
</svg>
