<svg xmlns="http://www.w3.org/2000/svg" width="1000" height="360">
<rect width="100%" height="100%" fill="white"/>
<text x="75.0" y="24" font-family="sans-serif" font-size="18" font-weight="bold">Processed records / second by consumer during production</text>
<line x1="75.0" y1="45.0" x2="75.0" y2="305.0" stroke="#64748b"/>
<line x1="75.0" y1="305.0" x2="965.0" y2="305.0" stroke="#64748b"/>
<text x="8" y="50" font-family="sans-serif" font-size="12">1973.99</text>
<polyline points="75.00,190.07 82.42,173.02 89.83,175.79 97.25,170.62 104.67,163.28 112.08,130.02 119.50,85.17 126.92,66.24 134.33,60.51 141.75,66.76 149.17,77.56 156.58,81.78 164.00,91.62 171.42,94.06 178.83,92.02 186.25,84.15 193.67,81.42 201.08,85.20 208.50,81.58 215.92,86.62 223.33,84.18 230.75,78.85 238.17,79.41 245.58,75.42 253.00,71.41 260.42,66.86 267.83,77.00 275.25,91.13 282.67,93.93 290.08,94.29 297.50,83.04 304.92,73.02 312.33,60.34 319.75,63.38 327.17,77.54 334.58,86.62 342.00,102.19 349.42,98.20 356.83,87.60 364.25,69.59 371.67,59.06 379.08,67.88 386.50,74.93 393.92,89.67 401.33,96.66 408.75,92.74 416.17,92.09 423.58,86.30 431.00,83.03 438.42,87.61 445.83,85.80 453.25,78.15 460.67,73.80 468.08,69.43 475.50,62.32 482.92,67.55 490.33,78.95 497.75,93.67 505.17,103.72 512.58,103.53 520.00,92.40 527.42,78.95 534.83,62.08 542.25,67.63 549.67,80.30 557.08,74.97 564.50,84.05 571.92,87.73 579.33,82.37 586.75,94.48 594.17,97.85 601.58,95.99 609.00,93.40 616.42,96.19 623.83,96.69 631.25,93.73 638.67,82.25 646.08,66.97 653.50,62.05 660.92,67.26 668.33,92.14 675.75,96.42 683.17,97.46 690.58,94.42 698.00,79.97 705.42,70.37 712.83,68.19 720.25,63.00 727.67,88.46 735.08,118.87 742.50,121.52 749.92,127.27 757.33,112.57 764.75,96.67 772.17,102.03 779.58,107.40 787.00,128.67 794.42,133.25 801.83,136.24 809.25,136.60 816.67,123.76 824.08,123.33 831.50,127.16 838.92,133.34 846.33,139.37 853.75,147.57 861.17,157.32 868.58,165.40 876.00,165.45 883.42,170.98 890.83,174.11 898.25,180.20 905.67,202.69 913.08,210.70 920.50,224.29 927.92,229.56 935.33,215.96 942.75,221.79 950.17,218.23 957.58,225.12 965.00,233.91" fill="none" stroke="#2563eb" stroke-width="2"/>
<text x="75.0" y="338" font-family="sans-serif" font-size="12" fill="#2563eb">consumer-1</text>
<polyline points="75.00,191.07 82.42,182.08 89.83,183.10 97.25,174.74 104.67,171.21 112.08,128.97 119.50,91.53 126.92,73.28 134.33,67.44 141.75,73.35 149.17,75.09 156.58,88.33 164.00,89.58 171.42,93.63 178.83,93.44 186.25,92.91 193.67,91.11 201.08,84.12 208.50,85.66 215.92,83.10 223.33,74.53 230.75,82.21 238.17,78.98 245.58,73.00 253.00,85.37 260.42,85.83 267.83,94.92 275.25,102.98 282.67,100.52 290.08,95.51 297.50,89.42 304.92,80.18 312.33,77.53 319.75,75.56 327.17,79.55 334.58,81.73 342.00,92.43 349.42,90.97 356.83,84.64 364.25,91.27 371.67,88.12 379.08,91.57 386.50,97.41 393.92,94.58 401.33,82.80 408.75,83.94 416.17,80.70 423.58,79.57 431.00,80.43 438.42,83.89 445.83,92.68 453.25,94.56 460.67,91.67 468.08,87.01 475.50,75.94 482.92,67.31 490.33,78.31 497.75,93.01 505.17,99.64 512.58,102.97 520.00,99.97 527.42,85.30 534.83,81.81 542.25,77.33 549.67,78.42 557.08,80.29 564.50,82.34 571.92,92.40 579.33,86.69 586.75,72.17 594.17,62.52 601.58,59.56 609.00,68.96 616.42,90.20 623.83,99.07 631.25,95.09 638.67,87.94 646.08,75.25 653.50,78.23 660.92,80.18 668.33,91.97 675.75,93.71 683.17,79.94 690.58,82.09 698.00,69.42 705.42,71.41 712.83,80.77 720.25,83.53 727.67,106.84 735.08,128.82 742.50,129.68 749.92,128.09 757.33,108.88 764.75,89.96 772.17,97.13 779.58,101.94 787.00,128.89 794.42,138.04 801.83,136.90 809.25,139.72 816.67,124.33 824.08,123.07 831.50,127.70 838.92,134.28 846.33,142.89 853.75,150.80 861.17,158.47 868.58,167.26 876.00,169.60 883.42,174.37 890.83,179.67 898.25,184.16 905.67,204.01 913.08,210.99 920.50,223.70 927.92,228.59 935.33,216.95 942.75,224.42 950.17,222.22 957.58,231.50 965.00,239.08" fill="none" stroke="#dc2626" stroke-width="2"/>
<text x="255.0" y="338" font-family="sans-serif" font-size="12" fill="#dc2626">consumer-2</text>
<polyline points="75.00,187.99 82.42,170.26 89.83,165.03 97.25,159.33 104.67,131.86 112.08,84.48 119.50,48.56 126.92,45.00 134.33,45.76 141.75,70.22 149.17,93.34 156.58,92.71 164.00,101.87 171.42,91.59 178.83,92.51 186.25,95.97 193.67,95.18 201.08,99.29 208.50,93.30 215.92,89.58 223.33,83.92 230.75,84.64 238.17,82.37 245.58,84.13 253.00,96.23 260.42,92.25 267.83,95.15 275.25,89.01 282.67,75.03 290.08,69.12 297.50,66.50 304.92,72.23 312.33,72.26 319.75,83.35 327.17,80.46 334.58,85.76 342.00,82.78 349.42,72.95 356.83,77.56 364.25,68.18 371.67,72.91 379.08,79.15 386.50,74.08 393.92,73.85 401.33,84.38 408.75,85.00 416.17,87.86 423.58,89.24 431.00,91.67 438.42,98.51 445.83,99.63 453.25,95.44 460.67,85.82 468.08,69.75 475.50,73.67 482.92,74.21 490.33,80.49 497.75,96.53 505.17,93.65 512.58,99.86 520.00,95.15 527.42,84.73 534.83,83.08 542.25,89.10 549.67,82.69 557.08,80.81 564.50,83.03 571.92,85.10 579.33,89.78 586.75,90.06 594.17,95.46 601.58,90.62 609.00,102.23 616.42,106.05 623.83,91.37 631.25,79.80 638.67,64.29 646.08,63.29 653.50,68.49 660.92,82.04 668.33,90.00 675.75,90.96 683.17,92.23 690.58,81.38 698.00,74.72 705.42,71.86 712.83,77.03 720.25,101.37 727.67,127.37 735.08,133.34 742.50,130.23 749.92,117.83 757.33,95.39 764.75,98.05 772.17,103.16 779.58,125.80 787.00,135.06 794.42,134.00 801.83,141.31 809.25,123.47 816.67,123.63 824.08,128.19 831.50,131.76 838.92,143.12 846.33,150.96 853.75,159.29 861.17,166.08 868.58,165.85 876.00,172.36 883.42,176.88 890.83,182.21 898.25,204.50 905.67,209.52 913.08,220.68 920.50,225.12 927.92,213.43 935.33,221.72 942.75,221.05 950.17,225.71 957.58,235.49 965.00,238.63" fill="none" stroke="#16a34a" stroke-width="2"/>
<text x="435.0" y="338" font-family="sans-serif" font-size="12" fill="#16a34a">consumer-3</text>
<polyline points="75.00,189.56 82.42,188.20 89.83,183.49 97.25,184.99 104.67,158.86 112.08,102.98 119.50,81.88 126.92,57.73 134.33,72.13 141.75,77.27 149.17,86.88 156.58,86.59 164.00,81.42 171.42,84.58 178.83,70.83 186.25,81.11 193.67,83.29 201.08,78.39 208.50,84.21 215.92,84.16 223.33,86.78 230.75,92.02 238.17,90.80 245.58,86.78 253.00,74.81 260.42,78.55 267.83,88.17 275.25,88.23 282.67,87.99 290.08,76.84 297.50,66.60 304.92,69.14 312.33,77.96 319.75,80.07 327.17,81.99 334.58,88.25 342.00,84.33 349.42,84.23 356.83,86.45 364.25,79.38 371.67,82.66 379.08,84.63 386.50,89.78 393.92,90.49 401.33,90.85 408.75,94.65 416.17,90.70 423.58,91.95 431.00,95.37 438.42,97.68 445.83,99.30 453.25,93.06 460.67,80.02 468.08,70.48 475.50,61.36 482.92,61.89 490.33,68.22 497.75,87.18 505.17,91.04 512.58,95.86 520.00,95.23 527.42,78.51 534.83,75.51 542.25,82.31 549.67,83.73 557.08,83.22 564.50,86.42 571.92,82.43 579.33,80.56 586.75,80.65 594.17,81.69 601.58,75.37 609.00,84.55 616.42,87.57 623.83,84.91 631.25,81.92 638.67,71.60 646.08,63.87 653.50,67.15 660.92,83.55 668.33,87.89 675.75,91.90 683.17,87.44 690.58,84.50 698.00,84.05 705.42,80.83 712.83,86.77 720.25,83.53 727.67,121.12 735.08,126.50 742.50,124.77 749.92,127.99 757.33,94.27 764.75,97.50 772.17,102.23 779.58,124.98 787.00,128.08 794.42,135.40 801.83,137.43 809.25,126.17 816.67,126.83 824.08,126.11 831.50,133.67 838.92,136.21 846.33,147.01 853.75,154.58 861.17,162.12 868.58,165.85 876.00,167.86 883.42,175.92 890.83,180.53 898.25,198.11 905.67,210.37 913.08,222.22 920.50,227.36 927.92,218.36 935.33,221.00 942.75,216.95 950.17,223.24 957.58,236.47 965.00,240.35" fill="none" stroke="#9333ea" stroke-width="2"/>
<text x="615.0" y="338" font-family="sans-serif" font-size="12" fill="#9333ea">consumer-4</text>
<polyline points="75.00,191.14 82.42,181.84 89.83,172.96 97.25,167.00 104.67,144.51 112.08,98.77 119.50,79.54 126.92,72.56 134.33,81.79 141.75,79.57 149.17,79.05 156.58,78.59 164.00,67.70 171.42,75.39 178.83,80.23 186.25,81.02 193.67,86.32 201.08,85.34 208.50,82.08 215.92,82.93 223.33,83.30 230.75,80.63 238.17,86.92 245.58,85.63 253.00,96.28 260.42,101.21 267.83,103.48 275.25,103.48 282.67,88.92 290.08,82.27 297.50,79.54 304.92,89.65 312.33,97.30 319.75,96.07 327.17,85.45 334.58,87.71 342.00,81.68 349.42,74.05 356.83,81.61 364.25,76.06 371.67,86.42 379.08,101.54 386.50,99.96 393.92,93.70 401.33,95.96 408.75,100.19 416.17,105.03 423.58,99.56 431.00,94.26 438.42,92.02 445.83,85.52 453.25,88.68 460.67,91.20 468.08,94.74 475.50,99.96 482.92,101.44 490.33,95.42 497.75,100.03 505.17,93.35 512.58,86.93 520.00,92.65 527.42,79.84 534.83,86.79 542.25,96.62 549.67,88.84 557.08,88.49 564.50,90.98 571.92,88.79 579.33,88.40 586.75,88.32 594.17,82.44 601.58,87.77 609.00,100.75 616.42,102.39 623.83,102.66 631.25,99.81 638.67,88.83 646.08,81.55 653.50,83.71 660.92,93.24 668.33,95.27 675.75,98.82 683.17,91.39 690.58,82.60 698.00,80.72 705.42,78.91 712.83,87.06 720.25,96.47 727.67,126.95 735.08,131.37 742.50,129.87 749.92,124.81 757.33,97.10 764.75,102.71 772.17,108.81 779.58,129.23 787.00,136.37 794.42,135.39 801.83,142.56 809.25,123.32 816.67,122.68 824.08,132.88 831.50,125.87 838.92,139.60 846.33,151.46 853.75,158.49 861.17,167.85 868.58,164.30 876.00,164.82 883.42,172.23 890.83,182.87 898.25,207.99 905.67,217.31 913.08,211.58 920.50,215.70 927.92,204.70 935.33,210.13 942.75,230.88 950.17,235.98 957.58,247.28 965.00,250.14" fill="none" stroke="#ea580c" stroke-width="2"/>
<text x="795.0" y="338" font-family="sans-serif" font-size="12" fill="#ea580c">consumer-5</text>
<polyline points="75.00,186.50 82.42,182.79 89.83,176.25 97.25,173.25 104.67,154.27 112.08,99.33 119.50,77.92 126.92,64.95 134.33,66.43 141.75,65.38 149.17,66.86 156.58,68.08 164.00,70.88 171.42,81.78 178.83,88.89 186.25,96.23 193.67,96.89 201.08,90.41 208.50,89.55 215.92,84.97 223.33,96.79 230.75,103.22 238.17,104.01 245.58,99.73 253.00,99.23 260.42,104.14 267.83,110.72 275.25,115.20 282.67,96.56 290.08,85.53 297.50,70.75 304.92,70.80 312.33,78.32 319.75,85.30 327.17,92.46 334.58,102.39 342.00,106.67 349.42,103.00 356.83,96.35 364.25,84.69 371.67,86.49 379.08,81.47 386.50,88.15 393.92,87.97 401.33,88.40 408.75,89.25 416.17,83.29 423.58,85.40 431.00,78.62 438.42,89.81 445.83,97.83 453.25,93.57 460.67,87.47 468.08,74.53 475.50,70.10 482.92,68.90 490.33,79.12 497.75,95.36 505.17,89.65 512.58,86.75 520.00,76.93 527.42,58.17 534.83,67.51 542.25,63.53 549.67,75.20 557.08,78.91 564.50,76.08 571.92,93.58 579.33,91.49 586.75,100.73 594.17,94.40 601.58,86.85 609.00,91.02 616.42,90.64 623.83,97.04 631.25,101.09 638.67,98.24 646.08,99.11 653.50,99.29 660.92,110.85 668.33,112.17 675.75,107.18 683.17,104.42 690.58,87.48 698.00,76.75 705.42,75.92 712.83,77.97 720.25,74.96 727.67,117.04 735.08,119.58 742.50,123.22 749.92,135.42 757.33,101.10 764.75,101.02 772.17,108.07 779.58,131.01 787.00,140.54 794.42,142.02 801.83,144.21 809.25,122.12 816.67,123.59 824.08,131.37 831.50,127.12 838.92,141.64 846.33,151.86 853.75,157.28 861.17,168.35 868.58,161.56 876.00,167.69 883.42,175.62 890.83,183.17 898.25,208.62 905.67,210.47 913.08,211.15 920.50,216.95 927.92,215.38 935.33,222.40 942.75,230.91 950.17,235.82 957.58,239.52 965.00,239.64" fill="none" stroke="#0891b2" stroke-width="2"/>
<text x="975.0" y="338" font-family="sans-serif" font-size="12" fill="#0891b2">consumer-6</text>
</svg>
