<svg xmlns="http://www.w3.org/2000/svg" width="1000" height="360">
<rect width="100%" height="100%" fill="white"/>
<text x="75.0" y="24" font-family="sans-serif" font-size="18" font-weight="bold">Remaining outbox backlog</text>
<line x1="75.0" y1="45.0" x2="75.0" y2="305.0" stroke="#64748b"/>
<line x1="75.0" y1="305.0" x2="965.0" y2="305.0" stroke="#64748b"/>
<text x="8" y="50" font-family="sans-serif" font-size="12">487200.00</text>
<polyline points="75.00,304.29 97.99,304.09 121.03,304.51 144.06,304.02 167.16,304.15 190.34,304.01 213.51,304.05 236.72,301.00 259.93,300.09 283.19,298.49 306.51,296.01 329.86,290.97 353.38,281.90 377.84,270.03 403.85,253.30 428.49,234.00 453.26,212.58 480.68,187.26 505.28,163.48 530.61,139.05 555.98,113.92 581.74,87.94 610.12,57.30 622.10,45.00 650.06,46.83 677.12,48.35 701.87,50.17 725.71,51.50 752.06,53.51 775.82,75.66 799.53,104.51 823.16,133.07 846.81,163.62 870.44,193.69 894.06,219.62 917.68,250.10 941.38,279.85 965.00,305.00" fill="none" stroke="#2563eb" stroke-width="2"/>
<text x="75.0" y="338" font-family="sans-serif" font-size="12" fill="#2563eb">new</text>
</svg>
