<svg xmlns="http://www.w3.org/2000/svg" width="1000" height="360">
<rect width="100%" height="100%" fill="white"/>
<text x="75.0" y="24" font-family="sans-serif" font-size="18" font-weight="bold">Consumer process CPU usage during production</text>
<line x1="75.0" y1="45.0" x2="75.0" y2="305.0" stroke="#64748b"/>
<line x1="75.0" y1="305.0" x2="965.0" y2="305.0" stroke="#64748b"/>
<text x="8" y="50" font-family="sans-serif" font-size="12">1.00</text>
<polyline points="75.00,275.03 82.42,299.57 89.83,292.84 97.25,294.36 104.67,296.10 112.08,297.17 119.50,296.78 126.92,297.47 134.33,297.63 141.75,297.73 149.17,297.39 156.58,297.62 164.00,297.73 171.42,297.27 178.83,297.27 186.25,294.25 193.67,297.90 201.08,297.71 208.50,295.31 215.92,297.35 223.33,297.37 230.75,296.86 238.17,297.40 245.58,297.22 253.00,296.50 260.42,297.40 267.83,297.60 275.25,297.92 282.67,296.75 290.08,297.06 297.50,297.97 304.92,296.98 312.33,298.48 319.75,298.44 327.17,298.05 334.58,298.00 342.00,299.46 349.42,298.41 356.83,297.75 364.25,297.15 371.67,298.10 379.08,298.02 386.50,297.90 393.92,298.26 401.33,297.84 408.75,297.23 416.17,297.57 423.58,298.42 431.00,298.39 438.42,298.47 445.83,296.97 453.25,298.56 460.67,298.81 468.08,298.52 475.50,299.08 482.92,299.27 490.33,299.00 497.75,299.42 505.17,298.51 512.58,300.46 520.00,300.08 527.42,300.26 534.83,298.39 542.25,300.84 549.67,300.77 557.08,301.07 564.50,301.32 571.92,301.27 579.33,300.91 586.75,301.33 594.17,301.64 601.58,301.65 609.00,300.68 616.42,302.53 623.83,301.73 631.25,301.56 638.67,301.23 646.08,301.75 653.50,301.25 660.92,302.08 668.33,301.92 675.75,301.51 683.17,301.03 690.58,302.37 698.00,302.20 705.42,302.04 712.83,301.26 720.25,301.65 727.67,302.01 735.08,302.64 742.50,302.51 749.92,302.99 757.33,302.83 764.75,303.33 772.17,303.07 779.58,303.40 787.00,303.25 794.42,303.43 801.83,303.07 809.25,303.27 816.67,303.16 824.08,303.42 831.50,303.39 838.92,303.35 846.33,301.52 853.75,303.37 861.17,303.72 868.58,303.30 876.00,303.11 883.42,303.37 890.83,303.88 898.25,303.33 905.67,303.65 913.08,303.45 920.50,303.37 927.92,303.63 935.33,303.43 942.75,303.93 950.17,303.15 957.58,302.73 965.00,303.84" fill="none" stroke="#2563eb" stroke-width="2"/>
<text x="75.0" y="338" font-family="sans-serif" font-size="12" fill="#2563eb">consumer-1</text>
<polyline points="75.00,282.96 82.42,303.66 89.83,291.88 97.25,297.47 104.67,297.59 112.08,295.93 119.50,297.03 126.92,297.40 134.33,296.99 141.75,297.33 149.17,298.13 156.58,298.26 164.00,297.70 171.42,297.31 178.83,296.28 186.25,297.63 193.67,295.32 201.08,297.60 208.50,297.27 215.92,297.71 223.33,296.58 230.75,297.08 238.17,297.35 245.58,298.34 253.00,297.60 260.42,297.83 267.83,298.07 275.25,298.11 282.67,298.08 290.08,297.47 297.50,297.19 304.92,296.99 312.33,298.49 319.75,298.62 327.17,298.05 334.58,298.24 342.00,297.86 349.42,299.89 356.83,297.68 364.25,297.82 371.67,298.33 379.08,298.03 386.50,297.90 393.92,298.17 401.33,298.13 408.75,297.95 416.17,296.88 423.58,298.42 431.00,298.49 438.42,298.45 445.83,298.11 453.25,297.92 460.67,297.74 468.08,299.18 475.50,299.01 482.92,299.33 490.33,298.92 497.75,299.62 505.17,299.34 512.58,299.89 520.00,299.92 527.42,300.10 534.83,298.69 542.25,300.74 549.67,300.72 557.08,301.04 564.50,301.65 571.92,301.08 579.33,300.81 586.75,301.54 594.17,301.43 601.58,301.63 609.00,302.09 616.42,302.03 623.83,301.94 631.25,301.96 638.67,301.21 646.08,301.74 653.50,301.79 660.92,301.56 668.33,301.69 675.75,301.78 683.17,301.80 690.58,302.03 698.00,301.03 705.42,301.57 712.83,301.27 720.25,301.85 727.67,302.23 735.08,301.93 742.50,303.22 749.92,302.74 757.33,302.46 764.75,303.35 772.17,303.00 779.58,303.23 787.00,303.50 794.42,303.34 801.83,303.45 809.25,303.83 816.67,303.56 824.08,303.15 831.50,303.17 838.92,303.84 846.33,303.29 853.75,303.75 861.17,303.30 868.58,303.44 876.00,303.78 883.42,303.28 890.83,303.50 898.25,303.75 905.67,303.31 913.08,303.08 920.50,303.33 927.92,304.20 935.33,303.72 942.75,303.75 950.17,303.30 957.58,304.48 965.00,302.60" fill="none" stroke="#dc2626" stroke-width="2"/>
<text x="255.0" y="338" font-family="sans-serif" font-size="12" fill="#dc2626">consumer-2</text>
<polyline points="75.00,278.71 82.42,297.24 89.83,295.28 97.25,296.36 104.67,295.22 112.08,296.51 119.50,296.80 126.92,297.06 134.33,295.23 141.75,297.68 149.17,298.55 156.58,297.93 164.00,296.17 171.42,297.85 178.83,297.34 186.25,296.71 193.67,297.23 201.08,298.02 208.50,296.94 215.92,296.62 223.33,297.65 230.75,298.15 238.17,297.15 245.58,297.83 253.00,297.71 260.42,296.15 267.83,297.83 275.25,297.34 282.67,296.96 290.08,298.24 297.50,297.31 304.92,296.67 312.33,296.11 319.75,298.75 327.17,297.83 334.58,297.89 342.00,297.89 349.42,299.71 356.83,298.53 364.25,297.66 371.67,297.39 379.08,298.25 386.50,297.81 393.92,298.16 401.33,298.20 408.75,297.97 416.17,298.15 423.58,298.46 431.00,298.38 438.42,298.59 445.83,297.85 453.25,297.16 460.67,298.55 468.08,298.52 475.50,298.96 482.92,299.01 490.33,299.27 497.75,299.42 505.17,299.41 512.58,300.74 520.00,297.70 527.42,300.44 534.83,300.44 542.25,300.68 549.67,301.19 557.08,301.10 564.50,301.04 571.92,300.89 579.33,301.33 586.75,300.99 594.17,302.29 601.58,301.50 609.00,302.04 616.42,300.51 623.83,301.63 631.25,302.00 638.67,301.21 646.08,301.77 653.50,302.22 660.92,302.47 668.33,302.08 675.75,301.78 683.17,301.19 690.58,301.27 698.00,300.93 705.42,301.98 712.83,301.69 720.25,301.39 727.67,300.89 735.08,301.96 742.50,302.37 749.92,302.36 757.33,302.74 764.75,303.40 772.17,302.83 779.58,301.01 787.00,303.16 794.42,303.35 801.83,303.23 809.25,302.73 816.67,302.95 824.08,303.14 831.50,303.77 838.92,303.31 846.33,303.84 853.75,303.37 861.17,303.52 868.58,303.64 876.00,303.36 883.42,303.79 890.83,303.22 898.25,302.98 905.67,304.85 913.08,304.73 920.50,304.49 927.92,303.79 935.33,303.94 942.75,303.58 950.17,303.36 957.58,302.90 965.00,302.56" fill="none" stroke="#16a34a" stroke-width="2"/>
<text x="435.0" y="338" font-family="sans-serif" font-size="12" fill="#16a34a">consumer-3</text>
<polyline points="75.00,283.85 82.42,301.05 89.83,289.87 97.25,297.00 104.67,296.44 112.08,296.97 119.50,297.02 126.92,297.92 134.33,297.02 141.75,296.44 149.17,297.44 156.58,297.83 164.00,296.88 171.42,297.43 178.83,298.24 186.25,296.21 193.67,296.71 201.08,296.58 208.50,297.28 215.92,296.71 223.33,297.56 230.75,296.96 238.17,298.14 245.58,297.97 253.00,298.51 260.42,297.97 267.83,297.31 275.25,298.08 282.67,297.08 290.08,296.65 297.50,296.62 304.92,297.33 312.33,298.56 319.75,298.37 327.17,298.06 334.58,298.29 342.00,299.25 349.42,298.85 356.83,298.07 364.25,296.99 371.67,298.10 379.08,298.25 386.50,298.31 393.92,297.39 401.33,297.07 408.75,298.13 416.17,298.47 423.58,298.50 431.00,297.94 438.42,298.09 445.83,297.16 453.25,297.83 460.67,298.26 468.08,298.88 475.50,299.10 482.92,298.99 490.33,299.68 497.75,299.07 505.17,299.54 512.58,297.99 520.00,300.43 527.42,300.20 534.83,300.73 542.25,301.47 549.67,300.24 557.08,301.09 564.50,301.00 571.92,301.38 579.33,300.85 586.75,302.08 594.17,301.83 601.58,301.65 609.00,300.16 616.42,301.41 623.83,302.02 631.25,301.79 638.67,301.16 646.08,302.99 653.50,301.47 660.92,301.84 668.33,301.74 675.75,301.37 683.17,301.01 690.58,301.17 698.00,301.35 705.42,301.52 712.83,301.86 720.25,301.42 727.67,301.98 735.08,302.73 742.50,303.20 749.92,303.41 757.33,302.93 764.75,303.37 772.17,303.36 779.58,303.25 787.00,302.84 794.42,303.36 801.83,302.85 809.25,303.58 816.67,302.83 824.08,303.39 831.50,303.63 838.92,303.34 846.33,303.85 853.75,303.12 861.17,303.78 868.58,303.60 876.00,303.01 883.42,303.87 890.83,304.63 898.25,303.36 905.67,303.83 913.08,303.25 920.50,303.36 927.92,303.85 935.33,303.72 942.75,304.13 950.17,303.30 957.58,303.00 965.00,304.25" fill="none" stroke="#9333ea" stroke-width="2"/>
<text x="615.0" y="338" font-family="sans-serif" font-size="12" fill="#9333ea">consumer-4</text>
</svg>
