<svg xmlns="http://www.w3.org/2000/svg" width="1000" height="360">
<rect width="100%" height="100%" fill="white"/>
<text x="75.0" y="24" font-family="sans-serif" font-size="18" font-weight="bold">Consumer JVM heap bytes during production</text>
<line x1="75.0" y1="45.0" x2="75.0" y2="305.0" stroke="#64748b"/>
<line x1="75.0" y1="305.0" x2="965.0" y2="305.0" stroke="#64748b"/>
<text x="8" y="50" font-family="sans-serif" font-size="12">213630200.00</text>
<polyline points="75.00,221.76 82.42,211.55 89.83,222.30 97.25,227.62 104.67,237.82 112.08,242.90 119.50,253.13 126.92,263.39 134.33,212.34 141.75,222.88 149.17,227.65 156.58,232.76 164.00,243.10 171.42,253.48 178.83,258.41 186.25,263.47 193.67,212.43 201.08,222.59 208.50,222.58 215.92,227.79 223.33,227.67 230.75,232.79 238.17,232.77 245.58,232.75 253.00,227.67 260.42,232.77 267.83,237.85 275.25,248.13 282.67,248.08 290.08,248.08 297.50,258.28 304.92,258.30 312.33,212.36 319.75,217.49 327.17,222.57 334.58,227.65 342.00,248.04 349.42,258.22 356.83,263.34 364.25,212.30 371.67,217.40 379.08,222.52 386.50,227.61 393.92,237.83 401.33,242.93 408.75,248.02 416.17,253.12 423.58,258.26 431.00,212.32 438.42,222.47 445.83,227.47 453.25,237.57 460.67,247.83 468.08,258.01 475.50,212.07 482.92,227.44 490.33,237.63 497.75,258.27 505.17,217.44 512.58,237.61 520.00,263.15 527.42,227.42 534.83,247.81 542.25,217.19 549.67,237.58 557.08,263.18 564.50,232.55 571.92,263.09 579.33,237.57 586.75,263.12 594.17,237.60 601.58,212.07 609.00,247.94 616.42,232.63 623.83,212.21 631.25,247.80 638.67,227.38 646.08,212.07 653.50,247.79 660.92,232.47 668.33,217.16 675.75,258.04 683.17,242.73 690.58,232.52 698.00,222.31 705.42,212.10 712.83,258.06 720.25,242.74 727.67,232.53 735.08,222.32 742.50,212.12 749.92,258.11 757.33,242.80 764.75,232.59 772.17,222.38 779.58,212.17 787.00,257.98 794.42,247.77 801.83,237.56 809.25,227.35 816.67,222.25 824.08,212.04 831.50,263.02 838.92,252.82 846.33,242.61 853.75,232.40 861.17,227.29 868.58,217.08 876.00,263.10 883.42,252.89 890.83,247.79 898.25,237.58 905.67,227.37 913.08,222.26 920.50,217.16 927.92,262.99 935.33,257.88 942.75,252.78 950.17,247.67 957.58,242.57 965.00,232.36" fill="none" stroke="#2563eb" stroke-width="2"/>
<text x="75.0" y="338" font-family="sans-serif" font-size="12" fill="#2563eb">consumer-1</text>
<polyline points="75.00,255.31 82.42,250.20 89.83,265.92 97.25,214.87 104.67,219.65 112.08,219.81 119.50,219.65 126.92,224.94 134.33,230.29 141.75,229.91 149.17,235.03 156.58,245.39 164.00,250.52 171.42,250.37 178.83,255.46 186.25,209.52 193.67,214.61 201.08,224.73 208.50,234.93 215.92,245.16 223.33,250.04 230.75,255.14 238.17,265.39 245.58,214.34 253.00,224.77 260.42,234.73 267.83,245.01 275.25,260.27 282.67,209.22 290.08,219.55 297.50,224.70 304.92,229.73 312.33,245.01 319.75,260.24 327.17,209.20 334.58,224.53 342.00,234.73 349.42,255.13 356.83,265.31 364.25,214.26 371.67,229.59 379.08,239.79 386.50,250.02 393.92,260.20 401.33,214.26 408.75,224.44 416.17,234.65 423.58,244.86 431.00,260.14 438.42,209.09 445.83,224.42 453.25,239.70 460.67,249.91 468.08,209.07 475.50,224.43 482.92,244.96 490.33,260.16 497.75,224.43 505.17,244.82 512.58,209.09 520.00,234.63 527.42,265.22 534.83,229.49 542.25,255.02 549.67,219.28 557.08,249.96 564.50,224.43 571.92,255.05 579.33,229.53 586.75,265.31 594.17,234.69 601.58,214.27 609.00,255.10 616.42,234.68 623.83,214.27 631.25,255.12 638.67,239.80 646.08,219.38 653.50,260.21 660.92,244.90 668.33,229.58 675.75,214.27 683.17,265.33 690.58,250.02 698.00,234.70 705.42,224.49 712.83,209.18 720.25,260.20 727.67,249.99 735.08,239.78 742.50,229.58 749.92,219.37 757.33,265.18 764.75,254.97 772.17,244.76 779.58,234.55 787.00,224.34 794.42,214.14 801.83,209.03 809.25,260.17 816.67,255.07 824.08,249.96 831.50,239.75 838.92,229.55 846.33,219.34 853.75,214.23 861.17,265.13 868.58,254.92 876.00,249.81 883.42,239.60 890.83,229.40 898.25,219.19 905.67,208.98 913.08,260.04 920.50,254.93 927.92,249.83 935.33,244.72 942.75,244.72 950.17,239.62 957.58,239.62 965.00,234.51" fill="none" stroke="#dc2626" stroke-width="2"/>
<text x="255.0" y="338" font-family="sans-serif" font-size="12" fill="#dc2626">consumer-2</text>
<polyline points="75.00,258.71 82.42,243.39 89.83,207.66 97.25,218.05 104.67,228.32 112.08,233.63 119.50,243.78 126.92,254.10 134.33,264.06 141.75,207.91 149.17,228.46 156.58,238.86 164.00,238.61 171.42,248.83 178.83,258.91 186.25,207.86 193.67,213.14 201.08,228.36 208.50,233.65 215.92,238.71 223.33,248.87 230.75,264.24 238.17,213.19 245.58,218.19 253.00,228.40 260.42,228.41 267.83,238.75 275.25,243.76 282.67,253.90 290.08,264.17 297.50,208.02 304.92,213.05 312.33,223.27 319.75,243.65 327.17,253.89 334.58,264.16 342.00,208.01 349.42,233.48 356.83,248.99 364.25,253.91 371.67,264.09 379.08,218.15 386.50,223.21 393.92,238.54 401.33,253.79 408.75,264.03 416.17,212.99 423.58,228.32 431.00,238.52 438.42,253.80 445.83,263.81 453.25,212.76 460.67,233.20 468.08,248.48 475.50,207.64 482.92,222.86 490.33,243.36 497.75,263.79 505.17,217.85 512.58,248.50 520.00,212.76 527.42,238.22 534.83,263.80 542.25,228.07 549.67,264.03 557.08,228.29 564.50,258.79 571.92,228.16 579.33,263.84 586.75,238.32 594.17,212.79 601.58,253.50 609.00,227.98 616.42,263.84 623.83,243.42 631.25,223.00 638.67,207.69 646.08,248.53 653.50,233.21 660.92,217.90 668.33,207.69 675.75,253.55 683.17,238.24 690.58,222.93 698.00,263.87 705.42,248.55 712.83,238.34 720.25,228.13 727.67,212.82 735.08,258.72 742.50,253.62 749.92,238.30 757.33,228.09 764.75,222.99 772.17,263.84 779.58,253.63 787.00,243.42 794.42,233.21 801.83,223.00 809.25,212.79 816.67,258.58 824.08,248.37 831.50,238.16 838.92,227.95 846.33,222.84 853.75,212.63 861.17,258.59 868.58,253.49 876.00,243.28 883.42,233.07 890.83,222.86 898.25,217.76 905.67,212.65 913.08,212.65 920.50,212.65 927.92,263.76 935.33,258.66 942.75,253.55 950.17,248.45 957.58,238.24 965.00,233.13" fill="none" stroke="#16a34a" stroke-width="2"/>
<text x="435.0" y="338" font-family="sans-serif" font-size="12" fill="#16a34a">consumer-3</text>
<polyline points="75.00,214.78 82.42,209.68 89.83,163.73 97.25,112.69 104.67,66.74 112.08,224.73 119.50,173.69 126.92,122.64 134.33,71.59 141.75,224.51 149.17,168.35 156.58,117.31 164.00,61.16 171.42,224.73 178.83,178.79 186.25,127.74 193.67,76.70 201.08,239.96 208.50,188.91 215.92,132.76 223.33,86.82 230.75,249.64 238.17,203.69 245.58,152.65 253.00,106.70 260.42,60.76 267.83,223.39 275.25,172.34 282.67,121.30 290.08,70.25 297.50,224.12 304.92,178.17 312.33,132.23 319.75,86.29 327.17,249.88 334.58,203.93 342.00,163.10 349.42,117.15 356.83,71.21 364.25,234.87 371.67,183.82 379.08,137.88 386.50,91.94 393.92,254.22 401.33,203.17 408.75,157.23 416.17,106.18 423.58,60.24 431.00,224.61 438.42,173.56 445.83,127.62 453.25,81.68 460.67,254.50 468.08,208.56 475.50,167.72 482.92,121.78 490.33,86.05 497.75,254.75 505.17,219.02 512.58,188.39 520.00,152.65 527.42,116.92 534.83,81.19 542.25,55.66 549.67,234.24 557.08,203.62 564.50,172.99 571.92,147.46 579.33,121.94 586.75,101.52 594.17,76.00 601.58,50.47 609.00,244.08 616.42,223.66 623.83,203.25 631.25,182.83 638.67,167.51 646.08,157.30 653.50,136.88 660.92,121.57 668.33,106.26 675.75,90.94 683.17,75.63 690.58,60.31 698.00,45.00 705.42,259.62 712.83,244.30 720.25,234.09 727.67,223.88 735.08,213.67 742.50,208.57 749.92,203.46 757.33,193.25 764.75,183.05 772.17,172.84 779.58,162.63 787.00,157.52 794.42,147.31 801.83,132.00 809.25,121.79 816.67,111.58 824.08,106.47 831.50,96.27 838.92,86.06 846.33,80.95 853.75,70.74 861.17,60.53 868.58,55.43 876.00,45.22 883.42,264.99 890.83,259.89 898.25,254.78 905.67,249.68 913.08,239.47 920.50,234.36 927.92,229.26 935.33,224.15 942.75,219.05 950.17,213.94 957.58,208.84 965.00,203.73" fill="none" stroke="#9333ea" stroke-width="2"/>
<text x="615.0" y="338" font-family="sans-serif" font-size="12" fill="#9333ea">consumer-4</text>
</svg>
