<svg xmlns="http://www.w3.org/2000/svg" width="1000" height="360">
<rect width="100%" height="100%" fill="white"/>
<text x="75.0" y="24" font-family="sans-serif" font-size="18" font-weight="bold">PostgreSQL commits / second during production</text>
<line x1="75.0" y1="45.0" x2="75.0" y2="305.0" stroke="#64748b"/>
<line x1="75.0" y1="305.0" x2="965.0" y2="305.0" stroke="#64748b"/>
<text x="8" y="50" font-family="sans-serif" font-size="12">11474.44</text>
<polyline points="75.00,246.36 82.42,244.94 89.83,232.15 97.25,206.66 104.67,177.84 112.08,152.32 119.50,122.49 126.92,106.06 134.33,98.08 141.75,94.01 149.17,65.62 156.58,50.65 164.00,46.88 171.42,47.78 178.83,45.00 186.25,48.09 193.67,48.14 201.08,47.86 208.50,48.44 215.92,48.83 223.33,48.38 230.75,49.27 238.17,50.51 245.58,50.83 253.00,50.04 260.42,49.32 267.83,49.05 275.25,48.76 282.67,51.69 290.08,51.79 297.50,51.98 304.92,48.81 312.33,48.88 319.75,52.76 327.17,55.98 334.58,56.29 342.00,57.67 349.42,63.13 356.83,66.17 364.25,66.91 371.67,69.14 379.08,70.99 386.50,67.97 393.92,67.37 401.33,68.59 408.75,69.02 416.17,63.21 423.58,60.89 431.00,63.05 438.42,65.27 445.83,65.25 453.25,66.35 460.67,68.44 468.08,70.92 475.50,73.16 482.92,77.13 490.33,81.09 497.75,84.21 505.17,88.31 512.58,96.97 520.00,102.94 527.42,109.50 534.83,113.77 542.25,119.68 549.67,125.37 557.08,131.24 564.50,137.70 571.92,142.82 579.33,146.78 586.75,152.30 594.17,156.68 601.58,163.12 609.00,169.46 616.42,175.98 623.83,182.48 631.25,187.80 638.67,195.79 646.08,200.31 653.50,207.61 660.92,212.15 668.33,216.28 675.75,219.66 683.17,223.46 690.58,226.50 698.00,229.72 705.42,231.42 712.83,233.95 720.25,234.78 727.67,237.77 735.08,240.66 742.50,245.69 749.92,247.69 757.33,250.01 764.75,251.00 772.17,252.32 779.58,254.51 787.00,256.25 794.42,255.98 801.83,258.96 809.25,256.25 816.67,256.62 824.08,257.69 831.50,259.53 838.92,260.96 846.33,259.92 853.75,261.88 861.17,263.19 868.58,261.22 876.00,263.15 883.42,263.43 890.83,262.83 898.25,265.46 905.67,264.93 913.08,266.54 920.50,266.38 927.92,268.50 935.33,271.34 942.75,272.70 950.17,274.05 957.58,278.54 965.00,277.48" fill="none" stroke="#2563eb" stroke-width="2"/>
<text x="75.0" y="338" font-family="sans-serif" font-size="12" fill="#2563eb">series-1</text>
</svg>
