<svg xmlns="http://www.w3.org/2000/svg" width="1000" height="360">
<rect width="100%" height="100%" fill="white"/>
<text x="75.0" y="24" font-family="sans-serif" font-size="18" font-weight="bold">Produced vs processed records / second</text>
<line x1="75.0" y1="45.0" x2="75.0" y2="305.0" stroke="#64748b"/>
<line x1="75.0" y1="305.0" x2="965.0" y2="305.0" stroke="#64748b"/>
<text x="8" y="50" font-family="sans-serif" font-size="12">10153.51</text>
<polyline points="75.00,48.57 114.13,49.66 153.23,48.53 192.46,48.82 231.83,49.29 271.18,48.60 310.57,49.45 350.00,48.54 389.49,49.10 429.09,49.67 468.75,48.12 508.67,48.34 550.22,49.77 594.38,49.53 636.23,47.81 678.28,47.61 724.84,54.23 766.63,45.00 809.64,50.60 852.71,47.70 896.46,49.49 944.64,46.51 965.00,61.17" fill="none" stroke="#2563eb" stroke-width="2"/>
<text x="75.0" y="338" font-family="sans-serif" font-size="12" fill="#2563eb">produced</text>
<polyline points="75.00,50.52 114.13,45.67 153.23,53.14 192.46,47.57 231.83,50.63 271.18,48.22 310.57,78.26 350.00,57.16 389.49,64.10 429.09,73.03 468.75,95.45 508.67,132.84 550.22,156.06 594.38,190.55 636.23,219.45 678.28,237.13 724.84,256.55 766.63,256.88 809.64,261.93 852.71,264.81 896.46,270.44 944.64,283.24 965.00,285.92" fill="none" stroke="#dc2626" stroke-width="2"/>
<text x="255.0" y="338" font-family="sans-serif" font-size="12" fill="#dc2626">processed</text>
</svg>
