<svg xmlns="http://www.w3.org/2000/svg" width="1000" height="360">
<rect width="100%" height="100%" fill="white"/>
<text x="75.0" y="24" font-family="sans-serif" font-size="18" font-weight="bold">Processed outbox records / second during production</text>
<line x1="75.0" y1="45.0" x2="75.0" y2="305.0" stroke="#64748b"/>
<line x1="75.0" y1="305.0" x2="965.0" y2="305.0" stroke="#64748b"/>
<text x="8" y="50" font-family="sans-serif" font-size="12">10241.68</text>
<polyline points="75.00,168.97 82.42,164.02 89.83,142.65 97.25,130.52 104.67,119.41 112.08,62.43 119.50,50.02 126.92,52.26 134.33,48.08 141.75,48.39 149.17,49.16 156.58,49.03 164.00,47.54 171.42,52.73 178.83,53.28 186.25,50.32 193.67,55.34 201.08,55.27 208.50,50.23 215.92,51.87 223.33,49.52 230.75,51.08 238.17,53.36 245.58,53.44 253.00,53.08 260.42,48.02 267.83,51.86 275.25,54.48 282.67,56.34 290.08,56.88 297.50,52.24 304.92,45.00 312.33,51.46 319.75,59.22 327.17,64.40 334.58,71.78 342.00,72.02 349.42,78.24 356.83,77.94 364.25,74.92 371.67,71.18 379.08,60.29 386.50,59.58 393.92,62.78 401.33,63.63 408.75,65.22 416.17,64.48 423.58,65.11 431.00,66.02 438.42,67.17 445.83,69.67 453.25,72.61 460.67,75.84 468.08,80.41 475.50,87.29 482.92,91.16 490.33,95.28 497.75,100.16 505.17,103.91 512.58,116.93 520.00,124.68 527.42,132.01 534.83,138.68 542.25,138.40 549.67,142.27 557.08,144.96 564.50,151.76 571.92,156.57 579.33,164.44 586.75,171.63 594.17,177.67 601.58,183.35 609.00,187.98 616.42,194.56 623.83,200.79 631.25,206.41 638.67,212.00 646.08,216.64 653.50,218.06 660.92,224.37 668.33,227.75 675.75,229.86 683.17,234.97 690.58,237.43 698.00,239.35 705.42,243.67 712.83,246.20 720.25,246.87 727.67,250.68 735.08,252.82 742.50,259.75 749.92,261.40 757.33,259.47 764.75,260.13 772.17,256.02 779.58,256.80 787.00,259.95 794.42,259.15 801.83,257.33 809.25,259.70 816.67,261.63 824.08,263.63 831.50,267.77 838.92,265.87 846.33,265.83 853.75,264.82 861.17,264.98 868.58,266.06 876.00,265.61 883.42,267.75 890.83,268.71 898.25,268.31 905.67,270.91 913.08,273.64 920.50,275.57 927.92,281.37 935.33,283.55 942.75,285.03 950.17,285.45 957.58,284.12 965.00,284.23" fill="none" stroke="#2563eb" stroke-width="2"/>
<text x="75.0" y="338" font-family="sans-serif" font-size="12" fill="#2563eb">series-1</text>
</svg>
