<svg xmlns="http://www.w3.org/2000/svg" width="1000" height="360">
<rect width="100%" height="100%" fill="white"/>
<text x="75.0" y="24" font-family="sans-serif" font-size="18" font-weight="bold">Processed records / second by consumer during production</text>
<line x1="75.0" y1="45.0" x2="75.0" y2="305.0" stroke="#64748b"/>
<line x1="75.0" y1="305.0" x2="965.0" y2="305.0" stroke="#64748b"/>
<text x="8" y="50" font-family="sans-serif" font-size="12">2727.41</text>
<polyline points="75.00,175.00 82.42,168.04 89.83,140.06 97.25,127.24 104.67,113.79 112.08,62.89 119.50,63.72 126.92,69.01 134.33,67.58 141.75,70.81 149.17,62.24 156.58,62.89 164.00,66.52 171.42,63.70 178.83,66.87 186.25,59.81 193.67,61.14 201.08,64.44 208.50,59.01 215.92,68.49 223.33,60.87 230.75,61.85 238.17,64.41 245.58,59.55 253.00,52.20 260.42,48.90 267.83,56.38 275.25,65.44 282.67,74.83 290.08,72.40 297.50,72.43 304.92,62.24 312.33,70.55 319.75,78.57 327.17,77.60 334.58,83.56 342.00,93.19 349.42,95.06 356.83,97.11 364.25,93.89 371.67,80.85 379.08,75.96 386.50,73.23 393.92,78.90 401.33,79.02 408.75,81.70 416.17,78.67 423.58,77.96 431.00,79.25 438.42,82.07 445.83,84.00 453.25,88.31 460.67,92.72 468.08,92.80 475.50,101.93 482.92,105.79 490.33,106.72 497.75,114.94 505.17,117.44 512.58,128.35 520.00,138.61 527.42,144.37 534.83,152.61 542.25,150.29 549.67,151.85 557.08,153.00 564.50,161.47 571.92,169.75 579.33,177.86 586.75,182.41 594.17,183.52 601.58,187.26 609.00,190.44 616.42,205.78 623.83,213.24 631.25,218.66 638.67,224.97 646.08,218.99 653.50,219.60 660.92,225.35 668.33,229.90 675.75,236.31 683.17,240.37 690.58,246.76 698.00,251.05 705.42,255.20 712.83,259.84 720.25,255.27 727.67,254.98 735.08,257.00 742.50,258.91 749.92,260.54 757.33,257.90 764.75,256.03 772.17,255.55 779.58,257.28 787.00,261.53 794.42,262.43 801.83,259.12 809.25,260.22 816.67,266.73 824.08,269.74 831.50,276.21 838.92,274.47 846.33,269.81 853.75,266.86 861.17,267.41 868.58,267.14 876.00,267.75 883.42,266.88 890.83,266.87 898.25,266.59 905.67,266.37 913.08,271.10 920.50,271.41 927.92,278.36 935.33,279.57 942.75,281.91 950.17,282.59 957.58,279.49 965.00,281.64" fill="none" stroke="#2563eb" stroke-width="2"/>
<text x="75.0" y="338" font-family="sans-serif" font-size="12" fill="#2563eb">consumer-1</text>
<polyline points="75.00,175.03 82.42,178.16 89.83,157.15 97.25,147.52 104.67,145.49 112.08,78.15 119.50,64.06 126.92,64.80 134.33,57.20 141.75,62.25 149.17,68.03 156.58,70.20 164.00,75.18 171.42,80.29 178.83,77.50 186.25,75.35 193.67,73.02 201.08,72.14 208.50,72.64 215.92,70.78 223.33,65.30 230.75,65.45 238.17,62.57 245.58,63.86 253.00,67.39 260.42,71.00 267.83,74.84 275.25,78.11 282.67,83.84 290.08,80.10 297.50,74.12 304.92,63.96 312.33,66.80 319.75,75.42 327.17,80.48 334.58,88.97 342.00,81.72 349.42,91.12 356.83,88.79 364.25,86.31 371.67,92.57 379.08,75.91 386.50,77.69 393.92,79.21 401.33,77.39 408.75,78.60 416.17,79.74 423.58,80.36 431.00,81.11 438.42,81.79 445.83,85.24 453.25,89.01 460.67,89.13 468.08,97.90 475.50,100.41 482.92,104.55 490.33,108.60 497.75,112.01 505.17,116.44 512.58,125.54 520.00,133.53 527.42,142.65 534.83,149.09 542.25,148.83 549.67,152.19 557.08,151.28 564.50,162.00 571.92,166.54 579.33,177.09 586.75,181.12 594.17,180.82 601.58,187.29 609.00,193.06 616.42,203.57 623.83,212.77 631.25,218.82 638.67,221.64 646.08,221.21 653.50,221.33 660.92,224.35 668.33,226.26 675.75,230.22 683.17,239.72 690.58,245.46 698.00,246.85 705.42,249.97 712.83,247.36 720.25,247.24 727.67,253.63 735.08,255.57 742.50,262.36 749.92,262.05 757.33,257.45 764.75,258.33 772.17,253.93 779.58,256.31 787.00,261.57 794.42,262.54 801.83,265.68 809.25,270.76 816.67,272.81 824.08,276.08 831.50,273.72 838.92,271.52 846.33,268.11 853.75,267.58 861.17,268.58 868.58,266.87 876.00,270.59 883.42,266.88 890.83,265.68 898.25,266.87 905.67,263.06 913.08,266.91 920.50,270.13 927.92,274.73 935.33,282.53 942.75,286.73 950.17,291.33 957.58,293.68 965.00,293.28" fill="none" stroke="#dc2626" stroke-width="2"/>
<text x="255.0" y="338" font-family="sans-serif" font-size="12" fill="#dc2626">consumer-2</text>
<polyline points="75.00,176.84 82.42,166.39 89.83,156.69 97.25,143.20 104.67,133.37 112.08,91.23 119.50,64.70 126.92,65.58 134.33,67.55 141.75,66.80 149.17,78.19 156.58,76.91 164.00,66.51 171.42,72.89 178.83,62.65 186.25,60.48 193.67,70.54 201.08,70.36 208.50,64.81 215.92,64.34 223.33,68.08 230.75,68.85 238.17,73.54 245.58,73.78 253.00,71.79 260.42,55.46 267.83,58.27 275.25,52.94 282.67,54.52 290.08,67.81 297.50,62.81 304.92,60.81 312.33,62.80 319.75,69.00 327.17,73.48 334.58,82.86 342.00,78.71 349.42,86.44 356.83,90.68 364.25,88.25 371.67,89.88 379.08,75.05 386.50,71.27 393.92,74.65 401.33,79.45 408.75,81.72 416.17,81.55 423.58,82.93 431.00,81.00 438.42,83.55 445.83,86.08 453.25,85.41 460.67,89.77 468.08,90.27 475.50,98.83 482.92,104.40 490.33,109.13 497.75,113.56 505.17,113.01 512.58,127.52 520.00,133.42 527.42,140.94 534.83,148.07 542.25,143.89 549.67,151.83 557.08,155.20 564.50,159.73 571.92,164.68 579.33,167.04 586.75,173.19 594.17,186.14 601.58,193.36 609.00,198.32 616.42,199.44 623.83,200.09 631.25,205.31 638.67,211.01 646.08,220.11 653.50,223.45 660.92,233.27 668.33,236.95 675.75,240.25 683.17,243.18 690.58,239.03 698.00,237.93 705.42,242.73 712.83,245.27 720.25,248.89 727.67,253.88 735.08,254.11 742.50,261.53 749.92,261.10 757.33,261.26 764.75,265.32 772.17,260.30 779.58,262.29 787.00,263.03 794.42,259.23 801.83,259.24 809.25,259.24 816.67,259.42 824.08,259.42 831.50,263.22 838.92,263.36 846.33,266.87 853.75,267.82 861.17,266.87 868.58,270.09 876.00,266.88 883.42,269.73 890.83,266.91 898.25,267.32 905.67,278.31 913.08,285.93 920.50,297.03 927.92,299.76 935.33,295.95 942.75,290.94 950.17,284.84 957.58,282.12 965.00,278.91" fill="none" stroke="#16a34a" stroke-width="2"/>
<text x="435.0" y="338" font-family="sans-serif" font-size="12" fill="#16a34a">consumer-3</text>
<polyline points="75.00,182.31 82.42,178.02 89.83,156.47 97.25,146.85 104.67,130.45 112.08,76.85 119.50,70.04 126.92,71.56 134.33,62.92 141.75,56.57 149.17,50.84 156.58,48.83 164.00,45.00 171.42,55.83 178.83,67.76 186.25,68.01 193.67,77.81 201.08,75.32 208.50,66.85 215.92,65.87 223.33,66.40 230.75,70.37 238.17,74.54 245.58,78.20 253.00,82.64 260.42,79.66 267.83,79.95 275.25,82.81 282.67,73.07 290.08,67.98 297.50,61.51 304.92,56.66 312.33,67.76 319.75,74.09 327.17,84.97 334.58,88.85 342.00,91.53 349.42,95.87 356.83,90.80 364.25,87.58 371.67,78.67 379.08,74.17 386.50,76.24 393.92,77.69 401.33,77.78 408.75,77.57 416.17,76.88 423.58,77.94 431.00,81.23 438.42,79.53 445.83,80.98 453.25,84.64 460.67,87.88 468.08,95.66 475.50,101.32 482.92,102.25 490.33,108.03 497.75,110.31 505.17,117.99 512.58,132.38 520.00,137.32 527.42,142.44 534.83,145.68 542.25,151.40 549.67,153.06 557.08,159.57 564.50,161.39 571.92,161.66 579.33,170.18 586.75,182.48 594.17,191.37 601.58,195.29 609.00,198.75 616.42,196.48 623.83,202.57 631.25,206.98 638.67,213.17 646.08,227.90 653.50,229.14 660.92,234.24 668.33,236.82 675.75,231.07 683.17,233.77 690.58,235.02 698.00,237.65 705.42,241.80 712.83,246.73 720.25,250.31 727.67,253.55 735.08,257.40 742.50,267.27 749.92,272.59 757.33,272.43 764.75,271.83 772.17,266.30 779.58,263.14 787.00,264.70 794.42,263.63 801.83,256.94 809.25,259.66 816.67,258.18 824.08,259.41 831.50,267.03 838.92,263.68 846.33,268.12 853.75,266.87 861.17,266.86 868.58,269.69 876.00,266.87 883.42,276.65 890.83,284.27 898.25,281.43 905.67,284.27 913.08,278.30 920.50,270.92 927.92,278.41 935.33,281.39 942.75,285.44 950.17,287.84 957.58,286.29 965.00,288.19" fill="none" stroke="#9333ea" stroke-width="2"/>
<text x="615.0" y="338" font-family="sans-serif" font-size="12" fill="#9333ea">consumer-4</text>
</svg>
