<svg xmlns="http://www.w3.org/2000/svg" width="1000" height="360">
<rect width="100%" height="100%" fill="white"/>
<text x="75.0" y="24" font-family="sans-serif" font-size="18" font-weight="bold">Remaining outbox backlog</text>
<line x1="75.0" y1="45.0" x2="75.0" y2="305.0" stroke="#64748b"/>
<line x1="75.0" y1="305.0" x2="965.0" y2="305.0" stroke="#64748b"/>
<text x="8" y="50" font-family="sans-serif" font-size="12">469633.00</text>
<polyline points="75.00,304.29 94.71,303.96 114.49,303.90 134.23,303.62 154.02,302.58 173.87,302.73 193.69,303.01 213.54,300.56 233.51,299.62 253.58,299.02 273.56,297.70 293.59,294.93 313.74,287.97 334.55,279.09 355.71,264.92 377.06,246.17 398.31,224.88 422.55,203.21 448.08,167.42 473.56,137.99 500.75,100.69 527.34,66.50 542.85,45.00 576.50,46.62 606.12,48.28 634.10,50.03 661.54,51.60 694.92,53.19 721.60,54.98 748.57,56.37 782.43,57.83 802.67,70.60 822.97,103.78 843.40,135.53 863.63,168.15 883.86,200.87 904.15,235.27 924.50,269.51 944.68,301.15 965.00,305.00" fill="none" stroke="#2563eb" stroke-width="2"/>
<text x="75.0" y="338" font-family="sans-serif" font-size="12" fill="#2563eb">new</text>
</svg>
