<svg xmlns="http://www.w3.org/2000/svg" width="1000" height="360">
<rect width="100%" height="100%" fill="white"/>
<text x="75.0" y="24" font-family="sans-serif" font-size="18" font-weight="bold">Consumer JVM heap bytes during production</text>
<line x1="75.0" y1="45.0" x2="75.0" y2="305.0" stroke="#64748b"/>
<line x1="75.0" y1="305.0" x2="965.0" y2="305.0" stroke="#64748b"/>
<text x="8" y="50" font-family="sans-serif" font-size="12">214400272.00</text>
<polyline points="75.00,97.10 82.42,86.93 89.83,61.49 97.25,240.40 104.67,204.80 112.08,164.11 119.50,133.59 126.92,103.07 134.33,67.47 141.75,250.40 149.17,214.80 156.58,184.28 164.00,153.76 171.42,118.15 178.83,82.55 186.25,57.12 193.67,235.03 201.08,199.42 208.50,163.82 215.92,128.22 223.33,102.78 230.75,67.18 238.17,249.78 245.58,219.26 253.00,188.74 260.42,153.14 267.83,117.53 275.25,92.10 282.67,56.50 290.08,239.30 297.50,203.69 304.92,168.09 312.33,137.57 319.75,101.96 327.17,66.36 334.58,245.16 342.00,234.99 349.42,199.38 356.83,168.86 364.25,138.35 371.67,102.74 379.08,72.22 386.50,260.28 393.92,224.68 401.33,194.16 408.75,163.64 416.17,128.04 423.58,97.52 431.00,61.91 438.42,245.53 445.83,215.02 453.25,184.50 460.67,153.98 468.08,123.46 475.50,92.94 482.92,57.34 490.33,249.67 497.75,219.15 505.17,193.72 512.58,173.38 520.00,147.95 527.42,122.51 534.83,92.00 542.25,71.65 549.67,260.07 557.08,234.63 564.50,214.29 571.92,193.94 579.33,173.60 586.75,153.25 594.17,132.91 601.58,112.56 609.00,97.30 616.42,82.04 623.83,66.78 631.25,56.61 638.67,259.16 646.08,243.91 653.50,233.73 660.92,223.56 668.33,213.39 675.75,203.21 683.17,193.04 690.58,182.87 698.00,172.70 705.42,162.52 712.83,152.35 720.25,147.26 727.67,137.09 735.08,132.00 742.50,121.83 749.92,116.75 757.33,106.57 764.75,101.49 772.17,96.40 779.58,96.40 787.00,96.40 794.42,96.40 801.83,96.40 809.25,91.31 816.67,86.23 824.08,86.23 831.50,81.14 838.92,81.14 846.33,76.05 853.75,76.05 861.17,70.97 868.58,70.97 876.00,70.97 883.42,65.88 890.83,65.88 898.25,60.80 905.67,60.80 913.08,55.71 920.50,50.62 927.92,50.62 935.33,264.46 942.75,259.38 950.17,259.38 957.58,254.29 965.00,254.29" fill="none" stroke="#2563eb" stroke-width="2"/>
<text x="75.0" y="338" font-family="sans-serif" font-size="12" fill="#2563eb">consumer-1</text>
<polyline points="75.00,229.64 82.42,214.38 89.83,188.95 97.25,153.35 104.67,117.74 112.08,77.05 119.50,250.10 126.92,214.50 134.33,173.81 141.75,138.20 149.17,102.60 156.58,67.00 164.00,234.49 171.42,198.89 178.83,168.37 186.25,137.85 193.67,107.33 201.08,66.64 208.50,244.76 215.92,214.25 223.33,178.64 230.75,153.21 238.17,117.60 245.58,82.00 253.00,260.48 260.42,229.96 267.83,199.44 275.25,163.84 282.67,133.32 290.08,97.72 297.50,62.11 304.92,229.18 312.33,193.58 319.75,157.97 327.17,127.45 334.58,96.93 342.00,81.68 349.42,254.60 356.83,219.00 364.25,188.48 371.67,157.96 379.08,122.36 386.50,91.84 393.92,265.01 401.33,229.41 408.75,198.89 416.17,163.29 423.58,132.77 431.00,97.16 438.42,61.56 445.83,239.84 453.25,204.23 460.67,173.71 468.08,143.20 475.50,112.68 482.92,77.07 490.33,254.48 497.75,223.97 505.17,203.62 512.58,183.28 520.00,152.76 527.42,127.33 534.83,101.89 542.25,71.38 549.67,249.45 557.08,229.11 564.50,203.68 571.92,178.24 579.33,157.90 586.75,137.55 594.17,117.21 601.58,107.03 609.00,91.78 616.42,76.52 623.83,264.39 631.25,249.13 638.67,233.87 646.08,218.61 653.50,208.44 660.92,198.27 668.33,188.09 675.75,172.83 683.17,167.75 690.58,157.57 698.00,147.40 705.42,142.32 712.83,137.23 720.25,127.06 727.67,121.97 735.08,116.88 742.50,111.80 749.92,106.71 757.33,96.54 764.75,91.45 772.17,86.37 779.58,76.19 787.00,71.11 794.42,60.93 801.83,264.31 809.25,259.22 816.67,249.05 824.08,243.96 831.50,233.79 838.92,233.79 846.33,223.62 853.75,218.53 861.17,213.45 868.58,208.36 876.00,203.27 883.42,198.19 890.83,198.19 898.25,198.19 905.67,193.10 913.08,193.10 920.50,193.10 927.92,193.10 935.33,193.10 942.75,188.01 950.17,188.01 957.58,188.01 965.00,188.01" fill="none" stroke="#dc2626" stroke-width="2"/>
<text x="255.0" y="338" font-family="sans-serif" font-size="12" fill="#dc2626">consumer-2</text>
<polyline points="75.00,224.26 82.42,219.18 89.83,249.48 97.25,218.97 104.67,234.66 112.08,255.22 119.50,224.70 126.92,250.08 134.33,214.47 141.75,239.87 149.17,260.08 156.58,234.65 164.00,265.21 171.42,224.52 178.83,255.11 186.25,214.42 193.67,244.82 201.08,209.21 208.50,234.52 215.92,264.92 223.33,224.23 230.75,249.74 238.17,219.22 245.58,244.73 253.00,209.12 260.42,229.28 267.83,254.89 275.25,224.37 282.67,244.71 290.08,214.19 297.50,234.54 304.92,259.98 312.33,219.29 319.75,244.67 327.17,209.07 334.58,234.58 342.00,219.32 349.42,249.79 356.83,214.19 364.25,239.60 371.67,209.08 379.08,229.58 386.50,259.96 393.92,224.35 401.33,249.73 408.75,214.13 416.17,244.65 423.58,214.13 431.00,239.49 438.42,264.82 445.83,234.30 453.25,259.75 460.67,224.14 468.08,254.64 475.50,219.03 482.92,249.59 490.33,219.07 497.75,249.59 505.17,219.07 512.58,259.77 520.00,234.33 527.42,264.81 534.83,239.38 542.25,213.94 549.67,249.56 557.08,219.05 564.50,259.72 571.92,234.29 579.33,213.94 586.75,259.75 594.17,239.40 601.58,219.05 609.00,264.73 616.42,249.47 623.83,229.12 631.25,213.86 638.67,259.79 646.08,244.53 653.50,234.36 660.92,224.19 668.33,219.10 675.75,208.93 683.17,259.74 690.58,249.56 698.00,239.39 705.42,229.22 712.83,219.04 720.25,208.87 727.67,264.86 735.08,254.69 742.50,249.60 749.92,239.43 757.33,229.25 764.75,224.17 772.17,214.00 779.58,264.78 787.00,259.69 794.42,249.52 801.83,244.43 809.25,234.26 816.67,229.17 824.08,224.09 831.50,224.09 838.92,219.00 846.33,219.00 853.75,219.00 861.17,219.00 868.58,219.00 876.00,213.91 883.42,208.83 890.83,259.59 898.25,259.59 905.67,249.42 913.08,244.33 920.50,239.24 927.92,234.16 935.33,229.07 942.75,223.98 950.17,218.90 957.58,218.90 965.00,213.81" fill="none" stroke="#16a34a" stroke-width="2"/>
<text x="435.0" y="338" font-family="sans-serif" font-size="12" fill="#16a34a">consumer-3</text>
<polyline points="75.00,106.63 82.42,101.54 89.83,81.20 97.25,260.43 104.67,224.82 112.08,194.30 119.50,158.70 126.92,128.18 134.33,92.58 141.75,62.06 149.17,244.97 156.58,209.37 164.00,173.76 171.42,138.16 178.83,107.64 186.25,72.04 193.67,254.89 201.08,219.28 208.50,183.68 215.92,158.25 223.33,122.64 230.75,97.21 238.17,71.78 245.58,255.25 253.00,214.56 260.42,173.87 267.83,138.26 275.25,102.66 282.67,72.14 290.08,255.47 297.50,219.86 304.92,189.34 312.33,153.74 319.75,118.13 327.17,82.53 334.58,260.28 342.00,239.93 349.42,214.50 356.83,183.98 364.25,153.46 371.67,117.86 379.08,82.25 386.50,51.74 393.92,239.85 401.33,204.24 408.75,168.64 416.17,138.12 423.58,107.60 431.00,72.00 438.42,260.10 445.83,229.58 453.25,199.07 460.67,163.46 468.08,132.94 475.50,102.43 482.92,71.91 490.33,259.83 497.75,229.31 505.17,198.80 512.58,178.45 520.00,153.02 527.42,127.59 534.83,102.16 542.25,76.72 549.67,51.29 557.08,239.81 564.50,224.55 571.92,199.12 579.33,173.68 586.75,153.34 594.17,132.99 601.58,122.82 609.00,102.48 616.42,87.22 623.83,71.96 631.25,56.70 638.67,259.86 646.08,244.60 653.50,234.43 660.92,219.17 668.33,208.99 675.75,198.82 683.17,188.65 690.58,178.48 698.00,173.39 705.42,163.22 712.83,153.04 720.25,147.96 727.67,137.78 735.08,127.61 742.50,122.53 749.92,117.44 757.33,107.27 764.75,102.18 772.17,97.09 779.58,86.92 787.00,81.83 794.42,71.66 801.83,66.58 809.25,56.40 816.67,264.81 824.08,259.73 831.50,249.55 838.92,244.47 846.33,239.38 853.75,229.21 861.17,224.12 868.58,219.04 876.00,213.95 883.42,213.95 890.83,213.95 898.25,208.86 905.67,208.86 913.08,203.78 920.50,203.78 927.92,198.69 935.33,193.60 942.75,188.52 950.17,183.43 957.58,183.43 965.00,178.34" fill="none" stroke="#9333ea" stroke-width="2"/>
<text x="615.0" y="338" font-family="sans-serif" font-size="12" fill="#9333ea">consumer-4</text>
<polyline points="75.00,85.69 82.42,75.52 89.83,45.00 97.25,234.63 104.67,193.94 112.08,148.16 119.50,112.56 126.92,76.95 134.33,260.06 141.75,234.63 149.17,204.11 156.58,173.59 164.00,137.99 171.42,107.47 178.83,76.95 186.25,46.43 193.67,234.70 201.08,199.10 208.50,173.67 215.92,143.15 223.33,102.46 230.75,77.03 238.17,260.04 245.58,234.60 253.00,199.00 260.42,163.40 267.83,127.79 275.25,92.19 282.67,61.67 290.08,249.64 297.50,214.03 304.92,178.43 312.33,142.82 319.75,107.22 327.17,71.61 334.58,260.09 342.00,244.83 349.42,209.22 356.83,178.71 364.25,148.19 371.67,112.58 379.08,82.06 386.50,46.46 393.92,234.64 401.33,204.12 408.75,168.52 416.17,138.00 423.58,107.48 431.00,71.88 438.42,264.77 445.83,229.16 453.25,203.73 460.67,168.13 468.08,137.61 475.50,107.09 482.92,76.57 490.33,51.14 497.75,239.36 505.17,213.93 512.58,198.67 520.00,168.15 527.42,142.72 534.83,117.28 542.25,91.85 549.67,66.42 557.08,264.27 564.50,243.92 571.92,218.49 579.33,198.14 586.75,182.89 594.17,162.54 601.58,142.19 609.00,132.02 616.42,111.68 623.83,101.50 631.25,86.24 638.67,76.07 646.08,60.81 653.50,50.64 660.92,264.83 668.33,249.57 675.75,239.40 683.17,229.23 690.58,219.05 698.00,213.97 705.42,203.79 712.83,193.62 720.25,188.54 727.67,178.36 735.08,173.28 742.50,168.19 749.92,158.02 757.33,158.02 764.75,158.02 772.17,152.93 779.58,147.84 787.00,142.76 794.42,137.67 801.83,132.59 809.25,127.50 816.67,122.41 824.08,117.33 831.50,112.24 838.92,112.24 846.33,107.15 853.75,102.07 861.17,96.98 868.58,96.98 876.00,91.89 883.42,86.81 890.83,81.72 898.25,71.55 905.67,71.55 913.08,66.46 920.50,66.46 927.92,61.38 935.33,56.29 942.75,51.20 950.17,51.20 957.58,264.56 965.00,259.47" fill="none" stroke="#ea580c" stroke-width="2"/>
<text x="795.0" y="338" font-family="sans-serif" font-size="12" fill="#ea580c">consumer-5</text>
<polyline points="75.00,229.09 82.42,224.00 89.83,249.59 97.25,213.98 104.67,234.43 112.08,254.65 119.50,224.14 126.92,249.79 134.33,214.19 141.75,239.50 149.17,259.88 156.58,224.27 164.00,244.56 171.42,208.95 178.83,234.54 186.25,259.90 193.67,224.29 201.08,249.69 208.50,214.09 215.92,239.41 223.33,264.91 230.75,229.30 238.17,259.64 245.58,224.04 253.00,249.55 260.42,213.94 267.83,239.36 275.25,259.70 282.67,229.18 290.08,259.76 297.50,224.16 304.92,249.51 312.33,213.91 319.75,239.31 327.17,254.55 334.58,213.86 342.00,264.80 349.42,229.19 356.83,254.55 364.25,218.94 371.67,244.40 379.08,213.88 386.50,239.27 393.92,264.67 401.33,229.06 408.75,259.62 416.17,224.02 423.58,254.54 431.00,218.93 438.42,244.36 445.83,208.76 453.25,239.29 460.67,264.57 468.08,234.05 475.50,264.68 482.92,229.08 490.33,259.59 497.75,229.07 505.17,264.67 512.58,239.24 520.00,213.81 527.42,244.26 534.83,218.83 542.25,254.43 549.67,229.00 557.08,259.58 564.50,239.24 571.92,218.89 579.33,259.51 586.75,234.08 594.17,218.82 601.58,254.49 609.00,239.23 616.42,223.97 623.83,208.71 631.25,259.64 638.67,244.39 646.08,229.13 653.50,218.95 660.92,264.68 668.33,254.50 675.75,244.33 683.17,234.16 690.58,223.98 698.00,213.81 705.42,259.45 712.83,254.37 720.25,244.19 727.67,234.02 735.08,228.94 742.50,218.76 749.92,213.68 757.33,208.59 764.75,259.53 772.17,249.36 779.58,244.27 787.00,239.18 794.42,229.01 801.83,223.92 809.25,218.84 816.67,264.55 824.08,259.46 831.50,249.29 838.92,244.20 846.33,239.12 853.75,234.03 861.17,228.95 868.58,223.86 876.00,213.69 883.42,208.60 890.83,259.46 898.25,254.37 905.67,249.29 913.08,244.20 920.50,239.11 927.92,234.03 935.33,228.94 942.75,223.85 950.17,218.77 957.58,213.68 965.00,213.68" fill="none" stroke="#0891b2" stroke-width="2"/>
<text x="975.0" y="338" font-family="sans-serif" font-size="12" fill="#0891b2">consumer-6</text>
</svg>
