<svg xmlns="http://www.w3.org/2000/svg" width="1000" height="360">
<rect width="100%" height="100%" fill="white"/>
<text x="75.0" y="24" font-family="sans-serif" font-size="18" font-weight="bold">Consumer process CPU usage during production</text>
<line x1="75.0" y1="45.0" x2="75.0" y2="305.0" stroke="#64748b"/>
<line x1="75.0" y1="305.0" x2="965.0" y2="305.0" stroke="#64748b"/>
<text x="8" y="50" font-family="sans-serif" font-size="12">1.00</text>
<polyline points="75.00,291.64 82.42,300.04 89.83,289.80 97.25,292.03 104.67,298.24 112.08,299.60 119.50,299.73 126.92,299.84 134.33,299.33 141.75,299.83 149.17,299.31 156.58,300.12 164.00,300.54 171.42,299.48 178.83,300.24 186.25,300.55 193.67,299.40 201.08,299.87 208.50,299.65 215.92,299.87 223.33,300.97 230.75,298.26 238.17,298.50 245.58,300.20 253.00,300.34 260.42,299.80 267.83,299.88 275.25,301.11 282.67,299.89 290.08,299.66 297.50,299.81 304.92,299.99 312.33,299.58 319.75,300.22 327.17,300.08 334.58,299.87 342.00,302.73 349.42,299.88 356.83,300.24 364.25,300.79 371.67,300.14 379.08,300.05 386.50,298.42 393.92,300.41 401.33,300.17 408.75,300.27 416.17,300.50 423.58,299.95 431.00,299.24 438.42,300.11 445.83,300.45 453.25,300.32 460.67,300.61 468.08,300.53 475.50,300.88 482.92,300.44 490.33,300.41 497.75,300.19 505.17,301.12 512.58,300.78 520.00,301.73 527.42,301.01 534.83,301.45 542.25,302.06 549.67,300.96 557.08,301.90 564.50,301.19 571.92,302.43 579.33,302.51 586.75,302.31 594.17,302.62 601.58,302.45 609.00,302.94 616.42,302.90 623.83,302.55 631.25,303.08 638.67,302.30 646.08,302.56 653.50,300.23 660.92,302.72 668.33,302.16 675.75,302.46 683.17,302.70 690.58,302.53 698.00,301.94 705.42,302.36 712.83,303.38 720.25,302.91 727.67,302.55 735.08,303.09 742.50,302.85 749.92,302.95 757.33,302.42 764.75,303.41 772.17,304.26 779.58,304.52 787.00,304.55 794.42,304.62 801.83,304.79 809.25,304.78 816.67,303.58 824.08,304.06 831.50,304.46 838.92,304.37 846.33,304.23 853.75,304.30 861.17,304.38 868.58,304.37 876.00,304.81 883.42,304.47 890.83,304.57 898.25,304.05 905.67,303.87 913.08,304.31 920.50,304.00 927.92,303.71 935.33,303.47 942.75,303.11 950.17,303.57 957.58,304.40 965.00,304.42" fill="none" stroke="#2563eb" stroke-width="2"/>
<text x="75.0" y="338" font-family="sans-serif" font-size="12" fill="#2563eb">consumer-1</text>
<polyline points="75.00,293.26 82.42,299.83 89.83,288.63 97.25,291.04 104.67,298.45 112.08,299.15 119.50,298.67 126.92,299.66 134.33,298.02 141.75,299.42 149.17,299.06 156.58,299.89 164.00,299.01 171.42,298.49 178.83,300.64 186.25,300.43 193.67,300.28 201.08,299.30 208.50,299.60 215.92,300.77 223.33,298.15 230.75,300.03 238.17,299.08 245.58,299.90 253.00,300.47 260.42,300.13 267.83,300.26 275.25,300.66 282.67,300.48 290.08,299.27 297.50,299.95 304.92,299.18 312.33,299.74 319.75,300.45 327.17,300.15 334.58,300.88 342.00,302.63 349.42,300.00 356.83,300.11 364.25,300.48 371.67,300.65 379.08,300.68 386.50,300.00 393.92,299.44 401.33,300.60 408.75,300.56 416.17,300.43 423.58,299.86 431.00,300.23 438.42,299.62 445.83,299.80 453.25,300.48 460.67,300.71 468.08,300.38 475.50,301.07 482.92,300.46 490.33,300.34 497.75,300.87 505.17,301.48 512.58,301.65 520.00,301.39 527.42,301.80 534.83,301.41 542.25,300.57 549.67,301.30 557.08,302.24 564.50,301.11 571.92,302.11 579.33,302.39 586.75,302.64 594.17,301.82 601.58,303.11 609.00,302.85 616.42,300.38 623.83,301.91 631.25,302.57 638.67,302.90 646.08,302.69 653.50,302.74 660.92,302.50 668.33,302.45 675.75,302.63 683.17,302.90 690.58,302.30 698.00,302.17 705.42,302.66 712.83,302.95 720.25,302.78 727.67,302.48 735.08,303.27 742.50,300.87 749.92,303.25 757.33,303.42 764.75,303.83 772.17,303.03 779.58,303.26 787.00,303.64 794.42,303.27 801.83,302.78 809.25,303.67 816.67,303.97 824.08,303.63 831.50,303.45 838.92,303.82 846.33,304.06 853.75,303.94 861.17,303.20 868.58,303.96 876.00,303.38 883.42,303.89 890.83,304.50 898.25,304.50 905.67,302.73 913.08,304.15 920.50,304.66 927.92,304.76 935.33,304.28 942.75,304.05 950.17,304.79 957.58,304.80 965.00,304.81" fill="none" stroke="#dc2626" stroke-width="2"/>
<text x="255.0" y="338" font-family="sans-serif" font-size="12" fill="#dc2626">consumer-2</text>
<polyline points="75.00,288.11 82.42,302.71 89.83,287.84 97.25,290.89 104.67,296.97 112.08,298.61 119.50,299.76 126.92,300.10 134.33,299.24 141.75,300.05 149.17,298.65 156.58,300.71 164.00,300.42 171.42,299.71 178.83,299.93 186.25,299.87 193.67,300.11 201.08,299.39 208.50,299.94 215.92,299.85 223.33,299.79 230.75,299.50 238.17,298.76 245.58,299.33 253.00,299.96 260.42,298.58 267.83,299.82 275.25,300.56 282.67,299.43 290.08,300.24 297.50,299.48 304.92,298.12 312.33,299.65 319.75,299.81 327.17,300.03 334.58,300.07 342.00,302.71 349.42,299.62 356.83,300.40 364.25,300.14 371.67,300.38 379.08,299.76 386.50,300.67 393.92,300.14 401.33,300.18 408.75,300.42 416.17,300.56 423.58,300.23 431.00,298.66 438.42,299.68 445.83,300.39 453.25,299.82 460.67,300.72 468.08,300.68 475.50,300.58 482.92,300.50 490.33,300.29 497.75,300.35 505.17,301.15 512.58,301.48 520.00,301.66 527.42,301.15 534.83,301.37 542.25,301.87 549.67,301.53 557.08,301.86 564.50,301.28 571.92,301.97 579.33,302.41 586.75,302.75 594.17,300.61 601.58,302.29 609.00,302.72 616.42,302.92 623.83,302.71 631.25,302.17 638.67,302.77 646.08,302.86 653.50,302.85 660.92,302.77 668.33,303.81 675.75,302.45 683.17,302.68 690.58,302.49 698.00,301.92 705.42,302.32 712.83,303.42 720.25,302.70 727.67,302.59 735.08,302.89 742.50,302.80 749.92,302.74 757.33,302.25 764.75,303.67 772.17,302.85 779.58,303.13 787.00,303.77 794.42,303.14 801.83,303.54 809.25,303.45 816.67,303.53 824.08,303.37 831.50,304.35 838.92,303.81 846.33,304.80 853.75,304.85 861.17,304.66 868.58,304.75 876.00,304.23 883.42,303.63 890.83,303.40 898.25,303.76 905.67,303.26 913.08,301.58 920.50,303.45 927.92,304.28 935.33,303.95 942.75,303.12 950.17,303.23 957.58,304.02 965.00,304.26" fill="none" stroke="#16a34a" stroke-width="2"/>
<text x="435.0" y="338" font-family="sans-serif" font-size="12" fill="#16a34a">consumer-3</text>
<polyline points="75.00,285.77 82.42,299.57 89.83,294.05 97.25,290.50 104.67,291.21 112.08,297.63 119.50,299.31 126.92,300.20 134.33,299.24 141.75,299.91 149.17,299.86 156.58,299.24 164.00,299.67 171.42,299.69 178.83,300.44 186.25,299.50 193.67,299.99 201.08,300.08 208.50,299.88 215.92,299.69 223.33,298.86 230.75,300.88 238.17,299.57 245.58,297.83 253.00,299.46 260.42,299.79 267.83,300.15 275.25,299.07 282.67,300.00 290.08,299.81 297.50,299.32 304.92,299.95 312.33,299.96 319.75,300.10 327.17,299.74 334.58,299.30 342.00,302.29 349.42,301.29 356.83,299.99 364.25,300.46 371.67,300.28 379.08,300.26 386.50,300.74 393.92,300.04 401.33,300.14 408.75,300.26 416.17,300.54 423.58,300.60 431.00,298.97 438.42,298.51 445.83,300.55 453.25,300.20 460.67,299.93 468.08,300.85 475.50,300.47 482.92,300.73 490.33,299.80 497.75,301.37 505.17,300.90 512.58,301.74 520.00,301.67 527.42,301.28 534.83,301.79 542.25,301.47 549.67,301.68 557.08,301.00 564.50,302.62 571.92,301.16 579.33,302.37 586.75,302.41 594.17,302.55 601.58,302.19 609.00,302.34 616.42,301.16 623.83,302.53 631.25,302.49 638.67,302.14 646.08,303.03 653.50,302.65 660.92,302.57 668.33,302.10 675.75,302.22 683.17,302.49 690.58,302.62 698.00,303.30 705.42,301.92 712.83,303.28 720.25,302.32 727.67,302.49 735.08,302.65 742.50,302.55 749.92,302.70 757.33,302.37 764.75,303.39 772.17,303.02 779.58,303.30 787.00,303.70 794.42,302.97 801.83,303.52 809.25,303.85 816.67,303.28 824.08,303.65 831.50,303.50 838.92,303.34 846.33,304.24 853.75,303.71 861.17,303.41 868.58,303.73 876.00,302.79 883.42,304.24 890.83,304.80 898.25,304.76 905.67,304.65 913.08,303.85 920.50,304.07 927.92,303.10 935.33,303.83 942.75,303.47 950.17,303.58 957.58,304.18 965.00,301.90" fill="none" stroke="#9333ea" stroke-width="2"/>
<text x="615.0" y="338" font-family="sans-serif" font-size="12" fill="#9333ea">consumer-4</text>
<polyline points="75.00,293.67 82.42,296.95 89.83,290.74 97.25,293.93 104.67,296.93 112.08,298.35 119.50,299.65 126.92,299.58 134.33,299.01 141.75,299.98 149.17,300.15 156.58,299.32 164.00,299.88 171.42,300.37 178.83,300.44 186.25,300.33 193.67,299.55 201.08,300.22 208.50,300.31 215.92,300.47 223.33,299.81 230.75,299.46 238.17,298.63 245.58,300.37 253.00,300.17 260.42,299.56 267.83,299.72 275.25,299.69 282.67,299.39 290.08,299.60 297.50,299.73 304.92,299.20 312.33,299.99 319.75,299.73 327.17,300.00 334.58,299.99 342.00,302.41 349.42,300.13 356.83,300.37 364.25,300.35 371.67,300.17 379.08,300.65 386.50,300.37 393.92,299.56 401.33,300.20 408.75,300.40 416.17,300.44 423.58,299.01 431.00,299.27 438.42,299.06 445.83,300.10 453.25,300.47 460.67,300.58 468.08,300.83 475.50,300.49 482.92,300.77 490.33,300.77 497.75,300.39 505.17,301.17 512.58,302.26 520.00,301.34 527.42,301.45 534.83,301.83 542.25,301.74 549.67,301.92 557.08,301.51 564.50,301.14 571.92,302.18 579.33,302.49 586.75,302.48 594.17,301.51 601.58,302.46 609.00,302.96 616.42,302.58 623.83,302.70 631.25,302.33 638.67,300.79 646.08,302.74 653.50,302.64 660.92,301.77 668.33,302.31 675.75,302.65 683.17,302.86 690.58,302.37 698.00,301.96 705.42,302.78 712.83,303.32 720.25,302.93 727.67,302.60 735.08,303.03 742.50,302.97 749.92,302.49 757.33,304.07 764.75,304.29 772.17,304.27 779.58,303.55 787.00,304.18 794.42,303.92 801.83,303.59 809.25,303.74 816.67,302.16 824.08,303.64 831.50,303.84 838.92,304.09 846.33,304.13 853.75,303.78 861.17,303.60 868.58,304.33 876.00,303.43 883.42,303.79 890.83,303.74 898.25,303.58 905.67,304.16 913.08,303.39 920.50,304.15 927.92,303.17 935.33,303.56 942.75,303.05 950.17,304.17 957.58,303.42 965.00,304.25" fill="none" stroke="#ea580c" stroke-width="2"/>
<text x="795.0" y="338" font-family="sans-serif" font-size="12" fill="#ea580c">consumer-5</text>
<polyline points="75.00,286.80 82.42,302.50 89.83,286.08 97.25,292.52 104.67,295.24 112.08,298.49 119.50,300.48 126.92,299.38 134.33,300.09 141.75,298.44 149.17,299.05 156.58,299.54 164.00,299.23 171.42,299.62 178.83,299.95 186.25,299.60 193.67,299.92 201.08,300.03 208.50,299.84 215.92,298.93 223.33,299.98 230.75,297.83 238.17,300.11 245.58,300.31 253.00,300.02 260.42,300.14 267.83,299.65 275.25,299.18 282.67,300.57 290.08,300.05 297.50,299.88 304.92,299.41 312.33,300.28 319.75,299.96 327.17,298.97 334.58,299.69 342.00,302.52 349.42,299.95 356.83,300.13 364.25,300.14 371.67,299.70 379.08,298.31 386.50,300.52 393.92,300.02 401.33,300.20 408.75,300.09 416.17,300.50 423.58,300.51 431.00,299.95 438.42,299.05 445.83,299.61 453.25,299.88 460.67,300.80 468.08,300.83 475.50,300.48 482.92,300.62 490.33,300.80 497.75,301.13 505.17,300.39 512.58,301.55 520.00,301.70 527.42,301.15 534.83,301.39 542.25,302.03 549.67,301.69 557.08,301.76 564.50,301.16 571.92,302.80 579.33,302.17 586.75,302.39 594.17,302.76 601.58,302.29 609.00,302.78 616.42,302.82 623.83,302.52 631.25,302.52 638.67,302.85 646.08,300.84 653.50,302.65 660.92,302.55 668.33,302.14 675.75,302.48 683.17,302.73 690.58,302.33 698.00,301.93 705.42,302.18 712.83,303.29 720.25,302.67 727.67,302.52 735.08,302.85 742.50,302.88 749.92,302.75 757.33,303.33 764.75,302.54 772.17,302.54 779.58,303.57 787.00,301.44 794.42,303.13 801.83,303.74 809.25,303.58 816.67,303.49 824.08,302.61 831.50,303.69 838.92,303.67 846.33,303.88 853.75,303.69 861.17,303.91 868.58,303.30 876.00,303.49 883.42,303.38 890.83,303.44 898.25,303.89 905.67,303.48 913.08,303.56 920.50,303.51 927.92,303.96 935.33,303.81 942.75,302.90 950.17,303.89 957.58,304.03 965.00,304.27" fill="none" stroke="#0891b2" stroke-width="2"/>
<text x="975.0" y="338" font-family="sans-serif" font-size="12" fill="#0891b2">consumer-6</text>
</svg>
