<svg xmlns="http://www.w3.org/2000/svg" width="1000" height="360">
<rect width="100%" height="100%" fill="white"/>
<text x="75.0" y="24" font-family="sans-serif" font-size="18" font-weight="bold">PostgreSQL commits / second during production</text>
<line x1="75.0" y1="45.0" x2="75.0" y2="305.0" stroke="#64748b"/>
<line x1="75.0" y1="305.0" x2="965.0" y2="305.0" stroke="#64748b"/>
<text x="8" y="50" font-family="sans-serif" font-size="12">11666.56</text>
<polyline points="75.00,250.58 82.42,243.46 89.83,231.76 97.25,211.01 104.67,185.49 112.08,154.42 119.50,124.40 126.92,105.95 134.33,98.24 141.75,89.06 149.17,69.74 156.58,52.90 164.00,47.20 171.42,45.00 178.83,48.43 186.25,51.87 193.67,53.55 201.08,52.61 208.50,54.61 215.92,53.41 223.33,54.32 230.75,54.14 238.17,57.47 245.58,60.91 253.00,61.05 260.42,58.04 267.83,57.39 275.25,55.37 282.67,55.70 290.08,58.07 297.50,56.99 304.92,52.41 312.33,48.14 319.75,46.34 327.17,47.51 334.58,45.61 342.00,68.89 349.42,73.65 356.83,73.73 364.25,74.64 371.67,76.86 379.08,78.66 386.50,81.18 393.92,84.09 401.33,86.21 408.75,66.03 416.17,61.84 423.58,60.02 431.00,61.11 438.42,61.77 445.83,62.84 453.25,63.04 460.67,62.26 468.08,64.48 475.50,65.81 482.92,66.84 490.33,68.98 497.75,69.81 505.17,73.16 512.58,78.02 520.00,86.89 527.42,92.24 534.83,96.04 542.25,99.50 549.67,104.30 557.08,108.87 564.50,114.41 571.92,119.13 579.33,121.22 586.75,121.95 594.17,127.30 601.58,135.03 609.00,142.81 616.42,150.35 623.83,158.53 631.25,166.60 638.67,173.72 646.08,181.40 653.50,187.19 660.92,194.34 668.33,200.83 675.75,206.28 683.17,212.06 690.58,216.32 698.00,219.80 705.42,224.69 712.83,228.55 720.25,233.76 727.67,237.05 735.08,238.54 742.50,239.74 749.92,244.21 757.33,248.40 764.75,250.60 772.17,251.99 779.58,255.59 787.00,257.11 794.42,257.24 801.83,257.99 809.25,261.12 816.67,262.03 824.08,259.90 831.50,263.36 838.92,264.38 846.33,266.30 853.75,267.60 861.17,268.84 868.58,271.66 876.00,272.61 883.42,272.63 890.83,276.22 898.25,274.98 905.67,278.01 913.08,276.52 920.50,277.19 927.92,278.97 935.33,277.95 942.75,278.53 950.17,277.94 957.58,279.58 965.00,280.44" fill="none" stroke="#2563eb" stroke-width="2"/>
<text x="75.0" y="338" font-family="sans-serif" font-size="12" fill="#2563eb">series-1</text>
</svg>
