<svg xmlns="http://www.w3.org/2000/svg" width="1000" height="360">
<rect width="100%" height="100%" fill="white"/>
<text x="75.0" y="24" font-family="sans-serif" font-size="18" font-weight="bold">Processed records / second by consumer during production</text>
<line x1="75.0" y1="45.0" x2="75.0" y2="305.0" stroke="#64748b"/>
<line x1="75.0" y1="305.0" x2="965.0" y2="305.0" stroke="#64748b"/>
<text x="8" y="50" font-family="sans-serif" font-size="12">1939.19</text>
<polyline points="75.00,188.55 82.42,181.69 89.83,171.16 97.25,162.57 104.67,137.40 112.08,88.68 119.50,77.49 126.92,74.62 134.33,78.24 141.75,87.45 149.17,83.42 156.58,83.79 164.00,95.93 171.42,82.19 178.83,87.88 186.25,90.17 193.67,79.88 201.08,84.58 208.50,79.59 215.92,70.60 223.33,82.13 230.75,85.69 238.17,89.71 245.58,96.64 253.00,85.18 260.42,83.77 267.83,77.77 275.25,84.99 282.67,83.73 290.08,90.36 297.50,89.23 304.92,77.63 312.33,76.70 319.75,69.29 327.17,70.09 334.58,71.33 342.00,110.08 349.42,109.92 356.83,112.87 364.25,121.05 371.67,85.62 379.08,86.05 386.50,98.35 393.92,90.69 401.33,89.97 408.75,93.94 416.17,83.84 423.58,86.25 431.00,86.18 438.42,88.70 445.83,90.73 453.25,92.05 460.67,95.43 468.08,92.35 475.50,95.30 482.92,92.22 490.33,99.41 497.75,108.34 505.17,112.74 512.58,131.94 520.00,139.36 527.42,139.07 534.83,138.18 542.25,135.39 549.67,132.86 557.08,135.53 564.50,143.68 571.92,146.69 579.33,154.16 586.75,162.71 594.17,168.41 601.58,171.46 609.00,180.54 616.42,189.41 623.83,197.03 631.25,211.53 638.67,218.35 646.08,224.39 653.50,231.16 660.92,232.27 668.33,230.99 675.75,232.03 683.17,234.04 690.58,235.03 698.00,238.86 705.42,241.05 712.83,245.33 720.25,247.95 727.67,250.55 735.08,256.45 742.50,256.61 749.92,259.47 757.33,257.10 764.75,259.56 772.17,271.14 779.58,281.59 787.00,296.96 794.42,305.00 801.83,305.00 809.25,305.00 816.67,298.00 824.08,293.30 831.50,291.29 838.92,289.18 846.33,292.53 853.75,293.50 861.17,293.27 868.58,293.13 876.00,296.79 883.42,298.50 890.83,299.74 898.25,298.30 905.67,293.27 913.08,293.36 920.50,288.71 927.92,288.04 935.33,290.04 942.75,287.55 950.17,288.59 957.58,290.92 965.00,290.92" fill="none" stroke="#2563eb" stroke-width="2"/>
<text x="75.0" y="338" font-family="sans-serif" font-size="12" fill="#2563eb">consumer-1</text>
<polyline points="75.00,197.81 82.42,175.64 89.83,163.38 97.25,152.64 104.67,122.64 112.08,82.09 119.50,74.25 126.92,73.45 134.33,73.07 141.75,74.79 149.17,67.15 156.58,67.99 164.00,67.03 171.42,73.81 178.83,86.62 186.25,88.91 193.67,95.67 201.08,86.60 208.50,86.90 215.92,91.60 223.33,92.12 230.75,112.79 238.17,107.65 245.58,97.47 253.00,106.50 260.42,95.01 267.83,95.92 275.25,102.28 282.67,96.54 290.08,88.80 297.50,81.82 304.92,73.56 312.33,66.28 319.75,72.44 327.17,74.67 334.58,87.25 342.00,121.05 349.42,123.36 356.83,124.81 364.25,118.28 371.67,90.28 379.08,91.73 386.50,91.82 393.92,87.48 401.33,87.54 408.75,86.09 416.17,86.88 423.58,94.11 431.00,89.51 438.42,90.38 445.83,91.35 453.25,89.85 460.67,96.93 468.08,93.17 475.50,98.65 482.92,95.39 490.33,100.25 497.75,105.44 505.17,113.61 512.58,133.55 520.00,131.10 527.42,141.26 534.83,134.09 542.25,125.62 549.67,132.21 557.08,136.73 564.50,144.85 571.92,149.30 579.33,155.20 586.75,158.59 594.17,166.70 601.58,187.78 609.00,199.25 616.42,206.08 623.83,209.16 631.25,201.36 638.67,203.20 646.08,206.59 653.50,216.83 660.92,225.16 668.33,229.55 675.75,234.88 683.17,238.10 690.58,239.85 698.00,244.52 705.42,260.33 712.83,264.32 720.25,268.77 727.67,270.61 735.08,263.27 742.50,265.96 749.92,269.70 757.33,271.93 764.75,272.65 772.17,273.22 779.58,266.66 787.00,263.78 794.42,260.08 801.83,256.72 809.25,261.56 816.67,265.02 824.08,267.73 831.50,265.35 838.92,267.34 846.33,269.22 853.75,268.00 861.17,271.35 868.58,272.81 876.00,268.44 883.42,277.17 890.83,286.93 898.25,293.27 905.67,303.99 913.08,305.00 920.50,305.00 927.92,305.00 935.33,305.00 942.75,305.00 950.17,305.00 957.58,305.00 965.00,305.00" fill="none" stroke="#dc2626" stroke-width="2"/>
<text x="255.0" y="338" font-family="sans-serif" font-size="12" fill="#dc2626">consumer-2</text>
<polyline points="75.00,176.71 82.42,173.69 89.83,165.66 97.25,155.93 104.67,137.92 112.08,81.36 119.50,67.35 126.92,66.21 134.33,72.03 141.75,84.31 149.17,73.92 156.58,82.23 164.00,96.28 171.42,86.68 178.83,96.52 186.25,81.44 193.67,78.12 201.08,81.62 208.50,81.40 215.92,90.48 223.33,81.92 230.75,80.31 238.17,83.27 245.58,81.49 253.00,81.77 260.42,75.57 267.83,69.17 275.25,69.13 282.67,68.79 290.08,80.12 297.50,78.58 304.92,68.61 312.33,66.50 319.75,62.26 327.17,66.89 334.58,73.25 342.00,111.92 349.42,117.31 356.83,118.63 364.25,119.47 371.67,86.59 379.08,79.65 386.50,83.83 393.92,79.94 401.33,82.37 408.75,85.86 416.17,83.28 423.58,93.09 431.00,89.78 438.42,92.20 445.83,92.05 453.25,85.25 460.67,90.14 468.08,92.61 475.50,90.18 482.92,95.64 490.33,96.09 497.75,99.53 505.17,108.14 512.58,122.96 520.00,134.68 527.42,137.47 534.83,137.49 542.25,134.16 549.67,134.46 557.08,136.90 564.50,145.35 571.92,143.28 579.33,149.10 586.75,172.70 594.17,179.54 601.58,188.08 609.00,194.02 616.42,187.88 623.83,193.95 631.25,198.02 638.67,204.74 646.08,208.30 653.50,215.34 660.92,227.21 668.33,243.49 675.75,248.15 683.17,251.94 690.58,251.44 698.00,241.71 705.42,242.13 712.83,244.38 720.25,246.78 727.67,250.29 735.08,255.01 742.50,255.16 749.92,258.48 757.33,253.89 764.75,255.06 772.17,251.09 779.58,249.96 787.00,255.38 794.42,255.22 801.83,260.33 809.25,262.11 816.67,262.11 824.08,269.64 831.50,280.21 838.92,290.93 846.33,301.65 853.75,305.00 861.17,305.00 868.58,305.00 876.00,302.79 883.42,293.87 890.83,282.84 898.25,277.47 905.67,268.96 913.08,272.79 920.50,273.39 927.92,273.09 935.33,278.42 942.75,277.41 950.17,280.33 957.58,280.54 965.00,280.52" fill="none" stroke="#16a34a" stroke-width="2"/>
<text x="435.0" y="338" font-family="sans-serif" font-size="12" fill="#16a34a">consumer-3</text>
<polyline points="75.00,185.59 82.42,182.85 89.83,179.73 97.25,172.97 104.67,156.84 112.08,111.12 119.50,88.87 126.92,83.71 134.33,83.37 141.75,86.71 149.17,92.90 156.58,88.13 164.00,88.16 171.42,78.78 178.83,76.12 186.25,72.00 193.67,81.19 201.08,85.43 208.50,77.87 215.92,92.89 223.33,88.03 230.75,97.04 238.17,114.24 245.58,107.05 253.00,97.83 260.42,81.03 267.83,64.09 275.25,59.15 282.67,64.96 290.08,81.09 297.50,79.20 304.92,81.45 312.33,84.47 319.75,76.36 327.17,75.97 334.58,70.06 342.00,94.70 349.42,109.37 356.83,112.22 364.25,125.00 371.67,100.52 379.08,85.75 386.50,91.82 393.92,91.96 401.33,88.33 408.75,88.82 416.17,88.19 423.58,86.94 431.00,90.97 438.42,98.09 445.83,98.57 453.25,97.60 460.67,98.24 468.08,98.62 475.50,92.74 482.92,93.72 490.33,100.23 497.75,103.25 505.17,110.39 512.58,125.64 520.00,136.13 527.42,134.86 534.83,144.07 542.25,135.12 549.67,129.26 557.08,134.15 564.50,144.48 571.92,148.47 579.33,156.01 586.75,162.48 594.17,161.40 601.58,181.95 609.00,188.35 616.42,197.84 623.83,204.91 631.25,198.44 638.67,203.54 646.08,207.79 653.50,211.65 660.92,220.00 668.33,225.39 675.75,227.24 683.17,231.56 690.58,233.77 698.00,248.81 705.42,251.82 712.83,255.80 720.25,260.04 727.67,250.97 735.08,256.65 742.50,257.62 749.92,258.42 757.33,257.77 764.75,257.46 772.17,252.74 779.58,253.35 787.00,256.36 794.42,253.45 801.83,256.80 809.25,259.78 816.67,262.23 824.08,265.38 831.50,267.38 838.92,264.41 846.33,267.46 853.75,267.48 861.17,267.70 868.58,272.83 876.00,270.14 883.42,280.85 890.83,291.35 898.25,296.95 905.67,305.00 913.08,299.82 920.50,294.53 927.92,287.12 935.33,279.54 942.75,279.19 950.17,281.83 957.58,283.95 965.00,285.80" fill="none" stroke="#9333ea" stroke-width="2"/>
<text x="615.0" y="338" font-family="sans-serif" font-size="12" fill="#9333ea">consumer-4</text>
<polyline points="75.00,190.35 82.42,169.87 89.83,156.07 97.25,143.90 104.67,115.62 112.08,59.66 119.50,47.35 126.92,45.00 134.33,52.62 141.75,83.40 149.17,91.21 156.58,95.33 164.00,98.53 171.42,93.15 178.83,91.48 186.25,92.43 193.67,93.45 201.08,91.54 208.50,94.67 215.92,96.57 223.33,88.17 230.75,92.07 238.17,88.63 245.58,89.24 253.00,95.06 260.42,84.98 267.83,73.89 275.25,69.08 282.67,72.54 290.08,78.19 297.50,78.23 304.92,72.46 312.33,70.73 319.75,60.47 327.17,61.64 334.58,71.34 342.00,98.72 349.42,107.91 356.83,113.37 364.25,112.72 371.67,81.36 379.08,84.48 386.50,86.22 393.92,79.62 401.33,84.12 408.75,80.75 416.17,81.71 423.58,90.17 431.00,86.68 438.42,91.99 445.83,92.26 453.25,92.92 460.67,96.24 468.08,95.19 475.50,94.57 482.92,94.24 490.33,102.68 497.75,102.28 505.17,112.43 512.58,134.02 520.00,133.25 527.42,139.08 534.83,142.20 542.25,128.09 549.67,133.78 557.08,138.01 564.50,146.35 571.92,151.08 579.33,158.25 586.75,167.91 594.17,169.38 601.58,176.24 609.00,186.84 616.42,192.28 623.83,205.62 631.25,212.70 638.67,214.67 646.08,219.06 653.50,218.29 660.92,225.12 668.33,228.21 675.75,233.13 683.17,236.89 690.58,239.06 698.00,243.05 705.42,245.73 712.83,248.79 720.25,253.23 727.67,255.48 735.08,258.98 742.50,260.31 749.92,263.80 757.33,276.26 764.75,284.63 772.17,292.70 779.58,289.85 787.00,284.68 794.42,281.54 801.83,276.43 809.25,279.99 816.67,279.60 824.08,276.34 831.50,276.71 838.92,278.96 846.33,280.20 853.75,284.05 861.17,284.42 868.58,285.35 876.00,281.97 883.42,279.86 890.83,277.59 898.25,271.58 905.67,274.54 913.08,271.71 920.50,276.16 927.92,280.49 935.33,277.49 942.75,282.13 950.17,281.59 957.58,281.77 965.00,284.25" fill="none" stroke="#ea580c" stroke-width="2"/>
<text x="795.0" y="338" font-family="sans-serif" font-size="12" fill="#ea580c">consumer-5</text>
<polyline points="75.00,181.47 82.42,175.64 89.83,161.70 97.25,152.76 104.67,137.36 112.08,81.20 119.50,79.42 126.92,71.94 134.33,81.46 141.75,87.96 149.17,74.58 156.58,71.74 164.00,62.61 171.42,65.85 178.83,71.98 186.25,73.05 193.67,76.90 201.08,80.47 208.50,76.87 215.92,79.82 223.33,84.01 230.75,79.93 238.17,85.96 245.58,92.12 253.00,91.17 260.42,90.37 267.83,84.55 275.25,67.68 282.67,75.16 290.08,82.22 297.50,82.90 304.92,95.02 312.33,86.61 319.75,79.47 327.17,67.08 334.58,60.10 342.00,99.26 349.42,101.75 356.83,114.07 364.25,120.23 371.67,82.04 379.08,82.50 386.50,88.06 393.92,88.30 401.33,87.00 408.75,86.64 416.17,83.07 423.58,90.86 431.00,93.80 438.42,95.27 445.83,92.07 453.25,87.40 460.67,90.30 468.08,93.23 475.50,97.93 482.92,98.68 490.33,101.99 497.75,105.86 505.17,112.94 512.58,129.26 520.00,135.59 527.42,136.83 534.83,136.40 542.25,135.30 549.67,134.62 557.08,136.93 564.50,145.83 571.92,153.46 579.33,160.47 586.75,169.55 594.17,176.69 601.58,174.06 609.00,181.59 616.42,189.36 623.83,194.72 631.25,211.15 638.67,215.03 646.08,220.60 653.50,227.13 660.92,225.98 668.33,229.21 675.75,232.90 683.17,235.92 690.58,236.41 698.00,240.92 705.42,240.82 712.83,244.31 720.25,246.21 727.67,248.18 735.08,254.25 742.50,255.53 749.92,258.51 757.33,268.13 764.75,268.46 772.17,263.27 779.58,264.22 787.00,256.73 794.42,255.68 801.83,261.68 809.25,262.08 816.67,262.11 824.08,263.48 831.50,262.78 838.92,265.98 846.33,267.78 853.75,267.46 861.17,272.82 868.58,269.28 876.00,267.66 883.42,267.78 890.83,262.44 898.25,267.79 905.67,267.60 913.08,273.09 920.50,273.43 927.92,273.43 935.33,278.74 942.75,277.42 950.17,280.89 957.58,280.87 965.00,280.87" fill="none" stroke="#0891b2" stroke-width="2"/>
<text x="975.0" y="338" font-family="sans-serif" font-size="12" fill="#0891b2">consumer-6</text>
</svg>
