<svg xmlns="http://www.w3.org/2000/svg" width="1000" height="360">
<rect width="100%" height="100%" fill="white"/>
<text x="75.0" y="24" font-family="sans-serif" font-size="18" font-weight="bold">Processed outbox records / second during production</text>
<line x1="75.0" y1="45.0" x2="75.0" y2="305.0" stroke="#64748b"/>
<line x1="75.0" y1="305.0" x2="965.0" y2="305.0" stroke="#64748b"/>
<text x="8" y="50" font-family="sans-serif" font-size="12">10554.19</text>
<polyline points="75.00,174.64 82.42,163.41 89.83,152.07 97.25,141.61 104.67,117.18 112.08,61.39 119.50,48.64 126.92,45.00 134.33,49.75 141.75,61.48 149.17,57.54 156.58,58.65 164.00,62.20 171.42,57.04 178.83,62.58 186.25,60.26 193.67,61.59 201.08,62.51 208.50,60.14 215.92,64.67 223.33,63.64 230.75,69.42 238.17,73.39 245.58,72.39 253.00,71.20 260.42,62.60 267.83,54.27 275.25,51.87 282.67,53.60 290.08,60.77 297.50,58.79 304.92,54.89 312.33,51.68 319.75,45.99 327.17,45.26 334.58,48.38 342.00,85.57 349.42,91.79 356.83,96.64 364.25,100.46 371.67,65.48 379.08,62.50 386.50,68.00 393.92,63.93 401.33,64.18 408.75,64.69 416.17,61.91 423.58,68.24 431.00,67.41 438.42,71.04 445.83,71.11 453.25,68.91 460.67,72.99 468.08,72.61 475.50,73.38 482.92,73.47 490.33,79.12 497.75,83.54 505.17,91.91 512.58,111.59 520.00,117.61 527.42,121.00 534.83,121.71 542.25,114.59 549.67,115.24 557.08,119.10 564.50,128.71 571.92,132.71 579.33,140.23 586.75,151.38 594.17,156.56 601.58,167.12 609.00,176.49 616.42,182.42 623.83,190.24 631.25,195.35 638.67,200.19 646.08,205.18 653.50,211.37 660.92,217.86 668.33,223.58 675.75,227.52 683.17,231.22 690.58,232.53 698.00,236.62 705.42,241.04 712.83,244.91 720.25,248.59 727.67,249.16 735.08,252.56 742.50,253.77 749.92,256.93 757.33,260.00 764.75,262.34 772.17,263.51 779.58,263.78 787.00,265.29 794.42,264.76 801.83,265.86 809.25,268.35 816.67,268.08 824.08,269.33 831.50,270.77 838.92,273.18 846.33,277.23 853.75,278.45 861.17,280.11 868.58,280.82 876.00,278.87 883.42,280.75 890.83,281.28 898.25,282.10 905.67,283.57 913.08,284.01 920.50,283.18 927.92,282.43 935.33,282.81 942.75,282.71 950.17,284.46 957.58,285.35 965.00,286.14" fill="none" stroke="#2563eb" stroke-width="2"/>
<text x="75.0" y="338" font-family="sans-serif" font-size="12" fill="#2563eb">series-1</text>
</svg>
