<svg xmlns="http://www.w3.org/2000/svg" width="1000" height="360">
<rect width="100%" height="100%" fill="white"/>
<text x="75.0" y="24" font-family="sans-serif" font-size="18" font-weight="bold">Consumer JVM heap bytes during production</text>
<line x1="75.0" y1="45.0" x2="75.0" y2="305.0" stroke="#64748b"/>
<line x1="75.0" y1="305.0" x2="965.0" y2="305.0" stroke="#64748b"/>
<text x="8" y="50" font-family="sans-serif" font-size="12">225899896.00</text>
<polyline points="75.00,247.37 82.42,242.54 89.83,261.95 97.25,223.33 104.67,242.81 112.08,261.98 119.50,223.36 126.92,247.72 134.33,266.66 141.75,228.04 149.17,252.31 156.58,218.51 164.00,242.88 171.42,262.04 178.83,223.42 186.25,242.52 193.67,261.97 201.08,228.18 208.50,247.54 215.92,266.91 223.33,228.29 230.75,252.27 238.17,213.65 245.58,233.03 253.00,257.23 260.42,218.61 267.83,237.96 275.25,266.78 282.67,228.16 290.08,247.46 297.50,266.93 304.92,228.31 312.33,247.43 319.75,266.74 327.17,228.12 334.58,242.56 342.00,261.91 349.42,228.11 356.83,247.48 364.25,266.74 371.67,228.12 379.08,252.38 386.50,213.76 393.92,237.88 401.33,252.21 408.75,213.59 416.17,232.87 423.58,252.22 431.00,218.43 438.42,232.86 445.83,257.00 453.25,223.21 460.67,237.75 468.08,213.61 475.50,223.23 482.92,242.49 490.33,261.76 497.75,227.96 505.17,247.26 512.58,213.47 520.00,232.99 527.42,256.94 534.83,218.32 542.25,242.44 549.67,256.90 557.08,223.11 564.50,242.41 571.92,261.71 579.33,227.92 586.75,247.25 594.17,261.99 601.58,228.19 609.00,247.29 616.42,266.58 623.83,227.96 631.25,247.33 638.67,213.54 646.08,237.62 653.50,256.88 660.92,223.08 668.33,242.47 675.75,261.73 683.17,227.94 690.58,252.30 698.00,228.17 705.42,237.61 712.83,256.91 720.25,223.12 727.67,237.64 735.08,266.64 742.50,232.85 749.92,247.21 757.33,213.42 764.75,232.92 772.17,252.09 779.58,266.76 787.00,232.97 794.42,247.36 801.83,213.57 809.25,232.80 816.67,252.04 824.08,218.25 831.50,256.83 838.92,261.67 846.33,218.22 853.75,237.52 861.17,252.08 868.58,213.47 876.00,242.40 883.42,261.66 890.83,227.87 898.25,247.27 905.67,213.48 913.08,232.91 920.50,252.07 927.92,218.28 935.33,242.35 942.75,232.69 950.17,242.32 957.58,252.01 965.00,261.71" fill="none" stroke="#2563eb" stroke-width="2"/>
<text x="75.0" y="338" font-family="sans-serif" font-size="12" fill="#2563eb">consumer-1</text>
<polyline points="75.00,199.88 82.42,195.05 89.83,161.26 97.25,122.64 104.67,88.85 112.08,248.38 119.50,214.58 126.92,175.96 134.33,137.35 141.75,103.55 149.17,263.22 156.58,224.60 164.00,181.15 171.42,137.71 178.83,103.91 186.25,262.88 193.67,224.26 201.08,190.47 208.50,151.85 215.92,118.06 223.33,79.44 230.75,239.18 238.17,205.38 245.58,166.76 253.00,128.14 260.42,94.35 267.83,258.33 275.25,219.71 282.67,185.92 290.08,152.13 297.50,118.33 304.92,84.54 312.33,248.68 319.75,214.88 327.17,176.26 334.58,142.47 342.00,103.85 349.42,262.50 356.83,223.88 364.25,185.26 371.67,151.47 379.08,112.85 386.50,79.06 393.92,243.63 401.33,200.19 408.75,161.57 416.17,127.77 423.58,93.98 431.00,252.27 438.42,213.65 445.83,175.03 453.25,141.24 460.67,107.45 468.08,83.31 475.50,233.61 482.92,190.17 490.33,156.37 497.75,117.75 505.17,83.96 512.58,243.57 520.00,204.95 527.42,171.16 534.83,142.19 542.25,103.58 549.67,257.79 557.08,224.00 564.50,185.38 571.92,146.76 579.33,112.97 586.75,74.35 594.17,238.35 601.58,199.73 609.00,165.94 616.42,127.32 623.83,88.70 631.25,248.02 638.67,209.40 646.08,165.96 653.50,132.17 660.92,93.55 668.33,256.98 675.75,223.19 683.17,189.40 690.58,145.95 698.00,121.82 705.42,73.54 712.83,242.85 720.25,209.06 727.67,175.27 735.08,141.48 742.50,107.68 749.92,69.06 757.33,237.99 764.75,199.37 772.17,160.75 779.58,126.96 787.00,93.16 794.42,262.14 801.83,233.18 809.25,194.56 816.67,160.76 824.08,131.80 831.50,112.49 838.92,64.21 846.33,223.55 853.75,189.76 861.17,155.97 868.58,122.18 876.00,83.56 883.42,252.58 890.83,218.79 898.25,180.17 905.67,146.38 913.08,107.76 920.50,69.14 927.92,238.04 935.33,204.24 942.75,194.59 950.17,151.14 957.58,107.70 965.00,64.25" fill="none" stroke="#dc2626" stroke-width="2"/>
<text x="255.0" y="338" font-family="sans-serif" font-size="12" fill="#dc2626">consumer-2</text>
<polyline points="75.00,86.49 82.42,86.49 89.83,52.70 97.25,224.00 104.67,190.21 112.08,151.59 119.50,117.79 126.92,79.17 134.33,258.18 141.75,224.39 149.17,185.77 156.58,151.98 164.00,113.36 171.42,74.74 178.83,253.15 186.25,219.36 193.67,185.57 201.08,146.95 208.50,108.33 215.92,69.71 223.33,248.60 230.75,214.81 238.17,181.02 245.58,142.40 253.00,103.78 260.42,69.99 267.83,247.98 275.25,209.36 282.67,170.74 290.08,136.94 297.50,98.32 304.92,59.71 312.33,233.65 319.75,199.86 327.17,161.24 334.58,127.45 342.00,93.65 349.42,55.03 356.83,238.50 364.25,204.71 371.67,170.92 379.08,132.30 386.50,93.68 393.92,59.88 401.33,238.46 408.75,204.66 416.17,170.87 423.58,132.25 431.00,98.46 438.42,64.67 445.83,243.67 453.25,200.22 460.67,161.60 468.08,132.64 475.50,94.02 482.92,60.23 490.33,243.47 497.75,204.85 505.17,171.06 512.58,137.27 520.00,103.48 527.42,69.69 534.83,243.43 542.25,204.81 549.67,171.02 557.08,127.57 564.50,93.78 571.92,55.16 579.33,233.23 586.75,199.44 594.17,165.65 601.58,131.86 609.00,98.06 616.42,59.45 623.83,243.48 631.25,209.69 638.67,175.90 646.08,137.28 653.50,98.66 660.92,64.87 668.33,247.88 675.75,204.43 683.17,165.81 690.58,132.02 698.00,107.88 705.42,59.61 712.83,242.90 720.25,209.10 727.67,170.48 735.08,136.69 742.50,112.55 749.92,64.28 757.33,257.41 764.75,223.62 772.17,185.00 779.58,151.20 787.00,117.41 794.42,78.79 801.83,45.00 809.25,233.31 816.67,194.69 824.08,160.90 831.50,146.42 838.92,98.14 846.33,54.70 853.75,242.99 861.17,209.20 868.58,170.58 876.00,136.79 883.42,98.17 890.83,64.37 898.25,252.72 905.67,214.10 913.08,180.31 920.50,141.69 927.92,103.07 935.33,69.28 942.75,59.62 950.17,242.99 957.58,199.54 965.00,151.27" fill="none" stroke="#16a34a" stroke-width="2"/>
<text x="435.0" y="338" font-family="sans-serif" font-size="12" fill="#16a34a">consumer-3</text>
<polyline points="75.00,95.20 82.42,85.55 89.83,237.03 97.25,203.24 104.67,169.45 112.08,130.83 119.50,92.21 126.92,247.20 134.33,208.58 141.75,174.79 149.17,136.17 156.58,97.55 164.00,261.21 171.42,232.25 178.83,198.45 186.25,159.83 193.67,126.04 201.08,87.42 208.50,246.89 215.92,217.93 223.33,179.31 230.75,140.69 238.17,102.07 245.58,265.95 253.00,232.16 260.42,188.71 267.83,154.92 275.25,111.47 282.67,77.68 290.08,237.26 297.50,203.47 304.92,164.85 312.33,131.06 319.75,97.27 327.17,261.54 334.58,227.75 342.00,193.96 349.42,155.34 356.83,116.72 364.25,82.93 371.67,241.56 379.08,207.77 386.50,169.15 393.92,135.36 401.33,96.74 408.75,256.05 416.17,222.26 423.58,183.64 431.00,145.02 438.42,111.23 445.83,77.43 453.25,236.91 460.67,203.12 468.08,174.16 475.50,130.71 482.92,92.09 490.33,251.75 497.75,213.13 505.17,174.51 512.58,140.71 520.00,97.27 527.42,261.23 534.83,227.43 542.25,193.64 549.67,159.85 557.08,126.06 564.50,87.44 571.92,251.48 579.33,212.86 586.75,179.07 594.17,140.45 601.58,101.83 609.00,68.04 616.42,232.23 623.83,198.43 631.25,159.81 638.67,126.02 646.08,92.23 653.50,261.14 660.92,222.52 668.33,188.73 675.75,154.94 683.17,116.32 690.58,77.70 698.00,256.09 705.42,207.82 712.83,174.02 720.25,135.40 727.67,96.78 735.08,62.99 742.50,236.78 749.92,183.68 757.33,145.06 764.75,111.26 772.17,72.64 779.58,246.57 787.00,207.95 794.42,169.33 801.83,130.72 809.25,96.92 816.67,265.98 824.08,232.19 831.50,212.88 838.92,164.60 846.33,116.33 853.75,82.54 861.17,251.35 868.58,212.74 876.00,174.12 883.42,140.32 890.83,101.70 898.25,67.91 905.67,236.78 913.08,202.99 920.50,164.37 927.92,130.58 935.33,101.62 942.75,87.13 950.17,251.32 957.58,203.05 965.00,149.94" fill="none" stroke="#9333ea" stroke-width="2"/>
<text x="615.0" y="338" font-family="sans-serif" font-size="12" fill="#9333ea">consumer-4</text>
</svg>
