<svg xmlns="http://www.w3.org/2000/svg" width="1000" height="360">
<rect width="100%" height="100%" fill="white"/>
<text x="75.0" y="24" font-family="sans-serif" font-size="18" font-weight="bold">Consumer process CPU usage during production</text>
<line x1="75.0" y1="45.0" x2="75.0" y2="305.0" stroke="#64748b"/>
<line x1="75.0" y1="305.0" x2="965.0" y2="305.0" stroke="#64748b"/>
<text x="8" y="50" font-family="sans-serif" font-size="12">1.00</text>
<polyline points="75.00,289.40 82.42,300.92 89.83,291.63 97.25,295.95 104.67,297.06 112.08,298.22 119.50,298.71 126.92,299.07 134.33,298.28 141.75,299.17 149.17,299.58 156.58,299.35 164.00,299.96 171.42,299.56 178.83,299.00 186.25,298.33 193.67,299.42 201.08,297.17 208.50,296.11 215.92,299.53 223.33,298.53 230.75,299.79 238.17,299.26 245.58,298.81 253.00,299.72 260.42,299.49 267.83,299.70 275.25,299.28 282.67,299.43 290.08,299.18 297.50,299.52 304.92,299.43 312.33,298.93 319.75,299.17 327.17,299.36 334.58,298.89 342.00,298.30 349.42,299.64 356.83,299.45 364.25,299.14 371.67,299.46 379.08,299.82 386.50,299.89 393.92,299.78 401.33,298.57 408.75,299.75 416.17,299.11 423.58,299.71 431.00,300.21 438.42,298.27 445.83,299.77 453.25,298.67 460.67,299.03 468.08,300.68 475.50,298.25 482.92,299.51 490.33,299.33 497.75,300.22 505.17,297.74 512.58,298.92 520.00,300.14 527.42,299.91 534.83,299.71 542.25,299.63 549.67,299.11 557.08,300.12 564.50,299.38 571.92,299.60 579.33,298.80 586.75,299.36 594.17,299.37 601.58,299.89 609.00,299.28 616.42,298.94 623.83,299.64 631.25,299.64 638.67,300.06 646.08,300.34 653.50,299.04 660.92,300.10 668.33,299.11 675.75,299.61 683.17,299.79 690.58,300.31 698.00,301.42 705.42,298.00 712.83,299.03 720.25,300.22 727.67,299.07 735.08,299.16 742.50,300.28 749.92,298.82 757.33,299.28 764.75,299.66 772.17,299.29 779.58,298.68 787.00,300.11 794.42,299.01 801.83,299.95 809.25,299.76 816.67,299.17 824.08,300.28 831.50,302.09 838.92,297.82 846.33,299.00 853.75,299.50 861.17,298.91 868.58,299.89 876.00,300.16 883.42,299.69 890.83,299.03 898.25,299.80 905.67,299.65 913.08,299.45 920.50,299.68 927.92,299.93 935.33,300.41 942.75,303.09 950.17,298.57 957.58,297.75 965.00,297.55" fill="none" stroke="#2563eb" stroke-width="2"/>
<text x="75.0" y="338" font-family="sans-serif" font-size="12" fill="#2563eb">consumer-1</text>
<polyline points="75.00,292.09 82.42,302.15 89.83,289.22 97.25,296.52 104.67,297.19 112.08,298.74 119.50,299.56 126.92,299.11 134.33,298.34 141.75,299.44 149.17,298.53 156.58,299.58 164.00,298.60 171.42,299.13 178.83,295.50 186.25,298.56 193.67,299.21 201.08,300.08 208.50,298.59 215.92,297.90 223.33,299.48 230.75,298.75 238.17,299.55 245.58,299.36 253.00,299.16 260.42,299.88 267.83,299.39 275.25,298.86 282.67,299.52 290.08,299.68 297.50,299.92 304.92,299.80 312.33,299.30 319.75,299.69 327.17,298.89 334.58,298.16 342.00,299.91 349.42,298.49 356.83,299.34 364.25,299.33 371.67,299.93 379.08,299.59 386.50,299.91 393.92,299.58 401.33,299.19 408.75,299.47 416.17,300.02 423.58,300.14 431.00,298.95 438.42,299.11 445.83,297.41 453.25,298.89 460.67,299.61 468.08,301.21 475.50,297.83 482.92,299.19 490.33,299.57 497.75,299.88 505.17,298.11 512.58,298.11 520.00,299.41 527.42,299.77 534.83,300.20 542.25,299.65 549.67,298.87 557.08,299.95 564.50,299.28 571.92,300.00 579.33,298.78 586.75,299.82 594.17,299.38 601.58,299.72 609.00,299.55 616.42,299.89 623.83,299.48 631.25,298.80 638.67,299.50 646.08,299.11 653.50,299.18 660.92,299.42 668.33,299.12 675.75,300.15 683.17,300.07 690.58,298.85 698.00,300.52 705.42,298.44 712.83,299.44 720.25,299.03 727.67,298.91 735.08,299.83 742.50,300.65 749.92,299.42 757.33,299.30 764.75,299.62 772.17,299.62 779.58,299.65 787.00,299.87 794.42,299.71 801.83,300.08 809.25,300.07 816.67,300.11 824.08,299.80 831.50,302.34 838.92,298.49 846.33,298.13 853.75,299.92 861.17,300.32 868.58,299.85 876.00,299.36 883.42,299.62 890.83,300.05 898.25,299.64 905.67,298.68 913.08,299.67 920.50,299.84 927.92,299.23 935.33,300.14 942.75,302.94 950.17,298.44 957.58,298.28 965.00,298.54" fill="none" stroke="#dc2626" stroke-width="2"/>
<text x="255.0" y="338" font-family="sans-serif" font-size="12" fill="#dc2626">consumer-2</text>
<polyline points="75.00,284.47 82.42,303.19 89.83,292.70 97.25,292.88 104.67,297.42 112.08,298.63 119.50,299.19 126.92,299.37 134.33,298.02 141.75,296.47 149.17,299.32 156.58,299.53 164.00,299.34 171.42,299.13 178.83,298.62 186.25,299.97 193.67,299.82 201.08,299.53 208.50,297.74 215.92,297.67 223.33,296.30 230.75,298.88 238.17,299.75 245.58,298.85 253.00,299.10 260.42,299.65 267.83,298.45 275.25,299.52 282.67,299.38 290.08,299.57 297.50,299.56 304.92,298.95 312.33,298.42 319.75,299.45 327.17,299.69 334.58,299.92 342.00,298.33 349.42,299.40 356.83,299.25 364.25,299.80 371.67,299.90 379.08,299.29 386.50,299.49 393.92,300.10 401.33,299.67 408.75,299.81 416.17,299.50 423.58,299.66 431.00,299.73 438.42,300.06 445.83,298.23 453.25,297.52 460.67,299.05 468.08,300.44 475.50,299.50 482.92,300.08 490.33,299.43 497.75,299.84 505.17,298.55 512.58,299.46 520.00,299.66 527.42,300.13 534.83,299.05 542.25,299.38 549.67,299.67 557.08,298.97 564.50,299.78 571.92,299.58 579.33,298.50 586.75,299.87 594.17,299.95 601.58,299.82 609.00,299.98 616.42,299.56 623.83,299.31 631.25,299.94 638.67,299.97 646.08,300.11 653.50,299.16 660.92,299.72 668.33,299.73 675.75,299.21 683.17,299.16 690.58,299.76 698.00,301.65 705.42,298.04 712.83,298.68 720.25,299.76 727.67,299.55 735.08,298.66 742.50,301.40 749.92,298.89 757.33,300.00 764.75,299.56 772.17,299.76 779.58,299.48 787.00,299.58 794.42,299.72 801.83,300.35 809.25,299.22 816.67,299.22 824.08,299.42 831.50,302.71 838.92,298.50 846.33,298.77 853.75,299.63 861.17,299.80 868.58,299.59 876.00,300.08 883.42,299.61 890.83,299.76 898.25,299.54 905.67,299.77 913.08,299.54 920.50,299.52 927.92,299.45 935.33,299.71 942.75,302.48 950.17,298.74 957.58,298.36 965.00,297.56" fill="none" stroke="#16a34a" stroke-width="2"/>
<text x="435.0" y="338" font-family="sans-serif" font-size="12" fill="#16a34a">consumer-3</text>
<polyline points="75.00,291.45 82.42,300.72 89.83,289.19 97.25,299.40 104.67,298.99 112.08,296.40 119.50,298.58 126.92,298.34 134.33,298.67 141.75,299.46 149.17,298.42 156.58,299.16 164.00,298.96 171.42,299.95 178.83,299.75 186.25,299.45 193.67,299.82 201.08,299.19 208.50,297.54 215.92,298.70 223.33,299.15 230.75,299.40 238.17,299.22 245.58,299.33 253.00,299.68 260.42,299.20 267.83,299.82 275.25,298.36 282.67,299.54 290.08,299.35 297.50,300.11 304.92,299.35 312.33,299.99 319.75,299.85 327.17,299.13 334.58,299.09 342.00,297.24 349.42,299.64 356.83,299.37 364.25,299.53 371.67,298.79 379.08,299.81 386.50,299.46 393.92,300.11 401.33,299.42 408.75,298.96 416.17,299.73 423.58,299.63 431.00,299.69 438.42,299.49 445.83,298.85 453.25,297.66 460.67,299.72 468.08,300.45 475.50,298.94 482.92,300.01 490.33,299.04 497.75,298.27 505.17,299.39 512.58,299.03 520.00,299.52 527.42,298.60 534.83,299.89 542.25,300.38 549.67,300.19 557.08,299.70 564.50,299.62 571.92,299.29 579.33,299.10 586.75,299.54 594.17,299.52 601.58,299.73 609.00,299.93 616.42,298.89 623.83,299.93 631.25,299.74 638.67,300.05 646.08,299.83 653.50,299.87 660.92,299.78 668.33,299.76 675.75,300.05 683.17,299.52 690.58,299.27 698.00,300.54 705.42,298.62 712.83,299.42 720.25,299.37 727.67,297.97 735.08,300.12 742.50,299.69 749.92,297.64 757.33,299.74 764.75,299.91 772.17,299.77 779.58,299.35 787.00,299.52 794.42,299.70 801.83,299.17 809.25,300.00 816.67,299.79 824.08,299.76 831.50,301.90 838.92,298.50 846.33,298.51 853.75,299.96 861.17,299.41 868.58,299.79 876.00,299.63 883.42,299.75 890.83,299.58 898.25,299.65 905.67,299.53 913.08,300.19 920.50,299.40 927.92,299.98 935.33,301.08 942.75,302.68 950.17,298.08 957.58,297.58 965.00,297.47" fill="none" stroke="#9333ea" stroke-width="2"/>
<text x="615.0" y="338" font-family="sans-serif" font-size="12" fill="#9333ea">consumer-4</text>
</svg>
