<svg xmlns="http://www.w3.org/2000/svg" width="1000" height="360">
<rect width="100%" height="100%" fill="white"/>
<text x="75.0" y="24" font-family="sans-serif" font-size="18" font-weight="bold">PostgreSQL commits / second during production</text>
<line x1="75.0" y1="45.0" x2="75.0" y2="305.0" stroke="#64748b"/>
<line x1="75.0" y1="305.0" x2="965.0" y2="305.0" stroke="#64748b"/>
<text x="8" y="50" font-family="sans-serif" font-size="12">8899.02</text>
<polyline points="75.00,223.99 82.42,210.93 89.83,184.64 97.25,157.21 104.67,129.00 112.08,102.68 119.50,81.57 126.92,75.63 134.33,81.51 141.75,73.57 149.17,58.96 156.58,66.63 164.00,68.00 171.42,70.42 178.83,69.37 186.25,71.10 193.67,71.40 201.08,67.73 208.50,68.32 215.92,70.19 223.33,63.99 230.75,62.34 238.17,61.66 245.58,62.72 253.00,60.16 260.42,59.09 267.83,58.74 275.25,58.79 282.67,56.99 290.08,54.49 297.50,54.88 304.92,54.33 312.33,53.79 319.75,54.85 327.17,55.28 334.58,54.63 342.00,54.37 349.42,54.15 356.83,54.19 364.25,54.36 371.67,54.71 379.08,54.86 386.50,54.42 393.92,54.87 401.33,55.21 408.75,54.41 416.17,56.05 423.58,55.48 431.00,55.00 438.42,56.39 445.83,56.03 453.25,56.66 460.67,56.53 468.08,60.77 475.50,61.00 482.92,58.85 490.33,59.41 497.75,59.58 505.17,58.92 512.58,61.37 520.00,60.34 527.42,61.32 534.83,57.91 542.25,58.52 549.67,61.59 557.08,61.81 564.50,61.67 571.92,60.51 579.33,58.34 586.75,59.48 594.17,59.08 601.58,62.86 609.00,63.47 616.42,61.21 623.83,60.80 631.25,61.87 638.67,61.16 646.08,60.57 653.50,59.80 660.92,59.92 668.33,57.02 675.75,55.97 683.17,56.38 690.58,56.27 698.00,60.53 705.42,57.94 712.83,56.41 720.25,56.69 727.67,54.91 735.08,57.36 742.50,63.65 749.92,54.51 757.33,55.17 764.75,50.12 772.17,53.20 779.58,55.33 787.00,55.46 794.42,56.89 801.83,53.38 809.25,47.52 816.67,60.72 824.08,61.63 831.50,73.77 838.92,69.07 846.33,61.25 853.75,60.61 861.17,59.67 868.58,59.64 876.00,60.38 883.42,55.51 890.83,53.82 898.25,45.00 905.67,49.65 913.08,58.51 920.50,58.98 927.92,58.55 935.33,69.11 942.75,79.19 950.17,82.11 957.58,76.12 965.00,64.23" fill="none" stroke="#2563eb" stroke-width="2"/>
<text x="75.0" y="338" font-family="sans-serif" font-size="12" fill="#2563eb">series-1</text>
</svg>
