<svg xmlns="http://www.w3.org/2000/svg" width="1000" height="360">
<rect width="100%" height="100%" fill="white"/>
<text x="75.0" y="24" font-family="sans-serif" font-size="18" font-weight="bold">Produced vs processed records / second</text>
<line x1="75.0" y1="45.0" x2="75.0" y2="305.0" stroke="#64748b"/>
<line x1="75.0" y1="305.0" x2="965.0" y2="305.0" stroke="#64748b"/>
<text x="8" y="50" font-family="sans-serif" font-size="12">9125.32</text>
<polyline points="75.00,91.46 114.11,91.24 153.34,91.88 192.47,90.78 231.69,91.80 270.88,91.10 310.07,91.12 349.25,91.04 388.57,91.79 427.84,91.52 467.13,91.07 506.50,90.90 545.85,92.00 585.30,90.82 624.79,91.62 664.30,91.13 703.78,90.99 743.46,91.48 782.99,91.87 822.60,90.52 862.36,91.38 901.98,91.76 941.82,91.25 965.00,92.20" fill="none" stroke="#2563eb" stroke-width="2"/>
<text x="75.0" y="338" font-family="sans-serif" font-size="12" fill="#2563eb">produced</text>
<polyline points="75.00,88.65 114.11,91.37 153.34,91.28 192.47,91.21 231.69,91.47 270.88,90.35 310.07,92.35 349.25,91.83 388.57,90.99 427.84,90.11 467.13,91.80 506.50,91.79 545.85,91.21 585.30,91.10 624.79,91.80 664.30,91.72 703.78,90.43 743.46,91.33 782.99,92.55 822.60,108.08 862.36,73.13 901.98,92.51 941.82,117.53 965.00,45.00" fill="none" stroke="#dc2626" stroke-width="2"/>
<text x="255.0" y="338" font-family="sans-serif" font-size="12" fill="#dc2626">processed</text>
</svg>
