<svg xmlns="http://www.w3.org/2000/svg" width="1000" height="360">
<rect width="100%" height="100%" fill="white"/>
<text x="75.0" y="24" font-family="sans-serif" font-size="18" font-weight="bold">Processed records / second by consumer during production</text>
<line x1="75.0" y1="45.0" x2="75.0" y2="305.0" stroke="#64748b"/>
<line x1="75.0" y1="305.0" x2="965.0" y2="305.0" stroke="#64748b"/>
<text x="8" y="50" font-family="sans-serif" font-size="12">2266.80</text>
<polyline points="75.00,131.02 82.42,143.99 89.83,141.01 97.25,145.71 104.67,134.13 112.08,82.80 119.50,86.41 126.92,91.70 134.33,89.89 141.75,90.20 149.17,91.95 156.58,92.91 164.00,100.84 171.42,107.14 178.83,98.54 186.25,89.94 193.67,86.24 201.08,85.27 208.50,84.89 215.92,94.53 223.33,84.57 230.75,88.99 238.17,90.46 245.58,84.40 253.00,94.34 260.42,87.53 267.83,92.06 275.25,102.48 282.67,98.05 290.08,94.22 297.50,89.62 304.92,83.32 312.33,81.25 319.75,81.94 327.17,80.76 334.58,72.04 342.00,76.72 349.42,79.47 356.83,83.84 364.25,89.94 371.67,85.31 379.08,89.43 386.50,91.24 393.92,93.88 401.33,86.44 408.75,84.75 416.17,76.43 423.58,76.55 431.00,93.40 438.42,81.85 445.83,92.95 453.25,92.06 460.67,83.86 468.08,108.07 475.50,86.07 482.92,87.16 490.33,84.58 497.75,76.92 505.17,91.26 512.58,89.85 520.00,99.40 527.42,94.30 534.83,95.50 542.25,97.77 549.67,86.73 557.08,90.28 564.50,90.54 571.92,87.44 579.33,92.68 586.75,84.61 594.17,82.16 601.58,85.97 609.00,82.13 616.42,80.59 623.83,82.23 631.25,79.24 638.67,87.47 646.08,99.87 653.50,100.99 660.92,104.65 668.33,95.37 675.75,87.33 683.17,90.91 690.58,94.92 698.00,118.64 705.42,100.69 712.83,97.05 720.25,95.33 727.67,70.82 735.08,100.94 742.50,105.92 749.92,89.19 757.33,96.62 764.75,85.27 772.17,76.15 779.58,83.81 787.00,85.09 794.42,76.29 801.83,83.41 809.25,86.49 816.67,79.93 824.08,94.24 831.50,117.47 838.92,94.67 846.33,88.40 853.75,79.65 861.17,45.00 868.58,68.75 876.00,86.61 883.42,89.56 890.83,101.46 898.25,101.70 905.67,94.58 913.08,94.74 920.50,91.80 927.92,94.53 935.33,103.03 942.75,136.82 950.17,123.23 957.58,99.33 965.00,78.84" fill="none" stroke="#2563eb" stroke-width="2"/>
<text x="75.0" y="338" font-family="sans-serif" font-size="12" fill="#2563eb">consumer-1</text>
<polyline points="75.00,132.36 82.42,147.26 89.83,146.60 97.25,152.77 104.67,140.50 112.08,96.36 119.50,93.38 126.92,94.30 134.33,94.27 141.75,92.11 149.17,88.47 156.58,89.61 164.00,77.61 171.42,69.40 178.83,72.24 186.25,73.13 193.67,78.01 201.08,88.36 208.50,90.57 215.92,91.95 223.33,97.48 230.75,92.10 238.17,88.39 245.58,89.91 253.00,86.13 260.42,92.12 267.83,97.37 275.25,94.70 282.67,101.32 290.08,95.65 297.50,94.17 304.92,102.23 312.33,105.20 319.75,107.29 327.17,104.40 334.58,97.58 342.00,93.67 349.42,88.15 356.83,84.00 364.25,82.48 371.67,83.41 379.08,86.91 386.50,94.14 393.92,97.53 401.33,87.91 408.75,86.56 416.17,86.73 423.58,88.39 431.00,93.52 438.42,94.81 445.83,85.90 453.25,84.46 460.67,89.48 468.08,108.49 475.50,97.50 482.92,88.56 490.33,83.97 497.75,66.83 505.17,84.64 512.58,88.88 520.00,86.82 527.42,85.61 534.83,89.39 542.25,89.11 549.67,89.68 557.08,94.01 564.50,84.52 571.92,88.38 579.33,89.76 586.75,87.45 594.17,93.52 601.58,92.57 609.00,93.19 616.42,93.40 623.83,87.90 631.25,83.09 638.67,80.59 646.08,67.95 653.50,73.45 660.92,75.26 668.33,76.12 675.75,91.11 683.17,94.79 690.58,85.29 698.00,102.56 705.42,85.70 712.83,80.59 720.25,90.10 727.67,79.24 735.08,96.41 742.50,104.35 749.92,101.55 757.33,93.92 764.75,87.14 772.17,77.26 779.58,83.23 787.00,88.40 794.42,92.62 801.83,101.42 809.25,103.42 816.67,105.94 824.08,109.55 831.50,130.99 838.92,110.18 846.33,91.80 853.75,88.33 861.17,66.68 868.58,84.18 876.00,93.95 883.42,90.19 890.83,85.59 898.25,83.40 905.67,91.97 913.08,92.36 920.50,89.08 927.92,87.36 935.33,87.77 942.75,130.40 950.17,118.73 957.58,111.04 965.00,93.15" fill="none" stroke="#dc2626" stroke-width="2"/>
<text x="255.0" y="338" font-family="sans-serif" font-size="12" fill="#dc2626">consumer-2</text>
<polyline points="75.00,108.34 82.42,132.72 89.83,128.51 97.25,130.17 104.67,141.55 112.08,84.20 119.50,80.01 126.92,87.41 134.33,95.04 141.75,95.67 149.17,94.40 156.58,93.91 164.00,86.69 171.42,85.92 178.83,82.77 186.25,89.37 193.67,92.41 201.08,95.21 208.50,92.40 215.92,77.35 223.33,77.92 230.75,79.62 238.17,87.94 245.58,94.74 253.00,89.18 260.42,89.45 267.83,84.43 275.25,82.25 282.67,85.64 290.08,83.57 297.50,82.72 304.92,80.91 312.33,75.14 319.75,74.20 327.17,76.63 334.58,85.95 342.00,92.12 349.42,90.63 356.83,93.72 364.25,94.27 371.67,97.62 379.08,96.41 386.50,89.81 393.92,88.37 401.33,88.86 408.75,97.08 416.17,99.14 423.58,94.15 431.00,89.20 438.42,90.31 445.83,91.37 453.25,84.63 460.67,80.07 468.08,85.61 475.50,80.48 482.92,93.72 490.33,102.28 497.75,93.04 505.17,98.01 512.58,98.60 520.00,95.14 527.42,96.99 534.83,93.60 542.25,84.12 549.67,82.83 557.08,71.62 564.50,77.24 571.92,78.67 579.33,81.39 586.75,91.86 594.17,92.05 601.58,96.85 609.00,98.28 616.42,96.34 623.83,96.46 631.25,96.25 638.67,95.96 646.08,97.85 653.50,88.53 660.92,86.98 668.33,91.19 675.75,81.57 683.17,82.74 690.58,84.58 698.00,100.27 705.42,91.08 712.83,93.69 720.25,91.00 727.67,69.41 735.08,84.81 742.50,106.58 749.92,94.96 757.33,99.61 764.75,99.47 772.17,80.45 779.58,95.54 787.00,89.19 794.42,89.95 801.83,97.33 809.25,88.59 816.67,84.52 824.08,87.65 831.50,113.51 838.92,102.68 846.33,95.86 853.75,92.92 861.17,61.30 868.58,75.20 876.00,91.09 883.42,88.48 890.83,86.79 898.25,87.82 905.67,84.89 913.08,87.01 920.50,84.38 927.92,82.77 935.33,84.38 942.75,129.60 950.17,122.21 957.58,111.31 965.00,90.44" fill="none" stroke="#16a34a" stroke-width="2"/>
<text x="435.0" y="338" font-family="sans-serif" font-size="12" fill="#16a34a">consumer-3</text>
<polyline points="75.00,139.29 82.42,150.30 89.83,142.47 97.25,159.37 104.67,139.32 112.08,92.26 119.50,91.57 126.92,84.18 134.33,81.85 141.75,83.63 149.17,87.61 156.58,86.76 164.00,89.19 171.42,94.52 178.83,101.65 186.25,104.20 193.67,105.71 201.08,94.99 208.50,94.33 215.92,100.04 223.33,95.04 230.75,96.66 238.17,92.81 245.58,88.85 253.00,93.10 260.42,90.85 267.83,90.51 275.25,82.80 282.67,77.98 290.08,85.44 297.50,89.37 304.92,93.30 312.33,99.86 319.75,99.84 327.17,96.64 334.58,101.41 342.00,100.58 349.42,98.68 356.83,97.29 364.25,94.53 371.67,86.36 379.08,87.68 386.50,85.42 393.92,89.86 401.33,91.16 408.75,90.17 416.17,94.58 423.58,85.72 431.00,88.06 438.42,91.88 445.83,92.81 453.25,98.95 460.67,103.50 468.08,109.55 475.50,95.67 482.92,95.59 490.33,89.85 497.75,74.68 505.17,83.80 512.58,81.14 520.00,80.53 527.42,82.48 534.83,84.15 542.25,89.94 549.67,98.73 557.08,106.00 564.50,107.32 571.92,102.04 579.33,99.07 586.75,92.69 594.17,90.47 601.58,89.52 609.00,90.35 616.42,92.67 623.83,96.09 631.25,96.48 638.67,96.13 646.08,94.41 653.50,96.09 660.92,95.33 668.33,92.32 675.75,99.52 683.17,92.63 690.58,89.72 698.00,102.43 705.42,83.29 712.83,88.62 720.25,88.38 727.67,77.09 735.08,94.67 742.50,95.77 749.92,73.31 757.33,71.64 764.75,68.29 772.17,66.91 779.58,96.09 787.00,94.81 794.42,92.60 801.83,84.03 809.25,82.91 816.67,87.08 824.08,91.34 831.50,122.35 838.92,103.96 846.33,87.06 853.75,86.44 861.17,59.69 868.58,76.55 876.00,88.23 883.42,86.76 890.83,87.24 898.25,87.79 905.67,90.91 913.08,95.12 920.50,93.22 927.92,97.14 935.33,112.01 942.75,138.06 950.17,134.47 957.58,109.21 965.00,67.17" fill="none" stroke="#9333ea" stroke-width="2"/>
<text x="615.0" y="338" font-family="sans-serif" font-size="12" fill="#9333ea">consumer-4</text>
</svg>
