<svg xmlns="http://www.w3.org/2000/svg" width="1000" height="360">
<rect width="100%" height="100%" fill="white"/>
<text x="75.0" y="24" font-family="sans-serif" font-size="18" font-weight="bold">Processed outbox records / second during production</text>
<line x1="75.0" y1="45.0" x2="75.0" y2="305.0" stroke="#64748b"/>
<line x1="75.0" y1="305.0" x2="965.0" y2="305.0" stroke="#64748b"/>
<text x="8" y="50" font-family="sans-serif" font-size="12">8608.01</text>
<polyline points="75.00,118.30 82.42,134.96 89.83,130.83 97.25,138.58 104.67,130.01 112.08,77.38 119.50,76.26 126.92,77.90 134.33,78.81 141.75,78.96 149.17,79.17 156.58,79.37 164.00,77.04 171.42,77.74 178.83,77.27 186.25,77.65 193.67,79.16 201.08,79.53 208.50,79.11 215.92,79.55 223.33,77.22 230.75,77.84 238.17,78.43 245.58,77.98 253.00,79.26 260.42,78.52 267.83,79.68 275.25,79.12 282.67,79.32 290.08,78.24 297.50,77.44 304.92,78.47 312.33,78.91 319.75,79.39 327.17,78.12 334.58,77.74 342.00,79.34 349.42,77.73 356.83,78.23 364.25,78.85 371.67,76.61 379.08,78.64 386.50,78.69 393.92,81.07 401.33,77.05 408.75,78.15 416.17,77.71 423.58,74.53 431.00,79.63 438.42,78.23 445.83,79.33 453.25,78.56 460.67,77.72 468.08,92.15 475.50,78.46 482.92,79.85 490.33,78.71 497.75,65.75 505.17,77.92 512.58,78.13 520.00,79.03 527.42,78.37 534.83,79.23 542.25,78.78 549.67,78.00 557.08,79.03 564.50,78.43 571.92,77.62 579.33,79.30 586.75,77.64 594.17,78.06 601.58,79.83 609.00,79.57 616.42,79.32 623.83,79.24 631.25,77.23 638.67,78.57 646.08,78.55 653.50,78.29 660.92,79.12 668.33,77.22 675.75,78.41 683.17,78.81 690.58,77.09 698.00,95.36 705.42,78.73 712.83,78.52 720.25,79.80 727.67,61.82 735.08,82.96 742.50,92.39 749.92,78.27 757.33,79.01 764.75,73.31 772.17,62.93 779.58,78.18 787.00,77.87 794.42,76.28 801.83,80.16 809.25,78.91 816.67,77.86 824.08,84.53 831.50,111.27 838.92,92.09 846.33,79.35 853.75,75.20 861.17,45.00 868.58,63.96 876.00,78.50 883.42,77.21 890.83,78.81 898.25,78.72 905.67,79.15 913.08,80.96 920.50,78.13 927.92,79.00 935.33,85.69 942.75,124.58 950.17,115.04 957.58,97.20 965.00,70.53" fill="none" stroke="#2563eb" stroke-width="2"/>
<text x="75.0" y="338" font-family="sans-serif" font-size="12" fill="#2563eb">series-1</text>
</svg>
