<svg xmlns="http://www.w3.org/2000/svg" width="1000" height="360">
<rect width="100%" height="100%" fill="white"/>
<text x="75.0" y="24" font-family="sans-serif" font-size="18" font-weight="bold">Remaining outbox backlog</text>
<line x1="75.0" y1="45.0" x2="75.0" y2="305.0" stroke="#64748b"/>
<line x1="75.0" y1="305.0" x2="965.0" y2="305.0" stroke="#64748b"/>
<text x="8" y="50" font-family="sans-serif" font-size="12">15763.00</text>
<polyline points="75.00,278.61 111.43,230.36 147.93,239.96 184.41,207.72 221.01,201.23 257.95,144.87 294.84,45.00 331.58,52.31 368.38,128.08 405.14,192.13 441.89,227.46 478.73,234.73 515.74,251.62 552.62,230.69 589.44,227.30 626.44,195.97 663.45,154.04 700.59,153.93 737.79,123.97 775.01,115.65 812.51,161.32 849.93,201.45 887.36,208.01 925.00,198.66 941.37,185.09 965.00,305.00" fill="none" stroke="#2563eb" stroke-width="2"/>
<text x="75.0" y="338" font-family="sans-serif" font-size="12" fill="#2563eb">new</text>
</svg>
