<svg xmlns="http://www.w3.org/2000/svg" width="1000" height="360">
<rect width="100%" height="100%" fill="white"/>
<text x="75.0" y="24" font-family="sans-serif" font-size="18" font-weight="bold">Consumer process CPU usage during production</text>
<line x1="75.0" y1="45.0" x2="75.0" y2="305.0" stroke="#64748b"/>
<line x1="75.0" y1="305.0" x2="965.0" y2="305.0" stroke="#64748b"/>
<text x="8" y="50" font-family="sans-serif" font-size="12">1.00</text>
<polyline points="75.00,295.16 82.42,298.26 89.83,292.68 97.25,296.38 104.67,297.48 112.08,298.06 119.50,294.54 126.92,297.19 134.33,298.25 141.75,298.16 149.17,297.37 156.58,297.69 164.00,298.27 171.42,298.25 178.83,298.33 186.25,297.26 193.67,298.36 201.08,297.54 208.50,297.91 215.92,297.80 223.33,297.66 230.75,297.63 238.17,298.66 245.58,299.24 253.00,298.35 260.42,297.40 267.83,297.26 275.25,297.49 282.67,298.79 290.08,297.66 297.50,297.46 304.92,298.45 312.33,296.01 319.75,297.72 327.17,296.35 334.58,297.35 342.00,298.04 349.42,296.99 356.83,297.07 364.25,296.03 371.67,296.88 379.08,297.56 386.50,295.89 393.92,297.75 401.33,297.25 408.75,296.77 416.17,297.70 423.58,297.36 431.00,298.29 438.42,296.52 445.83,297.08 453.25,297.76 460.67,297.93 468.08,296.84 475.50,297.79 482.92,297.61 490.33,297.95 497.75,298.51 505.17,298.06 512.58,298.42 520.00,298.62 527.42,298.03 534.83,298.86 542.25,297.77 549.67,298.42 557.08,298.54 564.50,297.49 571.92,298.66 579.33,297.09 586.75,296.00 594.17,297.44 601.58,296.38 609.00,299.79 616.42,297.88 623.83,297.60 631.25,296.95 638.67,299.37 646.08,299.06 653.50,298.71 660.92,298.85 668.33,298.80 675.75,298.50 683.17,298.85 690.58,298.78 698.00,298.44 705.42,298.60 712.83,297.91 720.25,298.14 727.67,298.58 735.08,297.51 742.50,298.18 749.92,298.03 757.33,299.38 764.75,298.96 772.17,298.18 779.58,298.84 787.00,298.53 794.42,297.42 801.83,298.51 809.25,298.24 816.67,298.06 824.08,297.28 831.50,297.37 838.92,297.70 846.33,297.43 853.75,298.66 861.17,297.66 868.58,297.65 876.00,298.53 883.42,298.14 890.83,298.44 898.25,297.48 905.67,296.72 913.08,298.07 920.50,298.43 927.92,297.11 935.33,297.96 942.75,298.69 950.17,297.70 957.58,298.29 965.00,299.03" fill="none" stroke="#2563eb" stroke-width="2"/>
<text x="75.0" y="338" font-family="sans-serif" font-size="12" fill="#2563eb">consumer-1</text>
<polyline points="75.00,278.65 82.42,302.41 89.83,295.45 97.25,293.73 104.67,296.34 112.08,296.02 119.50,297.33 126.92,297.81 134.33,297.02 141.75,296.79 149.17,297.50 156.58,295.77 164.00,297.32 171.42,298.02 178.83,298.03 186.25,298.14 193.67,298.72 201.08,297.45 208.50,298.09 215.92,297.57 223.33,298.56 230.75,297.43 238.17,298.55 245.58,299.22 253.00,297.91 260.42,298.38 267.83,297.87 275.25,298.09 282.67,297.75 290.08,298.53 297.50,299.39 304.92,297.39 312.33,296.40 319.75,298.03 327.17,297.14 334.58,296.53 342.00,297.81 349.42,298.43 356.83,296.12 364.25,296.89 371.67,296.77 379.08,297.08 386.50,297.45 393.92,295.74 401.33,297.12 408.75,297.56 416.17,297.82 423.58,296.40 431.00,297.23 438.42,298.08 445.83,297.09 453.25,296.57 460.67,298.58 468.08,296.73 475.50,297.87 482.92,298.45 490.33,297.89 497.75,298.73 505.17,297.14 512.58,297.23 520.00,297.84 527.42,298.43 534.83,297.74 542.25,298.37 549.67,297.88 557.08,297.96 564.50,298.36 571.92,297.50 579.33,297.17 586.75,298.09 594.17,298.12 601.58,297.44 609.00,297.81 616.42,299.12 623.83,298.36 631.25,297.95 638.67,298.60 646.08,299.79 653.50,298.91 660.92,299.43 668.33,299.08 675.75,298.61 683.17,297.85 690.58,298.70 698.00,298.37 705.42,298.24 712.83,297.89 720.25,298.46 727.67,297.97 735.08,297.59 742.50,300.31 749.92,298.12 757.33,298.44 764.75,298.24 772.17,298.03 779.58,297.85 787.00,298.35 794.42,299.79 801.83,298.21 809.25,298.54 816.67,298.97 824.08,297.25 831.50,297.52 838.92,297.95 846.33,297.96 853.75,298.10 861.17,297.45 868.58,296.78 876.00,297.58 883.42,298.19 890.83,298.65 898.25,297.92 905.67,298.73 913.08,296.28 920.50,298.08 927.92,298.43 935.33,297.89 942.75,297.63 950.17,297.42 957.58,299.84 965.00,297.22" fill="none" stroke="#dc2626" stroke-width="2"/>
<text x="255.0" y="338" font-family="sans-serif" font-size="12" fill="#dc2626">consumer-2</text>
<polyline points="75.00,279.55 82.42,299.78 89.83,292.39 97.25,290.22 104.67,296.49 112.08,296.66 119.50,297.08 126.92,296.30 134.33,297.68 141.75,297.75 149.17,298.25 156.58,297.04 164.00,297.47 171.42,299.57 178.83,297.45 186.25,297.67 193.67,297.45 201.08,298.01 208.50,298.26 215.92,297.09 223.33,297.08 230.75,298.27 238.17,297.19 245.58,298.39 253.00,298.30 260.42,298.02 267.83,297.81 275.25,297.99 282.67,297.60 290.08,296.48 297.50,299.45 304.92,298.14 312.33,297.44 319.75,296.92 327.17,297.02 334.58,297.32 342.00,296.67 349.42,297.83 356.83,297.63 364.25,297.05 371.67,295.47 379.08,297.30 386.50,296.73 393.92,296.48 401.33,297.32 408.75,298.29 416.17,297.56 423.58,297.35 431.00,298.17 438.42,297.42 445.83,297.82 453.25,294.93 460.67,297.89 468.08,298.28 475.50,297.68 482.92,298.28 490.33,298.11 497.75,298.27 505.17,298.63 512.58,297.90 520.00,297.31 527.42,298.38 534.83,297.97 542.25,297.86 549.67,298.45 557.08,298.36 564.50,297.90 571.92,297.24 579.33,298.20 586.75,297.73 594.17,297.96 601.58,297.91 609.00,298.39 616.42,298.95 623.83,296.22 631.25,299.84 638.67,296.82 646.08,298.76 653.50,298.67 660.92,298.29 668.33,299.42 675.75,298.08 683.17,298.33 690.58,298.29 698.00,298.19 705.42,297.83 712.83,298.05 720.25,298.05 727.67,298.05 735.08,298.65 742.50,299.51 749.92,297.55 757.33,297.18 764.75,298.72 772.17,298.15 779.58,297.80 787.00,298.79 794.42,298.83 801.83,298.04 809.25,299.04 816.67,297.27 824.08,298.14 831.50,297.37 838.92,297.42 846.33,297.89 853.75,298.16 861.17,297.70 868.58,297.68 876.00,298.98 883.42,297.47 890.83,298.37 898.25,298.36 905.67,298.75 913.08,297.19 920.50,298.96 927.92,298.60 935.33,296.71 942.75,298.99 950.17,296.96 957.58,299.44 965.00,297.84" fill="none" stroke="#16a34a" stroke-width="2"/>
<text x="435.0" y="338" font-family="sans-serif" font-size="12" fill="#16a34a">consumer-3</text>
<polyline points="75.00,283.75 82.42,304.19 89.83,291.48 97.25,296.83 104.67,297.08 112.08,297.54 119.50,297.02 126.92,296.82 134.33,297.54 141.75,295.06 149.17,298.41 156.58,298.23 164.00,298.84 171.42,298.32 178.83,298.44 186.25,297.56 193.67,298.07 201.08,298.55 208.50,298.03 215.92,297.90 223.33,298.07 230.75,297.94 238.17,298.07 245.58,298.33 253.00,297.51 260.42,298.74 267.83,299.48 275.25,298.20 282.67,298.20 290.08,298.31 297.50,298.71 304.92,297.99 312.33,298.38 319.75,296.55 327.17,296.78 334.58,297.25 342.00,297.02 349.42,298.69 356.83,296.48 364.25,296.32 371.67,297.13 379.08,297.03 386.50,297.57 393.92,297.61 401.33,297.74 408.75,297.47 416.17,297.19 423.58,297.13 431.00,298.15 438.42,298.49 445.83,296.50 453.25,296.96 460.67,297.88 468.08,298.18 475.50,296.95 482.92,298.52 490.33,298.10 497.75,298.57 505.17,297.71 512.58,297.44 520.00,298.82 527.42,298.03 534.83,298.94 542.25,298.52 549.67,297.69 557.08,297.77 564.50,297.10 571.92,297.92 579.33,298.14 586.75,297.56 594.17,297.62 601.58,297.14 609.00,298.32 616.42,298.46 623.83,297.60 631.25,297.84 638.67,298.39 646.08,298.69 653.50,300.00 660.92,297.03 668.33,298.55 675.75,298.53 683.17,298.81 690.58,298.07 698.00,298.93 705.42,297.18 712.83,298.98 720.25,298.14 727.67,298.46 735.08,298.50 742.50,298.92 749.92,297.85 757.33,299.36 764.75,298.05 772.17,297.93 779.58,298.05 787.00,299.85 794.42,298.33 801.83,298.02 809.25,298.25 816.67,299.17 824.08,298.32 831.50,297.69 838.92,297.96 846.33,298.08 853.75,298.72 861.17,299.06 868.58,297.37 876.00,298.39 883.42,297.77 890.83,298.54 898.25,298.26 905.67,297.66 913.08,298.95 920.50,298.13 927.92,298.42 935.33,297.83 942.75,298.04 950.17,298.76 957.58,298.35 965.00,298.34" fill="none" stroke="#9333ea" stroke-width="2"/>
<text x="615.0" y="338" font-family="sans-serif" font-size="12" fill="#9333ea">consumer-4</text>
</svg>
