<svg xmlns="http://www.w3.org/2000/svg" width="1000" height="360">
<rect width="100%" height="100%" fill="white"/>
<text x="75.0" y="24" font-family="sans-serif" font-size="18" font-weight="bold">Consumer JVM heap bytes during production</text>
<line x1="75.0" y1="45.0" x2="75.0" y2="305.0" stroke="#64748b"/>
<line x1="75.0" y1="305.0" x2="965.0" y2="305.0" stroke="#64748b"/>
<text x="8" y="50" font-family="sans-serif" font-size="12">214413160.00</text>
<polyline points="75.00,254.58 82.42,239.32 89.83,260.04 97.25,209.18 104.67,219.27 112.08,234.86 119.50,239.64 126.92,244.79 134.33,254.91 141.75,209.14 149.17,214.52 156.58,219.28 164.00,234.58 171.42,244.79 178.83,260.07 186.25,260.06 193.67,214.29 201.08,224.36 208.50,234.57 215.92,239.52 223.33,249.65 230.75,259.82 238.17,208.96 245.58,224.26 253.00,239.45 260.42,249.63 267.83,254.73 275.25,208.95 282.67,224.23 290.08,239.42 297.50,249.58 304.92,208.89 312.33,213.99 319.75,224.16 327.17,224.12 334.58,234.42 342.00,244.51 349.42,249.51 356.83,254.66 364.25,254.67 371.67,254.67 379.08,264.83 386.50,264.76 393.92,208.81 401.33,213.95 408.75,219.01 416.17,224.14 423.58,224.13 431.00,234.26 438.42,234.28 445.83,244.48 453.25,254.67 460.67,259.74 468.08,259.74 475.50,264.67 482.92,208.73 490.33,219.08 497.75,229.22 505.17,239.39 512.58,244.42 520.00,259.72 527.42,264.78 534.83,219.01 542.25,224.13 549.67,244.62 557.08,254.66 564.50,264.74 571.92,213.88 579.33,224.09 586.75,229.21 594.17,234.27 601.58,229.19 609.00,249.54 616.42,259.75 623.83,264.90 631.25,264.78 638.67,224.09 646.08,239.32 653.50,249.49 660.92,259.64 668.33,213.86 675.75,224.03 683.17,234.23 690.58,244.43 698.00,254.58 705.42,208.80 712.83,218.97 720.25,224.05 727.67,239.32 735.08,239.26 742.50,249.47 749.92,254.50 757.33,208.73 764.75,224.04 772.17,234.17 779.58,244.31 787.00,259.63 794.42,259.62 801.83,208.76 809.25,213.82 816.67,223.98 824.08,223.99 831.50,224.01 838.92,229.10 846.33,234.18 853.75,244.34 861.17,249.55 868.58,254.54 876.00,264.67 883.42,208.72 890.83,229.07 898.25,229.13 905.67,223.97 913.08,234.19 920.50,244.35 927.92,244.31 935.33,249.41 942.75,264.71 950.17,208.76 957.58,218.90 965.00,234.17" fill="none" stroke="#2563eb" stroke-width="2"/>
<text x="75.0" y="338" font-family="sans-serif" font-size="12" fill="#2563eb">consumer-1</text>
<polyline points="75.00,264.64 82.42,259.55 89.83,229.04 97.25,244.52 104.67,249.50 112.08,249.52 119.50,254.65 126.92,264.94 134.33,265.05 141.75,264.81 149.17,213.95 156.58,213.97 164.00,219.21 171.42,234.67 178.83,244.67 186.25,259.92 193.67,209.06 201.08,219.04 208.50,229.55 215.92,234.44 223.33,249.57 230.75,254.68 238.17,208.91 245.58,224.09 253.00,234.29 260.42,249.49 267.83,259.73 275.25,213.95 282.67,229.17 290.08,249.53 297.50,208.84 304.92,218.95 312.33,229.12 319.75,244.37 327.17,254.60 334.58,254.55 342.00,264.72 349.42,218.94 356.83,218.94 364.25,224.02 371.67,229.14 379.08,234.18 386.50,244.41 393.92,249.50 401.33,254.59 408.75,259.65 416.17,208.79 423.58,264.78 431.00,264.75 438.42,213.89 445.83,224.04 453.25,229.12 460.67,244.34 468.08,244.36 475.50,254.65 482.92,264.83 490.33,208.88 497.75,224.07 505.17,224.09 512.58,229.12 520.00,234.18 527.42,244.41 534.83,249.61 542.25,264.74 549.67,208.79 557.08,229.09 564.50,239.28 571.92,244.39 579.33,254.55 586.75,259.69 594.17,208.83 601.58,213.92 609.00,224.02 616.42,244.34 623.83,254.55 631.25,259.63 638.67,213.86 646.08,234.16 653.50,249.53 660.92,264.63 668.33,218.85 675.75,234.17 683.17,239.27 690.58,249.43 698.00,259.64 705.42,208.78 712.83,218.90 720.25,234.14 727.67,239.52 735.08,244.34 742.50,208.73 749.92,213.80 757.33,229.08 764.75,239.25 772.17,244.30 779.58,249.44 787.00,259.59 794.42,223.99 801.83,229.10 809.25,239.23 816.67,254.50 824.08,259.57 831.50,264.78 838.92,208.84 846.33,213.78 853.75,223.98 861.17,229.05 868.58,223.91 876.00,229.17 883.42,239.20 890.83,249.40 898.25,254.50 905.67,208.73 913.08,264.65 920.50,208.70 927.92,223.95 935.33,234.10 942.75,244.24 950.17,249.35 957.58,208.66 965.00,213.78" fill="none" stroke="#dc2626" stroke-width="2"/>
<text x="255.0" y="338" font-family="sans-serif" font-size="12" fill="#dc2626">consumer-2</text>
<polyline points="75.00,248.35 82.42,233.09 89.83,207.66 97.25,223.23 104.67,238.46 112.08,243.70 119.50,248.90 126.92,264.16 134.33,208.21 141.75,218.36 149.17,233.57 156.58,233.42 164.00,238.51 171.42,264.05 178.83,208.11 186.25,218.37 193.67,223.27 201.08,233.39 208.50,248.67 215.92,253.84 223.33,263.76 230.75,217.98 238.17,217.94 245.58,223.13 253.00,223.06 260.42,238.32 267.83,243.39 275.25,248.44 282.67,253.53 290.08,253.54 297.50,217.94 304.92,223.00 312.33,238.26 319.75,243.32 327.17,243.33 334.58,248.45 342.00,243.30 349.42,248.37 356.83,253.46 364.25,253.52 371.67,248.41 379.08,248.38 386.50,253.47 393.92,253.45 401.33,253.48 408.75,263.66 416.17,263.65 423.58,263.70 431.00,263.68 438.42,263.64 445.83,212.78 453.25,263.67 460.67,263.64 468.08,212.78 475.50,212.76 482.92,217.83 490.33,223.00 497.75,228.08 505.17,233.13 512.58,238.21 520.00,243.36 527.42,248.43 534.83,253.42 542.25,253.46 549.67,258.61 557.08,217.92 564.50,222.90 571.92,222.93 579.33,227.99 586.75,233.12 594.17,233.06 601.58,238.17 609.00,243.28 616.42,248.42 623.83,258.58 631.25,217.89 638.67,212.78 646.08,222.91 653.50,228.01 660.92,233.09 668.33,243.22 675.75,258.53 683.17,263.61 690.58,263.52 698.00,212.66 705.42,217.81 712.83,217.81 720.25,222.90 727.67,222.89 735.08,233.09 742.50,248.36 749.92,248.34 757.33,238.13 764.75,248.33 772.17,248.27 779.58,253.36 787.00,258.46 794.42,212.68 801.83,212.70 809.25,222.87 816.67,222.87 824.08,222.84 831.50,222.80 838.92,217.75 846.33,222.82 853.75,227.96 861.17,227.96 868.58,228.01 876.00,238.13 883.42,233.04 890.83,238.11 898.25,243.15 905.67,253.38 913.08,248.28 920.50,258.48 927.92,212.71 935.33,258.48 942.75,217.79 950.17,263.57 957.58,222.88 965.00,227.95" fill="none" stroke="#16a34a" stroke-width="2"/>
<text x="435.0" y="338" font-family="sans-serif" font-size="12" fill="#16a34a">consumer-3</text>
<polyline points="75.00,83.80 82.42,83.80 89.83,258.89 97.25,218.20 104.67,162.25 112.08,111.39 119.50,60.53 126.92,228.51 134.33,172.56 141.75,111.53 149.17,60.67 156.58,233.64 164.00,187.86 171.42,137.00 178.83,86.14 186.25,258.88 193.67,202.93 201.08,157.16 208.50,101.21 215.92,55.44 223.33,223.14 230.75,172.28 238.17,121.42 245.58,70.56 253.00,233.42 260.42,192.73 267.83,152.04 275.25,111.35 282.67,60.49 290.08,238.83 297.50,193.06 304.92,147.28 312.33,106.59 319.75,50.65 327.17,218.19 334.58,162.24 342.00,106.29 349.42,60.52 356.83,223.20 364.25,167.25 371.67,111.31 379.08,55.36 386.50,223.12 393.92,167.18 401.33,111.23 408.75,60.37 416.17,223.40 423.58,162.37 431.00,106.42 438.42,60.65 445.83,223.31 453.25,172.45 460.67,116.50 468.08,65.64 475.50,227.94 482.92,177.08 490.33,126.22 497.75,75.36 505.17,243.55 512.58,187.61 520.00,141.83 527.42,90.97 534.83,50.28 542.25,217.94 549.67,161.99 557.08,116.22 564.50,55.18 571.92,228.12 579.33,182.34 586.75,121.31 594.17,65.36 601.58,233.25 609.00,187.48 616.42,141.70 623.83,85.76 631.25,258.69 638.67,207.83 646.08,162.06 653.50,126.46 660.92,65.42 668.33,228.22 675.75,182.44 683.17,131.58 690.58,80.72 698.00,253.63 705.42,192.60 712.83,151.91 720.25,95.96 727.67,45.10 735.08,218.02 742.50,167.16 749.92,116.29 757.33,70.52 764.75,238.33 772.17,182.38 779.58,131.52 787.00,95.92 794.42,263.83 801.83,207.88 809.25,157.02 816.67,111.25 824.08,60.39 831.50,228.17 838.92,177.31 846.33,126.45 853.75,80.67 861.17,253.53 868.58,192.50 876.00,141.64 883.42,85.69 890.83,45.00 898.25,217.99 905.67,162.05 913.08,116.27 920.50,60.32 927.92,238.32 935.33,182.38 942.75,126.43 950.17,80.65 957.58,253.59 965.00,207.82" fill="none" stroke="#9333ea" stroke-width="2"/>
<text x="615.0" y="338" font-family="sans-serif" font-size="12" fill="#9333ea">consumer-4</text>
</svg>
