<svg xmlns="http://www.w3.org/2000/svg" width="1000" height="360">
<rect width="100%" height="100%" fill="white"/>
<text x="75.0" y="24" font-family="sans-serif" font-size="18" font-weight="bold">PostgreSQL commits / second during production</text>
<line x1="75.0" y1="45.0" x2="75.0" y2="305.0" stroke="#64748b"/>
<line x1="75.0" y1="305.0" x2="965.0" y2="305.0" stroke="#64748b"/>
<text x="8" y="50" font-family="sans-serif" font-size="12">12114.56</text>
<polyline points="75.00,246.79 82.42,237.16 89.83,217.74 97.25,193.78 104.67,167.74 112.08,141.44 119.50,119.67 126.92,109.68 134.33,103.61 141.75,87.98 149.17,72.06 156.58,62.79 164.00,61.23 171.42,61.33 178.83,61.78 186.25,64.40 193.67,64.80 201.08,64.91 208.50,67.65 215.92,65.36 223.33,69.33 230.75,64.93 238.17,76.74 245.58,77.62 253.00,78.81 260.42,82.36 267.83,85.39 275.25,83.62 282.67,85.68 290.08,90.25 297.50,97.01 304.92,85.03 312.33,88.51 319.75,85.91 327.17,82.17 334.58,78.95 342.00,75.16 349.42,73.81 356.83,66.89 364.25,61.94 371.67,61.30 379.08,52.38 386.50,52.36 393.92,49.84 401.33,49.15 408.75,49.77 416.17,47.19 423.58,45.00 431.00,45.03 438.42,45.31 445.83,46.77 453.25,48.05 460.67,54.23 468.08,53.60 475.50,54.04 482.92,55.43 490.33,57.06 497.75,60.14 505.17,60.21 512.58,61.17 520.00,62.06 527.42,57.72 534.83,60.78 542.25,62.88 549.67,66.01 557.08,69.92 564.50,66.14 571.92,65.00 579.33,67.92 586.75,66.12 594.17,68.63 601.58,65.22 609.00,64.71 616.42,65.89 623.83,64.90 631.25,66.34 638.67,65.94 646.08,67.84 653.50,73.38 660.92,71.04 668.33,74.33 675.75,78.78 683.17,76.47 690.58,75.00 698.00,76.46 705.42,76.61 712.83,73.74 720.25,70.75 727.67,71.66 735.08,81.12 742.50,77.96 749.92,73.63 757.33,74.78 764.75,73.90 772.17,72.50 779.58,69.81 787.00,67.13 794.42,66.87 801.83,68.50 809.25,63.83 816.67,65.06 824.08,62.68 831.50,60.24 838.92,58.54 846.33,62.96 853.75,65.23 861.17,62.94 868.58,48.53 876.00,52.13 883.42,55.31 890.83,56.55 898.25,59.61 905.67,61.34 913.08,56.41 920.50,56.37 927.92,58.76 935.33,59.88 942.75,57.04 950.17,59.56 957.58,61.61 965.00,62.53" fill="none" stroke="#2563eb" stroke-width="2"/>
<text x="75.0" y="338" font-family="sans-serif" font-size="12" fill="#2563eb">series-1</text>
</svg>
