<svg xmlns="http://www.w3.org/2000/svg" width="1000" height="360">
<rect width="100%" height="100%" fill="white"/>
<text x="75.0" y="24" font-family="sans-serif" font-size="18" font-weight="bold">Produced vs processed records / second</text>
<line x1="75.0" y1="45.0" x2="75.0" y2="305.0" stroke="#64748b"/>
<line x1="75.0" y1="305.0" x2="965.0" y2="305.0" stroke="#64748b"/>
<text x="8" y="50" font-family="sans-serif" font-size="12">10914.22</text>
<polyline points="75.00,66.43 114.15,66.98 153.27,66.79 192.52,66.15 232.12,66.94 271.69,67.12 311.09,67.07 350.55,66.52 389.97,67.18 429.38,66.69 468.88,66.77 508.57,66.90 548.12,66.59 587.60,66.68 627.29,66.90 666.97,66.94 706.80,66.87 746.69,66.70 786.60,66.48 826.82,66.80 866.94,67.25 907.08,66.43 947.44,66.75 965.00,68.05" fill="none" stroke="#2563eb" stroke-width="2"/>
<text x="75.0" y="338" font-family="sans-serif" font-size="12" fill="#2563eb">produced</text>
<polyline points="75.00,80.27 114.15,64.23 153.27,76.03 192.52,68.00 232.12,82.89 271.69,95.41 311.09,64.99 350.55,45.00 389.97,48.97 429.38,56.64 468.88,64.71 508.57,62.13 548.12,72.53 587.60,67.64 627.29,75.75 666.97,78.78 706.80,66.90 746.69,75.12 786.60,68.82 826.82,54.07 866.94,56.04 907.08,64.60 947.44,69.35 965.00,76.72" fill="none" stroke="#dc2626" stroke-width="2"/>
<text x="255.0" y="338" font-family="sans-serif" font-size="12" fill="#dc2626">processed</text>
</svg>
