<svg xmlns="http://www.w3.org/2000/svg" width="1000" height="360">
<rect width="100%" height="100%" fill="white"/>
<text x="75.0" y="24" font-family="sans-serif" font-size="18" font-weight="bold">Processed records / second by consumer during production</text>
<line x1="75.0" y1="45.0" x2="75.0" y2="305.0" stroke="#64748b"/>
<line x1="75.0" y1="305.0" x2="965.0" y2="305.0" stroke="#64748b"/>
<text x="8" y="50" font-family="sans-serif" font-size="12">2811.45</text>
<polyline points="75.00,186.78 82.42,171.39 89.83,170.91 97.25,162.17 104.67,133.69 112.08,97.43 119.50,77.79 126.92,72.63 134.33,75.80 141.75,72.06 149.17,73.66 156.58,78.02 164.00,77.50 171.42,77.80 178.83,85.73 186.25,81.24 193.67,81.58 201.08,78.25 208.50,76.40 215.92,81.27 223.33,76.20 230.75,76.34 238.17,77.10 245.58,86.18 253.00,93.28 260.42,94.26 267.83,86.45 275.25,83.11 282.67,87.25 290.08,92.85 297.50,99.23 304.92,107.42 312.33,89.62 319.75,86.31 327.17,74.84 334.58,59.18 342.00,69.23 349.42,60.25 356.83,66.77 364.25,56.74 371.67,46.29 379.08,51.17 386.50,48.12 393.92,55.79 401.33,58.71 408.75,52.35 416.17,54.91 423.58,51.05 431.00,56.93 438.42,54.57 445.83,57.62 453.25,67.24 460.67,64.79 468.08,62.89 475.50,61.36 482.92,54.10 490.33,52.53 497.75,67.12 505.17,69.18 512.58,76.33 520.00,82.13 527.42,78.38 534.83,84.23 542.25,79.30 549.67,85.47 557.08,92.32 564.50,84.25 571.92,92.30 579.33,81.09 586.75,72.72 594.17,67.70 601.58,50.48 609.00,67.05 616.42,68.51 623.83,73.02 631.25,74.45 638.67,69.60 646.08,77.53 653.50,82.40 660.92,98.82 668.33,92.85 675.75,85.71 683.17,88.99 690.58,87.63 698.00,85.15 705.42,87.56 712.83,82.98 720.25,80.11 727.67,82.10 735.08,71.14 742.50,69.78 749.92,67.58 757.33,72.14 764.75,85.34 772.17,85.43 779.58,93.03 787.00,88.78 794.42,75.56 801.83,75.95 809.25,69.25 816.67,62.96 824.08,62.33 831.50,55.65 838.92,50.89 846.33,46.49 853.75,58.75 861.17,59.82 868.58,60.12 876.00,68.81 883.42,63.50 890.83,79.51 898.25,76.58 905.67,61.04 913.08,60.69 920.50,51.60 927.92,51.98 935.33,64.21 942.75,69.89 950.17,65.62 957.58,77.41 965.00,85.32" fill="none" stroke="#2563eb" stroke-width="2"/>
<text x="75.0" y="338" font-family="sans-serif" font-size="12" fill="#2563eb">consumer-1</text>
<polyline points="75.00,168.18 82.42,170.69 89.83,170.86 97.25,169.36 104.67,163.95 112.08,105.48 119.50,85.59 126.92,78.36 134.33,73.73 141.75,76.57 149.17,67.34 156.58,60.23 164.00,59.66 171.42,67.94 178.83,72.96 186.25,81.46 193.67,92.06 201.08,83.44 208.50,82.94 215.92,75.05 223.33,75.17 230.75,77.66 238.17,79.69 245.58,90.61 253.00,82.54 260.42,95.23 267.83,91.40 275.25,89.12 282.67,97.95 290.08,96.88 297.50,111.37 304.92,107.10 312.33,97.59 319.75,97.19 327.17,80.42 334.58,69.49 342.00,73.83 349.42,70.09 356.83,60.64 364.25,67.85 371.67,59.89 379.08,49.36 386.50,62.03 393.92,56.89 401.33,57.04 408.75,61.32 416.17,57.41 423.58,49.11 431.00,47.22 438.42,45.64 445.83,50.02 453.25,61.61 460.67,73.81 468.08,68.81 475.50,65.22 482.92,72.09 490.33,64.58 497.75,76.89 505.17,69.69 512.58,56.40 520.00,56.71 527.42,51.83 534.83,59.14 542.25,72.95 549.67,73.80 557.08,81.57 564.50,87.00 571.92,80.05 579.33,81.90 586.75,71.63 594.17,67.33 601.58,65.06 609.00,67.79 616.42,77.22 623.83,79.63 631.25,83.93 638.67,85.64 646.08,91.67 653.50,97.59 660.92,107.74 668.33,110.40 675.75,99.54 683.17,89.48 690.58,84.23 698.00,78.71 705.42,75.61 712.83,77.83 720.25,79.00 727.67,75.70 735.08,69.02 742.50,87.42 749.92,81.75 757.33,86.15 764.75,93.76 772.17,71.47 779.58,71.35 787.00,70.91 794.42,83.79 801.83,86.92 809.25,90.06 816.67,94.91 824.08,71.76 831.50,67.69 838.92,62.91 846.33,53.64 853.75,63.10 861.17,60.72 868.58,49.06 876.00,46.28 883.42,45.00 890.83,56.16 898.25,67.88 905.67,76.72 913.08,60.19 920.50,55.08 927.92,63.75 935.33,59.33 942.75,78.49 950.17,75.51 957.58,81.49 965.00,78.24" fill="none" stroke="#dc2626" stroke-width="2"/>
<text x="255.0" y="338" font-family="sans-serif" font-size="12" fill="#dc2626">consumer-2</text>
<polyline points="75.00,163.96 82.42,162.49 89.83,166.37 97.25,164.22 104.67,158.66 112.08,113.00 119.50,80.25 126.92,72.37 134.33,67.13 141.75,72.61 149.17,80.19 156.58,68.28 164.00,68.97 171.42,82.80 178.83,71.22 186.25,82.58 193.67,81.61 201.08,68.88 208.50,79.19 215.92,71.51 223.33,75.13 230.75,80.24 238.17,71.06 245.58,75.58 253.00,76.77 260.42,77.39 267.83,84.19 275.25,84.82 282.67,88.47 290.08,75.35 297.50,88.73 304.92,93.02 312.33,99.05 319.75,102.96 327.17,87.62 334.58,79.81 342.00,61.16 349.42,64.62 356.83,63.63 364.25,63.76 371.67,58.07 379.08,51.33 386.50,52.34 393.92,50.88 401.33,61.62 408.75,72.25 416.17,69.29 423.58,63.96 431.00,65.98 438.42,53.41 445.83,57.85 453.25,56.69 460.67,54.06 468.08,61.23 475.50,57.47 482.92,68.83 490.33,73.36 497.75,71.73 505.17,78.27 512.58,76.70 520.00,74.59 527.42,76.06 534.83,73.36 542.25,70.55 549.67,76.62 557.08,84.14 564.50,82.94 571.92,80.56 579.33,77.94 586.75,73.55 594.17,70.27 601.58,72.48 609.00,70.77 616.42,73.83 623.83,79.58 631.25,98.40 638.67,86.73 646.08,84.60 653.50,87.07 660.92,70.06 668.33,90.80 675.75,94.96 683.17,90.12 690.58,91.97 698.00,80.97 705.42,70.94 712.83,67.78 720.25,69.20 727.67,69.50 735.08,74.29 742.50,88.55 749.92,80.69 757.33,71.54 764.75,70.91 772.17,57.90 779.58,61.89 787.00,76.34 794.42,77.56 801.83,79.20 809.25,86.52 816.67,73.92 824.08,69.66 831.50,62.18 838.92,49.22 846.33,55.01 853.75,57.11 861.17,60.09 868.58,62.77 876.00,72.84 883.42,62.39 890.83,68.56 898.25,74.20 905.67,71.84 913.08,70.42 920.50,75.56 927.92,80.08 935.33,63.22 942.75,80.32 950.17,62.08 957.58,69.19 965.00,82.06" fill="none" stroke="#16a34a" stroke-width="2"/>
<text x="435.0" y="338" font-family="sans-serif" font-size="12" fill="#16a34a">consumer-3</text>
<polyline points="75.00,169.16 82.42,176.36 89.83,169.93 97.25,171.41 104.67,157.45 112.08,99.70 119.50,86.69 126.92,74.88 134.33,74.62 141.75,62.88 149.17,63.23 156.58,67.02 164.00,76.76 171.42,89.79 178.83,89.79 186.25,87.57 193.67,79.88 201.08,83.88 208.50,79.35 215.92,79.20 223.33,84.85 230.75,78.89 238.17,80.23 245.58,77.57 253.00,71.50 260.42,85.06 267.83,94.72 275.25,104.80 282.67,111.05 290.08,109.71 297.50,108.52 304.92,105.01 312.33,112.81 319.75,94.69 327.17,89.94 334.58,77.50 342.00,58.70 349.42,72.79 356.83,63.44 364.25,61.72 371.67,61.75 379.08,48.86 386.50,57.95 393.92,58.35 401.33,61.46 408.75,64.74 416.17,58.66 423.58,54.75 431.00,55.58 438.42,61.50 445.83,63.40 453.25,70.77 460.67,69.62 468.08,65.20 475.50,61.66 482.92,67.58 490.33,70.52 497.75,74.17 505.17,80.37 512.58,74.50 520.00,82.10 527.42,75.22 534.83,84.70 542.25,91.60 549.67,82.82 557.08,91.14 564.50,71.76 571.92,67.33 579.33,76.81 586.75,62.41 594.17,64.72 601.58,58.20 609.00,58.22 616.42,75.93 623.83,76.14 631.25,81.78 638.67,74.91 646.08,69.83 653.50,91.28 660.92,80.42 668.33,81.20 675.75,79.88 683.17,67.88 690.58,77.43 698.00,81.80 705.42,69.39 712.83,74.21 720.25,75.35 727.67,69.16 735.08,81.87 742.50,77.18 749.92,73.57 757.33,82.36 764.75,76.48 772.17,68.49 779.58,71.33 787.00,77.00 794.42,84.04 801.83,85.69 809.25,87.37 816.67,80.11 824.08,77.53 831.50,75.79 838.92,73.70 846.33,64.74 853.75,68.04 861.17,79.62 868.58,71.62 876.00,73.40 883.42,69.43 890.83,73.93 898.25,87.58 905.67,80.99 913.08,86.31 920.50,71.42 927.92,73.76 935.33,76.44 942.75,68.88 950.17,78.72 957.58,73.10 965.00,82.15" fill="none" stroke="#9333ea" stroke-width="2"/>
<text x="615.0" y="338" font-family="sans-serif" font-size="12" fill="#9333ea">consumer-4</text>
</svg>
