<svg xmlns="http://www.w3.org/2000/svg" width="1000" height="360">
<rect width="100%" height="100%" fill="white"/>
<text x="75.0" y="24" font-family="sans-serif" font-size="18" font-weight="bold">Processed outbox records / second during production</text>
<line x1="75.0" y1="45.0" x2="75.0" y2="305.0" stroke="#64748b"/>
<line x1="75.0" y1="305.0" x2="965.0" y2="305.0" stroke="#64748b"/>
<text x="8" y="50" font-family="sans-serif" font-size="12">11021.76</text>
<polyline points="75.00,169.32 82.42,167.49 89.83,166.76 97.25,163.98 104.67,150.36 112.08,99.81 119.50,78.06 126.92,69.88 134.33,68.10 141.75,66.27 149.17,66.35 156.58,63.58 164.00,65.96 171.42,75.00 178.83,75.35 186.25,78.70 193.67,79.29 201.08,74.01 208.50,74.89 215.92,72.12 223.33,73.22 230.75,73.67 238.17,72.39 245.58,77.96 253.00,76.47 260.42,83.58 267.83,84.80 275.25,86.10 282.67,91.93 290.08,89.40 297.50,97.84 304.92,99.03 312.33,95.60 319.75,91.03 327.17,78.70 334.58,66.75 342.00,60.87 349.42,62.10 356.83,58.71 364.25,57.59 371.67,51.45 379.08,45.00 386.50,50.03 393.92,50.41 401.33,54.72 408.75,57.74 416.17,55.09 423.58,49.63 431.00,51.38 438.42,48.67 445.83,52.19 453.25,59.18 460.67,60.70 468.08,59.65 475.50,56.48 482.92,60.79 490.33,60.37 497.75,67.75 505.17,69.69 512.58,66.23 520.00,69.18 527.42,65.60 534.83,70.69 542.25,74.00 549.67,75.10 557.08,82.87 564.50,76.95 571.92,75.48 579.33,74.85 586.75,65.30 594.17,62.68 601.58,56.61 609.00,61.10 616.42,69.17 623.83,72.46 631.25,80.16 638.67,74.63 646.08,76.35 653.50,85.21 660.92,84.87 668.33,89.52 675.75,85.65 683.17,79.63 690.58,80.85 698.00,77.12 705.42,71.21 712.83,71.04 720.25,71.26 727.67,69.42 735.08,69.39 742.50,76.17 749.92,71.24 757.33,73.43 764.75,77.08 772.17,66.06 779.58,69.71 787.00,73.65 794.42,75.67 801.83,77.41 809.25,78.79 816.67,73.36 824.08,65.55 831.50,60.46 838.92,54.18 846.33,49.89 853.75,56.81 861.17,60.18 868.58,55.93 876.00,60.46 883.42,55.10 890.83,64.75 898.25,71.92 905.67,67.92 913.08,64.61 920.50,58.50 927.92,62.56 935.33,60.94 942.75,69.71 950.17,65.72 957.58,70.63 965.00,77.41" fill="none" stroke="#2563eb" stroke-width="2"/>
<text x="75.0" y="338" font-family="sans-serif" font-size="12" fill="#2563eb">series-1</text>
</svg>
