<svg xmlns="http://www.w3.org/2000/svg" width="1000" height="360">
<rect width="100%" height="100%" fill="white"/>
<text x="75.0" y="24" font-family="sans-serif" font-size="18" font-weight="bold">Consumer process CPU usage during production</text>
<line x1="75.0" y1="45.0" x2="75.0" y2="305.0" stroke="#64748b"/>
<line x1="75.0" y1="305.0" x2="965.0" y2="305.0" stroke="#64748b"/>
<text x="8" y="50" font-family="sans-serif" font-size="12">1.00</text>
<polyline points="75.00,278.85 82.42,301.74 89.83,294.48 97.25,297.53 104.67,299.41 112.08,298.94 119.50,300.88 126.92,301.18 134.33,300.67 141.75,300.58 149.17,299.36 156.58,301.11 164.00,299.82 171.42,300.97 178.83,300.36 186.25,299.95 193.67,300.08 201.08,300.99 208.50,300.19 215.92,300.61 223.33,301.38 230.75,300.75 238.17,300.78 245.58,299.59 253.00,299.32 260.42,298.53 267.83,300.86 275.25,301.07 282.67,301.07 290.08,300.57 297.50,300.95 304.92,300.83 312.33,300.64 319.75,300.59 327.17,300.79 334.58,301.32 342.00,300.81 349.42,301.51 356.83,301.09 364.25,300.87 371.67,299.98 379.08,301.01 386.50,301.53 393.92,301.17 401.33,301.77 408.75,300.52 416.17,301.38 423.58,302.04 431.00,300.99 438.42,301.20 445.83,300.75 453.25,299.71 460.67,300.39 468.08,300.33 475.50,300.09 482.92,300.67 490.33,300.90 497.75,301.19 505.17,300.57 512.58,301.34 520.00,301.29 527.42,301.19 534.83,300.87 542.25,301.65 549.67,301.01 557.08,300.94 564.50,301.07 571.92,301.10 579.33,300.97 586.75,300.81 594.17,301.39 601.58,300.69 609.00,300.98 616.42,300.40 623.83,299.54 631.25,300.78 638.67,301.22 646.08,301.44 653.50,301.38 660.92,301.13 668.33,301.47 675.75,300.64 683.17,300.52 690.58,300.90 698.00,301.32 705.42,301.06 712.83,301.37 720.25,300.62 727.67,301.01 735.08,300.68 742.50,300.96 749.92,300.89 757.33,301.33 764.75,301.69 772.17,301.06 779.58,300.96 787.00,301.16 794.42,301.57 801.83,301.05 809.25,300.99 816.67,300.93 824.08,301.14 831.50,301.10 838.92,300.78 846.33,301.11 853.75,301.17 861.17,301.88 868.58,300.72 876.00,300.76 883.42,301.50 890.83,301.11 898.25,300.65 905.67,300.10 913.08,299.98 920.50,300.43 927.92,300.62 935.33,300.51 942.75,301.45 950.17,300.61 957.58,301.60 965.00,300.22" fill="none" stroke="#2563eb" stroke-width="2"/>
<text x="75.0" y="338" font-family="sans-serif" font-size="12" fill="#2563eb">consumer-1</text>
<polyline points="75.00,277.95 82.42,302.04 89.83,297.37 97.25,294.86 104.67,299.31 112.08,301.37 119.50,300.08 126.92,300.92 134.33,298.66 141.75,299.68 149.17,298.21 156.58,300.75 164.00,300.17 171.42,300.99 178.83,301.36 186.25,300.36 193.67,301.29 201.08,301.07 208.50,301.23 215.92,300.80 223.33,300.49 230.75,301.53 238.17,300.63 245.58,301.62 253.00,300.50 260.42,299.65 267.83,299.17 275.25,300.58 282.67,301.43 290.08,300.71 297.50,301.46 304.92,300.16 312.33,300.54 319.75,301.04 327.17,299.88 334.58,301.47 342.00,301.13 349.42,300.79 356.83,300.77 364.25,300.91 371.67,300.39 379.08,300.96 386.50,300.68 393.92,301.13 401.33,301.57 408.75,301.05 416.17,301.25 423.58,301.16 431.00,301.20 438.42,301.30 445.83,300.75 453.25,300.14 460.67,301.00 468.08,300.15 475.50,300.07 482.92,301.23 490.33,301.09 497.75,301.04 505.17,300.87 512.58,301.54 520.00,300.97 527.42,301.15 534.83,301.33 542.25,300.73 549.67,301.02 557.08,301.28 564.50,301.05 571.92,301.29 579.33,301.01 586.75,300.56 594.17,300.86 601.58,300.86 609.00,300.72 616.42,300.76 623.83,300.71 631.25,300.88 638.67,301.30 646.08,301.34 653.50,301.08 660.92,300.93 668.33,300.49 675.75,301.29 683.17,301.63 690.58,301.12 698.00,300.83 705.42,300.91 712.83,300.89 720.25,300.53 727.67,301.06 735.08,301.34 742.50,300.76 749.92,301.09 757.33,301.32 764.75,300.71 772.17,301.60 779.58,301.39 787.00,300.45 794.42,301.61 801.83,300.97 809.25,301.32 816.67,301.42 824.08,300.84 831.50,301.25 838.92,301.13 846.33,300.94 853.75,300.82 861.17,301.54 868.58,300.84 876.00,301.44 883.42,301.19 890.83,300.87 898.25,301.09 905.67,300.61 913.08,301.32 920.50,301.16 927.92,301.35 935.33,300.62 942.75,301.10 950.17,300.30 957.58,300.74 965.00,300.68" fill="none" stroke="#dc2626" stroke-width="2"/>
<text x="255.0" y="338" font-family="sans-serif" font-size="12" fill="#dc2626">consumer-2</text>
<polyline points="75.00,288.32 82.42,303.79 89.83,296.12 97.25,295.77 104.67,298.85 112.08,299.42 119.50,300.93 126.92,300.60 134.33,300.03 141.75,301.03 149.17,300.83 156.58,299.93 164.00,300.61 171.42,300.58 178.83,298.32 186.25,300.82 193.67,301.08 201.08,301.20 208.50,301.69 215.92,300.89 223.33,300.61 230.75,300.61 238.17,300.53 245.58,301.00 253.00,298.46 260.42,300.94 267.83,300.46 275.25,300.59 282.67,301.25 290.08,300.59 297.50,301.14 304.92,299.36 312.33,300.90 319.75,300.51 327.17,300.70 334.58,301.28 342.00,300.73 349.42,301.25 356.83,301.15 364.25,301.35 371.67,301.26 379.08,300.48 386.50,301.34 393.92,300.37 401.33,301.08 408.75,300.93 416.17,301.02 423.58,300.61 431.00,300.92 438.42,300.98 445.83,299.78 453.25,299.30 460.67,300.33 468.08,300.19 475.50,301.38 482.92,301.07 490.33,301.33 497.75,300.89 505.17,300.59 512.58,301.29 520.00,300.82 527.42,301.61 534.83,301.28 542.25,301.23 549.67,300.77 557.08,300.96 564.50,300.70 571.92,301.23 579.33,300.06 586.75,300.89 594.17,301.01 601.58,301.82 609.00,300.09 616.42,299.89 623.83,301.68 631.25,300.99 638.67,301.19 646.08,300.40 653.50,301.00 660.92,300.59 668.33,300.60 675.75,301.26 683.17,301.11 690.58,301.13 698.00,301.00 705.42,301.50 712.83,300.67 720.25,301.21 727.67,301.21 735.08,301.56 742.50,301.03 749.92,300.68 757.33,300.91 764.75,301.40 772.17,301.21 779.58,301.09 787.00,299.45 794.42,301.52 801.83,301.34 809.25,301.44 816.67,300.95 824.08,301.02 831.50,301.16 838.92,301.08 846.33,300.61 853.75,302.60 861.17,300.07 868.58,300.33 876.00,301.17 883.42,300.68 890.83,301.05 898.25,300.74 905.67,301.07 913.08,301.22 920.50,301.32 927.92,301.72 935.33,301.66 942.75,300.57 950.17,301.16 957.58,300.57 965.00,300.85" fill="none" stroke="#16a34a" stroke-width="2"/>
<text x="435.0" y="338" font-family="sans-serif" font-size="12" fill="#16a34a">consumer-3</text>
<polyline points="75.00,279.42 82.42,288.25 89.83,301.81 97.25,298.59 104.67,296.90 112.08,298.64 119.50,300.21 126.92,300.26 134.33,300.67 141.75,297.83 149.17,300.44 156.58,301.27 164.00,300.19 171.42,300.72 178.83,300.41 186.25,300.77 193.67,300.90 201.08,300.81 208.50,301.14 215.92,300.49 223.33,300.50 230.75,301.39 238.17,300.67 245.58,301.34 253.00,298.71 260.42,299.73 267.83,300.71 275.25,300.46 282.67,300.82 290.08,299.76 297.50,301.33 304.92,301.24 312.33,299.02 319.75,301.13 327.17,300.75 334.58,300.74 342.00,300.66 349.42,301.28 356.83,301.13 364.25,300.74 371.67,300.15 379.08,301.08 386.50,300.87 393.92,300.94 401.33,301.56 408.75,300.75 416.17,300.56 423.58,300.55 431.00,301.14 438.42,301.28 445.83,300.64 453.25,300.21 460.67,299.42 468.08,300.58 475.50,301.01 482.92,300.70 490.33,300.99 497.75,301.42 505.17,301.32 512.58,301.10 520.00,301.41 527.42,300.91 534.83,300.57 542.25,301.06 549.67,301.48 557.08,301.15 564.50,301.11 571.92,301.47 579.33,301.06 586.75,300.30 594.17,301.02 601.58,300.96 609.00,301.35 616.42,300.44 623.83,299.86 631.25,301.82 638.67,299.93 646.08,300.62 653.50,300.63 660.92,299.84 668.33,301.13 675.75,301.27 683.17,301.28 690.58,301.13 698.00,301.30 705.42,301.20 712.83,301.21 720.25,301.05 727.67,301.09 735.08,301.42 742.50,301.15 749.92,300.76 757.33,301.48 764.75,300.90 772.17,300.91 779.58,301.00 787.00,301.22 794.42,300.74 801.83,300.44 809.25,301.25 816.67,301.26 824.08,300.93 831.50,300.81 838.92,301.28 846.33,301.31 853.75,300.87 861.17,303.11 868.58,299.64 876.00,301.16 883.42,301.23 890.83,300.84 898.25,301.41 905.67,301.31 913.08,301.24 920.50,301.01 927.92,300.79 935.33,301.39 942.75,300.49 950.17,301.02 957.58,300.21 965.00,301.53" fill="none" stroke="#9333ea" stroke-width="2"/>
<text x="615.0" y="338" font-family="sans-serif" font-size="12" fill="#9333ea">consumer-4</text>
</svg>
