<svg xmlns="http://www.w3.org/2000/svg" width="1000" height="360">
<rect width="100%" height="100%" fill="white"/>
<text x="75.0" y="24" font-family="sans-serif" font-size="18" font-weight="bold">Consumer JVM heap bytes during production</text>
<line x1="75.0" y1="45.0" x2="75.0" y2="305.0" stroke="#64748b"/>
<line x1="75.0" y1="305.0" x2="965.0" y2="305.0" stroke="#64748b"/>
<text x="8" y="50" font-family="sans-serif" font-size="12">79599512.00</text>
<polyline points="75.00,182.02 82.42,154.62 89.83,113.52 97.25,196.28 104.67,127.78 112.08,197.28 119.50,128.78 126.92,73.98 134.33,156.34 141.75,87.84 149.17,156.07 156.58,87.57 164.00,169.84 171.42,101.34 178.83,170.53 186.25,102.03 193.67,183.19 201.08,100.99 208.50,170.59 215.92,88.39 223.33,170.02 230.75,87.82 238.17,184.12 245.58,88.22 253.00,169.71 260.42,101.21 267.83,184.01 275.25,115.51 282.67,47.01 290.08,142.12 297.50,73.62 304.92,156.25 312.33,87.75 319.75,183.81 327.17,115.31 334.58,46.81 342.00,128.90 349.42,60.40 356.83,156.17 364.25,87.67 371.67,183.76 379.08,115.26 386.50,46.76 393.92,142.45 401.33,87.65 408.75,170.03 416.17,101.53 423.58,46.73 431.00,142.80 438.42,74.30 445.83,169.84 453.25,87.64 460.67,183.55 468.08,115.05 475.50,46.55 482.92,128.68 490.33,60.18 497.75,142.35 505.17,73.85 512.58,169.94 520.00,101.44 527.42,197.38 534.83,115.18 542.25,60.37 549.67,142.30 557.08,73.80 564.50,156.22 571.92,87.72 579.33,183.84 586.75,115.34 594.17,46.84 601.58,142.45 609.00,73.95 616.42,156.34 623.83,87.84 631.25,169.66 638.67,101.16 646.08,197.13 653.50,128.63 660.92,60.13 668.33,169.75 675.75,87.55 683.17,169.79 690.58,87.59 698.00,183.37 705.42,114.87 712.83,46.37 720.25,142.12 727.67,73.62 735.08,156.10 742.50,73.90 749.92,169.56 757.33,101.06 764.75,196.65 772.17,128.15 779.58,45.95 787.00,142.47 794.42,73.97 801.83,169.76 809.25,87.56 816.67,182.89 824.08,114.39 831.50,45.89 838.92,142.10 846.33,59.90 853.75,169.76 861.17,101.26 868.58,183.37 876.00,114.87 883.42,46.37 890.83,142.46 898.25,60.26 905.67,155.99 913.08,73.79 920.50,155.96 927.92,73.76 935.33,155.86 942.75,87.36 950.17,183.26 957.58,114.76 965.00,197.00" fill="none" stroke="#2563eb" stroke-width="2"/>
<text x="75.0" y="338" font-family="sans-serif" font-size="12" fill="#2563eb">consumer-1</text>
<polyline points="75.00,154.46 82.42,140.76 89.83,85.96 97.25,182.13 104.67,113.63 112.08,58.82 119.50,141.25 126.92,72.75 134.33,154.95 141.75,86.45 149.17,168.81 156.58,100.31 164.00,196.40 171.42,114.20 178.83,59.40 186.25,141.15 193.67,72.65 201.08,169.04 208.50,100.54 215.92,195.81 223.33,127.31 230.75,72.51 238.17,154.78 245.58,99.98 253.00,182.10 260.42,113.60 267.83,195.99 275.25,141.19 282.67,72.69 290.08,168.79 297.50,100.29 304.92,196.18 312.33,127.68 319.75,59.18 327.17,141.37 334.58,72.87 342.00,168.53 349.42,86.33 356.83,182.30 364.25,100.10 371.67,196.07 379.08,127.57 386.50,45.37 393.92,141.21 401.33,72.71 408.75,168.84 416.17,100.34 423.58,196.23 431.00,127.73 438.42,59.23 445.83,154.93 453.25,86.43 460.67,182.48 468.08,113.98 475.50,45.48 482.92,141.36 490.33,72.86 497.75,154.80 505.17,86.30 512.58,182.28 520.00,113.78 527.42,195.89 534.83,141.09 542.25,72.59 549.67,141.21 557.08,72.71 564.50,168.69 571.92,100.19 579.33,195.92 586.75,127.42 594.17,45.22 601.58,141.06 609.00,72.56 616.42,168.72 623.83,100.22 631.25,195.98 638.67,127.48 646.08,58.98 653.50,154.87 660.92,86.37 668.33,168.46 675.75,99.96 683.17,45.16 690.58,127.43 698.00,58.93 705.42,141.00 712.83,72.50 720.25,154.91 727.67,72.70 735.08,182.21 742.50,100.01 749.92,195.93 757.33,127.43 764.75,45.23 772.17,141.07 779.58,72.57 787.00,182.22 794.42,127.42 801.83,58.92 809.25,141.24 816.67,72.74 824.08,168.55 831.50,100.05 838.92,195.98 846.33,113.78 853.75,45.28 861.17,141.03 868.58,58.83 876.00,154.72 883.42,99.92 890.83,182.00 898.25,113.50 905.67,45.00 913.08,141.00 920.50,72.50 927.92,168.28 935.33,86.08 942.75,182.31 950.17,127.50 957.58,45.30 965.00,140.96" fill="none" stroke="#dc2626" stroke-width="2"/>
<text x="255.0" y="338" font-family="sans-serif" font-size="12" fill="#dc2626">consumer-2</text>
<polyline points="75.00,171.10 82.42,171.10 89.83,88.90 97.25,199.43 104.67,117.23 112.08,199.13 119.50,130.63 126.92,62.13 134.33,158.33 141.75,89.83 149.17,185.56 156.58,103.36 164.00,198.81 171.42,130.31 178.83,61.81 186.25,158.64 193.67,90.14 201.08,185.79 208.50,130.99 215.92,62.49 223.33,144.59 230.75,62.39 238.17,158.49 245.58,76.28 253.00,185.62 260.42,103.42 267.83,199.30 275.25,130.79 282.67,62.29 290.08,144.37 297.50,75.87 304.92,171.87 312.33,103.37 319.75,199.56 327.17,117.36 334.58,48.86 342.00,144.86 349.42,76.36 356.83,172.21 364.25,117.41 371.67,199.51 379.08,131.01 386.50,62.51 393.92,144.81 401.33,76.31 408.75,158.37 416.17,89.87 423.58,171.72 431.00,103.22 438.42,199.44 445.83,117.24 453.25,199.48 460.67,117.28 468.08,48.78 475.50,144.57 482.92,76.07 490.33,172.09 497.75,89.89 505.17,185.69 512.58,117.19 520.00,199.50 527.42,131.00 534.83,62.50 542.25,158.60 549.67,76.40 557.08,172.09 564.50,89.89 571.92,199.58 579.33,117.38 586.75,199.36 594.17,130.86 601.58,76.06 609.00,158.24 616.42,76.04 623.83,185.50 631.25,103.30 638.67,199.46 646.08,117.26 653.50,48.76 660.92,144.71 668.33,76.21 675.75,171.90 683.17,89.70 690.58,185.70 698.00,117.20 705.42,48.70 712.83,130.82 720.25,62.32 727.67,158.20 735.08,89.70 742.50,185.65 749.92,117.15 757.33,48.65 764.75,144.22 772.17,62.02 779.58,158.24 787.00,76.04 794.42,185.65 801.83,130.85 809.25,62.35 816.67,130.62 824.08,62.12 831.50,144.31 838.92,75.81 846.33,158.20 853.75,117.10 861.17,185.63 868.58,103.43 876.00,199.14 883.42,116.94 890.83,48.44 898.25,144.62 905.67,76.12 913.08,171.62 920.50,103.12 927.92,199.47 935.33,144.67 942.75,62.47 950.17,158.25 957.58,76.05 965.00,171.49" fill="none" stroke="#16a34a" stroke-width="2"/>
<text x="435.0" y="338" font-family="sans-serif" font-size="12" fill="#16a34a">consumer-3</text>
<polyline points="75.00,153.21 82.42,194.52 89.83,167.12 97.25,98.62 104.67,139.87 112.08,181.28 119.50,112.78 126.92,154.50 134.33,86.00 141.75,139.61 149.17,195.11 156.58,126.61 164.00,167.73 171.42,99.23 178.83,140.49 186.25,195.02 193.67,126.52 201.08,181.24 208.50,99.04 215.92,154.13 223.33,195.17 230.75,126.67 238.17,181.29 245.58,112.79 253.00,154.12 260.42,85.62 267.83,126.81 275.25,181.25 282.67,99.05 290.08,126.61 297.50,195.32 304.92,126.82 312.33,167.83 319.75,99.33 327.17,153.93 334.58,195.09 342.00,126.59 349.42,181.29 356.83,99.09 364.25,140.44 371.67,195.00 379.08,112.80 386.50,167.83 393.92,85.63 401.33,154.05 408.75,195.37 416.17,99.47 423.58,140.12 431.00,195.34 438.42,126.84 445.83,167.72 453.25,99.22 460.67,153.98 468.08,85.48 475.50,140.25 482.92,181.49 490.33,99.29 497.75,153.90 505.17,85.40 512.58,140.05 520.00,194.62 527.42,126.12 534.83,167.69 542.25,194.99 549.67,126.49 557.08,167.55 564.50,99.05 571.92,140.15 579.33,181.15 586.75,98.95 594.17,139.88 601.58,167.48 609.00,98.98 616.42,140.01 623.83,181.14 631.25,126.34 638.67,140.20 646.08,153.76 653.50,194.56 660.92,112.36 668.33,153.80 675.75,195.01 683.17,126.51 690.58,167.47 698.00,98.97 705.42,140.28 712.83,181.25 720.25,99.05 727.67,139.83 735.08,180.94 742.50,112.44 749.92,139.95 757.33,181.17 764.75,98.97 772.17,139.97 779.58,167.44 787.00,98.94 794.42,126.47 801.83,153.68 809.25,181.11 816.67,112.61 824.08,153.59 831.50,180.96 838.92,112.46 846.33,153.61 853.75,194.70 861.17,153.60 868.58,153.17 876.00,194.93 883.42,126.43 890.83,153.74 898.25,194.80 905.67,126.30 913.08,181.21 920.50,99.01 927.92,126.32 935.33,181.19 942.75,194.70 950.17,126.20 957.58,153.30 965.00,98.50" fill="none" stroke="#9333ea" stroke-width="2"/>
<text x="615.0" y="338" font-family="sans-serif" font-size="12" fill="#9333ea">consumer-4</text>
</svg>
