<svg xmlns="http://www.w3.org/2000/svg" width="1000" height="360">
<rect width="100%" height="100%" fill="white"/>
<text x="75.0" y="24" font-family="sans-serif" font-size="18" font-weight="bold">PostgreSQL commits / second during production</text>
<line x1="75.0" y1="45.0" x2="75.0" y2="305.0" stroke="#64748b"/>
<line x1="75.0" y1="305.0" x2="965.0" y2="305.0" stroke="#64748b"/>
<text x="8" y="50" font-family="sans-serif" font-size="12">5926.89</text>
<polyline points="75.00,225.49 82.42,182.74 89.83,164.09 97.25,135.83 104.67,112.58 112.08,89.57 119.50,64.09 126.92,45.00 134.33,48.84 141.75,61.45 149.17,78.51 156.58,70.37 164.00,72.52 171.42,67.49 178.83,63.64 186.25,60.69 193.67,53.56 201.08,52.32 208.50,51.43 215.92,48.23 223.33,48.10 230.75,47.05 238.17,47.74 245.58,46.40 253.00,48.27 260.42,49.18 267.83,52.92 275.25,55.41 282.67,59.25 290.08,59.82 297.50,61.56 304.92,60.85 312.33,63.64 319.75,62.74 327.17,62.07 334.58,58.46 342.00,57.40 349.42,55.19 356.83,53.66 364.25,51.90 371.67,51.93 379.08,49.54 386.50,49.65 393.92,50.98 401.33,54.03 408.75,54.54 416.17,52.36 423.58,55.10 431.00,53.27 438.42,55.45 445.83,56.30 453.25,59.64 460.67,61.22 468.08,59.51 475.50,61.11 482.92,62.60 490.33,59.49 497.75,61.11 505.17,59.25 512.58,58.66 520.00,55.18 527.42,52.98 534.83,52.58 542.25,49.09 549.67,52.56 557.08,51.99 564.50,52.22 571.92,53.55 579.33,53.19 586.75,52.52 594.17,55.27 601.58,55.21 609.00,56.51 616.42,55.45 623.83,59.75 631.25,59.74 638.67,59.17 646.08,59.91 653.50,60.27 660.92,59.00 668.33,60.16 675.75,60.56 683.17,58.22 690.58,55.36 698.00,54.04 705.42,53.65 712.83,53.51 720.25,55.27 727.67,53.10 735.08,52.83 742.50,52.28 749.92,51.83 757.33,52.97 764.75,55.44 772.17,55.57 779.58,55.46 787.00,54.91 794.42,55.27 801.83,54.31 809.25,54.23 816.67,54.40 824.08,55.21 831.50,52.91 838.92,52.88 846.33,54.38 853.75,54.07 861.17,59.88 868.58,56.11 876.00,54.70 883.42,59.70 890.83,59.47 898.25,60.54 905.67,60.30 913.08,59.44 920.50,59.49 927.92,53.62 935.33,58.58 942.75,59.49 950.17,54.39 957.58,53.33 965.00,52.44" fill="none" stroke="#2563eb" stroke-width="2"/>
<text x="75.0" y="338" font-family="sans-serif" font-size="12" fill="#2563eb">series-1</text>
</svg>
