<svg xmlns="http://www.w3.org/2000/svg" width="1000" height="360">
<rect width="100%" height="100%" fill="white"/>
<text x="75.0" y="24" font-family="sans-serif" font-size="18" font-weight="bold">Produced vs processed records / second</text>
<line x1="75.0" y1="45.0" x2="75.0" y2="305.0" stroke="#64748b"/>
<line x1="75.0" y1="305.0" x2="965.0" y2="305.0" stroke="#64748b"/>
<text x="8" y="50" font-family="sans-serif" font-size="12">5026.48</text>
<polyline points="75.00,46.43 114.03,45.83 153.15,46.44 192.32,46.77 231.31,46.65 270.36,45.95 309.44,46.23 348.59,45.63 387.86,47.36 427.08,46.08 466.22,46.64 505.38,46.73 544.61,46.12 583.83,46.06 623.06,46.15 662.27,47.06 701.52,46.24 740.79,46.40 780.10,45.68 819.40,46.62 858.83,46.49 898.26,46.42 937.76,45.82 965.00,47.22" fill="none" stroke="#2563eb" stroke-width="2"/>
<text x="75.0" y="338" font-family="sans-serif" font-size="12" fill="#2563eb">produced</text>
<polyline points="75.00,45.40 114.03,46.44 153.15,45.94 192.32,47.69 231.31,45.00 270.36,46.57 309.44,46.24 348.59,45.62 387.86,46.70 427.08,47.14 466.22,46.25 505.38,46.73 544.61,46.03 583.83,46.15 623.06,47.07 662.27,46.14 701.52,46.24 740.79,46.37 780.10,46.73 819.40,45.73 858.83,46.95 898.26,45.72 937.76,47.34 965.00,46.65" fill="none" stroke="#dc2626" stroke-width="2"/>
<text x="255.0" y="338" font-family="sans-serif" font-size="12" fill="#dc2626">processed</text>
</svg>
