<svg xmlns="http://www.w3.org/2000/svg" width="1000" height="360">
<rect width="100%" height="100%" fill="white"/>
<text x="75.0" y="24" font-family="sans-serif" font-size="18" font-weight="bold">Processed records / second by consumer during production</text>
<line x1="75.0" y1="45.0" x2="75.0" y2="305.0" stroke="#64748b"/>
<line x1="75.0" y1="305.0" x2="965.0" y2="305.0" stroke="#64748b"/>
<text x="8" y="50" font-family="sans-serif" font-size="12">1614.88</text>
<polyline points="75.00,91.75 82.42,84.17 89.83,97.87 97.25,125.46 104.67,163.16 112.08,124.36 119.50,106.04 126.92,108.43 134.33,110.67 141.75,117.45 149.17,109.69 156.58,107.03 164.00,101.52 171.42,100.81 178.83,105.25 186.25,102.97 193.67,102.61 201.08,97.83 208.50,87.27 215.92,78.45 223.33,87.00 230.75,83.66 238.17,99.37 245.58,94.25 253.00,86.37 260.42,96.22 267.83,97.15 275.25,114.41 282.67,114.33 290.08,113.50 297.50,106.32 304.92,102.94 312.33,104.87 319.75,101.12 327.17,101.90 334.58,105.12 342.00,100.18 349.42,107.26 356.83,109.07 364.25,107.61 371.67,112.89 379.08,105.43 386.50,110.99 393.92,109.78 401.33,116.32 408.75,113.71 416.17,111.80 423.58,123.78 431.00,116.13 438.42,120.25 445.83,121.59 453.25,105.60 460.67,108.17 468.08,108.98 475.50,103.50 482.92,100.87 490.33,94.49 497.75,95.48 505.17,89.19 512.58,98.84 520.00,104.25 527.42,105.22 534.83,105.53 542.25,108.58 549.67,105.26 557.08,101.29 564.50,106.26 571.92,99.32 579.33,99.82 586.75,108.05 594.17,110.64 601.58,111.39 609.00,108.63 616.42,103.26 623.83,99.61 631.25,93.09 638.67,96.10 646.08,100.42 653.50,104.61 660.92,112.30 668.33,121.46 675.75,107.66 683.17,98.11 690.58,90.95 698.00,85.98 705.42,94.25 712.83,103.47 720.25,113.04 727.67,108.30 735.08,102.09 742.50,97.55 749.92,90.48 757.33,93.75 764.75,109.06 772.17,108.62 779.58,105.91 787.00,104.00 794.42,99.69 801.83,101.79 809.25,104.05 816.67,101.33 824.08,101.68 831.50,100.93 838.92,104.19 846.33,104.94 853.75,106.61 861.17,112.59 868.58,107.28 876.00,107.34 883.42,104.40 890.83,102.55 898.25,100.76 905.67,101.08 913.08,93.79 920.50,84.28 927.92,83.38 935.33,78.23 942.75,87.42 950.17,89.06 957.58,102.71 965.00,101.62" fill="none" stroke="#2563eb" stroke-width="2"/>
<text x="75.0" y="338" font-family="sans-serif" font-size="12" fill="#2563eb">consumer-1</text>
<polyline points="75.00,90.37 82.42,88.54 89.83,101.23 97.25,122.26 104.67,163.32 112.08,135.14 119.50,110.77 126.92,118.96 134.33,105.74 141.75,87.65 149.17,95.05 156.58,90.50 164.00,96.62 171.42,101.89 178.83,107.08 186.25,103.33 193.67,103.34 201.08,106.97 208.50,102.58 215.92,112.87 223.33,113.00 230.75,119.40 238.17,114.91 245.58,117.43 253.00,117.48 260.42,106.61 267.83,103.70 275.25,101.07 282.67,109.74 290.08,112.60 297.50,123.02 304.92,111.72 312.33,102.14 319.75,100.58 327.17,97.71 334.58,108.87 342.00,112.55 349.42,106.87 356.83,100.14 364.25,96.21 371.67,92.84 379.08,95.87 386.50,98.80 393.92,98.44 401.33,104.65 408.75,107.49 416.17,110.28 423.58,111.39 431.00,110.09 438.42,110.99 445.83,110.99 453.25,110.69 460.67,114.31 468.08,114.21 475.50,113.00 482.92,114.32 490.33,106.06 497.75,105.76 505.17,103.34 512.58,105.16 520.00,102.64 527.42,103.75 534.83,108.88 542.25,97.71 549.67,100.12 557.08,101.33 564.50,99.32 571.92,107.07 579.33,108.48 586.75,108.98 594.17,104.29 601.58,99.41 609.00,99.82 616.42,102.41 623.83,107.78 631.25,116.54 638.67,116.63 646.08,114.57 653.50,115.13 660.92,110.93 668.33,103.96 675.75,105.28 683.17,108.80 690.58,107.08 698.00,109.57 705.42,102.14 712.83,91.05 720.25,87.45 727.67,90.26 735.08,96.65 742.50,97.54 749.92,102.74 757.33,106.38 764.75,94.50 772.17,106.41 779.58,107.57 787.00,114.69 794.42,127.83 801.83,118.40 809.25,119.61 816.67,113.25 824.08,109.61 831.50,112.55 838.92,109.05 846.33,101.80 853.75,101.01 861.17,104.66 868.58,97.27 876.00,104.95 883.42,108.90 890.83,102.51 898.25,111.56 905.67,109.03 913.08,107.97 920.50,110.19 927.92,112.85 935.33,106.36 942.75,105.86 950.17,108.93 957.58,103.70 965.00,113.06" fill="none" stroke="#dc2626" stroke-width="2"/>
<text x="255.0" y="338" font-family="sans-serif" font-size="12" fill="#dc2626">consumer-2</text>
<polyline points="75.00,99.40 82.42,98.55 89.83,104.75 97.25,142.55 104.67,155.64 112.08,100.75 119.50,100.61 126.92,95.58 134.33,100.45 141.75,109.10 149.17,111.02 156.58,106.78 164.00,103.04 171.42,97.74 178.83,99.79 186.25,109.38 193.67,107.02 201.08,119.00 208.50,122.26 215.92,119.04 223.33,116.62 230.75,102.71 238.17,92.53 245.58,89.55 253.00,98.88 260.42,103.63 267.83,108.71 275.25,103.53 282.67,102.19 290.08,98.87 297.50,95.97 304.92,107.06 312.33,106.51 319.75,107.62 327.17,103.21 334.58,101.16 342.00,98.57 349.42,102.29 356.83,108.79 364.25,110.59 371.67,116.49 379.08,113.31 386.50,115.20 393.92,107.82 401.33,100.16 408.75,100.53 416.17,94.73 423.58,93.53 431.00,92.24 438.42,94.09 445.83,92.77 453.25,90.06 460.67,86.35 468.08,81.01 475.50,91.54 482.92,98.11 490.33,109.24 497.75,111.60 505.17,100.00 512.58,102.41 520.00,94.93 527.42,102.06 534.83,108.13 542.25,109.28 549.67,106.16 557.08,101.21 564.50,93.56 571.92,95.13 579.33,94.97 586.75,91.87 594.17,96.08 601.58,101.89 609.00,104.65 616.42,102.09 623.83,113.73 631.25,99.61 638.67,104.36 646.08,104.30 653.50,96.23 660.92,103.86 668.33,97.47 675.75,104.72 683.17,101.57 690.58,98.87 698.00,101.28 705.42,103.63 712.83,102.30 720.25,101.73 727.67,106.56 735.08,109.82 742.50,114.16 749.92,112.80 757.33,108.42 764.75,105.33 772.17,105.12 779.58,104.40 787.00,100.78 794.42,102.54 801.83,103.63 809.25,108.98 816.67,112.15 824.08,103.21 831.50,100.52 838.92,93.93 846.33,94.44 853.75,119.01 861.17,98.77 868.58,92.99 876.00,99.62 883.42,71.22 890.83,90.28 898.25,98.92 905.67,95.04 913.08,104.28 920.50,107.71 927.92,117.83 935.33,125.93 942.75,117.34 950.17,118.60 957.58,99.36 965.00,96.09" fill="none" stroke="#16a34a" stroke-width="2"/>
<text x="435.0" y="338" font-family="sans-serif" font-size="12" fill="#16a34a">consumer-3</text>
<polyline points="75.00,89.24 82.42,45.00 89.83,72.43 97.25,93.93 104.67,126.11 112.08,132.53 119.50,92.07 126.92,92.64 134.33,95.45 141.75,100.33 149.17,102.69 156.58,108.09 164.00,111.39 171.42,108.80 178.83,104.20 186.25,102.22 193.67,101.94 201.08,105.68 208.50,108.58 215.92,105.43 223.33,96.75 230.75,99.37 238.17,105.16 245.58,110.99 253.00,112.55 260.42,111.20 267.83,100.96 275.25,91.91 282.67,92.57 290.08,79.02 297.50,88.45 304.92,96.10 312.33,102.07 319.75,117.08 327.17,109.22 334.58,104.51 342.00,97.34 349.42,99.47 356.83,101.64 364.25,98.81 371.67,103.55 379.08,95.30 386.50,94.28 393.92,94.87 401.33,101.94 408.75,98.88 416.17,89.42 423.58,86.08 431.00,78.99 438.42,85.84 445.83,90.71 453.25,105.17 460.67,106.97 468.08,109.62 475.50,117.43 482.92,107.29 490.33,101.94 497.75,104.27 505.17,104.66 512.58,110.99 520.00,118.84 527.42,110.07 534.83,100.08 542.25,97.31 549.67,96.62 557.08,103.90 564.50,110.60 571.92,115.66 579.33,113.03 586.75,109.18 594.17,107.84 601.58,101.24 609.00,102.59 616.42,105.69 623.83,109.74 631.25,119.73 638.67,99.95 646.08,87.59 653.50,84.06 660.92,73.33 668.33,92.65 675.75,108.08 683.17,111.76 690.58,115.14 698.00,116.04 705.42,111.80 712.83,112.24 720.25,112.84 727.67,109.93 735.08,112.65 742.50,109.83 749.92,104.40 757.33,110.31 764.75,101.57 772.17,97.94 779.58,97.93 787.00,91.20 794.42,88.96 801.83,84.95 809.25,90.85 816.67,93.72 824.08,98.16 831.50,105.29 838.92,103.30 846.33,104.90 853.75,109.33 861.17,136.31 868.58,110.21 876.00,112.56 883.42,110.07 890.83,79.27 898.25,109.79 905.67,105.46 913.08,113.48 920.50,115.32 927.92,107.56 935.33,113.31 942.75,97.36 950.17,97.86 957.58,100.49 965.00,100.01" fill="none" stroke="#9333ea" stroke-width="2"/>
<text x="615.0" y="338" font-family="sans-serif" font-size="12" fill="#9333ea">consumer-4</text>
</svg>
