<svg xmlns="http://www.w3.org/2000/svg" width="1000" height="360">
<rect width="100%" height="100%" fill="white"/>
<text x="75.0" y="24" font-family="sans-serif" font-size="18" font-weight="bold">Processed outbox records / second during production</text>
<line x1="75.0" y1="45.0" x2="75.0" y2="305.0" stroke="#64748b"/>
<line x1="75.0" y1="305.0" x2="965.0" y2="305.0" stroke="#64748b"/>
<text x="8" y="50" font-family="sans-serif" font-size="12">5613.19</text>
<polyline points="75.00,60.68 82.42,45.00 89.83,62.27 97.25,93.31 104.67,129.00 112.08,95.78 119.50,71.82 126.92,73.58 134.33,72.63 141.75,73.27 149.17,74.40 156.58,72.66 164.00,72.71 171.42,71.75 178.83,73.79 186.25,74.24 193.67,73.38 201.08,77.57 208.50,75.04 215.92,73.63 223.33,72.94 230.75,70.57 238.17,72.53 245.58,72.61 253.00,73.49 260.42,74.17 267.83,72.11 275.25,72.23 282.67,74.51 290.08,70.24 297.50,73.05 304.92,74.22 312.33,73.58 319.75,76.69 327.17,72.56 334.58,74.75 342.00,71.57 349.42,73.66 356.83,74.74 364.25,72.89 371.67,76.50 379.08,71.94 386.50,74.63 393.92,72.23 401.33,75.73 408.75,75.02 416.17,70.88 423.58,73.34 431.00,68.36 438.42,72.30 445.83,73.71 453.25,72.40 460.67,73.64 468.08,73.07 475.50,76.42 482.92,75.01 490.33,72.47 497.75,74.01 505.17,68.29 512.58,74.09 520.00,75.04 527.42,75.16 534.83,75.60 542.25,72.79 549.67,71.44 557.08,71.32 564.50,71.90 571.92,74.03 579.33,73.78 586.75,74.29 594.17,74.51 601.58,73.10 609.00,73.61 616.42,72.96 623.83,77.97 631.25,77.42 638.67,73.99 646.08,71.07 653.50,69.10 660.92,69.21 668.33,73.56 675.75,76.50 683.17,74.91 690.58,72.55 698.00,72.79 705.42,72.49 712.83,71.70 720.25,73.42 727.67,73.42 735.08,75.19 742.50,74.58 749.92,72.09 757.33,74.52 764.75,72.10 772.17,74.30 779.58,73.64 787.00,72.16 794.42,74.56 801.83,71.61 809.25,75.85 816.67,74.98 824.08,72.74 831.50,74.64 838.92,72.10 846.33,70.84 853.75,79.44 861.17,84.15 868.58,71.32 876.00,76.13 883.42,67.53 890.83,61.79 898.25,75.14 905.67,72.14 913.08,74.71 920.50,74.13 927.92,75.31 935.33,75.95 942.75,71.39 950.17,73.25 957.58,70.89 965.00,72.19" fill="none" stroke="#2563eb" stroke-width="2"/>
<text x="75.0" y="338" font-family="sans-serif" font-size="12" fill="#2563eb">series-1</text>
</svg>
