<svg xmlns="http://www.w3.org/2000/svg" width="1000" height="360">
<rect width="100%" height="100%" fill="white"/>
<text x="75.0" y="24" font-family="sans-serif" font-size="18" font-weight="bold">Remaining outbox backlog</text>
<line x1="75.0" y1="45.0" x2="75.0" y2="305.0" stroke="#64748b"/>
<line x1="75.0" y1="305.0" x2="965.0" y2="305.0" stroke="#64748b"/>
<text x="8" y="50" font-family="sans-serif" font-size="12">766190.00</text>
<polyline points="75.00,304.51 82.96,304.68 90.95,304.50 98.97,304.72 106.94,304.66 114.91,304.61 122.94,303.91 131.08,299.93 139.27,291.35 147.68,278.60 156.40,263.46 165.57,246.11 175.29,227.11 183.69,210.52 192.00,193.75 200.84,176.03 209.33,158.50 219.13,138.31 227.95,120.15 236.02,103.40 244.17,87.93 252.63,68.77 262.34,48.94 264.36,45.00 275.52,45.81 285.69,46.22 296.13,46.82 304.25,48.04 312.42,49.67 320.54,51.52 328.72,53.14 336.84,54.96 345.00,56.65 353.12,58.44 361.25,60.26 369.38,62.10 377.51,63.89 385.68,65.66 393.83,67.59 401.98,69.41 410.11,71.25 418.24,73.10 426.37,74.92 434.51,76.76 442.65,78.80 450.79,80.62 458.92,82.63 467.05,84.50 475.18,86.54 483.33,88.57 491.50,90.39 499.63,92.43 507.78,94.46 515.91,96.50 524.06,98.53 532.23,100.57 540.35,102.82 548.48,104.86 556.61,107.09 564.75,109.12 572.88,111.38 581.01,113.60 589.16,115.81 597.29,118.08 605.42,120.33 613.56,122.56 621.75,124.81 629.88,127.26 638.00,129.70 646.20,131.99 654.40,134.44 662.53,137.03 670.65,139.47 678.84,141.92 686.97,144.55 695.16,147.08 703.31,149.65 711.50,152.29 719.64,155.14 727.78,157.95 735.91,160.84 744.05,163.69 752.23,166.54 760.36,169.61 768.52,172.65 776.67,175.84 784.87,178.97 793.02,182.23 801.16,185.68 809.35,189.02 817.49,192.60 825.70,196.15 833.85,199.93 842.04,203.67 850.18,207.67 858.36,211.74 866.55,216.03 874.69,220.51 882.89,224.99 891.10,229.72 899.28,234.84 907.45,240.24 915.64,246.64 923.83,254.32 932.04,262.99 940.24,273.13 948.53,285.35 956.79,301.27 965.00,305.00" fill="none" stroke="#2563eb" stroke-width="2"/>
<text x="75.0" y="338" font-family="sans-serif" font-size="12" fill="#2563eb">new</text>
</svg>
