<svg xmlns="http://www.w3.org/2000/svg" width="1000" height="360">
<rect width="100%" height="100%" fill="white"/>
<text x="75.0" y="24" font-family="sans-serif" font-size="18" font-weight="bold">Consumer JVM heap bytes during production</text>
<line x1="75.0" y1="45.0" x2="75.0" y2="305.0" stroke="#64748b"/>
<line x1="75.0" y1="305.0" x2="965.0" y2="305.0" stroke="#64748b"/>
<text x="8" y="50" font-family="sans-serif" font-size="12">81491104.00</text>
<polyline points="75.00,166.79 82.42,166.79 89.83,194.00 97.25,180.23 104.67,166.30 112.08,194.85 119.50,61.03 126.92,73.81 134.33,100.29 141.75,113.29 149.17,126.94 156.58,153.49 164.00,167.16 171.42,180.41 178.83,180.31 186.25,167.73 193.67,180.67 201.08,193.76 208.50,180.28 215.92,194.26 223.33,193.76 230.75,193.86 238.17,193.82 245.58,180.64 253.00,166.68 260.42,166.81 267.83,194.08 275.25,193.54 282.67,180.41 290.08,193.46 297.50,59.64 304.92,73.08 312.33,99.73 319.75,113.54 327.17,126.46 334.58,140.85 342.00,166.84 349.42,193.59 356.83,73.15 364.25,113.40 371.67,153.29 379.08,59.62 386.50,140.25 393.92,73.34 401.33,140.05 408.75,86.52 416.17,180.61 423.58,140.46 431.00,100.32 438.42,60.17 445.83,166.93 453.25,140.17 460.67,113.40 468.08,86.64 475.50,73.26 482.92,193.88 490.33,167.12 497.75,140.36 505.17,126.97 512.58,100.21 520.00,86.83 527.42,73.44 534.83,193.90 542.25,180.52 549.67,153.75 557.08,140.37 564.50,126.99 571.92,113.60 579.33,100.22 586.75,86.84 594.17,73.46 601.58,60.08 609.00,193.71 616.42,180.33 623.83,166.94 631.25,153.56 638.67,140.18 646.08,126.80 653.50,113.42 660.92,100.03 668.33,100.03 675.75,86.65 683.17,73.27 690.58,59.89 698.00,59.89 705.42,194.00 712.83,180.62 720.25,167.24 727.67,167.24 735.08,153.85 742.50,140.47 749.92,140.47 757.33,127.09 764.75,113.71 772.17,113.71 779.58,100.33 787.00,100.33 794.42,86.94 801.83,73.56 809.25,73.56 824.08,60.18 838.92,193.72 846.33,193.72 853.75,180.33 861.17,180.33 868.58,166.95 876.00,153.57 883.42,153.57 890.83,153.57 898.25,140.19 905.67,126.81 913.08,126.81 920.50,113.42 927.92,113.42 935.33,100.04 942.75,100.04 950.17,86.66 957.58,86.66" fill="none" stroke="#2563eb" stroke-width="2"/>
<text x="75.0" y="338" font-family="sans-serif" font-size="12" fill="#2563eb">consumer-1</text>
<polyline points="75.00,166.39 82.42,112.86 89.83,125.27 97.25,112.86 104.67,125.77 112.08,152.16 119.50,166.42 126.92,192.20 134.33,45.00 141.75,85.92 149.17,111.98 156.58,112.83 164.00,112.18 171.42,125.75 178.83,139.20 186.25,139.14 193.67,152.27 201.08,153.47 208.50,166.06 215.92,166.34 223.33,193.42 230.75,193.20 238.17,192.84 245.58,193.31 253.00,179.29 260.42,179.30 267.83,165.59 275.25,153.08 282.67,166.75 290.08,165.97 297.50,165.60 304.92,193.37 312.33,59.55 319.75,72.97 327.17,85.91 334.58,112.15 342.00,125.49 349.42,165.98 356.83,58.92 364.25,99.01 371.67,152.11 379.08,58.43 386.50,125.44 393.92,71.91 401.33,152.55 408.75,99.02 416.17,192.30 423.58,152.15 431.00,112.01 438.42,85.24 445.83,192.66 453.25,152.51 460.67,125.75 468.08,112.36 475.50,85.60 482.92,58.84 490.33,193.04 497.75,166.27 505.17,139.51 512.58,112.75 520.00,99.36 527.42,85.98 534.83,59.22 542.25,192.58 549.67,165.81 557.08,152.43 564.50,139.05 571.92,125.66 579.33,112.28 586.75,98.90 594.17,85.52 601.58,72.14 609.00,58.75 616.42,193.20 623.83,179.82 631.25,166.44 638.67,153.05 646.08,139.67 653.50,126.29 660.92,126.29 668.33,112.91 675.75,99.53 683.17,86.14 690.58,86.14 698.00,72.76 705.42,59.38 712.83,193.18 720.25,179.80 727.67,179.80 735.08,166.42 742.50,153.04 749.92,153.04 757.33,139.66 772.17,126.27 779.58,112.89 787.00,112.89 794.42,99.51 801.83,86.13 809.25,86.13 816.67,72.75 824.08,72.75 831.50,59.36 838.92,59.36 846.33,192.79 861.17,179.41 876.00,166.02 890.83,152.64 905.67,139.26 920.50,125.88 935.33,112.50 950.17,99.11 957.58,85.73 965.00,85.73" fill="none" stroke="#dc2626" stroke-width="2"/>
<text x="255.0" y="338" font-family="sans-serif" font-size="12" fill="#dc2626">consumer-2</text>
<polyline points="75.00,165.74 82.42,125.60 89.83,140.04 97.25,139.54 104.67,166.62 112.08,179.93 119.50,193.76 126.92,59.94 134.33,73.41 141.75,60.37 149.17,72.97 156.58,86.24 164.00,72.73 171.42,86.20 178.83,112.84 186.25,125.81 193.67,126.92 201.08,126.30 208.50,127.05 215.92,140.10 223.33,153.63 230.75,167.13 238.17,166.50 245.58,179.90 253.00,59.46 260.42,72.71 267.83,72.35 275.25,72.62 282.67,59.69 290.08,59.16 297.50,72.95 304.92,86.13 312.33,99.59 319.75,112.95 327.17,112.37 334.58,139.28 342.00,152.55 349.42,179.32 356.83,85.65 364.25,125.83 371.67,165.80 379.08,85.51 386.50,166.74 393.92,86.45 401.33,166.30 408.75,112.77 416.17,72.62 423.58,165.83 431.00,125.68 438.42,85.54 445.83,58.77 453.25,166.63 460.67,126.49 468.08,99.72 475.50,59.57 482.92,179.84 490.33,153.07 497.75,139.69 505.17,99.55 512.58,86.16 520.00,72.78 527.42,59.40 534.83,179.99 542.25,166.61 549.67,153.22 557.08,126.46 564.50,113.08 571.92,99.70 579.33,86.31 586.75,72.93 594.17,192.74 601.58,192.74 609.00,165.98 616.42,165.98 623.83,152.60 631.25,139.22 638.67,125.83 646.08,112.45 653.50,99.07 660.92,85.69 668.33,85.69 675.75,72.30 683.17,58.92 690.58,193.13 698.00,179.74 705.42,179.74 712.83,166.36 720.25,152.98 727.67,152.98 735.08,139.60 742.50,126.22 749.92,126.22 757.33,112.83 764.75,99.45 772.17,99.45 779.58,86.07 787.00,72.69 794.42,72.69 809.25,59.31 816.67,192.59 824.08,179.21 831.50,179.21 838.92,165.83 846.33,165.83 853.75,152.45 861.17,152.45 876.00,139.06 890.83,139.06 905.67,125.68 920.50,112.30 927.92,98.92 935.33,85.54 942.75,85.54 950.17,72.15 957.58,72.15 965.00,192.94" fill="none" stroke="#16a34a" stroke-width="2"/>
<text x="435.0" y="338" font-family="sans-serif" font-size="12" fill="#16a34a">consumer-3</text>
<polyline points="75.00,198.95 82.42,198.95 89.83,91.89 97.25,104.24 104.67,104.84 112.08,92.39 119.50,117.85 126.92,131.31 134.33,144.46 141.75,158.46 149.17,185.51 156.58,65.07 164.00,77.60 171.42,91.66 178.83,104.43 186.25,131.53 193.67,144.56 201.08,158.32 208.50,184.85 215.92,184.98 223.33,51.16 230.75,64.57 238.17,78.55 245.58,104.86 253.00,132.14 260.42,144.98 267.83,171.65 275.25,198.09 282.67,64.27 290.08,77.60 297.50,105.23 304.92,117.70 312.33,157.85 319.75,184.65 327.17,197.69 334.58,77.25 342.00,118.01 349.42,157.53 356.83,197.54 364.25,103.87 371.67,158.28 379.08,64.60 386.50,144.31 393.92,90.78 401.33,198.64 408.75,131.73 416.17,91.58 423.58,198.03 431.00,144.50 438.42,104.35 445.83,64.21 453.25,185.07 460.67,158.30 468.08,131.54 475.50,91.39 482.92,64.63 490.33,51.25 497.75,185.23 505.17,171.85 512.58,145.08 520.00,118.32 527.42,104.94 534.83,91.56 542.25,78.17 549.67,64.79 557.08,198.34 564.50,184.96 571.92,158.19 579.33,144.81 586.75,131.43 594.17,118.05 601.58,104.67 609.00,91.28 616.42,77.90 623.83,64.52 631.25,64.52 638.67,51.14 646.08,198.29 653.50,184.91 660.92,171.53 668.33,158.15 675.75,158.15 683.17,158.15 690.58,144.77 698.00,131.38 705.42,118.00 712.83,118.00 720.25,104.62 727.67,91.24 735.08,77.86 742.50,77.86 749.92,64.47 757.33,198.52 764.75,198.52 772.17,185.14 779.58,171.76 787.00,171.76 794.42,158.37 801.83,158.37 809.25,144.99 816.67,144.99 824.08,131.61 838.92,118.23 846.33,104.85 853.75,104.85 861.17,91.46 868.58,91.46 876.00,78.08 883.42,64.70 890.83,64.70 898.25,51.32 905.67,51.32 913.08,198.17 920.50,198.17 927.92,184.79 935.33,184.79 942.75,171.41 957.58,171.41" fill="none" stroke="#9333ea" stroke-width="2"/>
<text x="615.0" y="338" font-family="sans-serif" font-size="12" fill="#9333ea">consumer-4</text>
</svg>
