<svg xmlns="http://www.w3.org/2000/svg" width="1000" height="360">
<rect width="100%" height="100%" fill="white"/>
<text x="75.0" y="24" font-family="sans-serif" font-size="18" font-weight="bold">Consumer process CPU usage during production</text>
<line x1="75.0" y1="45.0" x2="75.0" y2="305.0" stroke="#64748b"/>
<line x1="75.0" y1="305.0" x2="965.0" y2="305.0" stroke="#64748b"/>
<text x="8" y="50" font-family="sans-serif" font-size="12">1.00</text>
<polyline points="75.00,281.57 82.42,302.52 89.83,291.90 97.25,292.74 104.67,295.55 112.08,297.44 119.50,297.35 126.92,297.03 134.33,295.07 141.75,297.47 149.17,296.06 156.58,297.98 164.00,296.26 171.42,295.49 178.83,295.66 186.25,296.05 193.67,297.57 201.08,297.91 208.50,296.49 215.92,297.82 223.33,297.56 230.75,296.97 238.17,297.83 245.58,296.97 253.00,296.77 260.42,297.71 267.83,298.60 275.25,296.15 282.67,296.63 290.08,298.12 297.50,298.53 304.92,297.83 312.33,298.18 319.75,297.83 327.17,297.98 334.58,298.72 342.00,298.53 349.42,298.80 356.83,299.18 364.25,300.03 371.67,300.24 379.08,298.69 386.50,301.25 393.92,301.62 401.33,301.02 408.75,300.46 416.17,302.09 423.58,301.36 431.00,302.37 438.42,302.03 445.83,301.12 453.25,302.56 460.67,301.65 468.08,302.67 475.50,302.18 482.92,302.31 490.33,302.07 497.75,303.13 505.17,303.04 512.58,302.80 520.00,303.66 527.42,303.06 534.83,303.65 542.25,303.46 549.67,303.85 557.08,303.59 564.50,303.51 571.92,303.54 579.33,303.76 586.75,304.40 594.17,303.79 601.58,303.01 609.00,303.87 616.42,303.84 623.83,304.15 631.25,304.06 638.67,304.35 646.08,304.29 653.50,304.42 660.92,304.27 668.33,304.58 675.75,304.46 683.17,304.16 690.58,304.19 698.00,304.32 705.42,302.40 712.83,304.42 720.25,304.44 727.67,304.49 735.08,304.05 742.50,299.59 749.92,304.44 757.33,304.38 764.75,303.31 772.17,304.53 779.58,303.74 787.00,304.76 794.42,304.53 801.83,302.89 809.25,304.70 824.08,304.55 838.92,298.24 846.33,304.43 853.75,302.20 861.17,304.79 868.58,303.81 876.00,304.71 883.42,303.30 890.83,304.46 898.25,303.64 905.67,304.73 913.08,302.90 920.50,304.77 927.92,302.26 935.33,304.70 942.75,301.71 950.17,304.54 957.58,290.31" fill="none" stroke="#2563eb" stroke-width="2"/>
<text x="75.0" y="338" font-family="sans-serif" font-size="12" fill="#2563eb">consumer-1</text>
<polyline points="75.00,298.15 82.42,296.17 89.83,293.06 97.25,293.85 104.67,296.24 112.08,296.99 119.50,296.81 126.92,297.62 134.33,295.37 141.75,298.18 149.17,295.81 156.58,296.29 164.00,294.21 171.42,297.30 178.83,297.00 186.25,296.39 193.67,297.61 201.08,297.23 208.50,297.87 215.92,298.05 223.33,298.27 230.75,297.64 238.17,297.38 245.58,297.40 253.00,296.93 260.42,298.22 267.83,296.64 275.25,295.06 282.67,298.21 290.08,297.36 297.50,297.65 304.92,298.49 312.33,297.75 319.75,297.72 327.17,298.27 334.58,298.80 342.00,298.36 349.42,299.04 356.83,299.18 364.25,300.35 371.67,300.30 379.08,298.25 386.50,301.39 393.92,301.66 401.33,301.75 408.75,300.65 416.17,301.45 423.58,301.60 431.00,302.59 438.42,301.37 445.83,301.61 453.25,301.75 460.67,301.46 468.08,302.83 475.50,302.53 482.92,301.82 490.33,303.31 497.75,302.40 505.17,303.27 512.58,302.10 520.00,303.69 527.42,303.32 534.83,303.63 542.25,303.75 549.67,303.42 557.08,304.22 564.50,303.48 571.92,303.54 579.33,304.05 586.75,303.69 594.17,304.00 601.58,304.02 609.00,303.72 616.42,303.70 623.83,303.98 631.25,304.31 638.67,304.15 646.08,304.37 653.50,304.26 660.92,304.48 668.33,304.09 675.75,303.76 683.17,303.82 690.58,304.66 698.00,304.53 705.42,303.87 712.83,304.34 720.25,302.48 727.67,304.80 735.08,304.27 742.50,304.31 749.92,302.58 757.33,304.69 772.17,290.04 779.58,304.61 787.00,303.17 794.42,304.71 801.83,304.53 809.25,297.92 816.67,304.72 824.08,303.13 831.50,304.53 838.92,303.41 846.33,304.76 861.17,304.36 876.00,298.40 890.83,265.25 905.67,300.99 920.50,296.09 935.33,288.06 950.17,304.42 957.58,303.25 965.00,304.64" fill="none" stroke="#dc2626" stroke-width="2"/>
<text x="255.0" y="338" font-family="sans-serif" font-size="12" fill="#dc2626">consumer-2</text>
<polyline points="75.00,291.02 82.42,300.45 89.83,295.56 97.25,293.47 104.67,297.36 112.08,296.88 119.50,296.18 126.92,297.83 134.33,295.36 141.75,295.23 149.17,294.33 156.58,295.56 164.00,293.18 171.42,297.68 178.83,297.38 186.25,296.78 193.67,297.51 201.08,297.24 208.50,297.52 215.92,297.48 223.33,298.04 230.75,298.22 238.17,297.81 245.58,298.16 253.00,298.57 260.42,298.42 267.83,297.77 275.25,296.20 282.67,296.61 290.08,297.12 297.50,297.91 304.92,298.51 312.33,298.15 319.75,297.62 327.17,297.66 334.58,298.55 342.00,298.52 349.42,298.64 356.83,299.87 364.25,300.33 371.67,300.33 379.08,300.95 386.50,299.05 393.92,301.38 401.33,301.20 408.75,300.75 416.17,302.00 423.58,301.62 431.00,302.13 438.42,301.89 445.83,301.44 453.25,301.52 460.67,300.68 468.08,300.25 475.50,301.60 482.92,302.40 490.33,302.41 497.75,302.51 505.17,302.51 512.58,303.69 520.00,303.17 527.42,303.58 534.83,303.43 542.25,303.39 549.67,303.93 557.08,303.92 564.50,303.30 571.92,303.46 579.33,304.08 586.75,303.47 594.17,302.89 601.58,304.12 609.00,304.23 616.42,304.06 623.83,303.99 631.25,303.97 638.67,304.13 646.08,304.03 653.50,304.17 660.92,304.44 668.33,302.94 675.75,304.23 683.17,304.55 690.58,304.05 698.00,304.43 705.42,303.94 712.83,303.57 720.25,304.26 727.67,304.74 735.08,304.26 742.50,302.01 749.92,304.67 757.33,304.45 764.75,303.38 772.17,304.76 779.58,304.65 787.00,302.49 794.42,304.79 809.25,304.34 816.67,304.53 824.08,301.62 831.50,304.59 838.92,302.93 846.33,304.83 853.75,303.99 861.17,304.75 876.00,304.39 890.83,304.58 905.67,298.11 920.50,304.30 927.92,303.79 935.33,304.74 942.75,303.11 950.17,304.41 957.58,303.23 965.00,304.80" fill="none" stroke="#16a34a" stroke-width="2"/>
<text x="435.0" y="338" font-family="sans-serif" font-size="12" fill="#16a34a">consumer-3</text>
<polyline points="75.00,288.09 82.42,302.99 89.83,297.03 97.25,294.71 104.67,294.66 112.08,295.41 119.50,295.57 126.92,296.52 134.33,296.08 141.75,296.81 149.17,297.09 156.58,298.44 164.00,296.52 171.42,296.11 178.83,296.21 186.25,297.60 193.67,297.50 201.08,296.54 208.50,298.01 215.92,296.90 223.33,297.39 230.75,297.54 238.17,297.24 245.58,298.17 253.00,297.77 260.42,298.07 267.83,298.56 275.25,297.05 282.67,298.14 290.08,297.57 297.50,297.84 304.92,297.42 312.33,297.08 319.75,297.92 327.17,297.50 334.58,298.87 342.00,298.75 349.42,299.16 356.83,299.17 364.25,300.15 371.67,300.14 379.08,300.65 386.50,298.94 393.92,301.75 401.33,301.57 408.75,301.46 416.17,302.37 423.58,300.35 431.00,301.16 438.42,301.91 445.83,301.30 453.25,301.75 460.67,301.83 468.08,300.56 475.50,301.73 482.92,302.78 490.33,303.03 497.75,302.47 505.17,302.91 512.58,303.11 520.00,302.79 527.42,303.03 534.83,303.32 542.25,303.90 549.67,303.83 557.08,304.00 564.50,303.42 571.92,303.47 579.33,302.93 586.75,304.20 594.17,303.38 601.58,303.18 609.00,304.10 616.42,303.82 623.83,303.85 631.25,304.19 638.67,304.09 646.08,304.29 653.50,304.30 660.92,304.52 668.33,304.31 675.75,304.35 683.17,304.02 690.58,304.25 698.00,302.71 705.42,304.47 712.83,304.40 720.25,304.32 727.67,304.42 735.08,302.55 742.50,304.71 749.92,304.38 757.33,304.33 764.75,302.59 772.17,304.62 779.58,302.91 787.00,304.77 794.42,304.52 801.83,301.45 809.25,304.72 816.67,303.92 824.08,304.32 838.92,305.00 846.33,304.28 853.75,297.94 861.17,304.26 868.58,303.38 876.00,304.70 883.42,302.63 890.83,304.77 898.25,302.22 905.67,304.80 913.08,301.40 920.50,304.61 927.92,300.91 935.33,304.74 942.75,296.46 957.58,275.68" fill="none" stroke="#9333ea" stroke-width="2"/>
<text x="615.0" y="338" font-family="sans-serif" font-size="12" fill="#9333ea">consumer-4</text>
</svg>
