<svg xmlns="http://www.w3.org/2000/svg" width="1000" height="360">
<rect width="100%" height="100%" fill="white"/>
<text x="75.0" y="24" font-family="sans-serif" font-size="18" font-weight="bold">PostgreSQL commits / second during production</text>
<line x1="75.0" y1="45.0" x2="75.0" y2="305.0" stroke="#64748b"/>
<line x1="75.0" y1="305.0" x2="965.0" y2="305.0" stroke="#64748b"/>
<text x="8" y="50" font-family="sans-serif" font-size="12">11817.16</text>
<polyline points="75.00,236.79 82.42,236.00 89.83,220.22 97.25,193.96 104.67,164.09 112.08,136.77 119.50,115.61 126.92,101.93 134.33,91.59 141.75,85.65 149.17,58.05 156.58,45.16 164.00,45.00 171.42,45.72 178.83,46.93 186.25,47.76 193.67,48.71 201.08,49.69 208.50,49.76 215.92,53.31 223.33,55.30 230.75,53.30 238.17,54.24 245.58,55.71 253.00,56.76 260.42,56.18 267.83,57.04 275.25,57.04 282.67,55.25 290.08,55.79 297.50,57.44 304.92,58.04 312.33,59.84 319.75,63.90 327.17,65.10 334.58,67.16 342.00,72.90 349.42,75.78 356.83,81.16 364.25,88.25 371.67,97.82 379.08,105.78 386.50,114.66 393.92,127.48 401.33,140.52 408.75,151.48 416.17,165.53 423.58,177.47 431.00,189.26 438.42,200.53 445.83,212.12 453.25,219.95 460.67,227.22 468.08,234.11 475.50,240.12 482.92,245.47 490.33,250.40 497.75,254.15 505.17,257.84 512.58,259.61 520.00,263.13 527.42,265.10 534.83,266.72 542.25,269.07 549.67,270.97 557.08,271.78 564.50,272.87 571.92,274.37 579.33,275.12 586.75,276.33 594.17,278.23 601.58,279.77 609.00,280.32 616.42,280.55 623.83,280.99 631.25,282.32 638.67,282.31 646.08,283.28 653.50,283.99 660.92,282.92 668.33,283.42 675.75,284.10 683.17,285.56 690.58,286.93 698.00,286.77 705.42,286.82 712.83,287.45 720.25,288.27 727.67,289.35 735.08,289.01 742.50,288.87 749.92,289.47 757.33,288.89 764.75,289.67 772.17,290.89 779.58,290.57 787.00,290.89 794.42,290.80 801.83,290.93 809.25,292.38 816.67,290.58 824.08,292.14 831.50,291.75 838.92,290.94 846.33,292.48 853.75,290.53 861.17,292.26 868.58,292.11 876.00,292.33 883.42,292.17 890.83,292.52 898.25,292.21 905.67,293.64 913.08,291.85 920.50,293.76 927.92,291.87 935.33,293.71 942.75,291.61 950.17,293.68 957.58,293.73 965.00,293.52" fill="none" stroke="#2563eb" stroke-width="2"/>
<text x="75.0" y="338" font-family="sans-serif" font-size="12" fill="#2563eb">series-1</text>
</svg>
