<svg xmlns="http://www.w3.org/2000/svg" width="1000" height="360">
<rect width="100%" height="100%" fill="white"/>
<text x="75.0" y="24" font-family="sans-serif" font-size="18" font-weight="bold">Produced vs processed records / second</text>
<line x1="75.0" y1="45.0" x2="75.0" y2="305.0" stroke="#64748b"/>
<line x1="75.0" y1="305.0" x2="965.0" y2="305.0" stroke="#64748b"/>
<text x="8" y="50" font-family="sans-serif" font-size="12">10857.37</text>
<polyline points="75.00,65.16 114.20,65.61 153.53,65.88 192.63,65.41 231.73,65.46 271.17,65.11 311.07,66.98 351.28,62.87 392.51,67.44 435.34,67.24 480.33,66.74 528.00,63.34 569.24,67.09 610.01,63.82 653.34,68.31 695.01,61.95 743.10,66.24 786.38,65.42 825.97,65.14 865.95,87.86 907.46,45.00 955.12,70.29 965.00,87.17" fill="none" stroke="#2563eb" stroke-width="2"/>
<text x="75.0" y="338" font-family="sans-serif" font-size="12" fill="#2563eb">produced</text>
<polyline points="75.00,62.79 114.20,68.10 153.53,62.91 192.63,66.23 231.73,66.19 271.17,74.73 311.07,121.47 351.28,179.53 392.51,236.50 435.34,260.50 480.33,277.39 528.00,281.23 569.24,287.06 610.01,288.62 653.34,291.88 695.01,291.93 743.10,295.67 786.38,294.79 825.97,296.38 865.95,299.43 907.46,297.14 955.12,297.84 965.00,305.00" fill="none" stroke="#dc2626" stroke-width="2"/>
<text x="255.0" y="338" font-family="sans-serif" font-size="12" fill="#dc2626">processed</text>
</svg>
