<svg xmlns="http://www.w3.org/2000/svg" width="1000" height="360">
<rect width="100%" height="100%" fill="white"/>
<text x="75.0" y="24" font-family="sans-serif" font-size="18" font-weight="bold">Processed outbox records / second during production</text>
<line x1="75.0" y1="45.0" x2="75.0" y2="305.0" stroke="#64748b"/>
<line x1="75.0" y1="305.0" x2="965.0" y2="305.0" stroke="#64748b"/>
<text x="8" y="50" font-family="sans-serif" font-size="12">10456.04</text>
<polyline points="75.00,148.07 82.42,165.04 89.83,148.20 97.25,130.13 104.67,106.76 112.08,50.68 119.50,45.00 126.92,51.77 134.33,54.01 141.75,55.63 149.17,55.11 156.58,56.35 164.00,51.91 171.42,54.26 178.83,51.00 186.25,45.87 193.67,53.11 201.08,50.35 208.50,53.96 215.92,57.62 223.33,57.39 230.75,58.25 238.17,56.27 245.58,55.96 253.00,53.14 260.42,53.82 267.83,56.09 275.25,55.11 282.67,55.03 290.08,53.11 297.50,54.21 304.92,61.50 312.33,72.86 319.75,80.68 327.17,84.48 334.58,90.92 342.00,92.38 349.42,101.01 356.83,113.77 364.25,123.28 371.67,134.85 379.08,149.16 386.50,164.73 393.92,179.20 401.33,194.38 408.75,205.19 416.17,214.61 423.58,223.36 431.00,231.38 438.42,239.72 445.83,245.07 453.25,249.53 460.67,253.44 468.08,258.23 475.50,261.06 482.92,264.35 490.33,268.44 497.75,269.60 505.17,272.46 512.58,273.79 520.00,275.81 527.42,277.22 534.83,278.03 542.25,278.80 549.67,279.20 557.08,280.93 564.50,281.08 571.92,283.03 579.33,284.98 586.75,284.35 594.17,285.86 601.58,287.85 609.00,286.39 616.42,288.29 623.83,289.01 631.25,288.97 638.67,289.08 646.08,289.57 653.50,289.75 660.92,290.27 668.33,291.22 675.75,291.76 683.17,292.44 690.58,292.32 698.00,292.67 705.42,291.40 712.83,293.12 720.25,292.02 727.67,293.61 735.08,293.90 742.50,292.63 749.92,295.00 757.33,294.06 764.75,295.31 772.17,296.63 779.58,294.90 787.00,295.15 794.42,296.74 801.83,294.73 809.25,296.68 816.67,296.80 824.08,296.61 831.50,299.38 838.92,295.92 846.33,296.78 853.75,296.09 861.17,297.05 868.58,298.17 876.00,297.39 883.42,296.56 890.83,297.62 898.25,298.70 905.67,297.63 913.08,296.44 920.50,297.46 927.92,297.97 935.33,297.46 942.75,297.81 950.17,298.38 957.58,298.41 965.00,298.61" fill="none" stroke="#2563eb" stroke-width="2"/>
<text x="75.0" y="338" font-family="sans-serif" font-size="12" fill="#2563eb">series-1</text>
</svg>
