<svg xmlns="http://www.w3.org/2000/svg" width="1000" height="360">
<rect width="100%" height="100%" fill="white"/>
<text x="75.0" y="24" font-family="sans-serif" font-size="18" font-weight="bold">Processed records / second by consumer during production</text>
<line x1="75.0" y1="45.0" x2="75.0" y2="305.0" stroke="#64748b"/>
<line x1="75.0" y1="305.0" x2="965.0" y2="305.0" stroke="#64748b"/>
<text x="8" y="50" font-family="sans-serif" font-size="12">2770.11</text>
<polyline points="75.00,145.98 82.42,169.42 89.83,154.30 97.25,136.28 104.67,118.78 112.08,62.32 119.50,59.96 126.92,64.33 134.33,74.53 141.75,73.85 149.17,65.26 156.58,71.57 164.00,70.45 171.42,69.37 178.83,66.72 186.25,53.11 193.67,58.61 201.08,58.80 208.50,62.14 215.92,71.71 223.33,65.14 230.75,62.71 238.17,65.16 245.58,59.59 253.00,54.94 260.42,54.19 267.83,61.87 275.25,67.67 282.67,69.66 290.08,75.73 297.50,73.51 304.92,76.57 312.33,94.45 319.75,96.07 327.17,100.67 334.58,106.99 342.00,105.20 349.42,112.85 356.83,119.02 364.25,128.23 371.67,138.73 379.08,153.13 386.50,171.38 393.92,184.15 401.33,195.81 408.75,206.42 416.17,215.81 423.58,225.40 431.00,238.39 438.42,245.02 445.83,249.39 453.25,256.93 460.67,258.63 468.08,265.05 475.50,269.87 482.92,270.31 490.33,272.82 497.75,274.67 505.17,276.22 512.58,276.41 520.00,281.49 527.42,280.58 534.83,279.54 542.25,280.94 549.67,280.26 557.08,280.37 564.50,280.01 571.92,283.88 579.33,284.29 586.75,287.72 594.17,290.80 601.58,290.26 609.00,289.50 616.42,288.32 623.83,288.00 631.25,287.64 638.67,289.29 646.08,289.69 653.50,290.91 660.92,290.89 668.33,292.96 675.75,294.67 683.17,293.85 690.58,294.53 698.00,291.92 705.42,291.16 712.83,292.94 720.25,294.21 727.67,294.83 735.08,293.94 742.50,293.04 749.92,294.63 757.33,294.00 764.75,296.36 772.17,297.70 779.58,294.39 787.00,297.96 794.42,296.22 801.83,294.21 809.25,297.75 816.67,297.60 824.08,298.22 831.50,300.84 838.92,297.95 846.33,295.48 853.75,294.04 861.17,297.21 868.58,295.13 876.00,297.77 883.42,297.96 890.83,298.09 898.25,297.96 905.67,298.05 913.08,297.96 920.50,298.00 927.92,297.96 935.33,298.01 942.75,297.96 950.17,297.87 957.58,299.16 965.00,299.19" fill="none" stroke="#2563eb" stroke-width="2"/>
<text x="75.0" y="338" font-family="sans-serif" font-size="12" fill="#2563eb">consumer-1</text>
<polyline points="75.00,167.12 82.42,173.83 89.83,150.74 97.25,132.23 104.67,95.38 112.08,59.80 119.50,56.77 126.92,71.48 134.33,73.73 141.75,78.27 149.17,82.62 156.58,75.82 164.00,67.70 171.42,60.97 178.83,57.61 186.25,55.76 193.67,67.33 201.08,64.11 208.50,67.29 215.92,73.50 223.33,76.48 230.75,78.45 238.17,74.41 245.58,70.35 253.00,58.72 260.42,59.63 267.83,54.24 275.25,49.48 282.67,57.69 290.08,54.48 297.50,63.07 304.92,78.53 312.33,82.30 319.75,92.86 327.17,100.69 334.58,105.27 342.00,107.92 349.42,116.91 356.83,127.81 364.25,136.02 371.67,149.17 379.08,160.55 386.50,172.64 393.92,186.32 401.33,203.26 408.75,211.75 416.17,222.80 423.58,230.78 431.00,237.50 438.42,248.33 445.83,252.54 453.25,255.69 460.67,258.63 468.08,264.14 475.50,267.93 482.92,271.22 490.33,275.94 497.75,273.06 505.17,274.93 512.58,274.42 520.00,274.64 527.42,277.34 534.83,278.98 542.25,282.07 549.67,279.46 557.08,283.68 564.50,282.27 571.92,284.04 579.33,288.54 586.75,284.08 594.17,285.98 601.58,288.76 609.00,286.23 616.42,290.74 623.83,290.85 631.25,290.92 638.67,290.93 646.08,290.70 653.50,290.87 660.92,290.82 668.33,290.84 675.75,291.33 683.17,291.04 690.58,292.99 698.00,295.73 705.42,292.88 712.83,295.64 720.25,291.18 727.67,293.19 735.08,295.81 742.50,292.97 749.92,295.85 757.33,295.66 764.75,296.74 772.17,298.01 779.58,297.75 787.00,293.29 794.42,298.28 801.83,295.44 809.25,295.41 816.67,297.94 824.08,295.97 831.50,298.06 838.92,295.82 846.33,297.89 853.75,299.16 861.17,298.17 868.58,301.74 876.00,297.71 883.42,295.11 890.83,297.94 898.25,300.77 905.67,298.12 913.08,295.46 920.50,297.66 927.92,299.84 935.33,298.01 942.75,296.17 950.17,298.41 957.58,297.84 965.00,297.98" fill="none" stroke="#dc2626" stroke-width="2"/>
<text x="255.0" y="338" font-family="sans-serif" font-size="12" fill="#dc2626">consumer-2</text>
<polyline points="75.00,155.50 82.42,168.06 89.83,146.40 97.25,129.82 104.67,114.58 112.08,66.68 119.50,67.21 126.92,75.04 134.33,67.67 141.75,56.61 149.17,58.78 156.58,53.80 164.00,45.00 171.42,61.86 178.83,60.87 186.25,60.72 193.67,73.94 201.08,67.85 208.50,66.82 215.92,72.85 223.33,74.45 230.75,78.69 238.17,79.61 245.58,78.45 253.00,84.32 260.42,83.78 267.83,84.34 275.25,81.00 282.67,67.18 290.08,60.16 297.50,61.76 304.92,71.61 312.33,86.22 319.75,96.21 327.17,95.95 334.58,98.23 342.00,100.03 349.42,107.08 356.83,125.49 364.25,134.69 371.67,146.33 379.08,163.37 386.50,176.90 393.92,188.96 401.33,200.30 408.75,210.06 416.17,216.73 423.58,228.98 431.00,236.64 438.42,244.55 445.83,250.24 453.25,250.90 460.67,254.52 468.08,256.78 475.50,256.56 482.92,261.55 490.33,265.95 497.75,267.95 505.17,270.47 512.58,274.39 520.00,276.49 527.42,278.88 534.83,281.76 542.25,279.53 549.67,282.88 557.08,281.32 564.50,283.53 571.92,283.81 579.33,284.18 586.75,286.16 594.17,284.69 601.58,288.41 609.00,286.60 616.42,288.52 623.83,290.45 631.25,290.81 638.67,290.90 646.08,290.75 653.50,290.44 660.92,290.80 668.33,291.06 675.75,291.31 683.17,295.35 690.58,293.53 698.00,294.82 705.42,293.32 712.83,291.43 720.25,291.75 727.67,293.98 735.08,295.06 742.50,293.51 749.92,297.21 757.33,295.32 764.75,294.02 772.17,297.68 779.58,295.40 787.00,293.65 794.42,297.77 801.83,297.26 809.25,297.75 816.67,297.96 824.08,295.80 831.50,297.97 838.92,293.83 846.33,297.91 853.75,297.73 861.17,297.91 868.58,301.86 876.00,297.94 883.42,298.96 890.83,297.97 898.25,299.51 905.67,297.91 913.08,296.31 920.50,297.93 927.92,297.48 935.33,297.72 942.75,298.10 950.17,297.91 957.58,297.96 965.00,298.13" fill="none" stroke="#16a34a" stroke-width="2"/>
<text x="435.0" y="338" font-family="sans-serif" font-size="12" fill="#16a34a">consumer-3</text>
<polyline points="75.00,159.06 82.42,180.39 89.83,176.72 97.25,161.61 104.67,143.00 112.08,71.26 119.50,54.66 126.92,53.33 134.33,56.70 141.75,69.99 149.17,70.09 156.58,80.26 164.00,81.55 171.42,81.38 178.83,76.08 186.25,72.30 193.67,69.32 201.08,68.02 208.50,76.17 215.92,68.20 223.33,69.32 230.75,68.76 238.17,61.95 245.58,71.58 253.00,71.34 260.42,74.32 267.83,80.01 275.25,78.63 282.67,81.93 290.08,78.84 297.50,75.04 304.92,74.18 312.33,80.82 319.75,88.13 327.17,90.32 334.58,101.45 342.00,104.32 349.42,113.20 356.83,125.88 364.25,135.15 371.67,143.51 379.08,154.74 386.50,169.62 393.92,185.71 401.33,203.09 408.75,215.01 416.17,223.48 423.58,226.68 431.00,229.58 438.42,235.71 445.83,241.62 453.25,247.09 460.67,253.59 468.08,257.48 475.50,259.81 482.92,263.48 490.33,267.29 497.75,270.71 505.17,275.57 512.58,277.00 520.00,277.20 527.42,278.35 534.83,277.90 542.25,278.55 549.67,280.01 557.08,283.78 564.50,283.90 571.92,285.36 579.33,287.41 586.75,284.10 594.17,286.28 601.58,287.84 609.00,287.42 616.42,289.33 623.83,290.32 631.25,290.13 638.67,288.78 646.08,290.63 653.50,290.22 660.92,291.89 668.33,293.11 675.75,292.70 683.17,292.36 690.58,291.11 698.00,291.00 705.42,291.29 712.83,295.14 720.25,293.85 727.67,295.00 735.08,293.31 742.50,293.80 749.92,294.56 757.33,293.74 764.75,296.31 772.17,295.02 779.58,294.34 787.00,297.93 794.42,296.55 801.83,294.32 809.25,297.68 816.67,295.56 824.08,298.33 831.50,301.90 838.92,298.13 846.33,297.69 853.75,295.45 861.17,296.69 868.58,295.50 876.00,297.84 883.42,296.11 890.83,298.15 898.25,297.96 905.67,298.10 913.08,297.96 920.50,297.94 927.92,298.20 935.33,297.79 942.75,300.61 950.17,300.83 957.58,300.17 965.00,300.57" fill="none" stroke="#9333ea" stroke-width="2"/>
<text x="615.0" y="338" font-family="sans-serif" font-size="12" fill="#9333ea">consumer-4</text>
</svg>
