<svg xmlns="http://www.w3.org/2000/svg" width="1000" height="360">
<rect width="100%" height="100%" fill="white"/>
<text x="75.0" y="24" font-family="sans-serif" font-size="18" font-weight="bold">Consumer process CPU usage during production</text>
<line x1="75.0" y1="45.0" x2="75.0" y2="305.0" stroke="#64748b"/>
<line x1="75.0" y1="305.0" x2="965.0" y2="305.0" stroke="#64748b"/>
<text x="8" y="50" font-family="sans-serif" font-size="12">1.00</text>
<polyline points="75.00,291.18 82.42,303.20 89.83,292.83 97.25,289.63 104.67,296.76 112.08,298.29 119.50,299.06 126.92,298.85 134.33,299.96 141.75,298.13 149.17,298.31 156.58,299.14 164.00,299.97 171.42,299.95 178.83,300.45 186.25,300.04 193.67,299.21 201.08,299.24 208.50,299.49 215.92,300.26 223.33,300.27 230.75,296.04 238.17,299.34 245.58,300.09 253.00,298.94 260.42,300.47 267.83,300.09 275.25,300.11 282.67,300.29 290.08,299.53 297.50,299.78 304.92,300.02 312.33,299.69 319.75,299.53 327.17,299.72 334.58,300.12 342.00,300.36 349.42,299.91 356.83,300.04 364.25,299.82 371.67,300.05 379.08,299.84 386.50,299.65 393.92,300.06 401.33,299.88 408.75,299.51 416.17,299.78 423.58,299.93 431.00,298.27 438.42,299.21 445.83,299.27 453.25,299.65 460.67,299.89 468.08,300.15 475.50,300.06 482.92,300.10 490.33,299.77 497.75,300.61 505.17,299.21 512.58,299.70 520.00,300.12 527.42,299.40 534.83,300.72 542.25,299.37 549.67,300.18 557.08,300.22 564.50,297.37 571.92,300.41 579.33,300.48 586.75,299.12 594.17,299.27 601.58,299.68 609.00,300.47 616.42,299.79 623.83,300.60 631.25,300.52 638.67,300.58 646.08,300.72 653.50,300.19 660.92,300.89 668.33,300.27 675.75,300.40 683.17,299.97 690.58,299.93 698.00,299.65 705.42,300.25 712.83,300.29 720.25,300.39 727.67,300.21 735.08,300.23 742.50,300.49 749.92,299.91 757.33,300.85 764.75,300.80 772.17,300.26 779.58,300.61 787.00,300.35 794.42,300.40 801.83,300.01 809.25,300.44 816.67,299.80 824.08,300.25 831.50,300.31 838.92,300.27 846.33,300.57 853.75,299.44 861.17,299.60 868.58,300.19 876.00,300.36 883.42,300.28 890.83,299.66 898.25,300.20 905.67,299.16 913.08,299.88 920.50,300.39 927.92,299.57 935.33,299.87 942.75,299.84 950.17,300.67 957.58,300.74 965.00,301.51" fill="none" stroke="#2563eb" stroke-width="2"/>
<text x="75.0" y="338" font-family="sans-serif" font-size="12" fill="#2563eb">consumer-1</text>
<polyline points="75.00,301.32 82.42,301.93 89.83,291.14 97.25,289.57 104.67,296.32 112.08,299.61 119.50,299.18 126.92,299.59 134.33,298.97 141.75,300.42 149.17,299.72 156.58,298.82 164.00,299.88 171.42,299.95 178.83,299.97 186.25,298.91 193.67,300.20 201.08,300.11 208.50,299.23 215.92,300.16 223.33,299.64 230.75,299.19 238.17,298.87 245.58,299.49 253.00,300.78 260.42,299.46 267.83,299.66 275.25,299.21 282.67,300.01 290.08,299.79 297.50,299.73 304.92,300.19 312.33,299.45 319.75,299.60 327.17,299.67 334.58,300.29 342.00,299.86 349.42,299.51 356.83,300.32 364.25,299.78 371.67,299.91 379.08,300.08 386.50,300.20 393.92,300.09 401.33,300.05 408.75,300.54 416.17,300.03 423.58,300.25 431.00,299.24 438.42,300.06 445.83,299.05 453.25,300.17 460.67,300.18 468.08,300.02 475.50,299.79 482.92,300.09 490.33,300.29 497.75,299.81 505.17,300.23 512.58,300.23 520.00,299.72 527.42,300.45 534.83,300.69 542.25,300.30 549.67,300.18 557.08,299.78 564.50,300.25 571.92,299.78 579.33,300.27 586.75,300.11 594.17,300.10 601.58,299.75 609.00,300.13 616.42,300.08 623.83,300.41 631.25,299.97 638.67,299.97 646.08,300.24 653.50,300.62 660.92,300.80 668.33,299.71 675.75,300.49 683.17,300.23 690.58,300.51 698.00,299.83 705.42,300.31 712.83,300.23 720.25,300.81 727.67,299.97 735.08,299.75 742.50,299.96 749.92,300.03 757.33,300.59 764.75,300.83 772.17,300.00 779.58,300.30 787.00,300.32 794.42,300.46 801.83,300.39 809.25,299.85 816.67,299.65 824.08,300.41 831.50,300.32 838.92,300.42 846.33,300.22 853.75,300.47 861.17,299.90 868.58,300.16 876.00,300.21 883.42,300.51 890.83,300.05 898.25,299.61 905.67,298.96 913.08,299.53 920.50,300.41 927.92,300.06 935.33,300.13 942.75,299.69 950.17,300.68 957.58,300.71 965.00,301.08" fill="none" stroke="#dc2626" stroke-width="2"/>
<text x="255.0" y="338" font-family="sans-serif" font-size="12" fill="#dc2626">consumer-2</text>
<polyline points="75.00,291.18 82.42,304.11 89.83,297.75 97.25,288.44 104.67,291.55 112.08,299.56 119.50,298.96 126.92,299.20 134.33,298.08 141.75,299.31 149.17,297.70 156.58,298.61 164.00,300.27 171.42,299.97 178.83,299.72 186.25,300.16 193.67,300.32 201.08,299.52 208.50,299.00 215.92,300.25 223.33,298.78 230.75,299.74 238.17,299.49 245.58,298.94 253.00,299.23 260.42,299.87 267.83,300.33 275.25,299.64 282.67,300.18 290.08,299.70 297.50,300.09 304.92,299.60 312.33,299.01 319.75,299.52 327.17,299.85 334.58,300.14 342.00,300.28 349.42,299.40 356.83,299.74 364.25,299.68 371.67,300.28 379.08,299.52 386.50,300.50 393.92,299.78 401.33,299.39 408.75,299.48 416.17,299.83 423.58,300.15 431.00,299.91 438.42,298.89 445.83,298.93 453.25,299.44 460.67,299.81 468.08,300.02 475.50,299.79 482.92,300.04 490.33,300.28 497.75,300.63 505.17,299.81 512.58,299.67 520.00,300.48 527.42,299.98 534.83,300.42 542.25,299.77 549.67,299.97 557.08,300.48 564.50,299.88 571.92,299.72 579.33,299.71 586.75,298.83 594.17,300.20 601.58,299.57 609.00,300.38 616.42,299.14 623.83,299.68 631.25,300.65 638.67,300.10 646.08,300.23 653.50,300.72 660.92,299.62 668.33,300.84 675.75,299.78 683.17,299.73 690.58,299.83 698.00,300.10 705.42,300.53 712.83,299.81 720.25,300.13 727.67,301.03 735.08,300.38 742.50,299.84 749.92,299.47 757.33,300.22 764.75,299.81 772.17,300.12 779.58,300.89 787.00,300.34 794.42,300.11 801.83,300.62 809.25,300.25 816.67,299.80 824.08,299.66 831.50,299.83 838.92,300.47 846.33,300.08 853.75,300.29 861.17,300.04 868.58,299.93 876.00,300.25 883.42,301.07 890.83,300.45 898.25,299.72 905.67,300.63 913.08,298.99 920.50,299.71 927.92,300.57 935.33,300.27 942.75,300.01 950.17,299.69 957.58,300.36 965.00,301.00" fill="none" stroke="#16a34a" stroke-width="2"/>
<text x="435.0" y="338" font-family="sans-serif" font-size="12" fill="#16a34a">consumer-3</text>
<polyline points="75.00,290.81 82.42,303.21 89.83,294.48 97.25,290.46 104.67,291.71 112.08,298.55 119.50,298.90 126.92,298.81 134.33,298.86 141.75,299.10 149.17,298.79 156.58,299.31 164.00,299.83 171.42,299.69 178.83,298.50 186.25,299.54 193.67,300.15 201.08,299.79 208.50,299.29 215.92,299.92 223.33,299.49 230.75,299.37 238.17,298.22 245.58,300.54 253.00,300.58 260.42,299.60 267.83,299.31 275.25,299.82 282.67,299.94 290.08,299.62 297.50,300.18 304.92,299.61 312.33,299.51 319.75,299.69 327.17,300.25 334.58,299.34 342.00,300.57 349.42,299.44 356.83,298.52 364.25,299.73 371.67,300.30 379.08,300.31 386.50,299.97 393.92,299.98 401.33,299.26 408.75,300.48 416.17,300.54 423.58,298.88 431.00,299.71 438.42,299.35 445.83,299.05 453.25,298.67 460.67,300.76 468.08,300.82 475.50,300.58 482.92,300.27 490.33,299.61 497.75,299.43 505.17,299.24 512.58,299.09 520.00,300.51 527.42,300.31 534.83,300.64 542.25,299.67 549.67,300.04 557.08,300.40 564.50,299.59 571.92,299.95 579.33,299.94 586.75,300.48 594.17,299.42 601.58,299.76 609.00,300.22 616.42,300.38 623.83,299.97 631.25,300.58 638.67,299.61 646.08,300.56 653.50,299.96 660.92,300.40 668.33,300.15 675.75,299.99 683.17,299.53 690.58,300.52 698.00,300.07 705.42,300.06 712.83,299.90 720.25,300.14 727.67,300.89 735.08,299.60 742.50,300.27 749.92,300.12 757.33,300.20 764.75,299.99 772.17,300.55 779.58,300.45 787.00,299.97 794.42,300.23 801.83,300.10 809.25,300.30 816.67,300.06 824.08,299.18 831.50,300.06 838.92,300.61 846.33,299.84 853.75,299.95 861.17,299.79 868.58,299.96 876.00,299.34 883.42,301.26 890.83,300.02 898.25,300.12 905.67,299.88 913.08,299.45 920.50,300.26 927.92,299.80 935.33,299.81 942.75,299.32 950.17,300.90 957.58,299.97 965.00,301.16" fill="none" stroke="#9333ea" stroke-width="2"/>
<text x="615.0" y="338" font-family="sans-serif" font-size="12" fill="#9333ea">consumer-4</text>
<polyline points="75.00,293.25 82.42,303.21 89.83,289.24 97.25,289.52 104.67,298.37 112.08,299.75 119.50,298.08 126.92,298.43 134.33,298.79 141.75,299.44 149.17,299.66 156.58,299.54 164.00,300.05 171.42,299.48 178.83,300.60 186.25,300.45 193.67,298.82 201.08,299.81 208.50,300.38 215.92,299.40 223.33,300.01 230.75,298.14 238.17,298.33 245.58,300.50 253.00,300.48 260.42,299.86 267.83,300.52 275.25,299.12 282.67,299.61 290.08,300.11 297.50,299.79 304.92,298.98 312.33,297.77 319.75,299.19 327.17,299.93 334.58,299.68 342.00,299.54 349.42,299.95 356.83,299.60 364.25,299.75 371.67,299.25 379.08,299.41 386.50,300.44 393.92,298.95 401.33,300.11 408.75,299.99 416.17,300.39 423.58,299.22 431.00,300.18 438.42,299.62 445.83,299.45 453.25,299.43 460.67,300.22 468.08,299.64 475.50,300.19 482.92,299.99 490.33,299.55 497.75,300.32 505.17,300.24 512.58,300.78 520.00,299.93 527.42,299.78 534.83,300.16 542.25,300.43 549.67,299.90 557.08,300.20 564.50,299.09 571.92,300.58 579.33,300.31 586.75,298.99 594.17,299.42 601.58,300.12 609.00,300.10 616.42,300.43 623.83,299.15 631.25,299.83 638.67,300.14 646.08,300.09 653.50,300.24 660.92,299.31 668.33,300.54 675.75,300.14 683.17,300.23 690.58,300.42 698.00,299.52 705.42,299.98 712.83,300.32 720.25,300.91 727.67,300.23 735.08,299.84 742.50,299.96 749.92,300.14 757.33,299.81 764.75,300.19 772.17,299.83 779.58,301.22 787.00,299.68 794.42,300.13 801.83,299.74 809.25,300.21 816.67,299.21 824.08,299.70 831.50,299.59 838.92,300.53 846.33,300.05 853.75,299.79 861.17,300.15 868.58,300.12 876.00,299.75 883.42,300.63 890.83,300.07 898.25,300.04 905.67,299.99 913.08,299.89 920.50,299.96 927.92,299.25 935.33,299.83 942.75,298.91 950.17,300.62 957.58,300.28 965.00,301.38" fill="none" stroke="#ea580c" stroke-width="2"/>
<text x="795.0" y="338" font-family="sans-serif" font-size="12" fill="#ea580c">consumer-5</text>
<polyline points="75.00,290.47 82.42,304.00 89.83,293.74 97.25,288.56 104.67,295.87 112.08,299.13 119.50,298.35 126.92,298.76 134.33,299.24 141.75,298.82 149.17,298.88 156.58,299.46 164.00,298.21 171.42,299.72 178.83,299.31 186.25,299.51 193.67,299.46 201.08,300.15 208.50,300.21 215.92,299.60 223.33,299.98 230.75,299.38 238.17,298.27 245.58,299.69 253.00,300.12 260.42,299.22 267.83,299.34 275.25,299.74 282.67,298.11 290.08,299.78 297.50,300.05 304.92,299.57 312.33,299.55 319.75,299.38 327.17,300.11 334.58,299.69 342.00,300.56 349.42,299.46 356.83,299.79 364.25,299.42 371.67,299.27 379.08,299.62 386.50,300.34 393.92,299.65 401.33,300.21 408.75,299.82 416.17,299.88 423.58,299.94 431.00,299.09 438.42,299.59 445.83,299.04 453.25,299.52 460.67,299.72 468.08,300.43 475.50,299.74 482.92,300.18 490.33,300.16 497.75,300.69 505.17,300.14 512.58,299.84 520.00,299.81 527.42,300.20 534.83,299.59 542.25,300.67 549.67,300.56 557.08,298.77 564.50,299.56 571.92,300.05 579.33,300.62 586.75,299.90 594.17,300.30 601.58,299.73 609.00,299.84 616.42,300.25 623.83,300.03 631.25,300.02 638.67,299.58 646.08,300.48 653.50,300.14 660.92,300.28 668.33,300.87 675.75,300.14 683.17,300.11 690.58,300.12 698.00,299.45 705.42,299.73 712.83,300.31 720.25,299.85 727.67,300.33 735.08,300.53 742.50,299.63 749.92,299.57 757.33,300.12 764.75,299.93 772.17,299.91 779.58,300.56 787.00,300.17 794.42,299.89 801.83,300.65 809.25,300.39 816.67,300.00 824.08,299.69 831.50,299.79 838.92,300.06 846.33,299.43 853.75,299.96 861.17,299.99 868.58,300.31 876.00,299.90 883.42,300.85 890.83,300.05 898.25,299.69 905.67,300.03 913.08,300.36 920.50,300.19 927.92,300.02 935.33,298.94 942.75,299.48 950.17,300.38 957.58,300.25 965.00,301.07" fill="none" stroke="#0891b2" stroke-width="2"/>
<text x="975.0" y="338" font-family="sans-serif" font-size="12" fill="#0891b2">consumer-6</text>
</svg>
