<svg xmlns="http://www.w3.org/2000/svg" width="1000" height="360">
<rect width="100%" height="100%" fill="white"/>
<text x="75.0" y="24" font-family="sans-serif" font-size="18" font-weight="bold">Consumer JVM heap bytes during production</text>
<line x1="75.0" y1="45.0" x2="75.0" y2="305.0" stroke="#64748b"/>
<line x1="75.0" y1="305.0" x2="965.0" y2="305.0" stroke="#64748b"/>
<text x="8" y="50" font-family="sans-serif" font-size="12">209199792.00</text>
<polyline points="75.00,233.67 82.42,233.67 89.83,264.72 97.25,233.45 104.67,254.43 112.08,217.94 119.50,233.53 126.92,249.21 134.33,212.72 141.75,228.16 149.17,244.47 156.58,259.63 164.00,223.14 171.42,249.24 178.83,212.75 186.25,239.08 193.67,259.83 201.08,218.13 208.50,244.00 215.92,212.72 223.33,239.27 230.75,259.62 238.17,228.34 245.58,254.39 253.00,217.90 260.42,249.40 267.83,218.13 275.25,244.11 282.67,207.62 290.08,233.78 297.50,259.77 304.92,223.28 312.33,249.36 319.75,212.87 327.17,233.78 334.58,264.95 342.00,233.67 349.42,259.75 356.83,223.26 364.25,249.28 371.67,212.79 379.08,238.97 386.50,259.70 393.92,223.21 401.33,249.29 408.75,207.59 416.17,233.77 423.58,264.93 431.00,228.44 438.42,254.55 445.83,218.06 453.25,244.05 460.67,264.93 468.08,228.44 475.50,254.46 482.92,217.97 490.33,244.29 497.75,213.02 505.17,228.37 512.58,254.46 520.00,212.76 527.42,239.03 534.83,207.75 542.25,223.20 549.67,249.43 557.08,218.16 564.50,244.17 571.92,207.68 579.33,238.79 586.75,264.87 594.17,228.38 601.58,249.37 609.00,218.09 616.42,238.96 623.83,207.68 631.25,239.05 638.67,264.73 646.08,233.46 653.50,259.76 660.92,228.49 668.33,259.63 675.75,228.35 683.17,249.22 690.58,212.73 698.00,238.74 705.42,264.80 712.83,228.31 720.25,254.52 727.67,218.03 735.08,244.16 742.50,212.88 749.92,238.79 757.33,207.51 764.75,233.59 772.17,264.81 779.58,233.54 787.00,259.62 794.42,223.13 801.83,249.17 809.25,212.69 816.67,238.76 824.08,264.78 831.50,228.29 838.92,254.39 846.33,217.90 853.75,238.75 861.17,265.01 868.58,228.52 876.00,254.27 883.42,217.78 890.83,243.86 898.25,207.37 905.67,233.53 913.08,259.54 920.50,223.05 927.92,243.92 935.33,207.43 942.75,238.64 950.17,264.76 957.58,233.48 965.00,207.42" fill="none" stroke="#2563eb" stroke-width="2"/>
<text x="75.0" y="338" font-family="sans-serif" font-size="12" fill="#2563eb">consumer-1</text>
<polyline points="75.00,232.03 82.42,221.60 89.83,253.05 97.25,221.77 104.67,247.90 112.08,211.41 119.50,237.65 126.92,263.61 134.33,221.91 141.75,253.24 149.17,221.96 156.58,242.79 164.00,206.30 171.42,232.46 178.83,258.31 186.25,221.82 193.67,253.19 201.08,216.70 208.50,242.67 215.92,206.18 223.33,237.60 230.75,206.32 238.17,237.51 245.58,258.12 253.00,226.84 260.42,253.09 267.83,216.60 275.25,232.27 282.67,263.63 290.08,232.36 297.50,258.44 304.92,221.95 312.33,242.79 319.75,206.30 327.17,227.20 334.58,258.47 342.00,227.19 349.42,247.93 356.83,216.66 364.25,242.82 371.67,206.33 379.08,232.32 386.50,258.42 393.92,227.14 401.33,253.42 408.75,216.93 416.17,242.84 423.58,211.56 431.00,242.76 438.42,206.27 445.83,232.21 453.25,258.28 460.67,221.79 468.08,247.89 475.50,206.19 482.92,232.21 490.33,263.48 497.75,226.99 505.17,253.13 512.58,216.64 520.00,242.62 527.42,206.13 534.83,237.59 542.25,206.31 549.67,232.40 557.08,258.42 564.50,227.15 571.92,247.89 579.33,211.40 586.75,242.65 594.17,206.16 601.58,227.15 609.00,253.08 616.42,216.59 623.83,242.63 631.25,206.14 638.67,227.16 646.08,253.08 653.50,221.80 660.92,253.08 668.33,216.59 675.75,242.62 683.17,206.13 690.58,237.38 698.00,263.47 705.42,226.98 712.83,253.04 720.25,226.97 727.67,253.22 735.08,211.52 742.50,237.41 749.92,263.56 757.33,232.28 764.75,263.47 772.17,226.99 779.58,258.22 787.00,221.73 794.42,247.78 801.83,216.50 809.25,237.35 816.67,258.23 824.08,221.74 831.50,252.97 838.92,216.48 846.33,242.60 853.75,211.33 861.17,237.32 868.58,263.63 876.00,232.35 883.42,258.22 890.83,221.73 898.25,247.82 905.67,263.44 913.08,232.17 920.50,258.19 927.92,226.91 935.33,253.13 942.75,216.64 950.17,247.73 957.58,216.45 965.00,247.79" fill="none" stroke="#dc2626" stroke-width="2"/>
<text x="255.0" y="338" font-family="sans-serif" font-size="12" fill="#dc2626">consumer-2</text>
<polyline points="75.00,232.16 82.42,232.16 89.83,211.31 97.25,242.77 104.67,206.28 112.08,237.75 119.50,258.83 126.92,222.34 134.33,248.36 141.75,206.65 149.17,232.63 156.58,258.75 164.00,227.47 171.42,258.66 178.83,216.96 186.25,248.30 193.67,211.81 201.08,237.88 208.50,264.04 215.92,227.55 223.33,248.19 230.75,216.91 238.17,243.02 245.58,206.53 253.00,237.68 260.42,263.94 267.83,227.45 275.25,253.38 282.67,222.11 290.08,248.09 297.50,211.60 304.92,237.86 312.33,263.88 319.75,222.18 327.17,248.18 334.58,211.69 342.00,243.16 349.42,206.67 356.83,232.44 364.25,258.57 371.67,222.08 379.08,248.16 386.50,216.88 393.92,237.83 401.33,263.91 408.75,222.21 416.17,248.22 423.58,211.73 431.00,242.92 438.42,211.65 445.83,237.71 453.25,263.77 460.67,227.28 468.08,248.10 475.50,211.61 482.92,237.68 490.33,206.40 497.75,232.63 505.17,263.84 512.58,227.35 520.00,253.29 527.42,216.80 534.83,242.92 542.25,206.43 549.67,232.48 557.08,258.77 564.50,227.49 571.92,248.07 579.33,211.58 586.75,227.27 594.17,258.60 601.58,216.90 609.00,242.89 616.42,211.62 623.83,232.46 631.25,263.74 638.67,232.46 646.08,253.30 653.50,222.02 660.92,242.82 668.33,211.54 675.75,232.51 683.17,258.43 690.58,221.94 698.00,248.14 705.42,216.86 712.83,237.55 720.25,263.64 727.67,232.37 735.08,263.62 742.50,221.92 749.92,242.96 757.33,206.47 764.75,232.43 772.17,258.54 779.58,227.26 787.00,258.37 794.42,221.88 801.83,253.30 809.25,211.60 816.67,237.56 824.08,263.63 831.50,227.14 838.92,253.28 846.33,216.79 853.75,242.76 861.17,206.27 868.58,227.13 876.00,258.49 883.42,227.22 890.83,253.16 898.25,216.67 905.67,247.97 913.08,206.27 920.50,232.34 927.92,263.59 935.33,227.10 942.75,253.17 950.17,216.68 957.58,247.92 965.00,216.64" fill="none" stroke="#16a34a" stroke-width="2"/>
<text x="435.0" y="338" font-family="sans-serif" font-size="12" fill="#16a34a">consumer-3</text>
<polyline points="75.00,254.40 82.42,254.40 89.83,228.33 97.25,202.27 104.67,170.99 112.08,139.71 119.50,98.01 126.92,61.52 134.33,238.59 141.75,202.10 149.17,160.40 156.58,123.91 164.00,87.42 171.42,50.93 178.83,227.75 186.25,191.27 193.67,159.99 201.08,123.50 208.50,87.01 215.92,55.73 223.33,233.52 230.75,202.24 238.17,165.75 245.58,134.48 253.00,103.20 260.42,66.71 267.83,248.61 275.25,212.12 282.67,180.85 290.08,144.36 297.50,107.87 304.92,71.38 312.33,259.05 319.75,222.56 327.17,186.07 334.58,144.36 342.00,113.09 349.42,76.60 356.83,254.04 364.25,217.55 371.67,186.27 379.08,149.78 386.50,118.50 393.92,82.01 401.33,258.75 408.75,227.47 416.17,196.19 423.58,159.70 431.00,123.22 438.42,91.94 445.83,55.45 453.25,232.41 460.67,201.13 468.08,169.85 475.50,138.57 482.92,107.30 490.33,65.60 497.75,254.26 505.17,217.77 512.58,176.06 520.00,144.79 527.42,113.51 534.83,82.23 542.25,264.22 549.67,227.73 557.08,191.24 564.50,159.96 571.92,123.47 579.33,86.98 586.75,50.49 594.17,233.43 601.58,196.94 609.00,165.66 616.42,134.38 623.83,97.89 631.25,61.40 638.67,242.98 646.08,211.71 653.50,175.22 660.92,143.94 668.33,112.66 675.75,70.96 683.17,253.87 690.58,222.59 698.00,186.10 705.42,149.61 712.83,113.12 720.25,76.63 727.67,50.57 735.08,233.18 742.50,196.69 749.92,165.42 757.33,128.93 764.75,92.44 772.17,61.16 779.58,253.53 787.00,217.04 794.42,180.55 801.83,144.06 809.25,107.57 816.67,71.08 824.08,263.94 831.50,222.24 838.92,190.96 846.33,154.47 853.75,117.98 861.17,81.49 868.58,45.00 876.00,238.16 883.42,212.10 890.83,180.82 898.25,149.54 905.67,113.06 913.08,76.57 920.50,45.29 927.92,232.77 935.33,196.28 942.75,159.79 950.17,128.51 957.58,92.02 965.00,65.96" fill="none" stroke="#9333ea" stroke-width="2"/>
<text x="615.0" y="338" font-family="sans-serif" font-size="12" fill="#9333ea">consumer-4</text>
<polyline points="75.00,233.79 82.42,233.79 89.83,260.04 97.25,233.98 104.67,249.60 112.08,218.32 119.50,229.01 126.92,244.42 134.33,254.89 141.75,213.19 149.17,239.25 156.58,260.12 164.00,223.63 171.42,244.67 178.83,213.39 186.25,239.28 193.67,260.31 201.08,223.82 208.50,249.71 215.92,213.22 223.33,234.05 230.75,254.95 238.17,213.24 245.58,249.48 253.00,218.20 260.42,244.30 267.83,207.81 275.25,228.66 282.67,254.78 290.08,223.51 297.50,249.55 304.92,207.85 312.33,233.91 319.75,254.74 327.17,213.04 334.58,239.13 342.00,259.96 349.42,223.47 356.83,249.59 364.25,213.10 371.67,228.66 379.08,249.59 386.50,218.31 393.92,239.26 401.33,265.21 408.75,228.72 416.17,254.79 423.58,218.30 431.00,249.67 438.42,213.18 445.83,239.02 453.25,265.25 460.67,233.97 468.08,249.57 475.50,213.08 482.92,239.13 490.33,259.96 497.75,228.68 505.17,254.74 512.58,223.46 520.00,249.47 527.42,212.98 534.83,239.14 542.25,264.99 549.67,228.50 557.08,254.64 564.50,218.16 571.92,249.44 579.33,212.95 586.75,238.99 594.17,265.29 601.58,228.80 609.00,254.67 616.42,223.40 623.83,238.99 631.25,259.95 638.67,223.46 646.08,249.33 653.50,212.84 660.92,238.86 668.33,207.59 675.75,228.57 683.17,259.80 690.58,223.31 698.00,244.33 705.42,207.84 712.83,233.72 720.25,264.95 727.67,233.67 735.08,254.54 742.50,218.05 749.92,244.08 757.33,265.10 764.75,228.61 772.17,254.59 779.58,223.31 787.00,249.34 794.42,212.85 801.83,233.66 809.25,259.71 816.67,218.01 824.08,239.05 831.50,259.74 838.92,228.46 846.33,249.29 853.75,212.80 861.17,238.92 868.58,265.05 876.00,233.77 883.42,264.96 890.83,228.47 898.25,254.54 905.67,212.84 913.08,239.00 920.50,265.00 927.92,228.51 935.33,254.53 942.75,212.82 950.17,244.12 957.58,207.63 965.00,244.09" fill="none" stroke="#ea580c" stroke-width="2"/>
<text x="795.0" y="338" font-family="sans-serif" font-size="12" fill="#ea580c">consumer-5</text>
<polyline points="75.00,231.74 82.42,231.74 89.83,242.55 97.25,263.24 104.67,226.75 112.08,237.18 119.50,242.28 126.92,237.34 134.33,247.86 141.75,247.50 149.17,247.73 156.58,258.32 164.00,227.04 171.42,237.20 178.83,247.74 186.25,252.73 193.67,263.19 201.08,231.91 208.50,242.37 215.92,252.93 223.33,263.16 230.75,226.67 238.17,231.98 245.58,242.31 253.00,252.82 260.42,258.05 267.83,221.56 275.25,226.66 282.67,237.29 290.08,247.53 297.50,263.15 304.92,221.45 312.33,231.89 319.75,237.06 327.17,247.49 334.58,252.70 342.00,221.42 349.42,231.85 356.83,237.08 364.25,242.36 371.67,247.54 379.08,258.07 386.50,221.58 393.92,232.00 401.33,242.27 408.75,247.69 416.17,258.10 423.58,221.61 431.00,231.84 438.42,242.27 445.83,247.45 453.25,252.71 460.67,257.91 468.08,226.64 475.50,231.97 482.92,247.66 490.33,257.86 497.75,226.59 505.17,237.00 512.58,242.35 520.00,247.49 527.42,257.89 534.83,263.27 542.25,232.00 549.67,242.22 557.08,252.68 564.50,263.14 571.92,221.44 579.33,237.02 586.75,252.65 594.17,263.29 601.58,221.59 609.00,231.89 616.42,242.24 623.83,252.66 631.25,257.85 638.67,263.06 646.08,226.57 653.50,237.17 660.92,247.41 668.33,263.08 675.75,226.59 683.17,231.79 690.58,242.22 698.00,247.43 705.42,257.87 712.83,221.38 720.25,226.75 727.67,242.23 735.08,252.67 742.50,257.96 749.92,263.05 757.33,226.56 764.75,231.85 772.17,242.21 779.58,257.84 787.00,221.35 794.42,231.75 801.83,242.21 809.25,252.71 816.67,263.08 824.08,226.59 831.50,231.77 838.92,236.94 846.33,242.15 853.75,247.48 861.17,257.97 868.58,221.48 876.00,231.73 883.42,247.42 890.83,252.60 898.25,263.02 905.67,226.53 913.08,236.97 920.50,247.39 927.92,257.86 935.33,221.37 942.75,226.45 950.17,242.11 957.58,252.60 965.00,221.32" fill="none" stroke="#0891b2" stroke-width="2"/>
<text x="975.0" y="338" font-family="sans-serif" font-size="12" fill="#0891b2">consumer-6</text>
</svg>
