<svg xmlns="http://www.w3.org/2000/svg" width="1000" height="360">
<rect width="100%" height="100%" fill="white"/>
<text x="75.0" y="24" font-family="sans-serif" font-size="18" font-weight="bold">PostgreSQL commits / second during production</text>
<line x1="75.0" y1="45.0" x2="75.0" y2="305.0" stroke="#64748b"/>
<line x1="75.0" y1="305.0" x2="965.0" y2="305.0" stroke="#64748b"/>
<text x="8" y="50" font-family="sans-serif" font-size="12">11679.78</text>
<polyline points="75.00,245.46 82.42,232.15 89.83,212.74 97.25,191.38 104.67,163.24 112.08,138.37 119.50,118.21 126.92,105.58 134.33,96.68 141.75,75.63 149.17,61.51 156.58,57.76 164.00,45.67 171.42,55.64 178.83,57.53 186.25,61.32 193.67,62.19 201.08,65.27 208.50,68.40 215.92,71.54 223.33,67.69 230.75,76.10 238.17,66.98 245.58,62.96 253.00,63.08 260.42,65.88 267.83,64.12 275.25,61.31 282.67,56.42 290.08,57.79 297.50,55.73 304.92,55.52 312.33,55.33 319.75,51.74 327.17,48.96 334.58,47.13 342.00,50.18 349.42,50.96 356.83,48.21 364.25,47.81 371.67,46.14 379.08,45.00 386.50,47.51 393.92,47.69 401.33,48.40 408.75,45.15 416.17,46.75 423.58,48.06 431.00,50.38 438.42,53.43 445.83,53.34 453.25,51.99 460.67,52.01 468.08,52.66 475.50,52.87 482.92,52.52 490.33,51.59 497.75,51.50 505.17,50.19 512.58,51.51 520.00,52.59 527.42,55.54 534.83,56.18 542.25,56.81 549.67,56.42 557.08,57.68 564.50,56.93 571.92,57.12 579.33,57.13 586.75,57.86 594.17,56.61 601.58,54.91 609.00,54.78 616.42,54.85 623.83,53.69 631.25,52.86 638.67,53.14 646.08,53.15 653.50,53.66 660.92,55.87 668.33,59.35 675.75,60.53 683.17,59.36 690.58,59.36 698.00,58.29 705.42,58.26 712.83,57.33 720.25,57.48 727.67,58.08 735.08,57.17 742.50,56.14 749.92,57.32 757.33,58.01 764.75,59.17 772.17,59.61 779.58,63.87 787.00,63.61 794.42,61.57 801.83,59.96 809.25,60.58 816.67,59.23 824.08,58.31 831.50,57.18 838.92,58.21 846.33,54.06 853.75,51.51 861.17,47.70 868.58,48.70 876.00,48.89 883.42,53.49 890.83,54.05 898.25,55.18 905.67,52.15 913.08,52.67 920.50,55.52 927.92,59.07 935.33,57.77 942.75,55.55 950.17,53.47 957.58,55.88 965.00,59.89" fill="none" stroke="#2563eb" stroke-width="2"/>
<text x="75.0" y="338" font-family="sans-serif" font-size="12" fill="#2563eb">series-1</text>
</svg>
