<svg xmlns="http://www.w3.org/2000/svg" width="1000" height="360">
<rect width="100%" height="100%" fill="white"/>
<text x="75.0" y="24" font-family="sans-serif" font-size="18" font-weight="bold">Produced vs processed records / second</text>
<line x1="75.0" y1="45.0" x2="75.0" y2="305.0" stroke="#64748b"/>
<line x1="75.0" y1="305.0" x2="965.0" y2="305.0" stroke="#64748b"/>
<text x="8" y="50" font-family="sans-serif" font-size="12">10700.76</text>
<polyline points="75.00,62.29 114.12,61.99 153.36,62.35 192.62,61.43 232.05,62.08 271.42,62.15 310.92,62.03 350.37,62.62 389.83,61.74 429.34,62.06 468.90,61.90 508.56,62.47 548.25,61.73 587.95,61.77 627.74,62.38 667.48,62.06 707.46,62.03 747.62,61.81 787.61,61.66 828.21,62.53 868.49,62.02 908.85,62.02 949.14,61.63 965.00,65.92" fill="none" stroke="#2563eb" stroke-width="2"/>
<text x="75.0" y="338" font-family="sans-serif" font-size="12" fill="#2563eb">produced</text>
<polyline points="75.00,79.35 114.12,45.00 153.36,66.78 192.62,68.92 232.05,66.70 271.42,59.71 310.92,54.53 350.37,56.86 389.83,59.94 429.34,61.10 468.90,66.42 508.56,60.18 548.25,61.18 587.95,61.04 627.74,61.55 667.48,66.54 707.46,63.88 747.62,60.21 787.61,71.54 828.21,52.71 868.49,64.81 908.85,58.05 949.14,67.78 965.00,100.41" fill="none" stroke="#dc2626" stroke-width="2"/>
<text x="255.0" y="338" font-family="sans-serif" font-size="12" fill="#dc2626">processed</text>
</svg>
