<svg xmlns="http://www.w3.org/2000/svg" width="1000" height="360">
<rect width="100%" height="100%" fill="white"/>
<text x="75.0" y="24" font-family="sans-serif" font-size="18" font-weight="bold">Processed records / second by consumer during production</text>
<line x1="75.0" y1="45.0" x2="75.0" y2="305.0" stroke="#64748b"/>
<line x1="75.0" y1="305.0" x2="965.0" y2="305.0" stroke="#64748b"/>
<text x="8" y="50" font-family="sans-serif" font-size="12">2011.25</text>
<polyline points="75.00,186.34 82.42,194.99 89.83,194.71 97.25,194.39 104.67,172.17 112.08,118.21 119.50,95.58 126.92,77.38 134.33,75.99 141.75,68.64 149.17,62.61 156.58,67.00 164.00,63.45 171.42,79.10 178.83,90.68 186.25,98.64 193.67,104.30 201.08,94.67 208.50,100.77 215.92,99.18 223.33,105.66 230.75,110.35 238.17,108.96 245.58,108.46 253.00,101.69 260.42,109.54 267.83,103.91 275.25,102.88 282.67,103.63 290.08,95.40 297.50,95.02 304.92,91.86 312.33,89.24 319.75,84.00 327.17,80.96 334.58,88.41 342.00,93.60 349.42,99.79 356.83,102.60 364.25,93.92 371.67,89.66 379.08,86.71 386.50,83.88 393.92,84.33 401.33,85.46 408.75,77.32 416.17,76.80 423.58,89.93 431.00,90.95 438.42,100.43 445.83,98.81 453.25,86.79 460.67,80.47 468.08,79.56 475.50,85.82 482.92,86.17 490.33,87.63 497.75,95.48 505.17,82.84 512.58,78.98 520.00,78.48 527.42,67.95 534.83,86.25 542.25,78.97 549.67,82.30 557.08,90.24 564.50,81.70 571.92,94.12 579.33,99.53 586.75,99.84 594.17,98.75 601.58,92.99 609.00,89.39 616.42,81.84 623.83,92.71 631.25,102.25 638.67,104.30 646.08,113.03 653.50,106.94 660.92,109.17 668.33,114.10 675.75,109.38 683.17,105.66 690.58,94.41 698.00,82.21 705.42,82.00 712.83,82.94 720.25,90.92 727.67,96.08 735.08,95.03 742.50,98.78 749.92,92.80 757.33,99.03 764.75,106.55 772.17,104.59 779.58,115.72 787.00,110.86 794.42,104.24 801.83,103.66 809.25,94.18 816.67,85.71 824.08,86.07 831.50,84.16 838.92,87.11 846.33,96.66 853.75,87.24 861.17,82.06 868.58,79.30 876.00,79.04 883.42,88.77 890.83,91.55 898.25,93.82 905.67,90.14 913.08,86.52 920.50,94.38 927.92,83.86 935.33,80.03 942.75,86.69 950.17,90.00 957.58,106.37 965.00,124.70" fill="none" stroke="#2563eb" stroke-width="2"/>
<text x="75.0" y="338" font-family="sans-serif" font-size="12" fill="#2563eb">consumer-1</text>
<polyline points="75.00,201.06 82.42,205.30 89.83,207.65 97.25,204.91 104.67,154.27 112.08,118.85 119.50,99.49 126.92,86.08 134.33,84.95 141.75,85.24 149.17,90.15 156.58,83.30 164.00,90.99 171.42,86.04 178.83,80.71 186.25,88.66 193.67,91.70 201.08,94.32 208.50,93.38 215.92,96.29 223.33,98.39 230.75,99.13 238.17,107.47 245.58,104.17 253.00,105.33 260.42,100.04 267.83,85.91 275.25,80.72 282.67,77.69 290.08,80.29 297.50,88.24 304.92,95.16 312.33,86.88 319.75,82.97 327.17,75.99 334.58,80.45 342.00,86.76 349.42,87.89 356.83,98.45 364.25,91.38 371.67,89.79 379.08,91.05 386.50,91.14 393.92,94.80 401.33,93.02 408.75,99.22 416.17,94.87 423.58,102.04 431.00,104.28 438.42,100.84 445.83,98.16 453.25,91.60 460.67,88.81 468.08,84.65 475.50,80.78 482.92,82.13 490.33,85.20 497.75,88.73 505.17,98.10 512.58,96.19 520.00,90.24 527.42,90.47 534.83,96.90 542.25,98.18 549.67,103.80 557.08,105.27 564.50,96.58 571.92,89.29 579.33,88.18 586.75,87.34 594.17,86.21 601.58,86.14 609.00,84.33 616.42,78.55 623.83,82.75 631.25,85.17 638.67,82.59 646.08,85.37 653.50,87.30 660.92,98.67 668.33,96.19 675.75,99.65 683.17,93.83 690.58,89.16 698.00,97.13 705.42,96.32 712.83,98.33 720.25,103.57 727.67,102.49 735.08,93.51 742.50,94.41 749.92,84.69 757.33,89.25 764.75,104.05 772.17,102.08 779.58,105.65 787.00,101.06 794.42,97.03 801.83,97.02 809.25,89.11 816.67,82.05 824.08,79.32 831.50,81.53 838.92,89.87 846.33,96.96 853.75,98.18 861.17,93.40 868.58,92.50 876.00,97.74 883.42,98.86 890.83,99.95 898.25,91.58 905.67,74.96 913.08,73.50 920.50,78.34 927.92,88.05 935.33,97.76 942.75,97.10 950.17,97.74 957.58,101.83 965.00,114.54" fill="none" stroke="#dc2626" stroke-width="2"/>
<text x="255.0" y="338" font-family="sans-serif" font-size="12" fill="#dc2626">consumer-2</text>
<polyline points="75.00,178.33 82.42,195.57 89.83,203.94 97.25,203.88 104.67,191.13 112.08,139.47 119.50,106.40 126.92,88.46 134.33,82.46 141.75,73.60 149.17,80.11 156.58,81.33 164.00,84.52 171.42,99.88 178.83,90.46 186.25,99.12 193.67,100.17 201.08,89.18 208.50,94.45 215.92,90.15 223.33,79.55 230.75,87.08 238.17,86.30 245.58,86.21 253.00,99.52 260.42,95.90 267.83,100.83 275.25,96.75 282.67,93.08 290.08,94.01 297.50,91.65 304.92,91.01 312.33,88.06 319.75,79.98 327.17,77.63 334.58,80.39 342.00,87.28 349.42,88.98 356.83,93.05 364.25,93.13 371.67,87.95 379.08,88.64 386.50,91.19 393.92,89.78 401.33,83.28 408.75,80.37 416.17,75.30 423.58,78.35 431.00,87.40 438.42,97.10 445.83,100.33 453.25,96.32 460.67,90.67 468.08,85.57 475.50,77.45 482.92,80.82 490.33,89.76 497.75,97.36 505.17,106.75 512.58,100.32 520.00,97.69 527.42,89.03 534.83,90.41 542.25,90.04 549.67,85.77 557.08,91.46 564.50,91.02 571.92,91.97 579.33,83.73 586.75,72.04 594.17,68.30 601.58,66.36 609.00,77.41 616.42,86.37 623.83,78.77 631.25,92.60 638.67,87.14 646.08,88.54 653.50,103.33 660.92,89.41 668.33,98.81 675.75,92.96 683.17,82.73 690.58,83.56 698.00,74.73 705.42,82.29 712.83,79.61 720.25,85.97 727.67,97.87 735.08,99.71 742.50,99.42 749.92,92.44 757.33,81.36 764.75,71.66 772.17,77.97 779.58,95.39 787.00,100.58 794.42,102.91 801.83,106.81 809.25,94.93 816.67,89.32 824.08,87.28 831.50,77.63 838.92,82.36 846.33,81.85 853.75,87.39 861.17,88.14 868.58,81.70 876.00,86.56 883.42,93.86 890.83,101.34 898.25,100.99 905.67,104.32 913.08,90.15 920.50,82.09 927.92,92.31 935.33,89.36 942.75,91.31 950.17,97.01 957.58,94.25 965.00,101.01" fill="none" stroke="#16a34a" stroke-width="2"/>
<text x="435.0" y="338" font-family="sans-serif" font-size="12" fill="#16a34a">consumer-3</text>
<polyline points="75.00,177.95 82.42,190.54 89.83,197.54 97.25,196.52 104.67,183.19 112.08,135.33 119.50,103.43 126.92,81.55 134.33,79.27 141.75,68.43 149.17,65.81 156.58,69.57 164.00,66.56 171.42,72.70 178.83,79.55 186.25,78.55 193.67,84.91 201.08,86.79 208.50,83.98 215.92,90.08 223.33,87.34 230.75,90.54 238.17,91.50 245.58,97.00 253.00,103.21 260.42,94.41 267.83,97.47 275.25,89.79 282.67,85.12 290.08,88.37 297.50,89.46 304.92,86.79 312.33,90.84 319.75,85.38 327.17,85.49 334.58,82.00 342.00,81.33 349.42,81.35 356.83,74.69 364.25,77.90 371.67,72.96 379.08,81.82 386.50,88.36 393.92,89.70 401.33,88.66 408.75,89.77 416.17,96.84 423.58,97.78 431.00,98.82 438.42,94.47 445.83,83.67 453.25,80.34 460.67,87.94 468.08,94.07 475.50,102.97 482.92,108.60 490.33,98.25 497.75,91.51 505.17,86.64 512.58,79.52 520.00,85.46 527.42,87.40 534.83,92.56 542.25,98.59 549.67,94.22 557.08,93.03 564.50,90.25 571.92,86.46 579.33,83.78 586.75,84.79 594.17,83.08 601.58,82.46 609.00,93.03 616.42,93.95 623.83,90.14 631.25,99.13 638.67,93.24 646.08,92.99 653.50,92.38 660.92,90.99 668.33,96.01 675.75,90.15 683.17,93.48 690.58,93.12 698.00,83.64 705.42,87.95 712.83,83.43 720.25,80.46 727.67,94.22 735.08,96.95 742.50,101.59 749.92,102.32 757.33,91.47 764.75,85.37 772.17,89.98 779.58,96.49 787.00,93.64 794.42,95.45 801.83,89.29 809.25,83.17 816.67,84.68 824.08,78.00 831.50,77.71 838.92,82.51 846.33,82.85 853.75,85.08 861.17,81.39 868.58,74.72 876.00,82.21 883.42,97.76 890.83,104.25 898.25,107.57 905.67,97.54 913.08,87.34 920.50,88.45 927.92,86.06 935.33,88.09 942.75,83.24 950.17,90.13 957.58,89.61 965.00,101.41" fill="none" stroke="#9333ea" stroke-width="2"/>
<text x="615.0" y="338" font-family="sans-serif" font-size="12" fill="#9333ea">consumer-4</text>
<polyline points="75.00,179.52 82.42,188.40 89.83,187.39 97.25,187.59 104.67,166.10 112.08,120.50 119.50,89.16 126.92,65.33 134.33,58.38 141.75,45.00 149.17,65.42 156.58,78.64 164.00,86.56 171.42,95.17 178.83,95.25 186.25,102.69 193.67,105.86 201.08,106.40 208.50,109.80 215.92,98.36 223.33,101.82 230.75,94.40 238.17,79.03 245.58,88.27 253.00,91.60 260.42,97.71 267.83,107.87 275.25,90.83 282.67,86.33 290.08,88.53 297.50,84.08 304.92,87.50 312.33,84.78 319.75,72.63 327.17,70.05 334.58,76.20 342.00,71.42 349.42,80.18 356.83,78.80 364.25,76.15 371.67,72.29 379.08,64.88 386.50,75.66 393.92,66.52 401.33,76.35 408.75,84.85 416.17,82.59 423.58,93.76 431.00,101.40 438.42,105.24 445.83,97.39 453.25,94.90 460.67,86.97 468.08,76.38 475.50,80.79 482.92,85.04 490.33,80.92 497.75,90.61 505.17,93.05 512.58,99.78 520.00,102.78 527.42,96.77 534.83,96.58 542.25,92.38 549.67,92.51 557.08,95.16 564.50,89.16 571.92,90.41 579.33,93.96 586.75,92.31 594.17,96.93 601.58,94.58 609.00,91.39 616.42,96.11 623.83,80.74 631.25,75.86 638.67,75.53 646.08,72.37 653.50,87.82 660.92,87.83 668.33,92.49 675.75,92.09 683.17,90.89 690.58,94.98 698.00,86.76 705.42,83.30 712.83,84.30 720.25,94.45 727.67,101.15 735.08,102.91 742.50,96.19 749.92,86.18 757.33,80.16 764.75,78.64 772.17,82.44 779.58,92.66 787.00,94.55 794.42,96.90 801.83,93.76 809.25,79.99 816.67,72.83 824.08,69.74 831.50,67.85 838.92,74.21 846.33,81.20 853.75,78.20 861.17,87.89 868.58,85.69 876.00,94.40 883.42,106.49 890.83,101.61 898.25,100.98 905.67,91.44 913.08,86.08 920.50,86.86 927.92,82.10 935.33,86.53 942.75,79.17 950.17,85.30 957.58,90.41 965.00,104.64" fill="none" stroke="#ea580c" stroke-width="2"/>
<text x="795.0" y="338" font-family="sans-serif" font-size="12" fill="#ea580c">consumer-5</text>
<polyline points="75.00,176.03 82.42,185.91 89.83,191.37 97.25,188.98 104.67,178.12 112.08,129.19 119.50,97.58 126.92,79.45 134.33,75.57 141.75,63.49 149.17,70.76 156.58,75.48 164.00,89.31 171.42,96.26 178.83,92.77 186.25,91.54 193.67,82.91 201.08,90.79 208.50,99.55 215.92,100.39 223.33,98.13 230.75,94.06 238.17,82.94 245.58,82.65 253.00,85.59 260.42,73.89 267.83,78.00 275.25,75.96 282.67,75.49 290.08,86.92 297.50,91.34 304.92,91.70 312.33,87.62 319.75,77.16 327.17,75.86 334.58,77.74 342.00,86.33 349.42,89.83 356.83,87.18 364.25,81.72 371.67,67.95 379.08,68.88 386.50,74.02 393.92,79.99 401.33,90.41 408.75,91.54 416.17,84.72 423.58,89.37 431.00,89.18 438.42,91.19 445.83,84.14 453.25,76.48 460.67,68.78 468.08,71.68 475.50,77.34 482.92,85.33 490.33,94.24 497.75,97.53 505.17,103.20 512.58,94.58 520.00,87.27 527.42,82.46 534.83,74.57 542.25,84.97 549.67,94.09 557.08,86.98 564.50,95.93 571.92,87.22 579.33,89.21 586.75,99.71 594.17,100.68 601.58,100.04 609.00,88.40 616.42,83.94 623.83,82.55 631.25,83.88 638.67,80.84 646.08,81.00 653.50,78.22 660.92,81.91 668.33,97.19 675.75,95.03 683.17,95.55 690.58,93.35 698.00,80.52 705.42,75.83 712.83,77.09 720.25,75.48 727.67,84.82 735.08,95.02 742.50,87.30 749.92,85.43 757.33,79.49 764.75,70.38 772.17,76.17 779.58,86.38 787.00,88.89 794.42,93.63 801.83,101.42 809.25,96.22 816.67,93.99 824.08,90.69 831.50,78.51 838.92,76.90 846.33,67.87 853.75,68.01 861.17,72.17 868.58,73.53 876.00,82.68 883.42,94.38 890.83,94.43 898.25,91.13 905.67,91.12 913.08,85.92 920.50,88.78 927.92,94.68 935.33,92.00 942.75,87.37 950.17,88.77 957.58,89.14 965.00,102.82" fill="none" stroke="#0891b2" stroke-width="2"/>
<text x="975.0" y="338" font-family="sans-serif" font-size="12" fill="#0891b2">consumer-6</text>
</svg>
