<svg xmlns="http://www.w3.org/2000/svg" width="1000" height="360">
<rect width="100%" height="100%" fill="white"/>
<text x="75.0" y="24" font-family="sans-serif" font-size="18" font-weight="bold">Processed outbox records / second during production</text>
<line x1="75.0" y1="45.0" x2="75.0" y2="305.0" stroke="#64748b"/>
<line x1="75.0" y1="305.0" x2="965.0" y2="305.0" stroke="#64748b"/>
<text x="8" y="50" font-family="sans-serif" font-size="12">11027.87</text>
<polyline points="75.00,171.72 82.42,182.93 89.83,186.93 97.25,185.77 104.67,161.83 112.08,110.14 119.50,79.15 126.92,58.47 134.33,54.53 141.75,45.00 149.17,50.56 156.58,54.29 164.00,59.04 171.42,67.75 178.83,67.80 186.25,73.23 193.67,75.18 201.08,73.77 208.50,77.38 215.92,76.01 223.33,75.36 230.75,76.22 238.17,72.69 245.58,74.61 253.00,78.29 260.42,75.48 267.83,75.93 275.25,69.17 282.67,66.33 290.08,68.55 297.50,69.69 304.92,70.46 312.33,67.44 319.75,59.17 327.17,56.23 334.58,59.74 342.00,63.66 349.42,67.55 356.83,68.78 364.25,65.03 371.67,58.90 379.08,59.15 386.50,63.21 393.92,63.37 401.33,65.57 408.75,66.64 416.17,64.46 423.58,71.78 431.00,75.57 438.42,78.72 445.83,73.83 453.25,67.26 460.67,63.10 468.08,60.96 475.50,63.37 482.92,67.56 490.33,69.00 497.75,73.60 505.17,75.31 512.58,71.44 520.00,70.08 527.42,65.00 534.83,69.23 542.25,70.30 549.67,72.05 557.08,73.77 564.50,70.58 571.92,69.63 579.33,69.44 586.75,69.01 594.17,68.63 601.58,66.55 609.00,66.81 616.42,66.22 623.83,63.83 631.25,69.53 638.67,66.75 646.08,68.51 653.50,72.65 660.92,73.01 668.33,79.72 675.75,76.89 683.17,73.77 690.58,71.30 698.00,63.35 705.42,63.84 712.83,63.47 720.25,68.06 727.67,76.41 735.08,77.60 742.50,76.61 749.92,70.44 757.33,66.22 764.75,65.47 772.17,68.50 779.58,79.27 787.00,78.77 794.42,78.88 801.83,79.21 809.25,69.29 816.67,64.00 824.08,60.81 831.50,56.49 838.92,61.15 846.33,63.78 853.75,63.18 861.17,63.36 868.58,60.15 876.00,66.56 883.42,77.05 890.83,79.42 898.25,78.13 905.67,71.47 913.08,64.17 920.50,65.88 927.92,67.37 935.33,68.60 942.75,66.97 950.17,71.36 957.58,75.50 965.00,89.63" fill="none" stroke="#2563eb" stroke-width="2"/>
<text x="75.0" y="338" font-family="sans-serif" font-size="12" fill="#2563eb">series-1</text>
</svg>
