<svg xmlns="http://www.w3.org/2000/svg" xmlns:xlink="http://www.w3.org/1999/xlink" width="650" zoomAndPan="magnify" viewBox="0 0 375 307.91998" height="400" preserveAspectRatio="xMidYMid meet" version="1.0"><defs><clipPath id="15b918bb82"><path d="M 115.519531 56 L 369 56 L 369 230 L 115.519531 230 Z M 115.519531 56 " clip-rule="nonzero"/></clipPath><clipPath id="9339bae35d"><path d="M 326 136 L 362 136 L 362 299.921875 L 326 299.921875 Z M 326 136 " clip-rule="nonzero"/></clipPath><clipPath id="36ef5d65cf"><path d="M 269 187 L 305 187 L 305 299.921875 L 269 299.921875 Z M 269 187 " clip-rule="nonzero"/></clipPath><clipPath id="e4c4519116"><path d="M 212 210 L 248 210 L 248 299.921875 L 212 299.921875 Z M 212 210 " clip-rule="nonzero"/></clipPath><clipPath id="bee646af28"><path d="M 154 232 L 190 232 L 190 299.921875 L 154 299.921875 Z M 154 232 " clip-rule="nonzero"/></clipPath></defs><path fill="#000000" d="M 196.011719 123.832031 C 194.570312 128.257812 192.347656 131.730469 190.324219 135.445312 C 193.960938 132.972656 197.707031 130.777344 201.769531 129.378906 C 205.296875 128.164062 205.953125 129.664062 203.921875 132.441406 C 202.988281 133.71875 201.765625 134.761719 200.496094 135.773438 C 211.125 132.769531 224.671875 125.667969 212.476562 113.597656 C 201.59375 102.824219 193.570312 116.773438 190.160156 126.09375 C 191.460938 124.789062 192.667969 123.386719 194.210938 122.335938 C 196.136719 121.023438 196.742188 121.585938 196.011719 123.832031 Z M 196.011719 123.832031 " fill-opacity="1" fill-rule="evenodd"/><path fill="#000000" d="M 223.460938 112.640625 C 225.375 114.5 227.289062 116.359375 229.203125 118.21875 C 234.832031 114.554688 240.464844 110.890625 246.097656 107.230469 C 244.347656 105.371094 242.597656 103.511719 240.847656 101.652344 C 235.40625 105.78125 229.609375 109.441406 223.460938 112.640625 Z M 223.460938 112.640625 " fill-opacity="1" fill-rule="evenodd"/><path fill="#000000" d="M 217.101562 111.742188 C 228.246094 105.5 269.070312 82.375 258.171875 69.460938 C 246.832031 56.019531 221.207031 99.070312 215.371094 109.28125 C 214.058594 111.574219 214.578125 113.152344 217.101562 111.742188 Z M 217.101562 111.742188 " fill-opacity="1" fill-rule="evenodd"/><path fill="#000000" d="M 259.679688 65.457031 C 273.984375 75.371094 251.222656 94.988281 243.964844 99.683594 C 245.988281 101.539062 248.011719 103.402344 250.035156 105.257812 C 278.21875 86.703125 311.0625 65.734375 320.40625 31.605469 C 308.425781 27.578125 299.410156 18.523438 295.800781 6.34375 C 259.292969 16.953125 241.933594 47.921875 222.148438 77.207031 C 224.007812 79.175781 225.867188 81.144531 227.726562 83.113281 C 233.921875 73.625 247.917969 57.308594 259.679688 65.457031 Z M 287.515625 53.75 C 279.769531 53.75 273.492188 47.472656 273.492188 39.726562 C 273.492188 31.980469 279.769531 25.699219 287.515625 25.699219 C 295.261719 25.699219 301.542969 31.980469 301.542969 39.726562 C 301.542969 47.472656 295.261719 53.75 287.515625 53.75 Z M 287.515625 53.75 " fill-opacity="1" fill-rule="evenodd"/><path fill="#000000" d="M 276.445312 92.136719 C 265.992188 100.265625 255.339844 107.699219 244.292969 113.789062 C 241.667969 120.570312 239.042969 127.351562 236.417969 134.132812 C 257.621094 127.460938 275.082031 116.042969 276.445312 92.136719 Z M 276.445312 92.136719 " fill-opacity="1" fill-rule="evenodd"/><path fill="#000000" d="M 214.273438 103.128906 C 217.027344 97.40625 220.332031 91.777344 225.101562 86.394531 C 223.296875 84.480469 221.492188 82.566406 219.6875 80.652344 C 216.023438 86.285156 212.359375 91.917969 208.695312 97.550781 C 210.554688 99.410156 212.414062 101.269531 214.273438 103.128906 Z M 214.273438 103.128906 " fill-opacity="1" fill-rule="evenodd"/><path fill="#000000" d="M 193.277344 90.660156 C 200.054688 88.089844 206.835938 85.519531 213.617188 82.949219 C 219.222656 71.414062 226.65625 60.9375 234.941406 50.964844 C 210.746094 49.59375 200.582031 71.605469 193.277344 90.660156 Z M 193.277344 90.660156 " fill-opacity="1" fill-rule="evenodd"/><path fill="#000000" d="M 299.378906 6.332031 C 302.929688 17.460938 310.582031 23.84375 320.210938 27.9375 C 322.878906 29.070312 326.144531 4.011719 326.890625 0.0273438 C 323.457031 0.6875 298.773438 4.429688 299.378906 6.332031 Z M 299.378906 6.332031 " fill-opacity="1" fill-rule="evenodd"/><g clip-path="url(#15b918bb82)"><path fill="#000000" d="M 352.511719 62.023438 C 334.785156 68.800781 333.671875 66.59375 345.867188 76.101562 L 256.105469 176.617188 L 195.246094 161.6875 L 115.519531 223.261719 L 120.277344 229.109375 L 196.558594 170.054688 L 258.894531 185.148438 L 351.871094 80.929688 C 365.648438 92.386719 362.890625 92.597656 366.019531 72.988281 C 369.304688 52.4375 371.953125 54.589844 352.515625 62.023438 Z M 352.511719 62.023438 " fill-opacity="1" fill-rule="evenodd"/></g><g clip-path="url(#9339bae35d)"><path fill="#000000" d="M 326.519531 136.921875 L 361.789062 136.921875 L 361.789062 299.894531 L 326.519531 299.894531 Z M 326.519531 136.921875 " fill-opacity="1" fill-rule="evenodd"/></g><g clip-path="url(#36ef5d65cf)"><path fill="#000000" d="M 269.71875 187.773438 L 304.988281 187.773438 L 304.988281 299.894531 L 269.71875 299.894531 Z M 269.71875 187.773438 " fill-opacity="1" fill-rule="evenodd"/></g><g clip-path="url(#e4c4519116)"><path fill="#000000" d="M 212.304688 210.410156 L 247.574219 210.410156 L 247.574219 299.894531 L 212.304688 299.894531 Z M 212.304688 210.410156 " fill-opacity="1" fill-rule="evenodd"/></g><g clip-path="url(#bee646af28)"><path fill="#000000" d="M 154.726562 232.554688 L 189.996094 232.554688 L 189.996094 299.894531 L 154.726562 299.894531 Z M 154.726562 232.554688 " fill-opacity="1" fill-rule="evenodd"/></g></svg>