<svg xmlns="http://www.w3.org/2000/svg" xmlns:xlink="http://www.w3.org/1999/xlink" width="650" zoomAndPan="magnify" viewBox="0 0 487.5 299.999988" height="400" preserveAspectRatio="xMidYMid meet" version="1.0"><defs><clipPath id="1d9f61f395"><path d="M 290 176 L 413.613281 176 L 413.613281 299.84375 L 290 299.84375 Z M 290 176 " clip-rule="nonzero"/></clipPath><clipPath id="787d8456dd"><path d="M 73.460938 0.152344 L 323 0.152344 L 323 251 L 73.460938 251 Z M 73.460938 0.152344 " clip-rule="nonzero"/></clipPath></defs><g clip-path="url(#1d9f61f395)"><path fill="#000000" d="M 352.074219 176.632812 C 318.113281 176.632812 290.574219 204.167969 290.574219 238.121094 C 290.574219 272.074219 318.113281 299.609375 352.074219 299.609375 C 386.039062 299.609375 413.578125 272.074219 413.578125 238.121094 C 413.578125 204.167969 386.039062 176.632812 352.074219 176.632812 Z M 384.078125 252.480469 C 386.425781 254.824219 387.714844 257.929688 387.714844 261.246094 C 387.714844 264.5625 386.425781 267.667969 384.078125 270.011719 C 381.855469 272.234375 378.644531 273.523438 375.3125 273.523438 C 371.976562 273.523438 368.765625 272.234375 366.542969 270.011719 L 352.09375 255.566406 L 337.644531 270.011719 C 333.214844 274.4375 324.535156 274.4375 320.105469 270.011719 C 317.761719 267.667969 316.472656 264.5625 316.472656 261.246094 C 316.472656 257.929688 317.761719 254.824219 320.105469 252.480469 L 334.554688 238.035156 L 320.105469 223.585938 C 317.761719 221.242188 316.472656 218.136719 316.472656 214.820312 C 316.472656 211.503906 317.761719 208.402344 320.105469 206.054688 C 324.535156 201.628906 333.214844 201.628906 337.644531 206.054688 L 352.09375 220.5 L 366.542969 206.054688 C 370.96875 201.628906 379.652344 201.628906 384.078125 206.054688 C 386.425781 208.402344 387.714844 211.503906 387.714844 214.820312 C 387.714844 218.136719 386.425781 221.242188 384.078125 223.585938 L 369.628906 238.035156 Z M 384.078125 252.480469 " fill-opacity="1" fill-rule="nonzero"/></g><g clip-path="url(#787d8456dd)"><path fill="#000000" d="M 271.183594 236.675781 C 271.183594 202.6875 292.65625 173.6875 322.71875 162.363281 L 237.117188 14.058594 C 226.671875 -3.949219 200.683594 -3.949219 190.238281 14.058594 L 77.167969 209.988281 C 66.722656 227.996094 79.726562 250.503906 100.492188 250.503906 L 272.453125 250.503906 C 271.660156 246.007812 271.164062 241.402344 271.164062 236.691406 Z M 198.601562 69.65625 C 198.601562 61.347656 205.359375 54.59375 213.667969 54.59375 C 221.976562 54.59375 228.734375 61.347656 228.734375 69.65625 L 228.734375 135.238281 C 228.734375 143.542969 221.976562 150.300781 213.667969 150.300781 C 205.359375 150.300781 198.601562 143.542969 198.601562 135.238281 Z M 213.667969 216.902344 C 201.757812 216.902344 192.054688 207.21875 192.054688 195.296875 C 192.054688 183.371094 201.742188 173.6875 213.667969 173.6875 C 225.59375 173.6875 235.28125 183.371094 235.28125 195.296875 C 235.28125 207.21875 225.59375 216.902344 213.667969 216.902344 Z M 213.667969 216.902344 " fill-opacity="1" fill-rule="nonzero"/></g></svg>