<svg xmlns="http://www.w3.org/2000/svg" xmlns:xlink="http://www.w3.org/1999/xlink" width="650" zoomAndPan="magnify" viewBox="0 0 375 307.91998" height="400" preserveAspectRatio="xMidYMid meet" version="1.0"><defs><clipPath id="1eca8ee373"><path d="M 74.046875 76 L 329 76 L 329 299.921875 L 74.046875 299.921875 Z M 74.046875 76 " clip-rule="nonzero"/></clipPath><clipPath id="893d39fcd1"><path d="M 74.046875 7.5 L 74.046875 292.425781 C 74.046875 296.566406 77.40625 299.921875 81.546875 299.921875 L 405.925781 299.921875 C 410.066406 299.921875 413.421875 296.566406 413.421875 292.425781 L 413.421875 7.5 C 413.421875 3.355469 410.066406 0 405.925781 0 L 81.546875 0 C 77.40625 0 74.046875 3.355469 74.046875 7.5 Z M 74.046875 7.5 " clip-rule="nonzero"/></clipPath><clipPath id="176efcfed0"><path d="M 212 0 L 374.949219 0 L 374.949219 201 L 212 201 Z M 212 0 " clip-rule="nonzero"/></clipPath><clipPath id="ad9941a819"><path d="M 74.046875 7.5 L 74.046875 292.425781 C 74.046875 296.566406 77.40625 299.921875 81.546875 299.921875 L 405.925781 299.921875 C 410.066406 299.921875 413.421875 296.566406 413.421875 292.425781 L 413.421875 7.5 C 413.421875 3.355469 410.066406 0 405.925781 0 L 81.546875 0 C 77.40625 0 74.046875 3.355469 74.046875 7.5 Z M 74.046875 7.5 " clip-rule="nonzero"/></clipPath><clipPath id="486172ad59"><path d="M 281 27 L 336 27 L 336 81 L 281 81 Z M 281 27 " clip-rule="nonzero"/></clipPath><clipPath id="d38650182b"><path d="M 74.046875 7.5 L 74.046875 292.425781 C 74.046875 296.566406 77.40625 299.921875 81.546875 299.921875 L 405.925781 299.921875 C 410.066406 299.921875 413.421875 296.566406 413.421875 292.425781 L 413.421875 7.5 C 413.421875 3.355469 410.066406 0 405.925781 0 L 81.546875 0 C 77.40625 0 74.046875 3.355469 74.046875 7.5 Z M 74.046875 7.5 " clip-rule="nonzero"/></clipPath><clipPath id="f0d92fa889"><path d="M 102 108 L 229 108 L 229 195 L 102 195 Z M 102 108 " clip-rule="nonzero"/></clipPath><clipPath id="c6993517eb"><path d="M 74.046875 7.5 L 74.046875 292.425781 C 74.046875 296.566406 77.40625 299.921875 81.546875 299.921875 L 405.925781 299.921875 C 410.066406 299.921875 413.421875 296.566406 413.421875 292.425781 L 413.421875 7.5 C 413.421875 3.355469 410.066406 0 405.925781 0 L 81.546875 0 C 77.40625 0 74.046875 3.355469 74.046875 7.5 Z M 74.046875 7.5 " clip-rule="nonzero"/></clipPath></defs><g clip-path="url(#1eca8ee373)"><g clip-path="url(#893d39fcd1)"><path fill="#000000" d="M 322.519531 164.132812 C 319.285156 164.132812 316.660156 166.753906 316.660156 169.984375 L 316.660156 214.34375 L 85.765625 214.34375 L 85.765625 101.847656 C 85.765625 94.144531 92.082031 87.882812 99.839844 87.882812 L 194.429688 87.882812 C 197.664062 87.882812 200.289062 85.261719 200.289062 82.027344 C 200.289062 78.796875 197.664062 76.175781 194.429688 76.175781 L 99.839844 76.175781 C 85.613281 76.175781 74.046875 87.691406 74.046875 101.847656 L 74.046875 234.613281 C 74.046875 248.828125 85.613281 260.382812 99.839844 260.382812 L 170.058594 260.382812 L 170.058594 288.171875 L 152.242188 288.171875 C 149.007812 288.171875 146.386719 290.796875 146.386719 294.027344 C 146.386719 297.257812 149.007812 299.882812 152.242188 299.882812 L 250.164062 299.882812 C 253.398438 299.882812 256.019531 297.257812 256.019531 294.027344 C 256.019531 290.796875 253.398438 288.171875 250.164062 288.171875 L 232.347656 288.171875 L 232.347656 260.382812 L 302.585938 260.382812 C 316.8125 260.382812 328.378906 248.828125 328.378906 234.613281 L 328.378906 169.984375 C 328.378906 166.753906 325.753906 164.132812 322.519531 164.132812 Z M 220.628906 288.171875 L 181.777344 288.171875 L 181.777344 260.382812 L 220.628906 260.382812 Z M 302.585938 248.675781 L 99.839844 248.675781 C 92.082031 248.675781 85.765625 242.363281 85.765625 234.613281 L 85.765625 226.050781 L 316.660156 226.050781 L 316.660156 234.613281 C 316.660156 242.363281 310.34375 248.675781 302.585938 248.675781 Z M 302.585938 248.675781 " fill-opacity="1" fill-rule="nonzero"/></g></g><g clip-path="url(#176efcfed0)"><g clip-path="url(#ad9941a819)"><path fill="#000000" d="M 403.929688 152.273438 L 353.683594 109.074219 C 359.0625 98.765625 362.15625 87.074219 362.15625 74.664062 C 362.15625 33.496094 328.644531 0.00390625 287.441406 0.00390625 C 246.242188 0.00390625 212.71875 33.496094 212.71875 74.664062 C 212.71875 115.828125 246.242188 149.320312 287.441406 149.320312 C 299.875 149.320312 311.582031 146.226562 321.90625 140.835938 L 365.160156 190.976562 C 370.113281 196.746094 377.308594 200.234375 384.902344 200.519531 C 385.257812 200.539062 385.601562 200.539062 385.953125 200.539062 C 393.214844 200.539062 400.257812 197.640625 405.417969 192.476562 C 410.789062 187.117188 413.710938 179.691406 413.441406 172.109375 C 413.167969 164.503906 409.703125 157.277344 403.929688 152.273438 Z M 224.4375 74.664062 C 224.4375 39.949219 252.699219 11.710938 287.441406 11.710938 C 322.175781 11.710938 350.4375 39.949219 350.4375 74.664062 C 350.4375 109.375 322.175781 137.613281 287.441406 137.613281 C 252.699219 137.613281 224.4375 109.375 224.4375 74.664062 Z M 397.136719 184.199219 C 393.988281 187.347656 389.835938 189.035156 385.359375 188.8125 C 380.953125 188.652344 376.945312 186.707031 374.054688 183.34375 L 331.921875 134.511719 C 337.785156 130.144531 342.980469 124.957031 347.347656 119.089844 L 396.269531 161.136719 C 399.625 164.046875 401.5625 168.097656 401.726562 172.53125 C 401.878906 176.933594 400.246094 181.082031 397.136719 184.199219 Z M 397.136719 184.199219 " fill-opacity="1" fill-rule="nonzero"/></g></g><g clip-path="url(#486172ad59)"><g clip-path="url(#d38650182b)"><path fill="#000000" d="M 335.140625 74.660156 C 335.140625 48.375 313.75 27 287.441406 27 C 284.207031 27 281.582031 29.621094 281.582031 32.851562 C 281.582031 36.085938 284.207031 38.707031 287.441406 38.707031 C 307.28125 38.707031 323.425781 54.839844 323.425781 74.660156 C 323.425781 77.890625 326.050781 80.511719 329.285156 80.511719 C 332.519531 80.511719 335.140625 77.890625 335.140625 74.660156 Z M 335.140625 74.660156 " fill-opacity="1" fill-rule="nonzero"/></g></g><g clip-path="url(#f0d92fa889)"><g clip-path="url(#c6993517eb)"><path fill="#000000" d="M 187.101562 149.050781 L 176.328125 171.226562 L 162.28125 113.394531 C 161.699219 110.992188 159.667969 109.21875 157.214844 108.949219 C 154.773438 108.683594 152.398438 109.988281 151.308594 112.222656 L 135.011719 145.75 L 108.160156 145.75 C 104.925781 145.75 102.300781 148.371094 102.300781 151.605469 C 102.300781 154.835938 104.925781 157.457031 108.160156 157.457031 L 138.683594 157.457031 C 140.925781 157.457031 142.980469 156.179688 143.960938 154.160156 L 154.734375 131.992188 L 168.78125 189.824219 C 169.363281 192.226562 171.394531 194 173.847656 194.265625 C 174.054688 194.285156 174.265625 194.296875 174.476562 194.296875 C 176.699219 194.296875 178.761719 193.039062 179.753906 190.996094 L 196.050781 157.457031 L 222.902344 157.457031 C 226.136719 157.457031 228.761719 154.835938 228.761719 151.605469 C 228.761719 148.371094 226.136719 145.75 222.902344 145.75 L 192.375 145.75 C 190.132812 145.75 188.082031 147.027344 187.101562 149.050781 Z M 187.101562 149.050781 " fill-opacity="1" fill-rule="nonzero"/></g></g></svg>