<svg xmlns="http://www.w3.org/2000/svg" xmlns:xlink="http://www.w3.org/1999/xlink" width="650" zoomAndPan="magnify" viewBox="0 0 487.5 299.999988" height="400" preserveAspectRatio="xMidYMid meet" version="1.0"><defs><clipPath id="2028384edf"><path d="M 93.652344 0.152344 L 393.347656 0.152344 L 393.347656 299.84375 L 93.652344 299.84375 Z M 93.652344 0.152344 " clip-rule="nonzero"/></clipPath></defs><g clip-path="url(#2028384edf)"><path fill="#000000" d="M 205.199219 140.632812 C 204.476562 138.003906 203.410156 135.433594 202.035156 132.988281 C 201.472656 131.992188 201.40625 130.796875 201.84375 129.734375 L 204.121094 124.269531 L 197.527344 117.675781 L 192.066406 119.960938 C 191.007812 120.398438 189.808594 120.332031 188.8125 119.765625 C 186.371094 118.394531 183.789062 117.328125 181.15625 116.605469 C 180.042969 116.292969 179.140625 115.496094 178.707031 114.429688 L 176.453125 108.9375 L 167.140625 108.9375 L 164.886719 114.429688 C 164.445312 115.496094 163.542969 116.292969 162.433594 116.605469 C 159.78125 117.328125 157.21875 118.394531 154.796875 119.761719 C 153.800781 120.324219 152.601562 120.398438 151.542969 119.960938 L 146.054688 117.675781 L 139.472656 124.257812 L 141.746094 129.742188 C 142.179688 130.804688 142.113281 131.996094 141.546875 132.988281 C 140.210938 135.378906 139.140625 137.953125 138.378906 140.652344 C 138.070312 141.75 137.277344 142.640625 136.222656 143.082031 L 130.726562 145.359375 L 130.726562 154.660156 L 136.21875 156.917969 C 137.269531 157.351562 138.070312 158.25 138.378906 159.347656 C 139.140625 162.046875 140.210938 164.628906 141.546875 167.011719 C 142.109375 168.007812 142.179688 169.203125 141.746094 170.257812 L 139.472656 175.742188 L 146.046875 182.335938 L 151.546875 180.058594 C 152.605469 179.617188 153.800781 179.691406 154.796875 180.257812 C 157.164062 181.59375 159.738281 182.660156 162.453125 183.421875 C 163.546875 183.730469 164.445312 184.527344 164.878906 185.585938 L 167.132812 191.0625 L 176.449219 191.0625 L 178.703125 185.585938 C 179.136719 184.527344 180.035156 183.730469 181.136719 183.421875 C 183.839844 182.664062 186.417969 181.601562 188.808594 180.25 C 189.804688 179.691406 191 179.617188 192.0625 180.058594 L 197.539062 182.335938 L 204.121094 175.734375 L 201.84375 170.261719 C 201.40625 169.210938 201.472656 168.007812 202.035156 167.011719 C 203.410156 164.570312 204.476562 161.996094 205.199219 159.363281 C 205.507812 158.261719 206.308594 157.359375 207.367188 156.917969 L 212.859375 154.660156 L 212.859375 145.359375 L 207.359375 143.078125 C 206.300781 142.640625 205.507812 141.734375 205.199219 140.632812 Z M 160.816406 161.675781 C 157.703125 158.734375 155.914062 154.765625 155.78125 150.484375 C 155.652344 146.210938 157.195312 142.144531 160.136719 139.03125 C 163.0625 135.914062 167.03125 134.125 171.3125 133.996094 C 171.472656 133.996094 171.640625 133.988281 171.808594 133.988281 C 175.898438 133.988281 179.777344 135.527344 182.765625 138.347656 L 182.773438 138.347656 C 185.886719 141.277344 187.671875 145.246094 187.800781 149.527344 C 187.929688 153.804688 186.390625 157.871094 183.453125 160.988281 C 180.519531 164.101562 176.550781 165.890625 172.277344 166.019531 C 168 166.15625 163.929688 164.601562 160.816406 161.675781 Z M 393.347656 150 C 393.347656 193.089844 358.289062 228.148438 315.199219 228.148438 C 286.746094 228.148438 260.515625 212.660156 246.753906 187.730469 C 239.300781 174.238281 237.648438 163.65625 237.085938 147.675781 C 236.492188 130.714844 229.4375 114.867188 217.222656 103.046875 C 204.976562 91.203125 188.847656 84.675781 171.800781 84.675781 C 135.773438 84.675781 106.460938 113.980469 106.460938 150 C 106.460938 186.015625 135.773438 215.339844 171.800781 215.339844 L 172.835938 215.339844 C 182.449219 215.339844 190.269531 223.160156 190.269531 232.773438 L 190.269531 270.300781 C 190.269531 272.351562 191.933594 274.015625 193.984375 274.015625 L 202.464844 274.015625 C 203.261719 274.015625 203.886719 274.410156 204.210938 275.109375 C 204.546875 275.84375 204.453125 276.5625 203.945312 277.167969 L 185.332031 299.171875 C 184.933594 299.644531 184.5 299.84375 183.875 299.84375 C 183.253906 299.84375 182.816406 299.644531 182.414062 299.160156 L 163.820312 277.183594 C 163.457031 276.746094 163.109375 276.039062 163.53125 275.132812 C 163.867188 274.410156 164.492188 274.015625 165.289062 274.015625 L 173.75 274.015625 C 175.800781 274.015625 177.464844 272.351562 177.464844 270.296875 L 177.464844 236.054688 C 177.464844 231.734375 174.078125 228.246094 169.738281 228.109375 C 127.074219 227.007812 93.652344 192.695312 93.652344 150 C 93.652344 106.917969 128.710938 71.871094 171.800781 71.871094 C 200.253906 71.871094 226.484375 87.355469 240.25 112.285156 C 246.214844 123.074219 249.554688 135.347656 249.910156 147.792969 C 249.308594 165.648438 255.808594 182.546875 268.214844 195.402344 C 280.625 208.257812 297.3125 215.335938 315.199219 215.335938 C 351.226562 215.335938 380.539062 186.027344 380.539062 150 C 380.539062 113.96875 351.226562 84.675781 315.199219 84.675781 L 314.148438 84.675781 C 304.535156 84.675781 296.710938 76.855469 296.710938 67.242188 L 296.710938 29.714844 C 296.710938 27.664062 295.046875 26 292.996094 26 L 284.519531 26 C 283.722656 26 283.121094 25.613281 282.78125 24.882812 C 282.445312 24.167969 282.550781 23.433594 283.058594 22.828125 L 301.632812 0.847656 C 302.050781 0.359375 302.496094 0.152344 303.125 0.152344 C 303.746094 0.152344 304.179688 0.355469 304.585938 0.835938 L 323.175781 22.832031 C 323.695312 23.445312 323.789062 24.152344 323.441406 24.90625 C 323.117188 25.613281 322.503906 26 321.710938 26 L 313.234375 26 C 311.183594 26 309.519531 27.664062 309.519531 29.714844 L 309.519531 63.941406 C 309.519531 68.222656 312.996094 71.789062 317.261719 71.886719 C 359.925781 72.992188 393.347656 107.300781 393.347656 150 Z M 277.367188 152.628906 C 276.667969 151.929688 276.277344 150.984375 276.277344 150 C 276.277344 149.011719 276.667969 148.066406 277.367188 147.371094 L 292.195312 132.554688 C 293.648438 131.105469 296 131.105469 297.449219 132.558594 C 298.898438 134.011719 298.898438 136.363281 297.449219 137.8125 L 285.25 150 L 297.449219 162.183594 C 298.898438 163.632812 298.902344 165.984375 297.449219 167.4375 C 296.726562 168.164062 295.773438 168.527344 294.820312 168.527344 C 293.871094 168.527344 292.921875 168.164062 292.195312 167.441406 L 277.367188 152.625 Z M 332.953125 162.183594 L 345.152344 150 L 332.953125 137.816406 C 331.5 136.363281 331.5 134.011719 332.949219 132.5625 C 334.398438 131.109375 336.75 131.105469 338.203125 132.558594 L 353.035156 147.371094 C 353.734375 148.070312 354.125 149.015625 354.125 150 C 354.125 150.988281 353.734375 151.933594 353.035156 152.628906 L 338.203125 167.445312 C 337.476562 168.167969 336.527344 168.53125 335.578125 168.53125 C 334.628906 168.53125 333.675781 168.167969 332.949219 167.441406 C 331.5 165.988281 331.5 163.636719 332.953125 162.1875 Z M 307.148438 180.09375 C 305.167969 179.5625 303.988281 177.523438 304.519531 175.542969 L 318.703125 122.554688 C 319.230469 120.570312 321.269531 119.394531 323.25 119.925781 C 325.230469 120.453125 326.410156 122.492188 325.878906 124.472656 L 311.695312 177.464844 C 311.253906 179.125 309.75 180.21875 308.109375 180.21875 C 307.792969 180.21875 307.46875 180.179688 307.148438 180.09375 Z M 307.148438 180.09375 " fill-opacity="1" fill-rule="nonzero"/></g></svg>