<svg xmlns="http://www.w3.org/2000/svg" xmlns:xlink="http://www.w3.org/1999/xlink" width="575" zoomAndPan="magnify" viewBox="0 0 431.25 189.000001" height="252" preserveAspectRatio="xMidYMid meet" version="1.0"><defs><g/><clipPath id="3e968c827a"><path d="M 143.585938 34 L 286.828125 34 L 286.828125 99.972656 L 143.585938 99.972656 Z M 143.585938 34 " clip-rule="nonzero"/></clipPath><clipPath id="02cde98aa5"><rect x="0" width="141" y="0" height="25"/></clipPath></defs><path fill="#ffde59" d="M 215.15625 0.0585938 C 178.796875 0.0585938 149.324219 29.535156 149.324219 65.894531 C 149.324219 72.988281 150.449219 79.820312 152.527344 86.222656 L 157.859375 80.890625 C 156.609375 76.101562 155.941406 71.074219 155.941406 65.894531 C 155.941406 33.1875 182.453125 6.679688 215.15625 6.679688 C 247.859375 6.679688 274.371094 33.1875 274.371094 65.894531 C 274.371094 68.621094 274.183594 71.308594 273.828125 73.9375 L 279.023438 81.90625 C 280.304688 76.777344 280.988281 71.417969 280.988281 65.894531 C 280.988281 29.535156 251.515625 0.0585938 215.15625 0.0585938 " fill-opacity="1" fill-rule="nonzero"/><g clip-path="url(#3e968c827a)"><path fill="#ffde59" d="M 199.328125 89.871094 L 202.703125 80.863281 L 235.605469 97.925781 L 209.667969 66.679688 L 244.269531 84.347656 L 237.609375 76.050781 L 249.464844 70.007812 L 286.726562 100.132812 L 244.023438 34.703125 L 224.78125 58.335938 L 206.738281 46.90625 L 189.898438 67.417969 L 181.984375 61.734375 L 143.585938 100.132812 L 172.164062 94.242188 L 178.488281 86.878906 L 205.65625 100.132812 L 199.328125 89.871094 " fill-opacity="1" fill-rule="nonzero"/></g><g fill="#ffffff" fill-opacity="1"><g transform="translate(10.427978, 141.638584)"><g><path d="M 2.390625 0 L 2.390625 -24.46875 L 7.8125 -24.46875 L 7.8125 -22.140625 C 9.851562 -24.078125 12.15625 -25.046875 14.71875 -25.046875 C 18.1875 -25.046875 20.734375 -23.867188 22.359375 -21.515625 C 23.003906 -20.578125 23.457031 -19.488281 23.71875 -18.25 C 23.988281 -17.007812 24.125 -15.300781 24.125 -13.125 L 24.125 0 L 18.25 0 L 18.25 -11.96875 C 18.25 -15.03125 17.863281 -17.078125 17.09375 -18.109375 C 16.300781 -19.140625 15.125 -19.65625 13.5625 -19.65625 C 11.613281 -19.65625 10.171875 -18.90625 9.234375 -17.40625 C 8.585938 -16.375 8.265625 -14.414062 8.265625 -11.53125 L 8.265625 0 Z M 2.390625 0 "/></g></g></g><g fill="#ffffff" fill-opacity="1"><g transform="translate(36.929068, 141.638584)"><g><path d="M 27.171875 -24.46875 L 27.171875 0 L 21.78125 0 L 21.78125 -3.1875 C 20.601562 -1.851562 19.378906 -0.890625 18.109375 -0.296875 C 16.847656 0.285156 15.363281 0.578125 13.65625 0.578125 C 10.09375 0.578125 7.144531 -0.617188 4.8125 -3.015625 C 2.488281 -5.421875 1.328125 -8.46875 1.328125 -12.15625 C 1.328125 -15.894531 2.492188 -18.976562 4.828125 -21.40625 C 7.171875 -23.832031 10.15625 -25.046875 13.78125 -25.046875 C 17.164062 -25.046875 19.832031 -23.765625 21.78125 -21.203125 L 21.78125 -24.46875 Z M 19.578125 -17.53125 C 18.222656 -18.945312 16.5 -19.65625 14.40625 -19.65625 C 12.3125 -19.65625 10.59375 -18.941406 9.25 -17.515625 C 7.914062 -16.085938 7.25 -14.253906 7.25 -12.015625 C 7.25 -9.867188 7.914062 -8.128906 9.25 -6.796875 C 10.59375 -5.472656 12.335938 -4.8125 14.484375 -4.8125 C 16.816406 -4.8125 18.601562 -5.550781 19.84375 -7.03125 C 21.019531 -8.40625 21.609375 -10.082031 21.609375 -12.0625 C 21.609375 -14.300781 20.929688 -16.125 19.578125 -17.53125 Z M 19.578125 -17.53125 "/></g></g></g><g fill="#ffffff" fill-opacity="1"><g transform="translate(66.080263, 141.638584)"><g><path d="M 2.390625 0 L 2.390625 -24.46875 L 7.78125 -24.46875 L 7.78125 -22.171875 C 8.632812 -23.203125 9.546875 -23.9375 10.515625 -24.375 C 11.484375 -24.820312 12.691406 -25.046875 14.140625 -25.046875 C 17.347656 -25.046875 19.75 -23.78125 21.34375 -21.25 C 23.25 -23.78125 25.867188 -25.046875 29.203125 -25.046875 C 31.054688 -25.046875 32.710938 -24.707031 34.171875 -24.03125 C 35.628906 -23.351562 36.742188 -22.394531 37.515625 -21.15625 C 38.566406 -19.476562 39.09375 -17.140625 39.09375 -14.140625 L 39.09375 0 L 33.21875 0 L 33.21875 -13.4375 C 33.21875 -15.726562 32.851562 -17.300781 32.125 -18.15625 C 31.289062 -19.15625 30.125 -19.65625 28.625 -19.65625 C 26.6875 -19.65625 25.316406 -18.875 24.515625 -17.3125 C 23.960938 -16.28125 23.6875 -14.53125 23.6875 -12.0625 L 23.6875 0 L 17.796875 0 L 17.796875 -13.4375 C 17.796875 -15.664062 17.457031 -17.222656 16.78125 -18.109375 C 15.925781 -19.140625 14.675781 -19.65625 13.03125 -19.65625 C 11 -19.65625 9.613281 -18.816406 8.875 -17.140625 C 8.46875 -16.078125 8.265625 -14.382812 8.265625 -12.0625 L 8.265625 0 Z M 2.390625 0 "/></g></g></g><g fill="#ffffff" fill-opacity="1"><g transform="translate(107.598644, 141.638584)"><g><path d="M 27.171875 -24.46875 L 27.171875 0 L 21.78125 0 L 21.78125 -3.1875 C 20.601562 -1.851562 19.378906 -0.890625 18.109375 -0.296875 C 16.847656 0.285156 15.363281 0.578125 13.65625 0.578125 C 10.09375 0.578125 7.144531 -0.617188 4.8125 -3.015625 C 2.488281 -5.421875 1.328125 -8.46875 1.328125 -12.15625 C 1.328125 -15.894531 2.492188 -18.976562 4.828125 -21.40625 C 7.171875 -23.832031 10.15625 -25.046875 13.78125 -25.046875 C 17.164062 -25.046875 19.832031 -23.765625 21.78125 -21.203125 L 21.78125 -24.46875 Z M 19.578125 -17.53125 C 18.222656 -18.945312 16.5 -19.65625 14.40625 -19.65625 C 12.3125 -19.65625 10.59375 -18.941406 9.25 -17.515625 C 7.914062 -16.085938 7.25 -14.253906 7.25 -12.015625 C 7.25 -9.867188 7.914062 -8.128906 9.25 -6.796875 C 10.59375 -5.472656 12.335938 -4.8125 14.484375 -4.8125 C 16.816406 -4.8125 18.601562 -5.550781 19.84375 -7.03125 C 21.019531 -8.40625 21.609375 -10.082031 21.609375 -12.0625 C 21.609375 -14.300781 20.929688 -16.125 19.578125 -17.53125 Z M 19.578125 -17.53125 "/></g></g></g><g fill="#ffffff" fill-opacity="1"><g transform="translate(136.749839, 141.638584)"><g><path d="M 0.84375 -7.78125 L 6.765625 -7.78125 C 7.054688 -6.75 7.457031 -5.992188 7.96875 -5.515625 C 8.488281 -5.046875 9.175781 -4.8125 10.03125 -4.8125 C 10.789062 -4.8125 11.421875 -5.039062 11.921875 -5.5 C 12.429688 -5.957031 12.6875 -6.523438 12.6875 -7.203125 C 12.6875 -7.992188 12.316406 -8.625 11.578125 -9.09375 C 11.109375 -9.394531 10.09375 -9.8125 8.53125 -10.34375 C 6.082031 -11.164062 4.332031 -12.128906 3.28125 -13.234375 C 2.238281 -14.335938 1.71875 -15.785156 1.71875 -17.578125 C 1.71875 -19.671875 2.503906 -21.4375 4.078125 -22.875 C 5.660156 -24.320312 7.585938 -25.046875 9.859375 -25.046875 C 12.421875 -25.046875 14.507812 -24.148438 16.125 -22.359375 C 17.21875 -21.148438 17.804688 -19.601562 17.890625 -17.71875 L 12.15625 -17.71875 C 11.882812 -19.007812 11.117188 -19.65625 9.859375 -19.65625 C 9.203125 -19.65625 8.660156 -19.457031 8.234375 -19.0625 C 7.804688 -18.664062 7.59375 -18.171875 7.59375 -17.578125 C 7.59375 -16.847656 7.992188 -16.304688 8.796875 -15.953125 C 9.171875 -15.773438 10.15625 -15.4375 11.75 -14.9375 C 13.925781 -14.257812 15.429688 -13.566406 16.265625 -12.859375 C 17.796875 -11.648438 18.5625 -9.957031 18.5625 -7.78125 C 18.5625 -5.445312 17.710938 -3.46875 16.015625 -1.84375 C 14.316406 -0.226562 12.25 0.578125 9.8125 0.578125 C 8.332031 0.578125 6.9375 0.273438 5.625 -0.328125 C 4.320312 -0.929688 3.269531 -1.765625 2.46875 -2.828125 C 1.613281 -3.972656 1.070312 -5.625 0.84375 -7.78125 Z M 0.84375 -7.78125 "/></g></g></g><g fill="#ffffff" fill-opacity="1"><g transform="translate(156.183977, 141.638584)"><g><path d="M 3.265625 0 L 3.265625 -19.125 L 0.390625 -19.125 L 0.390625 -24.46875 L 3.265625 -24.46875 L 3.265625 -32.65625 L 9.140625 -32.65625 L 9.140625 -24.46875 L 12.6875 -24.46875 L 12.6875 -19.125 L 9.140625 -19.125 L 9.140625 0 Z M 3.265625 0 "/></g></g></g><g fill="#ffffff" fill-opacity="1"><g transform="translate(169.434528, 141.638584)"><g><path d="M 27.171875 -24.46875 L 27.171875 0 L 21.78125 0 L 21.78125 -3.1875 C 20.601562 -1.851562 19.378906 -0.890625 18.109375 -0.296875 C 16.847656 0.285156 15.363281 0.578125 13.65625 0.578125 C 10.09375 0.578125 7.144531 -0.617188 4.8125 -3.015625 C 2.488281 -5.421875 1.328125 -8.46875 1.328125 -12.15625 C 1.328125 -15.894531 2.492188 -18.976562 4.828125 -21.40625 C 7.171875 -23.832031 10.15625 -25.046875 13.78125 -25.046875 C 17.164062 -25.046875 19.832031 -23.765625 21.78125 -21.203125 L 21.78125 -24.46875 Z M 19.578125 -17.53125 C 18.222656 -18.945312 16.5 -19.65625 14.40625 -19.65625 C 12.3125 -19.65625 10.59375 -18.941406 9.25 -17.515625 C 7.914062 -16.085938 7.25 -14.253906 7.25 -12.015625 C 7.25 -9.867188 7.914062 -8.128906 9.25 -6.796875 C 10.59375 -5.472656 12.335938 -4.8125 14.484375 -4.8125 C 16.816406 -4.8125 18.601562 -5.550781 19.84375 -7.03125 C 21.019531 -8.40625 21.609375 -10.082031 21.609375 -12.0625 C 21.609375 -14.300781 20.929688 -16.125 19.578125 -17.53125 Z M 19.578125 -17.53125 "/></g></g></g><g fill="#ffffff" fill-opacity="1"><g transform="translate(198.585723, 141.638584)"><g><path d="M 19.921875 -8.046875 L 26.546875 -8.046875 C 25.515625 -5.304688 23.945312 -3.179688 21.84375 -1.671875 C 19.738281 -0.171875 17.257812 0.578125 14.40625 0.578125 C 10.78125 0.578125 7.691406 -0.664062 5.140625 -3.15625 C 2.597656 -5.644531 1.328125 -8.671875 1.328125 -12.234375 C 1.328125 -15.828125 2.570312 -18.859375 5.0625 -21.328125 C 7.550781 -23.804688 10.601562 -25.046875 14.21875 -25.046875 C 17.757812 -25.046875 20.765625 -23.898438 23.234375 -21.609375 C 24.710938 -20.253906 25.816406 -18.484375 26.546875 -16.296875 L 19.921875 -16.296875 C 18.742188 -18.535156 16.84375 -19.65625 14.21875 -19.65625 C 12.1875 -19.65625 10.515625 -18.960938 9.203125 -17.578125 C 7.898438 -16.191406 7.25 -14.425781 7.25 -12.28125 C 7.25 -10.132812 7.925781 -8.351562 9.28125 -6.9375 C 10.632812 -5.519531 12.328125 -4.8125 14.359375 -4.8125 C 16.679688 -4.8125 18.535156 -5.890625 19.921875 -8.046875 Z M 19.921875 -8.046875 "/></g></g></g><g fill="#ffffff" fill-opacity="1"><g transform="translate(226.853542, 141.638584)"><g><path d="M 2.390625 0 L 2.390625 -32.65625 L 8.265625 -32.65625 L 8.265625 -12.9375 L 16.078125 -24.46875 L 23.109375 -24.46875 L 14.359375 -12.5 L 24.515625 0 L 16.609375 0 L 8.265625 -11.4375 L 8.265625 0 Z M 2.390625 0 "/></g></g></g><g fill="#ffffff" fill-opacity="1"><g transform="translate(252.471278, 141.638584)"><g><path d="M 1.109375 -16.34375 L 16.5625 -16.34375 L 16.5625 -10.15625 L 1.109375 -10.15625 Z M 1.109375 -16.34375 "/></g></g></g><g fill="#ffffff" fill-opacity="1"><g transform="translate(269.696993, 141.638584)"><g><path d="M 14.265625 -25.046875 C 17.953125 -25.046875 21.050781 -23.796875 23.5625 -21.296875 C 26.082031 -18.796875 27.34375 -15.71875 27.34375 -12.0625 C 27.34375 -8.613281 26.0625 -5.644531 23.5 -3.15625 C 20.9375 -0.664062 17.875 0.578125 14.3125 0.578125 C 10.71875 0.578125 7.65625 -0.671875 5.125 -3.171875 C 2.59375 -5.679688 1.328125 -8.703125 1.328125 -12.234375 C 1.328125 -15.742188 2.59375 -18.753906 5.125 -21.265625 C 7.65625 -23.785156 10.703125 -25.046875 14.265625 -25.046875 Z M 14.3125 -19.65625 C 12.394531 -19.65625 10.738281 -18.929688 9.34375 -17.484375 C 7.945312 -16.046875 7.25 -14.328125 7.25 -12.328125 C 7.25 -10.234375 7.941406 -8.457031 9.328125 -7 C 10.710938 -5.539062 12.390625 -4.8125 14.359375 -4.8125 C 16.304688 -4.8125 17.96875 -5.53125 19.34375 -6.96875 C 20.726562 -8.414062 21.421875 -10.171875 21.421875 -12.234375 C 21.421875 -14.265625 20.726562 -16.007812 19.34375 -17.46875 C 17.96875 -18.925781 16.289062 -19.65625 14.3125 -19.65625 Z M 14.3125 -19.65625 "/></g></g></g><g fill="#ffffff" fill-opacity="1"><g transform="translate(297.964823, 141.638584)"><g><path d="M 24.171875 -24.46875 L 24.171875 0 L 18.734375 0 L 18.734375 -2.34375 C 17.640625 -1.25 16.5625 -0.488281 15.5 -0.0625 C 14.445312 0.363281 13.179688 0.578125 11.703125 0.578125 C 8.410156 0.578125 5.921875 -0.628906 4.234375 -3.046875 C 3.554688 -4.078125 3.078125 -5.203125 2.796875 -6.421875 C 2.523438 -7.648438 2.390625 -9.296875 2.390625 -11.359375 L 2.390625 -24.46875 L 8.265625 -24.46875 L 8.265625 -12.5 C 8.265625 -9.40625 8.660156 -7.359375 9.453125 -6.359375 C 10.222656 -5.328125 11.375 -4.8125 12.90625 -4.8125 C 14.988281 -4.8125 16.472656 -5.5625 17.359375 -7.0625 C 17.984375 -8.007812 18.296875 -9.96875 18.296875 -12.9375 L 18.296875 -24.46875 Z M 24.171875 -24.46875 "/></g></g></g><g fill="#ffffff" fill-opacity="1"><g transform="translate(324.465902, 141.638584)"><g><path d="M 3.265625 0 L 3.265625 -19.125 L 0.390625 -19.125 L 0.390625 -24.46875 L 3.265625 -24.46875 L 3.265625 -32.65625 L 9.140625 -32.65625 L 9.140625 -24.46875 L 12.6875 -24.46875 L 12.6875 -19.125 L 9.140625 -19.125 L 9.140625 0 Z M 3.265625 0 "/></g></g></g><g fill="#ffffff" fill-opacity="1"><g transform="translate(337.716464, 141.638584)"><g><path d="M 2.390625 0 L 2.390625 -32.65625 L 8.265625 -32.65625 L 8.265625 -22.21875 C 9.378906 -23.34375 10.523438 -24.144531 11.703125 -24.625 C 12.878906 -25.113281 14.265625 -25.359375 15.859375 -25.359375 C 19.367188 -25.359375 22.300781 -24.117188 24.65625 -21.640625 C 27.007812 -19.171875 28.1875 -16.097656 28.1875 -12.421875 C 28.1875 -9.085938 27.226562 -6.1875 25.3125 -3.71875 C 23.070312 -0.851562 20.054688 0.578125 16.265625 0.578125 C 14.429688 0.578125 12.875 0.296875 11.59375 -0.265625 C 10.3125 -0.828125 9.039062 -1.785156 7.78125 -3.140625 L 7.78125 0 Z M 15.015625 -19.96875 C 12.953125 -19.96875 11.25 -19.257812 9.90625 -17.84375 C 8.570312 -16.4375 7.90625 -14.628906 7.90625 -12.421875 C 7.90625 -10.179688 8.582031 -8.351562 9.9375 -6.9375 C 11.289062 -5.519531 13.03125 -4.8125 15.15625 -4.8125 C 17.25 -4.8125 18.957031 -5.507812 20.28125 -6.90625 C 21.601562 -8.3125 22.265625 -10.132812 22.265625 -12.375 C 22.265625 -14.550781 21.578125 -16.359375 20.203125 -17.796875 C 18.835938 -19.242188 17.109375 -19.96875 15.015625 -19.96875 Z M 15.015625 -19.96875 "/></g></g></g><g fill="#ffffff" fill-opacity="1"><g transform="translate(366.867659, 141.638584)"><g><path d="M 14.265625 -25.046875 C 17.953125 -25.046875 21.050781 -23.796875 23.5625 -21.296875 C 26.082031 -18.796875 27.34375 -15.71875 27.34375 -12.0625 C 27.34375 -8.613281 26.0625 -5.644531 23.5 -3.15625 C 20.9375 -0.664062 17.875 0.578125 14.3125 0.578125 C 10.71875 0.578125 7.65625 -0.671875 5.125 -3.171875 C 2.59375 -5.679688 1.328125 -8.703125 1.328125 -12.234375 C 1.328125 -15.742188 2.59375 -18.753906 5.125 -21.265625 C 7.65625 -23.785156 10.703125 -25.046875 14.265625 -25.046875 Z M 14.3125 -19.65625 C 12.394531 -19.65625 10.738281 -18.929688 9.34375 -17.484375 C 7.945312 -16.046875 7.25 -14.328125 7.25 -12.328125 C 7.25 -10.234375 7.941406 -8.457031 9.328125 -7 C 10.710938 -5.539062 12.390625 -4.8125 14.359375 -4.8125 C 16.304688 -4.8125 17.96875 -5.53125 19.34375 -6.96875 C 20.726562 -8.414062 21.421875 -10.171875 21.421875 -12.234375 C 21.421875 -14.265625 20.726562 -16.007812 19.34375 -17.46875 C 17.96875 -18.925781 16.289062 -19.65625 14.3125 -19.65625 Z M 14.3125 -19.65625 "/></g></g></g><g fill="#ffffff" fill-opacity="1"><g transform="translate(395.135489, 141.638584)"><g><path d="M 0.046875 0 L 8.703125 -12.640625 L 1.1875 -24.46875 L 7.8125 -24.46875 L 12.234375 -17.09375 L 16.5625 -24.46875 L 23.1875 -24.46875 L 15.734375 -12.640625 L 24.4375 0 L 17.359375 0 L 12.234375 -8.390625 L 7.109375 0 Z M 0.046875 0 "/></g></g></g><g transform="matrix(1, 0, 0, 1, 145, 158)"><g clip-path="url(#02cde98aa5)"><g fill="#ffffff" fill-opacity="1"><g transform="translate(0.838183, 17.747196)"><g><path d="M 1.984375 0 L 1.984375 -9.4375 L 0.3125 -9.4375 L 0.3125 -10.75 L 1.984375 -10.75 C 1.941406 -13.269531 3.316406 -14.53125 6.109375 -14.53125 L 6.109375 -13.203125 C 5.117188 -13.191406 4.421875 -13.003906 4.015625 -12.640625 C 3.617188 -12.273438 3.425781 -11.644531 3.4375 -10.75 L 6.109375 -10.75 L 6.109375 -9.4375 L 3.4375 -9.4375 L 3.4375 0 Z M 1.984375 0 "/></g></g></g><g fill="#ffffff" fill-opacity="1"><g transform="translate(7.008322, 17.747196)"><g><path d="M 6.46875 -11 C 8.082031 -11 9.414062 -10.460938 10.46875 -9.390625 C 11.519531 -8.328125 12.046875 -6.976562 12.046875 -5.34375 C 12.046875 -3.726562 11.523438 -2.390625 10.484375 -1.328125 C 9.453125 -0.273438 8.148438 0.25 6.578125 0.25 C 4.921875 0.25 3.546875 -0.285156 2.453125 -1.359375 C 1.367188 -2.429688 0.828125 -3.789062 0.828125 -5.4375 C 0.828125 -7.007812 1.363281 -8.328125 2.4375 -9.390625 C 3.519531 -10.460938 4.863281 -11 6.46875 -11 Z M 6.46875 -9.671875 C 5.269531 -9.671875 4.273438 -9.265625 3.484375 -8.453125 C 2.691406 -7.640625 2.296875 -6.625 2.296875 -5.40625 C 2.296875 -4.144531 2.695312 -3.109375 3.5 -2.296875 C 4.300781 -1.484375 5.316406 -1.078125 6.546875 -1.078125 C 7.710938 -1.078125 8.675781 -1.476562 9.4375 -2.28125 C 10.195312 -3.082031 10.578125 -4.097656 10.578125 -5.328125 C 10.578125 -6.566406 10.1875 -7.597656 9.40625 -8.421875 C 8.625 -9.253906 7.644531 -9.671875 6.46875 -9.671875 Z M 6.46875 -9.671875 "/></g></g></g><g fill="#ffffff" fill-opacity="1"><g transform="translate(19.879147, 17.747196)"><g><path d="M 1.234375 0 L 1.234375 -10.75 L 2.6875 -10.75 L 2.6875 -9.21875 C 2.976562 -9.8125 3.363281 -10.25 3.84375 -10.53125 C 4.332031 -10.8125 4.960938 -10.96875 5.734375 -11 L 5.734375 -9.578125 C 3.703125 -9.378906 2.6875 -8.273438 2.6875 -6.265625 L 2.6875 0 Z M 1.234375 0 "/></g></g></g><g fill="#ffffff" fill-opacity="1"><g transform="translate(25.793832, 17.747196)"><g/></g></g><g fill="#ffffff" fill-opacity="1"><g transform="translate(31.669213, 17.747196)"><g><path d="M 0.4375 -4.0625 L 1.984375 -4.0625 C 2.078125 -3.25 2.304688 -2.613281 2.671875 -2.15625 C 3.242188 -1.4375 4.023438 -1.078125 5.015625 -1.078125 C 5.835938 -1.078125 6.519531 -1.347656 7.0625 -1.890625 C 7.601562 -2.441406 7.875 -3.132812 7.875 -3.96875 C 7.875 -4.882812 7.539062 -5.578125 6.875 -6.046875 C 6.425781 -6.367188 5.679688 -6.691406 4.640625 -7.015625 C 3.796875 -7.265625 3.203125 -7.46875 2.859375 -7.625 C 2.523438 -7.789062 2.210938 -8.015625 1.921875 -8.296875 C 1.242188 -8.929688 0.90625 -9.789062 0.90625 -10.875 C 0.90625 -12 1.285156 -12.929688 2.046875 -13.671875 C 2.804688 -14.410156 3.769531 -14.78125 4.9375 -14.78125 C 6.125 -14.78125 7.09375 -14.421875 7.84375 -13.703125 C 8.59375 -12.984375 8.976562 -12.03125 9 -10.84375 L 7.484375 -10.84375 C 7.429688 -11.632812 7.171875 -12.265625 6.703125 -12.734375 C 6.234375 -13.203125 5.628906 -13.4375 4.890625 -13.4375 C 4.171875 -13.4375 3.570312 -13.195312 3.09375 -12.71875 C 2.613281 -12.25 2.375 -11.644531 2.375 -10.90625 C 2.375 -10.195312 2.601562 -9.632812 3.0625 -9.21875 C 3.375 -8.9375 4.085938 -8.632812 5.203125 -8.3125 C 6.460938 -7.9375 7.363281 -7.550781 7.90625 -7.15625 C 8.875 -6.4375 9.359375 -5.398438 9.359375 -4.046875 C 9.359375 -2.816406 8.941406 -1.789062 8.109375 -0.96875 C 7.273438 -0.15625 6.226562 0.25 4.96875 0.25 C 3.65625 0.25 2.585938 -0.140625 1.765625 -0.921875 C 0.941406 -1.710938 0.5 -2.757812 0.4375 -4.0625 Z M 0.4375 -4.0625 "/></g></g></g><g fill="#ffffff" fill-opacity="1"><g transform="translate(41.454973, 17.747196)"><g><path d="M 1.234375 -10.75 L 2.6875 -10.75 L 2.6875 -8.90625 C 3.625 -10.300781 5.035156 -11 6.921875 -11 C 8.515625 -11 9.851562 -10.457031 10.9375 -9.375 C 12.03125 -8.289062 12.578125 -6.945312 12.578125 -5.34375 C 12.578125 -3.769531 12.023438 -2.441406 10.921875 -1.359375 C 9.828125 -0.285156 8.476562 0.25 6.875 0.25 C 5.039062 0.25 3.644531 -0.445312 2.6875 -1.84375 L 2.6875 3.765625 L 1.234375 3.765625 Z M 6.859375 -9.671875 C 5.671875 -9.671875 4.660156 -9.257812 3.828125 -8.4375 C 3.003906 -7.625 2.59375 -6.617188 2.59375 -5.421875 C 2.59375 -4.179688 3 -3.144531 3.8125 -2.3125 C 4.625 -1.488281 5.644531 -1.078125 6.875 -1.078125 C 8.070312 -1.078125 9.078125 -1.484375 9.890625 -2.296875 C 10.703125 -3.117188 11.109375 -4.132812 11.109375 -5.34375 C 11.109375 -6.570312 10.703125 -7.597656 9.890625 -8.421875 C 9.078125 -9.253906 8.066406 -9.671875 6.859375 -9.671875 Z M 6.859375 -9.671875 "/></g></g></g><g fill="#ffffff" fill-opacity="1"><g transform="translate(54.856354, 17.747196)"><g><path d="M 1.234375 0 L 1.234375 -10.75 L 2.6875 -10.75 L 2.6875 -9.21875 C 2.976562 -9.8125 3.363281 -10.25 3.84375 -10.53125 C 4.332031 -10.8125 4.960938 -10.96875 5.734375 -11 L 5.734375 -9.578125 C 3.703125 -9.378906 2.6875 -8.273438 2.6875 -6.265625 L 2.6875 0 Z M 1.234375 0 "/></g></g></g><g fill="#ffffff" fill-opacity="1"><g transform="translate(60.771038, 17.747196)"><g><path d="M 1.234375 0 L 1.234375 -10.75 L 2.6875 -10.75 L 2.6875 0 Z M 1.234375 -12.046875 L 1.234375 -14.53125 L 2.6875 -14.53125 L 2.6875 -12.046875 Z M 1.234375 -12.046875 "/></g></g></g><g fill="#ffffff" fill-opacity="1"><g transform="translate(64.701064, 17.747196)"><g><path d="M 1.234375 0 L 1.234375 -10.75 L 2.6875 -10.75 L 2.6875 -9.359375 C 3.59375 -10.453125 4.75 -11 6.15625 -11 C 7.695312 -11 8.914062 -10.441406 9.8125 -9.328125 C 10.144531 -8.867188 10.382812 -8.363281 10.53125 -7.8125 C 10.675781 -7.269531 10.75 -6.546875 10.75 -5.640625 L 10.75 0 L 9.296875 0 L 9.296875 -5.640625 C 9.296875 -6.941406 9.0625 -7.898438 8.59375 -8.515625 C 7.957031 -9.285156 7.082031 -9.671875 5.96875 -9.671875 C 4.769531 -9.671875 3.867188 -9.234375 3.265625 -8.359375 C 2.878906 -7.785156 2.6875 -6.972656 2.6875 -5.921875 L 2.6875 0 Z M 1.234375 0 "/></g></g></g><g fill="#ffffff" fill-opacity="1"><g transform="translate(76.687635, 17.747196)"><g><path d="M 11.984375 -10.75 L 11.984375 -1.921875 C 11.984375 -0.878906 11.90625 -0.0390625 11.75 0.59375 C 11.601562 1.226562 11.347656 1.796875 10.984375 2.296875 C 10.015625 3.578125 8.5625 4.21875 6.625 4.21875 C 5.269531 4.21875 4.128906 3.882812 3.203125 3.21875 C 2.273438 2.550781 1.613281 1.585938 1.21875 0.328125 L 2.640625 0.328125 C 3.046875 1.054688 3.394531 1.550781 3.6875 1.8125 C 4.445312 2.53125 5.410156 2.890625 6.578125 2.890625 C 7.410156 2.890625 8.132812 2.71875 8.75 2.375 C 9.363281 2.03125 9.8125 1.550781 10.09375 0.9375 C 10.382812 0.320312 10.53125 -0.472656 10.53125 -1.453125 L 10.53125 -2.1875 C 9.707031 -0.5625 8.335938 0.25 6.421875 0.25 C 4.847656 0.25 3.519531 -0.285156 2.4375 -1.359375 C 1.363281 -2.429688 0.828125 -3.753906 0.828125 -5.328125 C 0.828125 -6.953125 1.347656 -8.300781 2.390625 -9.375 C 3.441406 -10.457031 4.753906 -11 6.328125 -11 C 8.066406 -11 9.46875 -10.28125 10.53125 -8.84375 L 10.53125 -10.75 Z M 6.40625 -9.671875 C 5.21875 -9.671875 4.234375 -9.273438 3.453125 -8.484375 C 2.679688 -7.691406 2.296875 -6.675781 2.296875 -5.4375 C 2.296875 -4.195312 2.6875 -3.160156 3.46875 -2.328125 C 4.257812 -1.492188 5.242188 -1.078125 6.421875 -1.078125 C 7.585938 -1.078125 8.5625 -1.5 9.34375 -2.34375 C 10.132812 -3.1875 10.53125 -4.238281 10.53125 -5.5 C 10.53125 -6.664062 10.128906 -7.648438 9.328125 -8.453125 C 8.535156 -9.265625 7.5625 -9.671875 6.40625 -9.671875 Z M 6.40625 -9.671875 "/></g></g></g><g fill="#ffffff" fill-opacity="1"><g transform="translate(89.912167, 17.747196)"><g/></g></g><g fill="#ffffff" fill-opacity="1"><g transform="translate(95.787549, 17.747196)"><g><path d="M 1.5 0 L 1.5 -14.53125 L 4.890625 -14.53125 C 6.554688 -14.53125 7.78125 -14.242188 8.5625 -13.671875 C 9.425781 -13.035156 9.859375 -12.0625 9.859375 -10.75 C 9.859375 -9.34375 9.320312 -8.34375 8.25 -7.75 C 9.875 -7.09375 10.6875 -5.898438 10.6875 -4.171875 C 10.6875 -3.421875 10.539062 -2.742188 10.25 -2.140625 C 9.96875 -1.535156 9.570312 -1.078125 9.0625 -0.765625 C 8.207031 -0.253906 6.882812 0 5.09375 0 Z M 2.953125 -1.3125 L 4.9375 -1.3125 C 6.375 -1.3125 7.421875 -1.488281 8.078125 -1.84375 C 8.421875 -2.03125 8.695312 -2.328125 8.90625 -2.734375 C 9.113281 -3.140625 9.21875 -3.59375 9.21875 -4.09375 C 9.21875 -5.269531 8.765625 -6.085938 7.859375 -6.546875 C 7.296875 -6.816406 6.234375 -6.953125 4.671875 -6.953125 L 2.953125 -6.953125 Z M 2.953125 -8.28125 L 4.71875 -8.28125 C 5.875 -8.28125 6.722656 -8.398438 7.265625 -8.640625 C 8.015625 -8.984375 8.390625 -9.679688 8.390625 -10.734375 C 8.390625 -11.148438 8.3125 -11.535156 8.15625 -11.890625 C 8 -12.253906 7.796875 -12.523438 7.546875 -12.703125 C 7.046875 -13.035156 6.097656 -13.203125 4.703125 -13.203125 L 2.953125 -13.203125 Z M 2.953125 -8.28125 "/></g></g></g><g fill="#ffffff" fill-opacity="1"><g transform="translate(107.066715, 17.747196)"><g><path d="M 6.46875 -11 C 8.082031 -11 9.414062 -10.460938 10.46875 -9.390625 C 11.519531 -8.328125 12.046875 -6.976562 12.046875 -5.34375 C 12.046875 -3.726562 11.523438 -2.390625 10.484375 -1.328125 C 9.453125 -0.273438 8.148438 0.25 6.578125 0.25 C 4.921875 0.25 3.546875 -0.285156 2.453125 -1.359375 C 1.367188 -2.429688 0.828125 -3.789062 0.828125 -5.4375 C 0.828125 -7.007812 1.363281 -8.328125 2.4375 -9.390625 C 3.519531 -10.460938 4.863281 -11 6.46875 -11 Z M 6.46875 -9.671875 C 5.269531 -9.671875 4.273438 -9.265625 3.484375 -8.453125 C 2.691406 -7.640625 2.296875 -6.625 2.296875 -5.40625 C 2.296875 -4.144531 2.695312 -3.109375 3.5 -2.296875 C 4.300781 -1.484375 5.316406 -1.078125 6.546875 -1.078125 C 7.710938 -1.078125 8.675781 -1.476562 9.4375 -2.28125 C 10.195312 -3.082031 10.578125 -4.097656 10.578125 -5.328125 C 10.578125 -6.566406 10.1875 -7.597656 9.40625 -8.421875 C 8.625 -9.253906 7.644531 -9.671875 6.46875 -9.671875 Z M 6.46875 -9.671875 "/></g></g></g><g fill="#ffffff" fill-opacity="1"><g transform="translate(119.93754, 17.747196)"><g><path d="M 6.46875 -11 C 8.082031 -11 9.414062 -10.460938 10.46875 -9.390625 C 11.519531 -8.328125 12.046875 -6.976562 12.046875 -5.34375 C 12.046875 -3.726562 11.523438 -2.390625 10.484375 -1.328125 C 9.453125 -0.273438 8.148438 0.25 6.578125 0.25 C 4.921875 0.25 3.546875 -0.285156 2.453125 -1.359375 C 1.367188 -2.429688 0.828125 -3.789062 0.828125 -5.4375 C 0.828125 -7.007812 1.363281 -8.328125 2.4375 -9.390625 C 3.519531 -10.460938 4.863281 -11 6.46875 -11 Z M 6.46875 -9.671875 C 5.269531 -9.671875 4.273438 -9.265625 3.484375 -8.453125 C 2.691406 -7.640625 2.296875 -6.625 2.296875 -5.40625 C 2.296875 -4.144531 2.695312 -3.109375 3.5 -2.296875 C 4.300781 -1.484375 5.316406 -1.078125 6.546875 -1.078125 C 7.710938 -1.078125 8.675781 -1.476562 9.4375 -2.28125 C 10.195312 -3.082031 10.578125 -4.097656 10.578125 -5.328125 C 10.578125 -6.566406 10.1875 -7.597656 9.40625 -8.421875 C 8.625 -9.253906 7.644531 -9.671875 6.46875 -9.671875 Z M 6.46875 -9.671875 "/></g></g></g><g fill="#ffffff" fill-opacity="1"><g transform="translate(132.808365, 17.747196)"><g><path d="M 2.5625 0 L 2.5625 -9.4375 L 0.234375 -9.4375 L 0.234375 -10.75 L 2.5625 -10.75 L 2.5625 -14.53125 L 4.015625 -14.53125 L 4.015625 -10.75 L 6.421875 -10.75 L 6.421875 -9.4375 L 4.015625 -9.4375 L 4.015625 0 Z M 2.5625 0 "/></g></g></g></g></g></svg>