<svg xmlns="http://www.w3.org/2000/svg" xmlns:xlink="http://www.w3.org/1999/xlink" width="575" zoomAndPan="magnify" viewBox="0 0 431.25 187.499995" height="250" preserveAspectRatio="xMidYMid meet" version="1.0"><defs><g/><clipPath id="3727796d3d"><path d="M 144.085938 34 L 286.207031 34 L 286.207031 99.484375 L 144.085938 99.484375 Z M 144.085938 34 " clip-rule="nonzero"/></clipPath><clipPath id="fff09be23a"><path d="M 0.210938 3 L 7 3 L 7 19 L 0.210938 19 Z M 0.210938 3 " clip-rule="nonzero"/></clipPath><clipPath id="de5113b615"><rect x="0" width="140" y="0" height="25"/></clipPath></defs><path fill="#ffde59" d="M 215.15625 0.0585938 C 179.050781 0.0585938 149.78125 29.328125 149.78125 65.4375 C 149.78125 72.484375 150.898438 79.265625 152.960938 85.625 L 158.253906 80.332031 C 157.015625 75.574219 156.351562 70.582031 156.351562 65.4375 C 156.351562 32.957031 182.679688 6.632812 215.15625 6.632812 C 247.632812 6.632812 273.960938 32.957031 273.960938 65.4375 C 273.960938 68.144531 273.773438 70.8125 273.417969 73.425781 L 278.582031 81.335938 C 279.855469 76.246094 280.53125 70.921875 280.53125 65.4375 C 280.53125 29.328125 251.261719 0.0585938 215.15625 0.0585938 " fill-opacity="1" fill-rule="nonzero"/><g clip-path="url(#3727796d3d)"><path fill="#ffde59" d="M 199.4375 89.246094 L 202.789062 80.300781 L 235.460938 97.246094 L 209.707031 66.214844 L 244.070312 83.761719 L 237.453125 75.523438 L 249.226562 69.519531 L 286.230469 99.4375 L 243.824219 34.460938 L 224.714844 57.929688 L 206.796875 46.582031 L 190.074219 66.949219 L 182.214844 61.308594 L 144.085938 99.4375 L 172.460938 93.589844 L 178.746094 86.277344 L 205.722656 99.4375 L 199.4375 89.246094 " fill-opacity="1" fill-rule="nonzero"/></g><g transform="matrix(1, 0, 0, 1, 146, 157)"><g clip-path="url(#de5113b615)"><g clip-path="url(#fff09be23a)"><g fill="#000000" fill-opacity="1"><g transform="translate(0.319362, 18.054146)"><g><path d="M 1.96875 0 L 1.96875 -9.359375 L 0.3125 -9.359375 L 0.3125 -10.671875 L 1.96875 -10.671875 C 1.925781 -13.171875 3.289062 -14.421875 6.0625 -14.421875 L 6.0625 -13.109375 C 5.070312 -13.097656 4.378906 -12.910156 3.984375 -12.546875 C 3.585938 -12.179688 3.398438 -11.554688 3.421875 -10.671875 L 6.0625 -10.671875 L 6.0625 -9.359375 L 3.421875 -9.359375 L 3.421875 0 Z M 1.96875 0 "/></g></g></g></g><g fill="#000000" fill-opacity="1"><g transform="translate(6.446562, 18.054146)"><g><path d="M 6.421875 -10.921875 C 8.015625 -10.921875 9.332031 -10.390625 10.375 -9.328125 C 11.425781 -8.273438 11.953125 -6.9375 11.953125 -5.3125 C 11.953125 -3.707031 11.4375 -2.378906 10.40625 -1.328125 C 9.382812 -0.273438 8.09375 0.25 6.53125 0.25 C 4.882812 0.25 3.519531 -0.28125 2.4375 -1.34375 C 1.351562 -2.414062 0.8125 -3.769531 0.8125 -5.40625 C 0.8125 -6.96875 1.347656 -8.273438 2.421875 -9.328125 C 3.492188 -10.390625 4.828125 -10.921875 6.421875 -10.921875 Z M 6.421875 -9.59375 C 5.234375 -9.59375 4.242188 -9.1875 3.453125 -8.375 C 2.671875 -7.570312 2.28125 -6.566406 2.28125 -5.359375 C 2.28125 -4.117188 2.675781 -3.09375 3.46875 -2.28125 C 4.257812 -1.476562 5.269531 -1.078125 6.5 -1.078125 C 7.65625 -1.078125 8.609375 -1.472656 9.359375 -2.265625 C 10.117188 -3.054688 10.5 -4.0625 10.5 -5.28125 C 10.5 -6.519531 10.109375 -7.546875 9.328125 -8.359375 C 8.554688 -9.179688 7.585938 -9.59375 6.421875 -9.59375 Z M 6.421875 -9.59375 "/></g></g></g><g fill="#000000" fill-opacity="1"><g transform="translate(19.227816, 18.054146)"><g><path d="M 1.234375 0 L 1.234375 -10.671875 L 2.671875 -10.671875 L 2.671875 -9.15625 C 2.960938 -9.738281 3.347656 -10.164062 3.828125 -10.4375 C 4.304688 -10.71875 4.929688 -10.878906 5.703125 -10.921875 L 5.703125 -9.5 C 3.679688 -9.300781 2.671875 -8.207031 2.671875 -6.21875 L 2.671875 0 Z M 1.234375 0 "/></g></g></g><g fill="#000000" fill-opacity="1"><g transform="translate(25.101338, 18.054146)"><g/></g></g><g fill="#000000" fill-opacity="1"><g transform="translate(30.935832, 18.054146)"><g><path d="M 0.421875 -4.03125 L 1.96875 -4.03125 C 2.0625 -3.226562 2.289062 -2.597656 2.65625 -2.140625 C 3.226562 -1.429688 4 -1.078125 4.96875 -1.078125 C 5.789062 -1.078125 6.472656 -1.34375 7.015625 -1.875 C 7.554688 -2.414062 7.828125 -3.101562 7.828125 -3.9375 C 7.828125 -4.851562 7.492188 -5.546875 6.828125 -6.015625 C 6.390625 -6.328125 5.648438 -6.644531 4.609375 -6.96875 C 3.773438 -7.207031 3.1875 -7.410156 2.84375 -7.578125 C 2.507812 -7.742188 2.195312 -7.960938 1.90625 -8.234375 C 1.226562 -8.867188 0.890625 -9.71875 0.890625 -10.78125 C 0.890625 -11.90625 1.265625 -12.832031 2.015625 -13.5625 C 2.773438 -14.300781 3.734375 -14.671875 4.890625 -14.671875 C 6.078125 -14.671875 7.039062 -14.3125 7.78125 -13.59375 C 8.519531 -12.882812 8.90625 -11.941406 8.9375 -10.765625 L 7.4375 -10.765625 C 7.382812 -11.546875 7.125 -12.171875 6.65625 -12.640625 C 6.1875 -13.109375 5.585938 -13.34375 4.859375 -13.34375 C 4.140625 -13.34375 3.539062 -13.101562 3.0625 -12.625 C 2.59375 -12.15625 2.359375 -11.554688 2.359375 -10.828125 C 2.359375 -10.128906 2.585938 -9.570312 3.046875 -9.15625 C 3.359375 -8.875 4.066406 -8.570312 5.171875 -8.25 C 6.421875 -7.875 7.3125 -7.492188 7.84375 -7.109375 C 8.800781 -6.390625 9.28125 -5.359375 9.28125 -4.015625 C 9.28125 -2.796875 8.867188 -1.78125 8.046875 -0.96875 C 7.222656 -0.15625 6.1875 0.25 4.9375 0.25 C 3.632812 0.25 2.570312 -0.140625 1.75 -0.921875 C 0.9375 -1.703125 0.492188 -2.738281 0.421875 -4.03125 Z M 0.421875 -4.03125 "/></g></g></g><g fill="#000000" fill-opacity="1"><g transform="translate(40.653491, 18.054146)"><g><path d="M 1.234375 -10.671875 L 2.671875 -10.671875 L 2.671875 -8.84375 C 3.597656 -10.226562 5 -10.921875 6.875 -10.921875 C 8.457031 -10.921875 9.785156 -10.378906 10.859375 -9.296875 C 11.941406 -8.222656 12.484375 -6.894531 12.484375 -5.3125 C 12.484375 -3.75 11.9375 -2.429688 10.84375 -1.359375 C 9.75 -0.285156 8.410156 0.25 6.828125 0.25 C 5.003906 0.25 3.617188 -0.441406 2.671875 -1.828125 L 2.671875 3.75 L 1.234375 3.75 Z M 6.8125 -9.59375 C 5.625 -9.59375 4.617188 -9.1875 3.796875 -8.375 C 2.984375 -7.5625 2.578125 -6.566406 2.578125 -5.390625 C 2.578125 -4.148438 2.976562 -3.117188 3.78125 -2.296875 C 4.59375 -1.484375 5.609375 -1.078125 6.828125 -1.078125 C 8.015625 -1.078125 9.007812 -1.484375 9.8125 -2.296875 C 10.613281 -3.109375 11.015625 -4.113281 11.015625 -5.3125 C 11.015625 -6.53125 10.613281 -7.546875 9.8125 -8.359375 C 9.007812 -9.179688 8.007812 -9.59375 6.8125 -9.59375 Z M 6.8125 -9.59375 "/></g></g></g><g fill="#000000" fill-opacity="1"><g transform="translate(53.961608, 18.054146)"><g><path d="M 1.234375 0 L 1.234375 -10.671875 L 2.671875 -10.671875 L 2.671875 -9.15625 C 2.960938 -9.738281 3.347656 -10.164062 3.828125 -10.4375 C 4.304688 -10.71875 4.929688 -10.878906 5.703125 -10.921875 L 5.703125 -9.5 C 3.679688 -9.300781 2.671875 -8.207031 2.671875 -6.21875 L 2.671875 0 Z M 1.234375 0 "/></g></g></g><g fill="#000000" fill-opacity="1"><g transform="translate(59.835131, 18.054146)"><g><path d="M 1.234375 0 L 1.234375 -10.671875 L 2.671875 -10.671875 L 2.671875 0 Z M 1.234375 -11.953125 L 1.234375 -14.421875 L 2.671875 -14.421875 L 2.671875 -11.953125 Z M 1.234375 -11.953125 "/></g></g></g><g fill="#000000" fill-opacity="1"><g transform="translate(63.737806, 18.054146)"><g><path d="M 1.234375 0 L 1.234375 -10.671875 L 2.671875 -10.671875 L 2.671875 -9.28125 C 3.566406 -10.375 4.710938 -10.921875 6.109375 -10.921875 C 7.640625 -10.921875 8.847656 -10.367188 9.734375 -9.265625 C 10.078125 -8.804688 10.316406 -8.304688 10.453125 -7.765625 C 10.597656 -7.222656 10.671875 -6.5 10.671875 -5.59375 L 10.671875 0 L 9.234375 0 L 9.234375 -5.59375 C 9.234375 -6.882812 9 -7.835938 8.53125 -8.453125 C 7.90625 -9.210938 7.039062 -9.59375 5.9375 -9.59375 C 4.738281 -9.59375 3.835938 -9.160156 3.234375 -8.296875 C 2.859375 -7.734375 2.671875 -6.925781 2.671875 -5.875 L 2.671875 0 Z M 1.234375 0 "/></g></g></g><g fill="#000000" fill-opacity="1"><g transform="translate(75.64096, 18.054146)"><g><path d="M 11.90625 -10.671875 L 11.90625 -1.90625 C 11.90625 -0.863281 11.828125 -0.03125 11.671875 0.59375 C 11.523438 1.226562 11.269531 1.789062 10.90625 2.28125 C 9.945312 3.550781 8.503906 4.1875 6.578125 4.1875 C 5.234375 4.1875 4.097656 3.851562 3.171875 3.1875 C 2.253906 2.53125 1.597656 1.578125 1.203125 0.328125 L 2.609375 0.328125 C 3.015625 1.046875 3.367188 1.535156 3.671875 1.796875 C 4.421875 2.515625 5.375 2.875 6.53125 2.875 C 7.351562 2.875 8.066406 2.703125 8.671875 2.359375 C 9.285156 2.023438 9.734375 1.550781 10.015625 0.9375 C 10.304688 0.320312 10.453125 -0.46875 10.453125 -1.4375 L 10.453125 -2.171875 C 9.640625 -0.554688 8.28125 0.25 6.375 0.25 C 4.8125 0.25 3.492188 -0.28125 2.421875 -1.34375 C 1.347656 -2.414062 0.8125 -3.726562 0.8125 -5.28125 C 0.8125 -6.894531 1.332031 -8.238281 2.375 -9.3125 C 3.414062 -10.382812 4.71875 -10.921875 6.28125 -10.921875 C 8.007812 -10.921875 9.398438 -10.207031 10.453125 -8.78125 L 10.453125 -10.671875 Z M 6.359375 -9.59375 C 5.171875 -9.59375 4.191406 -9.195312 3.421875 -8.40625 C 2.660156 -7.625 2.28125 -6.625 2.28125 -5.40625 C 2.28125 -4.164062 2.671875 -3.132812 3.453125 -2.3125 C 4.234375 -1.488281 5.207031 -1.078125 6.375 -1.078125 C 7.53125 -1.078125 8.5 -1.492188 9.28125 -2.328125 C 10.0625 -3.171875 10.453125 -4.21875 10.453125 -5.46875 C 10.453125 -6.625 10.054688 -7.597656 9.265625 -8.390625 C 8.472656 -9.191406 7.503906 -9.59375 6.359375 -9.59375 Z M 6.359375 -9.59375 "/></g></g></g><g fill="#000000" fill-opacity="1"><g transform="translate(88.77346, 18.054146)"><g/></g></g><g fill="#000000" fill-opacity="1"><g transform="translate(94.607954, 18.054146)"><g><path d="M 1.484375 0 L 1.484375 -14.421875 L 4.859375 -14.421875 C 6.503906 -14.421875 7.71875 -14.140625 8.5 -13.578125 C 9.363281 -12.941406 9.796875 -11.972656 9.796875 -10.671875 C 9.796875 -9.273438 9.257812 -8.28125 8.1875 -7.6875 C 9.800781 -7.039062 10.609375 -5.859375 10.609375 -4.140625 C 10.609375 -3.398438 10.460938 -2.726562 10.171875 -2.125 C 9.890625 -1.53125 9.5 -1.078125 9 -0.765625 C 8.144531 -0.253906 6.828125 0 5.046875 0 Z M 2.921875 -1.3125 L 4.890625 -1.3125 C 6.328125 -1.3125 7.367188 -1.484375 8.015625 -1.828125 C 8.359375 -2.015625 8.632812 -2.304688 8.84375 -2.703125 C 9.050781 -3.109375 9.15625 -3.5625 9.15625 -4.0625 C 9.15625 -5.226562 8.703125 -6.039062 7.796875 -6.5 C 7.242188 -6.769531 6.191406 -6.90625 4.640625 -6.90625 L 2.921875 -6.90625 Z M 2.921875 -8.21875 L 4.6875 -8.21875 C 5.832031 -8.21875 6.675781 -8.335938 7.21875 -8.578125 C 7.957031 -8.921875 8.328125 -9.613281 8.328125 -10.65625 C 8.328125 -11.070312 8.25 -11.457031 8.09375 -11.8125 C 7.9375 -12.164062 7.734375 -12.429688 7.484375 -12.609375 C 6.992188 -12.941406 6.050781 -13.109375 4.65625 -13.109375 L 2.921875 -13.109375 Z M 2.921875 -8.21875 "/></g></g></g><g fill="#000000" fill-opacity="1"><g transform="translate(105.808626, 18.054146)"><g><path d="M 6.421875 -10.921875 C 8.015625 -10.921875 9.332031 -10.390625 10.375 -9.328125 C 11.425781 -8.273438 11.953125 -6.9375 11.953125 -5.3125 C 11.953125 -3.707031 11.4375 -2.378906 10.40625 -1.328125 C 9.382812 -0.273438 8.09375 0.25 6.53125 0.25 C 4.882812 0.25 3.519531 -0.28125 2.4375 -1.34375 C 1.351562 -2.414062 0.8125 -3.769531 0.8125 -5.40625 C 0.8125 -6.96875 1.347656 -8.273438 2.421875 -9.328125 C 3.492188 -10.390625 4.828125 -10.921875 6.421875 -10.921875 Z M 6.421875 -9.59375 C 5.234375 -9.59375 4.242188 -9.1875 3.453125 -8.375 C 2.671875 -7.570312 2.28125 -6.566406 2.28125 -5.359375 C 2.28125 -4.117188 2.675781 -3.09375 3.46875 -2.28125 C 4.257812 -1.476562 5.269531 -1.078125 6.5 -1.078125 C 7.65625 -1.078125 8.609375 -1.472656 9.359375 -2.265625 C 10.117188 -3.054688 10.5 -4.0625 10.5 -5.28125 C 10.5 -6.519531 10.109375 -7.546875 9.328125 -8.359375 C 8.554688 -9.179688 7.585938 -9.59375 6.421875 -9.59375 Z M 6.421875 -9.59375 "/></g></g></g><g fill="#000000" fill-opacity="1"><g transform="translate(118.58988, 18.054146)"><g><path d="M 6.421875 -10.921875 C 8.015625 -10.921875 9.332031 -10.390625 10.375 -9.328125 C 11.425781 -8.273438 11.953125 -6.9375 11.953125 -5.3125 C 11.953125 -3.707031 11.4375 -2.378906 10.40625 -1.328125 C 9.382812 -0.273438 8.09375 0.25 6.53125 0.25 C 4.882812 0.25 3.519531 -0.28125 2.4375 -1.34375 C 1.351562 -2.414062 0.8125 -3.769531 0.8125 -5.40625 C 0.8125 -6.96875 1.347656 -8.273438 2.421875 -9.328125 C 3.492188 -10.390625 4.828125 -10.921875 6.421875 -10.921875 Z M 6.421875 -9.59375 C 5.234375 -9.59375 4.242188 -9.1875 3.453125 -8.375 C 2.671875 -7.570312 2.28125 -6.566406 2.28125 -5.359375 C 2.28125 -4.117188 2.675781 -3.09375 3.46875 -2.28125 C 4.257812 -1.476562 5.269531 -1.078125 6.5 -1.078125 C 7.65625 -1.078125 8.609375 -1.472656 9.359375 -2.265625 C 10.117188 -3.054688 10.5 -4.0625 10.5 -5.28125 C 10.5 -6.519531 10.109375 -7.546875 9.328125 -8.359375 C 8.554688 -9.179688 7.585938 -9.59375 6.421875 -9.59375 Z M 6.421875 -9.59375 "/></g></g></g><g fill="#000000" fill-opacity="1"><g transform="translate(131.371134, 18.054146)"><g><path d="M 2.53125 0 L 2.53125 -9.359375 L 0.234375 -9.359375 L 0.234375 -10.671875 L 2.53125 -10.671875 L 2.53125 -14.421875 L 3.984375 -14.421875 L 3.984375 -10.671875 L 6.375 -10.671875 L 6.375 -9.359375 L 3.984375 -9.359375 L 3.984375 0 Z M 2.53125 0 "/></g></g></g></g></g><g fill="#000000" fill-opacity="1"><g transform="translate(9.890911, 141.028956)"><g><path d="M 2.390625 0 L 2.390625 -24.546875 L 7.84375 -24.546875 L 7.84375 -22.1875 C 9.875 -24.132812 12.175781 -25.109375 14.75 -25.109375 C 18.238281 -25.109375 20.789062 -23.929688 22.40625 -21.578125 C 23.0625 -20.628906 23.519531 -19.535156 23.78125 -18.296875 C 24.050781 -17.054688 24.1875 -15.34375 24.1875 -13.15625 L 24.1875 0 L 18.296875 0 L 18.296875 -12 C 18.296875 -15.070312 17.910156 -17.125 17.140625 -18.15625 C 16.347656 -19.195312 15.164062 -19.71875 13.59375 -19.71875 C 11.644531 -19.71875 10.195312 -18.960938 9.25 -17.453125 C 8.601562 -16.421875 8.28125 -14.457031 8.28125 -11.5625 L 8.28125 0 Z M 2.390625 0 "/></g></g></g><g fill="#000000" fill-opacity="1"><g transform="translate(36.461362, 141.028956)"><g><path d="M 27.234375 -24.546875 L 27.234375 0 L 21.84375 0 L 21.84375 -3.1875 C 20.65625 -1.863281 19.425781 -0.90625 18.15625 -0.3125 C 16.882812 0.28125 15.394531 0.578125 13.6875 0.578125 C 10.113281 0.578125 7.160156 -0.625 4.828125 -3.03125 C 2.492188 -5.4375 1.328125 -8.488281 1.328125 -12.1875 C 1.328125 -15.9375 2.5 -19.023438 4.84375 -21.453125 C 7.195312 -23.890625 10.1875 -25.109375 13.8125 -25.109375 C 17.207031 -25.109375 19.882812 -23.828125 21.84375 -21.265625 L 21.84375 -24.546875 Z M 19.609375 -17.578125 C 18.253906 -19.003906 16.53125 -19.71875 14.4375 -19.71875 C 12.34375 -19.71875 10.625 -19 9.28125 -17.5625 C 7.9375 -16.132812 7.265625 -14.296875 7.265625 -12.046875 C 7.265625 -9.890625 7.9375 -8.144531 9.28125 -6.8125 C 10.625 -5.488281 12.375 -4.828125 14.53125 -4.828125 C 16.863281 -4.828125 18.648438 -5.566406 19.890625 -7.046875 C 21.066406 -8.429688 21.65625 -10.113281 21.65625 -12.09375 C 21.65625 -14.332031 20.972656 -16.160156 19.609375 -17.578125 Z M 19.609375 -17.578125 "/></g></g></g><g fill="#000000" fill-opacity="1"><g transform="translate(65.688856, 141.028956)"><g><path d="M 2.390625 0 L 2.390625 -24.546875 L 7.796875 -24.546875 L 7.796875 -22.234375 C 8.648438 -23.265625 9.5625 -24 10.53125 -24.4375 C 11.507812 -24.882812 12.722656 -25.109375 14.171875 -25.109375 C 17.390625 -25.109375 19.796875 -23.84375 21.390625 -21.3125 C 23.316406 -23.84375 25.945312 -25.109375 29.28125 -25.109375 C 31.132812 -25.109375 32.789062 -24.769531 34.25 -24.09375 C 35.71875 -23.414062 36.835938 -22.457031 37.609375 -21.21875 C 38.671875 -19.53125 39.203125 -17.179688 39.203125 -14.171875 L 39.203125 0 L 33.3125 0 L 33.3125 -13.46875 C 33.3125 -15.769531 32.941406 -17.347656 32.203125 -18.203125 C 31.378906 -19.210938 30.210938 -19.71875 28.703125 -19.71875 C 26.753906 -19.71875 25.378906 -18.929688 24.578125 -17.359375 C 24.015625 -16.328125 23.734375 -14.570312 23.734375 -12.09375 L 23.734375 0 L 17.84375 0 L 17.84375 -13.46875 C 17.84375 -15.707031 17.503906 -17.269531 16.828125 -18.15625 C 15.972656 -19.195312 14.71875 -19.71875 13.0625 -19.71875 C 11.03125 -19.71875 9.644531 -18.875 8.90625 -17.1875 C 8.488281 -16.125 8.28125 -14.425781 8.28125 -12.09375 L 8.28125 0 Z M 2.390625 0 "/></g></g></g><g fill="#000000" fill-opacity="1"><g transform="translate(107.315904, 141.028956)"><g><path d="M 27.234375 -24.546875 L 27.234375 0 L 21.84375 0 L 21.84375 -3.1875 C 20.65625 -1.863281 19.425781 -0.90625 18.15625 -0.3125 C 16.882812 0.28125 15.394531 0.578125 13.6875 0.578125 C 10.113281 0.578125 7.160156 -0.625 4.828125 -3.03125 C 2.492188 -5.4375 1.328125 -8.488281 1.328125 -12.1875 C 1.328125 -15.9375 2.5 -19.023438 4.84375 -21.453125 C 7.195312 -23.890625 10.1875 -25.109375 13.8125 -25.109375 C 17.207031 -25.109375 19.882812 -23.828125 21.84375 -21.265625 L 21.84375 -24.546875 Z M 19.609375 -17.578125 C 18.253906 -19.003906 16.53125 -19.71875 14.4375 -19.71875 C 12.34375 -19.71875 10.625 -19 9.28125 -17.5625 C 7.9375 -16.132812 7.265625 -14.296875 7.265625 -12.046875 C 7.265625 -9.890625 7.9375 -8.144531 9.28125 -6.8125 C 10.625 -5.488281 12.375 -4.828125 14.53125 -4.828125 C 16.863281 -4.828125 18.648438 -5.566406 19.890625 -7.046875 C 21.066406 -8.429688 21.65625 -10.113281 21.65625 -12.09375 C 21.65625 -14.332031 20.972656 -16.160156 19.609375 -17.578125 Z M 19.609375 -17.578125 "/></g></g></g><g fill="#000000" fill-opacity="1"><g transform="translate(136.543397, 141.028956)"><g><path d="M 0.84375 -7.796875 L 6.78125 -7.796875 C 7.070312 -6.765625 7.472656 -6.007812 7.984375 -5.53125 C 8.503906 -5.0625 9.195312 -4.828125 10.0625 -4.828125 C 10.820312 -4.828125 11.453125 -5.054688 11.953125 -5.515625 C 12.460938 -5.972656 12.71875 -6.539062 12.71875 -7.21875 C 12.71875 -8.019531 12.347656 -8.65625 11.609375 -9.125 C 11.128906 -9.414062 10.109375 -9.828125 8.546875 -10.359375 C 6.097656 -11.191406 4.347656 -12.160156 3.296875 -13.265625 C 2.253906 -14.367188 1.734375 -15.820312 1.734375 -17.625 C 1.734375 -19.726562 2.519531 -21.5 4.09375 -22.9375 C 5.675781 -24.382812 7.601562 -25.109375 9.875 -25.109375 C 12.445312 -25.109375 14.546875 -24.207031 16.171875 -22.40625 C 17.265625 -21.195312 17.851562 -19.648438 17.9375 -17.765625 L 12.1875 -17.765625 C 11.914062 -19.066406 11.144531 -19.71875 9.875 -19.71875 C 9.226562 -19.71875 8.691406 -19.515625 8.265625 -19.109375 C 7.835938 -18.710938 7.625 -18.21875 7.625 -17.625 C 7.625 -16.882812 8.019531 -16.335938 8.8125 -15.984375 C 9.195312 -15.804688 10.1875 -15.46875 11.78125 -14.96875 C 13.96875 -14.289062 15.472656 -13.597656 16.296875 -12.890625 C 17.835938 -11.679688 18.609375 -9.984375 18.609375 -7.796875 C 18.609375 -5.460938 17.757812 -3.484375 16.0625 -1.859375 C 14.363281 -0.234375 12.285156 0.578125 9.828125 0.578125 C 8.359375 0.578125 6.960938 0.273438 5.640625 -0.328125 C 4.328125 -0.929688 3.273438 -1.765625 2.484375 -2.828125 C 1.628906 -3.984375 1.082031 -5.640625 0.84375 -7.796875 Z M 0.84375 -7.796875 "/></g></g></g><g fill="#000000" fill-opacity="1"><g transform="translate(156.0284, 141.028956)"><g><path d="M 3.28125 0 L 3.28125 -19.171875 L 0.40625 -19.171875 L 0.40625 -24.546875 L 3.28125 -24.546875 L 3.28125 -32.734375 L 9.171875 -32.734375 L 9.171875 -24.546875 L 12.71875 -24.546875 L 12.71875 -19.171875 L 9.171875 -19.171875 L 9.171875 0 Z M 3.28125 0 "/></g></g></g><g fill="#000000" fill-opacity="1"><g transform="translate(169.313632, 141.028956)"><g><path d="M 27.234375 -24.546875 L 27.234375 0 L 21.84375 0 L 21.84375 -3.1875 C 20.65625 -1.863281 19.425781 -0.90625 18.15625 -0.3125 C 16.882812 0.28125 15.394531 0.578125 13.6875 0.578125 C 10.113281 0.578125 7.160156 -0.625 4.828125 -3.03125 C 2.492188 -5.4375 1.328125 -8.488281 1.328125 -12.1875 C 1.328125 -15.9375 2.5 -19.023438 4.84375 -21.453125 C 7.195312 -23.890625 10.1875 -25.109375 13.8125 -25.109375 C 17.207031 -25.109375 19.882812 -23.828125 21.84375 -21.265625 L 21.84375 -24.546875 Z M 19.609375 -17.578125 C 18.253906 -19.003906 16.53125 -19.71875 14.4375 -19.71875 C 12.34375 -19.71875 10.625 -19 9.28125 -17.5625 C 7.9375 -16.132812 7.265625 -14.296875 7.265625 -12.046875 C 7.265625 -9.890625 7.9375 -8.144531 9.28125 -6.8125 C 10.625 -5.488281 12.375 -4.828125 14.53125 -4.828125 C 16.863281 -4.828125 18.648438 -5.566406 19.890625 -7.046875 C 21.066406 -8.429688 21.65625 -10.113281 21.65625 -12.09375 C 21.65625 -14.332031 20.972656 -16.160156 19.609375 -17.578125 Z M 19.609375 -17.578125 "/></g></g></g><g fill="#000000" fill-opacity="1"><g transform="translate(198.541126, 141.028956)"><g><path d="M 19.984375 -8.0625 L 26.625 -8.0625 C 25.59375 -5.3125 24.019531 -3.179688 21.90625 -1.671875 C 19.789062 -0.171875 17.300781 0.578125 14.4375 0.578125 C 10.800781 0.578125 7.707031 -0.664062 5.15625 -3.15625 C 2.601562 -5.65625 1.328125 -8.691406 1.328125 -12.265625 C 1.328125 -15.867188 2.570312 -18.910156 5.0625 -21.390625 C 7.5625 -23.867188 10.628906 -25.109375 14.265625 -25.109375 C 17.804688 -25.109375 20.816406 -23.957031 23.296875 -21.65625 C 24.773438 -20.300781 25.882812 -18.53125 26.625 -16.34375 L 19.984375 -16.34375 C 18.796875 -18.59375 16.890625 -19.71875 14.265625 -19.71875 C 12.222656 -19.71875 10.546875 -19.019531 9.234375 -17.625 C 7.921875 -16.238281 7.265625 -14.46875 7.265625 -12.3125 C 7.265625 -10.15625 7.941406 -8.367188 9.296875 -6.953125 C 10.660156 -5.535156 12.359375 -4.828125 14.390625 -4.828125 C 16.722656 -4.828125 18.585938 -5.90625 19.984375 -8.0625 Z M 19.984375 -8.0625 "/></g></g></g><g fill="#000000" fill-opacity="1"><g transform="translate(226.882931, 141.028956)"><g><path d="M 2.390625 0 L 2.390625 -32.734375 L 8.28125 -32.734375 L 8.28125 -12.984375 L 16.125 -24.546875 L 23.171875 -24.546875 L 14.390625 -12.53125 L 24.578125 0 L 16.65625 0 L 8.28125 -11.46875 L 8.28125 0 Z M 2.390625 0 "/></g></g></g><g fill="#000000" fill-opacity="1"><g transform="translate(252.567717, 141.028956)"><g><path d="M 1.109375 -16.390625 L 16.609375 -16.390625 L 16.609375 -10.1875 L 1.109375 -10.1875 Z M 1.109375 -16.390625 "/></g></g></g><g fill="#000000" fill-opacity="1"><g transform="translate(269.838517, 141.028956)"><g><path d="M 14.3125 -25.109375 C 18 -25.109375 21.101562 -23.851562 23.625 -21.34375 C 26.15625 -18.832031 27.421875 -15.75 27.421875 -12.09375 C 27.421875 -8.632812 26.132812 -5.65625 23.5625 -3.15625 C 21 -0.664062 17.925781 0.578125 14.34375 0.578125 C 10.75 0.578125 7.679688 -0.675781 5.140625 -3.1875 C 2.597656 -5.695312 1.328125 -8.722656 1.328125 -12.265625 C 1.328125 -15.785156 2.597656 -18.804688 5.140625 -21.328125 C 7.679688 -23.847656 10.738281 -25.109375 14.3125 -25.109375 Z M 14.34375 -19.71875 C 12.425781 -19.71875 10.765625 -18.992188 9.359375 -17.546875 C 7.960938 -16.097656 7.265625 -14.367188 7.265625 -12.359375 C 7.265625 -10.265625 7.957031 -8.484375 9.34375 -7.015625 C 10.726562 -5.554688 12.410156 -4.828125 14.390625 -4.828125 C 16.335938 -4.828125 18.003906 -5.550781 19.390625 -7 C 20.785156 -8.445312 21.484375 -10.203125 21.484375 -12.265625 C 21.484375 -14.304688 20.785156 -16.054688 19.390625 -17.515625 C 18.003906 -18.984375 16.320312 -19.71875 14.34375 -19.71875 Z M 14.34375 -19.71875 "/></g></g></g><g fill="#000000" fill-opacity="1"><g transform="translate(298.180333, 141.028956)"><g><path d="M 24.234375 -24.546875 L 24.234375 0 L 18.78125 0 L 18.78125 -2.34375 C 17.6875 -1.25 16.609375 -0.488281 15.546875 -0.0625 C 14.484375 0.363281 13.210938 0.578125 11.734375 0.578125 C 8.429688 0.578125 5.9375 -0.632812 4.25 -3.0625 C 3.570312 -4.09375 3.09375 -5.21875 2.8125 -6.4375 C 2.53125 -7.664062 2.390625 -9.316406 2.390625 -11.390625 L 2.390625 -24.546875 L 8.28125 -24.546875 L 8.28125 -12.53125 C 8.28125 -9.4375 8.679688 -7.382812 9.484375 -6.375 C 10.242188 -5.34375 11.394531 -4.828125 12.9375 -4.828125 C 15.03125 -4.828125 16.519531 -5.582031 17.40625 -7.09375 C 18.03125 -8.03125 18.34375 -9.992188 18.34375 -12.984375 L 18.34375 -24.546875 Z M 24.234375 -24.546875 "/></g></g></g><g fill="#000000" fill-opacity="1"><g transform="translate(324.750774, 141.028956)"><g><path d="M 3.28125 0 L 3.28125 -19.171875 L 0.40625 -19.171875 L 0.40625 -24.546875 L 3.28125 -24.546875 L 3.28125 -32.734375 L 9.171875 -32.734375 L 9.171875 -24.546875 L 12.71875 -24.546875 L 12.71875 -19.171875 L 9.171875 -19.171875 L 9.171875 0 Z M 3.28125 0 "/></g></g></g><g fill="#000000" fill-opacity="1"><g transform="translate(338.036017, 141.028956)"><g><path d="M 2.390625 0 L 2.390625 -32.734375 L 8.28125 -32.734375 L 8.28125 -22.28125 C 9.40625 -23.40625 10.554688 -24.207031 11.734375 -24.6875 C 12.921875 -25.175781 14.3125 -25.421875 15.90625 -25.421875 C 19.414062 -25.421875 22.351562 -24.179688 24.71875 -21.703125 C 27.082031 -19.222656 28.265625 -16.140625 28.265625 -12.453125 C 28.265625 -9.109375 27.300781 -6.195312 25.375 -3.71875 C 23.132812 -0.851562 20.109375 0.578125 16.296875 0.578125 C 14.460938 0.578125 12.90625 0.296875 11.625 -0.265625 C 10.34375 -0.828125 9.066406 -1.785156 7.796875 -3.140625 L 7.796875 0 Z M 15.0625 -20.015625 C 12.988281 -20.015625 11.28125 -19.304688 9.9375 -17.890625 C 8.59375 -16.472656 7.921875 -14.660156 7.921875 -12.453125 C 7.921875 -10.203125 8.597656 -8.367188 9.953125 -6.953125 C 11.316406 -5.535156 13.0625 -4.828125 15.1875 -4.828125 C 17.289062 -4.828125 19.003906 -5.523438 20.328125 -6.921875 C 21.660156 -8.328125 22.328125 -10.15625 22.328125 -12.40625 C 22.328125 -14.59375 21.640625 -16.40625 20.265625 -17.84375 C 18.890625 -19.289062 17.15625 -20.015625 15.0625 -20.015625 Z M 15.0625 -20.015625 "/></g></g></g><g fill="#000000" fill-opacity="1"><g transform="translate(367.26351, 141.028956)"><g><path d="M 14.3125 -25.109375 C 18 -25.109375 21.101562 -23.851562 23.625 -21.34375 C 26.15625 -18.832031 27.421875 -15.75 27.421875 -12.09375 C 27.421875 -8.632812 26.132812 -5.65625 23.5625 -3.15625 C 21 -0.664062 17.925781 0.578125 14.34375 0.578125 C 10.75 0.578125 7.679688 -0.675781 5.140625 -3.1875 C 2.597656 -5.695312 1.328125 -8.722656 1.328125 -12.265625 C 1.328125 -15.785156 2.597656 -18.804688 5.140625 -21.328125 C 7.679688 -23.847656 10.738281 -25.109375 14.3125 -25.109375 Z M 14.34375 -19.71875 C 12.425781 -19.71875 10.765625 -18.992188 9.359375 -17.546875 C 7.960938 -16.097656 7.265625 -14.367188 7.265625 -12.359375 C 7.265625 -10.265625 7.957031 -8.484375 9.34375 -7.015625 C 10.726562 -5.554688 12.410156 -4.828125 14.390625 -4.828125 C 16.335938 -4.828125 18.003906 -5.550781 19.390625 -7 C 20.785156 -8.445312 21.484375 -10.203125 21.484375 -12.265625 C 21.484375 -14.304688 20.785156 -16.054688 19.390625 -17.515625 C 18.003906 -18.984375 16.320312 -19.71875 14.34375 -19.71875 Z M 14.34375 -19.71875 "/></g></g></g><g fill="#000000" fill-opacity="1"><g transform="translate(395.605326, 141.028956)"><g><path d="M 0.046875 0 L 8.71875 -12.671875 L 1.203125 -24.546875 L 7.84375 -24.546875 L 12.265625 -17.140625 L 16.609375 -24.546875 L 23.25 -24.546875 L 15.765625 -12.671875 L 24.5 0 L 17.40625 0 L 12.265625 -8.421875 L 7.125 0 Z M 0.046875 0 "/></g></g></g></svg>