<svg xmlns="http://www.w3.org/2000/svg" width="1000" height="360">
<rect width="100%" height="100%" fill="white"/>
<text x="75.0" y="24" font-family="sans-serif" font-size="18" font-weight="bold">Consumer JVM heap bytes during production</text>
<line x1="75.0" y1="45.0" x2="75.0" y2="305.0" stroke="#64748b"/>
<line x1="75.0" y1="305.0" x2="965.0" y2="305.0" stroke="#64748b"/>
<text x="8" y="50" font-family="sans-serif" font-size="12">205993352.00</text>
<polyline points="75.00,219.44 82.42,230.64 89.83,219.60 97.25,209.84 104.67,209.08 112.08,262.40 119.50,251.68 126.92,246.94 134.33,235.65 141.75,214.66 149.17,209.31 156.58,262.10 164.00,251.59 171.42,246.45 178.83,241.00 186.25,235.79 193.67,219.97 201.08,209.37 208.50,251.75 215.92,246.37 223.33,230.65 230.75,219.84 238.17,209.29 245.58,209.02 253.00,251.72 260.42,240.93 267.83,230.46 275.25,214.57 282.67,262.29 290.08,246.35 297.50,235.69 304.92,219.60 312.33,219.76 319.75,214.09 327.17,256.47 334.58,245.87 342.00,230.00 349.42,208.80 356.83,251.60 364.25,240.89 371.67,230.41 379.08,209.07 386.50,256.46 393.92,246.41 401.33,230.38 408.75,214.45 416.17,209.03 423.58,251.27 431.00,240.54 438.42,224.90 445.83,214.62 453.25,256.82 460.67,245.90 468.08,235.49 475.50,219.52 482.92,209.27 490.33,256.47 497.75,235.25 505.17,214.40 512.58,262.07 520.00,246.12 527.42,240.83 534.83,219.43 542.25,261.64 549.67,256.55 557.08,240.47 564.50,235.32 571.92,219.38 579.33,214.10 586.75,251.12 594.17,240.65 601.58,224.81 609.00,214.43 616.42,208.77 623.83,261.55 631.25,245.98 638.67,240.57 646.08,224.78 653.50,219.54 660.92,208.95 668.33,256.19 675.75,235.01 683.17,224.63 690.58,208.61 698.00,256.47 705.42,246.07 712.83,229.99 720.25,213.81 727.67,261.81 735.08,261.53 742.50,245.58 749.92,234.98 757.33,224.42 764.75,213.82 772.17,214.17 779.58,256.56 787.00,240.48 794.42,224.29 801.83,218.99 809.25,208.46 816.67,251.36 824.08,234.94 831.50,219.32 838.92,208.53 846.33,256.37 853.75,235.42 861.17,219.35 868.58,261.76 876.00,245.75 883.42,234.94 890.83,219.06 898.25,208.32 905.67,250.96 913.08,235.22 920.50,218.97 927.92,261.51 935.33,256.39 942.75,245.73 950.17,235.06 957.58,224.45 965.00,224.67" fill="none" stroke="#2563eb" stroke-width="2"/>
<text x="75.0" y="338" font-family="sans-serif" font-size="12" fill="#2563eb">consumer-1</text>
<polyline points="75.00,220.09 82.42,262.68 89.83,262.75 97.25,257.26 104.67,247.17 112.08,231.14 119.50,220.79 126.92,221.01 134.33,205.15 141.75,210.09 149.17,263.38 156.58,257.87 164.00,258.06 171.42,247.04 178.83,241.96 186.25,236.70 193.67,226.06 201.08,220.85 208.50,215.53 215.92,205.18 223.33,257.79 230.75,252.52 238.17,247.37 245.58,241.87 253.00,236.34 260.42,231.45 267.83,226.14 275.25,220.86 282.67,215.50 290.08,210.37 297.50,210.06 304.92,257.82 312.33,246.92 319.75,257.59 327.17,252.19 334.58,241.71 342.00,231.20 349.42,225.65 356.83,215.05 364.25,215.37 371.67,262.95 379.08,263.00 386.50,257.53 393.92,242.01 401.33,236.79 408.75,226.07 416.17,220.78 423.58,215.24 431.00,209.84 438.42,210.07 445.83,262.80 453.25,262.98 460.67,252.38 468.08,247.35 475.50,236.53 482.92,230.97 490.33,236.49 497.75,226.03 505.17,220.18 512.58,215.42 520.00,204.47 527.42,209.73 534.83,257.55 542.25,246.86 549.67,241.53 557.08,236.06 564.50,231.28 571.92,220.45 579.33,204.79 586.75,257.39 594.17,252.11 601.58,246.95 609.00,241.86 616.42,236.37 623.83,225.60 631.25,215.23 638.67,209.86 646.08,209.64 653.50,209.73 660.92,257.20 668.33,246.62 675.75,241.24 683.17,230.80 690.58,220.35 698.00,215.18 705.42,209.55 712.83,209.59 720.25,262.86 727.67,257.32 735.08,246.61 742.50,246.60 749.92,230.60 757.33,225.46 764.75,214.78 772.17,209.41 779.58,204.16 787.00,262.39 794.42,262.46 801.83,246.91 809.25,246.59 816.67,241.20 824.08,236.07 831.50,225.34 838.92,214.55 846.33,215.03 853.75,215.18 861.17,203.98 868.58,262.80 876.00,257.37 883.42,257.02 890.83,252.12 898.25,246.68 905.67,241.37 913.08,230.85 920.50,225.40 927.92,214.72 935.33,209.66 942.75,209.44 950.17,262.59 957.58,257.28 965.00,257.19" fill="none" stroke="#dc2626" stroke-width="2"/>
<text x="255.0" y="338" font-family="sans-serif" font-size="12" fill="#dc2626">consumer-2</text>
<polyline points="75.00,261.52 82.42,240.34 89.83,229.92 97.25,219.53 104.67,203.80 112.08,256.77 119.50,251.62 126.92,241.24 134.33,235.63 141.75,230.40 149.17,219.82 156.58,214.66 164.00,209.29 171.42,204.18 178.83,251.73 186.25,241.20 193.67,235.91 201.08,230.49 208.50,220.04 215.92,209.28 223.33,251.71 230.75,235.61 238.17,225.27 245.58,214.53 253.00,251.23 260.42,235.70 267.83,225.12 275.25,214.58 282.67,257.00 290.08,251.60 297.50,240.88 304.92,225.00 312.33,214.50 319.75,209.37 327.17,214.21 334.58,251.48 342.00,235.36 349.42,219.96 356.83,261.76 364.25,240.83 371.67,230.30 379.08,225.17 386.50,214.53 393.92,262.14 401.33,251.53 408.75,240.87 416.17,230.27 423.58,214.29 431.00,256.52 438.42,235.62 445.83,225.00 453.25,208.99 460.67,262.02 468.08,251.52 475.50,240.80 482.92,225.06 490.33,224.93 497.75,208.76 505.17,256.64 512.58,240.75 520.00,230.17 527.42,209.02 534.83,256.74 542.25,251.29 549.67,235.21 557.08,219.38 564.50,208.91 571.92,251.31 579.33,245.93 586.75,235.41 594.17,224.72 601.58,214.15 609.00,261.77 616.42,251.09 623.83,240.43 631.25,219.12 638.67,208.57 646.08,251.47 653.50,246.13 660.92,235.19 668.33,224.50 675.75,208.58 683.17,250.88 690.58,240.36 698.00,224.53 705.42,213.79 712.83,256.73 720.25,246.12 727.67,235.34 735.08,219.38 742.50,219.29 749.92,256.27 757.33,240.26 764.75,229.72 772.17,213.91 779.58,251.01 787.00,245.49 794.42,240.77 801.83,229.87 809.25,219.32 816.67,261.39 824.08,251.18 831.50,235.09 838.92,213.71 846.33,261.88 853.75,250.80 861.17,240.66 868.58,229.90 876.00,213.99 883.42,208.56 890.83,250.94 898.25,240.65 905.67,235.28 913.08,219.20 920.50,214.04 927.92,256.40 935.33,240.41 942.75,229.89 950.17,213.74 957.58,261.70 965.00,256.13" fill="none" stroke="#16a34a" stroke-width="2"/>
<text x="435.0" y="338" font-family="sans-serif" font-size="12" fill="#16a34a">consumer-3</text>
<polyline points="75.00,225.16 82.42,193.39 89.83,129.87 97.25,255.73 104.67,186.91 112.08,118.09 119.50,256.85 126.92,182.74 134.33,113.92 141.75,55.68 149.17,193.95 156.58,119.83 164.00,56.30 171.42,204.78 178.83,130.66 186.25,56.55 193.67,204.28 201.08,135.46 208.50,66.64 215.92,209.86 223.33,146.33 230.75,77.51 238.17,220.45 245.58,146.33 253.00,82.80 260.42,214.87 267.83,140.75 275.25,77.23 282.67,220.79 290.08,151.97 297.50,83.15 304.92,225.74 312.33,162.21 319.75,103.98 327.17,246.63 334.58,172.52 342.00,98.40 349.42,235.31 356.83,171.78 364.25,97.67 371.67,236.15 379.08,172.63 386.50,103.81 393.92,251.26 401.33,187.73 408.75,124.20 416.17,50.09 423.58,209.03 431.00,134.91 438.42,71.39 445.83,224.99 453.25,150.88 460.67,87.35 468.08,235.81 475.50,166.99 482.92,98.16 490.33,251.11 497.75,182.29 505.17,118.76 512.58,49.94 520.00,203.71 527.42,134.88 534.83,71.36 542.25,224.89 549.67,156.06 557.08,92.54 564.50,240.88 571.92,177.35 579.33,113.82 586.75,45.00 594.17,198.37 601.58,124.26 609.00,55.43 616.42,203.77 623.83,145.54 631.25,66.13 638.67,214.44 646.08,150.92 653.50,87.39 660.92,235.42 668.33,166.60 675.75,103.08 683.17,251.10 690.58,192.87 698.00,124.05 705.42,49.93 712.83,208.98 720.25,134.87 727.67,66.05 735.08,225.05 742.50,156.23 749.92,92.70 757.33,245.81 764.75,187.57 772.17,113.46 779.58,49.93 787.00,198.06 794.42,129.24 801.83,60.42 809.25,203.63 816.67,140.11 824.08,71.29 831.50,219.26 838.92,150.44 846.33,86.91 853.75,235.58 861.17,172.05 868.58,103.23 876.00,251.38 883.42,187.85 890.83,119.03 898.25,261.89 905.67,193.07 913.08,129.54 920.50,60.72 927.92,214.09 935.33,145.27 942.75,76.45 950.17,224.72 957.58,161.20 965.00,97.67" fill="none" stroke="#9333ea" stroke-width="2"/>
<text x="615.0" y="338" font-family="sans-serif" font-size="12" fill="#9333ea">consumer-4</text>
</svg>
