<svg xmlns="http://www.w3.org/2000/svg" width="1000" height="360">
<rect width="100%" height="100%" fill="white"/>
<text x="75.0" y="24" font-family="sans-serif" font-size="18" font-weight="bold">Consumer process CPU usage during production</text>
<line x1="75.0" y1="45.0" x2="75.0" y2="305.0" stroke="#64748b"/>
<line x1="75.0" y1="305.0" x2="965.0" y2="305.0" stroke="#64748b"/>
<text x="8" y="50" font-family="sans-serif" font-size="12">1.00</text>
<polyline points="75.00,301.16 82.42,292.57 89.83,291.15 97.25,292.86 104.67,295.26 112.08,294.47 119.50,293.97 126.92,294.54 134.33,294.41 141.75,293.13 149.17,294.52 156.58,294.15 164.00,293.94 171.42,294.92 178.83,295.28 186.25,295.77 193.67,294.98 201.08,294.88 208.50,294.18 215.92,295.80 223.33,294.83 230.75,295.48 238.17,295.98 245.58,296.65 253.00,295.15 260.42,295.02 267.83,295.35 275.25,294.95 282.67,295.16 290.08,294.87 297.50,295.39 304.92,295.50 312.33,296.53 319.75,296.66 327.17,296.54 334.58,295.68 342.00,295.92 349.42,295.45 356.83,295.91 364.25,295.49 371.67,295.34 379.08,294.70 386.50,295.46 393.92,296.14 401.33,295.23 408.75,293.95 416.17,295.60 423.58,295.19 431.00,295.67 438.42,294.44 445.83,294.16 453.25,295.05 460.67,295.74 468.08,295.70 475.50,295.43 482.92,295.47 490.33,296.06 497.75,294.97 505.17,294.95 512.58,295.57 520.00,295.41 527.42,296.02 534.83,295.05 542.25,294.65 549.67,296.13 557.08,295.43 564.50,296.39 571.92,295.53 579.33,296.54 586.75,294.99 594.17,296.25 601.58,295.74 609.00,295.96 616.42,296.32 623.83,296.60 631.25,295.44 638.67,296.02 646.08,295.57 653.50,296.22 660.92,295.40 668.33,295.80 675.75,295.02 683.17,296.31 690.58,295.79 698.00,296.07 705.42,295.46 712.83,293.90 720.25,296.22 727.67,296.94 735.08,297.55 742.50,295.83 749.92,296.19 757.33,295.37 764.75,296.57 772.17,296.92 779.58,296.57 787.00,295.77 794.42,295.40 801.83,296.36 809.25,296.54 816.67,295.54 824.08,295.64 831.50,295.48 838.92,295.96 846.33,294.91 853.75,293.41 861.17,295.23 868.58,295.61 876.00,294.81 883.42,296.40 890.83,295.05 898.25,296.41 905.67,295.28 913.08,295.39 920.50,295.33 927.92,294.98 935.33,296.02 942.75,296.06 950.17,295.91 957.58,295.92 965.00,297.36" fill="none" stroke="#2563eb" stroke-width="2"/>
<text x="75.0" y="338" font-family="sans-serif" font-size="12" fill="#2563eb">consumer-1</text>
<polyline points="75.00,289.90 82.42,303.24 89.83,285.64 97.25,295.02 104.67,294.57 112.08,292.97 119.50,292.76 126.92,294.84 134.33,293.90 141.75,295.40 149.17,294.83 156.58,295.06 164.00,295.89 171.42,294.83 178.83,294.64 186.25,293.30 193.67,294.39 201.08,295.42 208.50,295.26 215.92,293.66 223.33,294.35 230.75,294.52 238.17,295.15 245.58,295.89 253.00,295.34 260.42,294.95 267.83,295.62 275.25,295.53 282.67,294.06 290.08,294.87 297.50,295.16 304.92,294.34 312.33,295.07 319.75,298.07 327.17,296.45 334.58,296.39 342.00,295.09 349.42,295.82 356.83,296.28 364.25,296.34 371.67,295.07 379.08,295.62 386.50,295.49 393.92,294.75 401.33,295.41 408.75,294.93 416.17,295.42 423.58,296.09 431.00,296.14 438.42,295.30 445.83,293.69 453.25,294.73 460.67,295.50 468.08,295.55 475.50,295.84 482.92,295.58 490.33,296.84 497.75,296.13 505.17,296.21 512.58,295.87 520.00,295.60 527.42,296.04 534.83,295.00 542.25,295.91 549.67,295.36 557.08,296.05 564.50,295.11 571.92,294.99 579.33,295.42 586.75,294.77 594.17,296.22 601.58,296.81 609.00,295.57 616.42,295.83 623.83,296.19 631.25,295.37 638.67,295.09 646.08,296.44 653.50,296.39 660.92,294.54 668.33,295.96 675.75,295.45 683.17,295.72 690.58,296.00 698.00,296.02 705.42,295.65 712.83,296.16 720.25,294.87 727.67,296.98 735.08,295.54 742.50,296.54 749.92,295.58 757.33,296.44 764.75,295.35 772.17,296.31 779.58,296.33 787.00,296.08 794.42,296.41 801.83,295.38 809.25,296.89 816.67,295.94 824.08,295.98 831.50,295.35 838.92,296.07 846.33,296.64 853.75,296.72 861.17,295.52 868.58,295.48 876.00,295.80 883.42,296.96 890.83,296.17 898.25,296.01 905.67,295.84 913.08,295.48 920.50,296.09 927.92,293.42 935.33,295.69 942.75,295.70 950.17,295.32 957.58,295.96 965.00,295.77" fill="none" stroke="#dc2626" stroke-width="2"/>
<text x="255.0" y="338" font-family="sans-serif" font-size="12" fill="#dc2626">consumer-2</text>
<polyline points="75.00,273.81 82.42,301.64 89.83,292.87 97.25,293.20 104.67,293.90 112.08,293.47 119.50,293.62 126.92,294.75 134.33,295.13 141.75,291.99 149.17,294.63 156.58,295.17 164.00,293.47 171.42,294.69 178.83,293.13 186.25,295.08 193.67,295.09 201.08,295.06 208.50,293.44 215.92,295.08 223.33,294.42 230.75,294.51 238.17,295.21 245.58,295.62 253.00,294.15 260.42,294.78 267.83,295.39 275.25,295.36 282.67,294.64 290.08,294.45 297.50,295.83 304.92,294.63 312.33,295.84 319.75,296.98 327.17,296.53 334.58,296.35 342.00,296.24 349.42,295.90 356.83,295.30 364.25,294.32 371.67,295.45 379.08,295.99 386.50,295.95 393.92,295.69 401.33,295.47 408.75,295.69 416.17,295.67 423.58,295.26 431.00,294.87 438.42,294.35 445.83,294.73 453.25,294.37 460.67,296.04 468.08,296.04 475.50,295.53 482.92,295.33 490.33,296.98 497.75,295.95 505.17,295.89 512.58,295.06 520.00,296.23 527.42,294.22 534.83,295.63 542.25,296.51 549.67,295.35 557.08,295.40 564.50,295.98 571.92,294.91 579.33,297.04 586.75,296.06 594.17,295.64 601.58,296.46 609.00,295.42 616.42,295.82 623.83,295.78 631.25,295.47 638.67,295.78 646.08,295.16 653.50,296.80 660.92,295.39 668.33,296.16 675.75,295.86 683.17,295.22 690.58,296.54 698.00,295.22 705.42,295.61 712.83,293.79 720.25,296.37 727.67,296.83 735.08,296.00 742.50,296.82 749.92,295.36 757.33,295.78 764.75,296.46 772.17,294.70 779.58,295.21 787.00,297.18 794.42,296.42 801.83,295.86 809.25,296.39 816.67,295.53 824.08,296.19 831.50,295.82 838.92,295.07 846.33,295.05 853.75,296.52 861.17,296.03 868.58,295.68 876.00,295.90 883.42,296.32 890.83,295.70 898.25,296.10 905.67,296.20 913.08,295.36 920.50,295.24 927.92,294.98 935.33,295.19 942.75,295.19 950.17,295.38 957.58,295.76 965.00,296.11" fill="none" stroke="#16a34a" stroke-width="2"/>
<text x="435.0" y="338" font-family="sans-serif" font-size="12" fill="#16a34a">consumer-3</text>
<polyline points="75.00,284.34 82.42,296.50 89.83,291.50 97.25,293.71 104.67,293.08 112.08,294.86 119.50,293.76 126.92,295.17 134.33,295.58 141.75,296.12 149.17,294.98 156.58,294.45 164.00,295.76 171.42,295.31 178.83,294.96 186.25,292.80 193.67,295.52 201.08,295.10 208.50,295.14 215.92,294.47 223.33,296.05 230.75,295.17 238.17,294.66 245.58,295.36 253.00,295.12 260.42,294.30 267.83,294.34 275.25,295.32 282.67,294.06 290.08,295.07 297.50,295.55 304.92,294.71 312.33,296.65 319.75,296.97 327.17,295.66 334.58,296.47 342.00,295.13 349.42,295.12 356.83,296.95 364.25,295.05 371.67,294.65 379.08,295.22 386.50,295.48 393.92,295.39 401.33,295.68 408.75,296.09 416.17,295.76 423.58,296.07 431.00,294.92 438.42,296.12 445.83,294.89 453.25,293.34 460.67,295.88 468.08,295.18 475.50,294.85 482.92,295.62 490.33,296.38 497.75,295.45 505.17,296.85 512.58,295.75 520.00,294.97 527.42,295.45 534.83,296.72 542.25,296.21 549.67,295.12 557.08,296.23 564.50,294.45 571.92,296.29 579.33,296.37 586.75,295.79 594.17,296.61 601.58,295.32 609.00,295.94 616.42,295.16 623.83,295.49 631.25,295.71 638.67,294.78 646.08,296.26 653.50,297.18 660.92,294.40 668.33,295.76 675.75,296.11 683.17,296.23 690.58,296.89 698.00,296.17 705.42,295.92 712.83,295.96 720.25,293.91 727.67,296.80 735.08,296.82 742.50,296.55 749.92,295.39 757.33,296.44 764.75,296.94 772.17,295.65 779.58,296.83 787.00,295.33 794.42,295.65 801.83,295.97 809.25,295.74 816.67,295.30 824.08,296.38 831.50,296.90 838.92,295.70 846.33,295.98 853.75,295.97 861.17,296.01 868.58,295.82 876.00,295.18 883.42,296.83 890.83,295.53 898.25,293.94 905.67,295.76 913.08,296.13 920.50,295.93 927.92,295.91 935.33,294.97 942.75,295.80 950.17,295.04 957.58,296.14 965.00,296.34" fill="none" stroke="#9333ea" stroke-width="2"/>
<text x="615.0" y="338" font-family="sans-serif" font-size="12" fill="#9333ea">consumer-4</text>
</svg>
