<svg xmlns="http://www.w3.org/2000/svg" width="1000" height="360">
<rect width="100%" height="100%" fill="white"/>
<text x="75.0" y="24" font-family="sans-serif" font-size="18" font-weight="bold">PostgreSQL commits / second during production</text>
<line x1="75.0" y1="45.0" x2="75.0" y2="305.0" stroke="#64748b"/>
<line x1="75.0" y1="305.0" x2="965.0" y2="305.0" stroke="#64748b"/>
<text x="8" y="50" font-family="sans-serif" font-size="12">11528.78</text>
<polyline points="75.00,243.87 82.42,236.29 89.83,214.62 97.25,186.83 104.67,156.89 112.08,129.46 119.50,108.06 126.92,96.08 134.33,85.31 141.75,74.71 149.17,55.96 156.58,48.47 164.00,48.68 171.42,51.66 178.83,53.67 186.25,55.55 193.67,53.68 201.08,56.29 208.50,53.75 215.92,53.11 223.33,54.27 230.75,54.95 238.17,55.90 245.58,54.10 253.00,53.49 260.42,55.14 267.83,52.26 275.25,55.20 282.67,54.39 290.08,54.53 297.50,53.49 304.92,52.44 312.33,51.27 319.75,55.76 327.17,57.95 334.58,60.15 342.00,59.37 349.42,57.74 356.83,55.80 364.25,59.50 371.67,60.85 379.08,61.80 386.50,53.81 393.92,52.53 401.33,52.05 408.75,50.34 416.17,52.19 423.58,52.08 431.00,48.79 438.42,47.60 445.83,47.04 453.25,51.29 460.67,47.11 468.08,46.85 475.50,50.38 482.92,50.05 490.33,49.30 497.75,47.32 505.17,48.01 512.58,50.61 520.00,50.46 527.42,51.65 534.83,51.48 542.25,47.64 549.67,48.08 557.08,50.48 564.50,54.32 571.92,53.27 579.33,50.76 586.75,49.15 594.17,50.06 601.58,50.07 609.00,53.66 616.42,49.35 623.83,49.61 631.25,50.46 638.67,53.06 646.08,51.85 653.50,49.12 660.92,50.84 668.33,52.20 675.75,51.40 683.17,54.33 690.58,54.17 698.00,52.41 705.42,50.43 712.83,50.74 720.25,53.74 727.67,51.38 735.08,49.81 742.50,50.32 749.92,51.09 757.33,49.53 764.75,50.31 772.17,50.32 779.58,51.40 787.00,54.23 794.42,54.89 801.83,54.82 809.25,54.32 816.67,54.30 824.08,56.56 831.50,53.00 838.92,51.68 846.33,51.96 853.75,46.02 861.17,47.10 868.58,48.58 876.00,46.69 883.42,45.59 890.83,45.00 898.25,49.96 905.67,49.19 913.08,50.20 920.50,52.17 927.92,51.86 935.33,51.77 942.75,51.29 950.17,54.63 957.58,52.73 965.00,48.81" fill="none" stroke="#2563eb" stroke-width="2"/>
<text x="75.0" y="338" font-family="sans-serif" font-size="12" fill="#2563eb">series-1</text>
</svg>
