<svg xmlns="http://www.w3.org/2000/svg" width="1000" height="360">
<rect width="100%" height="100%" fill="white"/>
<text x="75.0" y="24" font-family="sans-serif" font-size="18" font-weight="bold">Produced vs processed records / second</text>
<line x1="75.0" y1="45.0" x2="75.0" y2="305.0" stroke="#64748b"/>
<line x1="75.0" y1="305.0" x2="965.0" y2="305.0" stroke="#64748b"/>
<text x="8" y="50" font-family="sans-serif" font-size="12">10287.62</text>
<polyline points="75.00,52.23 114.21,52.31 153.41,52.29 192.60,52.17 231.87,52.73 271.17,51.89 310.61,52.33 350.23,52.43 389.68,51.88 429.13,52.34 468.92,52.07 508.66,52.30 548.35,52.37 588.03,52.35 627.83,52.60 667.70,51.61 707.67,52.72 747.74,52.35 787.74,51.91 828.35,52.79 868.57,51.92 909.06,52.53 949.32,52.09 965.00,56.03" fill="none" stroke="#2563eb" stroke-width="2"/>
<text x="75.0" y="338" font-family="sans-serif" font-size="12" fill="#2563eb">produced</text>
<polyline points="75.00,49.33 114.21,51.37 153.41,52.05 192.60,52.46 231.87,51.74 271.17,52.29 310.61,60.34 350.23,45.00 389.68,52.62 429.13,52.10 468.92,55.66 508.66,49.86 548.35,50.89 588.03,52.85 627.83,52.67 667.70,52.91 707.67,50.98 747.74,55.14 787.74,54.21 828.35,46.81 868.57,52.44 909.06,52.87 949.32,51.84 965.00,73.62" fill="none" stroke="#dc2626" stroke-width="2"/>
<text x="255.0" y="338" font-family="sans-serif" font-size="12" fill="#dc2626">processed</text>
</svg>
