<svg xmlns="http://www.w3.org/2000/svg" width="1000" height="360">
<rect width="100%" height="100%" fill="white"/>
<text x="75.0" y="24" font-family="sans-serif" font-size="18" font-weight="bold">Processed records / second by consumer during production</text>
<line x1="75.0" y1="45.0" x2="75.0" y2="305.0" stroke="#64748b"/>
<line x1="75.0" y1="305.0" x2="965.0" y2="305.0" stroke="#64748b"/>
<text x="8" y="50" font-family="sans-serif" font-size="12">2741.44</text>
<polyline points="75.00,185.78 82.42,176.04 89.83,152.61 97.25,143.30 104.67,94.69 112.08,63.87 119.50,67.78 126.92,67.26 134.33,62.82 141.75,54.15 149.17,51.49 156.58,50.71 164.00,52.18 171.42,67.80 178.83,70.22 186.25,73.69 193.67,72.70 201.08,68.10 208.50,66.12 215.92,70.59 223.33,71.03 230.75,73.34 238.17,77.81 245.58,82.29 253.00,82.98 260.42,80.70 267.83,78.78 275.25,66.81 282.67,66.88 290.08,64.10 297.50,64.21 304.92,66.47 312.33,76.08 319.75,86.42 327.17,85.11 334.58,81.38 342.00,70.80 349.42,54.27 356.83,50.90 364.25,56.84 371.67,59.45 379.08,60.37 386.50,62.07 393.92,63.23 401.33,61.11 408.75,64.93 416.17,69.89 423.58,65.28 431.00,67.86 438.42,67.64 445.83,65.87 453.25,65.17 460.67,67.35 468.08,70.41 475.50,67.32 482.92,69.90 490.33,68.74 497.75,61.07 505.17,54.53 512.58,52.96 520.00,50.93 527.42,64.11 534.83,66.04 542.25,62.73 549.67,66.88 557.08,58.53 564.50,70.72 571.92,73.40 579.33,74.58 586.75,74.89 594.17,67.00 601.58,68.73 609.00,65.02 616.42,74.26 623.83,82.57 631.25,80.73 638.67,82.34 646.08,73.42 653.50,73.66 660.92,78.21 668.33,75.49 675.75,71.01 683.17,67.14 690.58,61.92 698.00,63.01 705.42,69.68 712.83,62.92 720.25,63.52 727.67,65.87 735.08,81.01 742.50,81.77 749.92,81.48 757.33,77.03 764.75,67.12 772.17,76.34 779.58,83.70 787.00,79.40 794.42,73.87 801.83,70.01 809.25,67.64 816.67,71.83 824.08,69.26 831.50,60.10 838.92,59.74 846.33,59.60 853.75,55.57 861.17,57.16 868.58,56.02 876.00,48.86 883.42,60.09 890.83,62.35 898.25,63.01 905.67,67.97 913.08,63.36 920.50,62.99 927.92,57.80 935.33,65.29 942.75,69.30 950.17,74.54 957.58,80.51 965.00,88.43" fill="none" stroke="#2563eb" stroke-width="2"/>
<text x="75.0" y="338" font-family="sans-serif" font-size="12" fill="#2563eb">consumer-1</text>
<polyline points="75.00,170.06 82.42,188.28 89.83,170.26 97.25,163.00 104.67,131.15 112.08,65.61 119.50,58.09 126.92,55.57 134.33,57.15 141.75,69.44 149.17,74.09 156.58,73.89 164.00,84.95 171.42,77.14 178.83,75.18 186.25,78.17 193.67,66.85 201.08,72.47 208.50,74.06 215.92,64.16 223.33,65.76 230.75,61.99 238.17,61.05 245.58,70.74 253.00,74.51 260.42,75.33 267.83,75.75 275.25,73.41 282.67,75.80 290.08,75.48 297.50,75.15 304.92,70.33 312.33,64.12 319.75,79.66 327.17,81.90 334.58,82.57 342.00,80.60 349.42,62.94 356.83,58.42 364.25,63.35 371.67,63.70 379.08,71.83 386.50,73.88 393.92,63.30 401.33,65.34 408.75,59.62 416.17,55.33 423.58,64.72 431.00,70.80 438.42,76.42 445.83,79.76 453.25,80.86 460.67,77.79 468.08,70.16 475.50,70.58 482.92,67.34 490.33,75.22 497.75,79.56 505.17,75.77 512.58,76.61 520.00,67.19 527.42,69.58 534.83,70.02 542.25,67.52 549.67,69.45 557.08,67.55 564.50,68.80 571.92,64.93 579.33,55.92 586.75,47.63 594.17,53.01 601.58,61.00 609.00,67.61 616.42,76.55 623.83,70.97 631.25,63.20 638.67,62.97 646.08,66.52 653.50,72.41 660.92,72.34 668.33,73.09 675.75,64.34 683.17,58.25 690.58,62.07 698.00,63.18 705.42,67.05 712.83,71.29 720.25,74.39 727.67,76.86 735.08,71.60 742.50,74.12 749.92,64.48 757.33,61.38 764.75,60.86 772.17,58.53 779.58,66.23 787.00,69.23 794.42,78.10 801.83,69.86 809.25,75.10 816.67,74.63 824.08,71.47 831.50,71.25 838.92,63.54 846.33,69.54 853.75,74.31 861.17,75.15 868.58,78.93 876.00,72.66 883.42,76.32 890.83,79.47 898.25,80.75 905.67,79.71 913.08,66.10 920.50,70.90 927.92,67.49 935.33,68.44 942.75,74.06 950.17,69.99 957.58,73.07 965.00,76.26" fill="none" stroke="#dc2626" stroke-width="2"/>
<text x="255.0" y="338" font-family="sans-serif" font-size="12" fill="#dc2626">consumer-2</text>
<polyline points="75.00,162.56 82.42,172.80 89.83,152.63 97.25,136.61 104.67,113.14 112.08,58.47 119.50,57.53 126.92,57.34 134.33,64.51 141.75,69.72 149.17,63.02 156.58,72.92 164.00,71.81 171.42,68.06 178.83,65.07 186.25,60.42 193.67,58.56 201.08,63.16 208.50,64.11 215.92,67.32 223.33,64.01 230.75,59.75 238.17,64.56 245.58,63.02 253.00,55.40 260.42,52.95 267.83,56.32 275.25,57.15 282.67,66.56 290.08,75.92 297.50,76.74 304.92,68.34 312.33,73.75 319.75,79.05 327.17,82.72 334.58,87.96 342.00,80.34 349.42,67.71 356.83,53.95 364.25,45.00 371.67,50.07 379.08,58.98 386.50,68.32 393.92,81.00 401.33,77.43 408.75,74.74 416.17,72.71 423.58,68.38 431.00,64.99 438.42,54.24 445.83,52.70 453.25,54.19 460.67,66.01 468.08,74.71 475.50,75.56 482.92,74.27 490.33,77.51 497.75,74.68 505.17,74.38 512.58,72.18 520.00,65.45 527.42,57.75 534.83,59.90 542.25,67.90 549.67,61.76 557.08,69.32 564.50,67.99 571.92,61.66 579.33,71.67 586.75,75.44 594.17,75.39 601.58,76.86 609.00,70.98 616.42,71.10 623.83,72.64 631.25,67.04 638.67,65.15 646.08,59.20 653.50,64.29 660.92,71.62 668.33,74.66 675.75,76.86 683.17,65.62 690.58,66.33 698.00,58.67 705.42,57.79 712.83,59.81 720.25,58.91 727.67,65.93 735.08,69.58 742.50,78.21 749.92,70.39 757.33,65.17 764.75,65.05 772.17,53.47 779.58,53.80 787.00,63.91 794.42,69.30 801.83,73.99 809.25,82.42 816.67,73.56 824.08,68.63 831.50,64.29 838.92,55.22 846.33,54.55 853.75,57.47 861.17,61.10 868.58,70.29 876.00,74.23 883.42,73.79 890.83,72.31 898.25,71.76 905.67,74.82 913.08,71.06 920.50,77.67 927.92,74.73 935.33,68.02 942.75,65.55 950.17,59.43 957.58,63.70 965.00,70.51" fill="none" stroke="#16a34a" stroke-width="2"/>
<text x="435.0" y="338" font-family="sans-serif" font-size="12" fill="#16a34a">consumer-3</text>
<polyline points="75.00,174.06 82.42,177.86 89.83,158.26 97.25,144.57 104.67,105.86 112.08,61.97 119.50,57.63 126.92,63.65 134.33,69.32 141.75,76.58 149.17,79.13 156.58,72.40 164.00,71.90 171.42,66.45 178.83,61.73 186.25,65.53 193.67,66.38 201.08,63.87 208.50,68.13 215.92,71.98 223.33,73.47 230.75,75.77 238.17,71.84 245.58,71.55 253.00,62.87 260.42,57.37 267.83,50.61 275.25,50.73 282.67,58.11 290.08,61.02 297.50,69.51 304.92,69.43 312.33,70.82 319.75,81.40 327.17,84.56 334.58,76.80 342.00,64.36 349.42,49.72 356.83,47.63 364.25,50.48 371.67,56.11 379.08,60.95 386.50,58.63 393.92,67.45 401.33,67.73 408.75,74.62 416.17,74.40 423.58,74.47 431.00,70.02 438.42,69.69 445.83,71.49 453.25,63.94 460.67,72.67 468.08,61.23 475.50,56.42 482.92,59.13 490.33,61.56 497.75,69.25 505.17,77.45 512.58,76.75 520.00,68.99 527.42,65.88 534.83,72.27 542.25,76.17 549.67,77.78 557.08,78.05 564.50,65.29 571.92,67.92 579.33,71.17 586.75,71.36 594.17,78.78 601.58,63.91 609.00,63.96 616.42,61.24 623.83,59.84 631.25,62.80 638.67,53.29 646.08,60.19 653.50,63.90 660.92,65.67 668.33,71.03 675.75,67.09 683.17,63.54 690.58,70.86 698.00,72.21 705.42,71.56 712.83,72.26 720.25,63.42 727.67,62.34 735.08,71.45 742.50,70.15 749.92,77.45 757.33,81.27 764.75,77.62 772.17,69.11 779.58,73.78 787.00,68.21 794.42,59.23 801.83,65.29 809.25,53.62 816.67,53.39 824.08,58.74 831.50,57.67 838.92,62.18 846.33,66.69 853.75,65.57 861.17,66.62 868.58,69.65 876.00,66.78 883.42,71.48 890.83,65.22 898.25,53.02 905.67,53.81 913.08,52.44 920.50,58.58 927.92,71.21 935.33,67.61 942.75,66.81 950.17,63.32 957.58,62.77 965.00,72.95" fill="none" stroke="#9333ea" stroke-width="2"/>
<text x="615.0" y="338" font-family="sans-serif" font-size="12" fill="#9333ea">consumer-4</text>
</svg>
