<svg xmlns="http://www.w3.org/2000/svg" width="1000" height="360">
<rect width="100%" height="100%" fill="white"/>
<text x="75.0" y="24" font-family="sans-serif" font-size="18" font-weight="bold">Processed outbox records / second during production</text>
<line x1="75.0" y1="45.0" x2="75.0" y2="305.0" stroke="#64748b"/>
<line x1="75.0" y1="305.0" x2="965.0" y2="305.0" stroke="#64748b"/>
<text x="8" y="50" font-family="sans-serif" font-size="12">10640.00</text>
<polyline points="75.00,169.08 82.42,174.88 89.83,153.95 97.25,142.03 104.67,105.28 112.08,55.05 119.50,52.76 126.92,53.48 134.33,56.06 141.75,60.20 149.17,59.64 156.58,60.21 164.00,63.02 171.42,62.67 178.83,60.80 186.25,62.24 193.67,58.81 201.08,59.61 208.50,60.86 215.92,61.27 223.33,61.33 230.75,60.45 238.17,61.58 245.58,64.76 253.00,61.71 260.42,59.29 267.83,58.03 275.25,54.59 282.67,59.54 290.08,61.91 297.50,64.25 304.92,61.41 312.33,64.04 319.75,74.79 327.17,76.80 334.58,75.36 342.00,66.95 349.42,51.12 356.83,45.00 364.25,46.23 371.67,49.75 379.08,55.63 386.50,58.40 393.92,61.51 401.33,60.64 408.75,61.24 416.17,60.83 423.58,60.96 431.00,61.18 438.42,59.71 445.83,60.18 453.25,58.72 460.67,63.79 468.08,61.91 475.50,60.20 482.92,60.39 490.33,63.59 497.75,63.98 505.17,63.35 512.58,62.42 520.00,55.73 527.42,56.96 534.83,59.77 542.25,61.34 549.67,61.74 557.08,61.12 564.50,60.95 571.92,59.69 579.33,61.09 586.75,60.05 594.17,61.30 601.58,60.36 609.00,59.60 616.42,63.61 623.83,64.36 631.25,61.20 638.67,58.62 646.08,57.48 653.50,61.33 660.92,64.83 668.33,66.48 675.75,62.62 683.17,56.25 690.58,57.96 698.00,56.90 705.42,59.22 712.83,59.27 720.25,57.72 727.67,60.49 735.08,66.32 742.50,69.05 749.92,66.36 757.33,64.05 764.75,60.40 772.17,56.99 779.58,62.16 787.00,63.00 794.42,62.93 801.83,62.59 809.25,62.49 816.67,61.11 824.08,59.74 831.50,55.93 838.92,52.67 846.33,55.17 853.75,55.83 861.17,57.66 868.58,61.49 876.00,58.30 883.42,63.23 890.83,62.64 898.25,59.85 905.67,61.85 913.08,55.84 920.50,60.26 927.92,60.55 935.33,60.06 942.75,61.70 950.17,59.53 957.58,62.82 965.00,70.06" fill="none" stroke="#2563eb" stroke-width="2"/>
<text x="75.0" y="338" font-family="sans-serif" font-size="12" fill="#2563eb">series-1</text>
</svg>
